<svg xmlns="http://www.w3.org/2000/svg" xmlns:xlink="http://www.w3.org/1999/xlink" width="1010" height="673.01"><rect width="1010" height="673.01" rx="0" ry="0" class="a"/><svg height="673.01" viewBox="0 0 101 67.301" width="1010" xmlns="http://www.w3.org/2000/svg" xmlns:xlink="http://www.w3.org/1999/xlink"><style>@keyframes h{0%{transform:translateX(0)}.3%{transform:translateX(-101px)}8.4%{transform:translateX(-202px)}9.4%{transform:translateX(-303px)}10.6%{transform:translateX(-404px)}11.3%{transform:translateX(-505px)}12.8%{transform:translateX(-606px)}14%{transform:translateX(-707px)}15%{transform:translateX(-808px)}16.4%{transform:translateX(-909px)}17.9%{transform:translateX(-1010px)}38.8%{transform:translateX(-1111px)}40.5%{transform:translateX(-1212px)}41.9%{transform:translateX(-1313px)}42.7%{transform:translateX(-1414px)}44%{transform:translateX(-1515px)}45.4%{transform:translateX(-1616px)}47.4%{transform:translateX(-1717px)}48.4%{transform:translateX(-1818px)}48.9%{transform:translateX(-1919px)}49.6%{transform:translateX(-2020px)}51.3%{transform:translateX(-2121px)}52.4%{transform:translateX(-2222px)}53.2%{transform:translateX(-2323px)}53.9%{transform:translateX(-2424px)}57.1%{transform:translateX(-2525px)}57.2%{transform:translateX(-2626px)}70.5%{transform:translateX(-2727px)}71.7%{transform:translateX(-2828px)}71.8%{transform:translateX(-3030px)}73.8%{transform:translateX(-3636px)}73.9%{transform:translateX(-3737px)}75.3%{transform:translateX(-3838px)}75.4%{transform:translateX(-4040px)}to{transform:translateX(-4242px)}}.a{fill:#282d35}.c{fill:#a8cc8c}.c,.d,.f{white-space:pre}.d{fill:#71bef2;font-weight:700}.f{fill:#b9c0cb}</style><g font-family="Monaco,Consolas,Menlo,'Bitstream Vera Sans Mono','Powerline Symbols',monospace" font-size="1.67"><defs><symbol id="1"><text y="1.67" class="c">┌──(</text><text x="4.008" y="1.67" class="d">kali㉿kali-box</text><text x="17.034" y="1.67" class="c">)-[</text><text x="20.04" y="1.67" style="white-space:pre" fill="#b9c0cb" font-weight="700">~</text><text x="21.042" y="1.67" class="c">]</text></symbol><symbol id="2"><text y="1.67" class="c">└─</text><text x="2.004" y="1.67" class="d">$</text></symbol><symbol id="3"><text y="1.67" class="c">└─</text><text x="2.004" y="1.67" class="d">$</text><text x="4.008" y="1.67" class="f">sudo</text></symbol><symbol id="4"><text y="1.67" class="c">└─</text><text x="2.004" y="1.67" class="d">$</text><text x="4.008" y="1.67" class="f">sudo</text><text x="9.018" y="1.67" class="f">clw</text></symbol><symbol id="5"><text y="1.67" class="c">└─</text><text x="2.004" y="1.67" class="d">$</text><text x="4.008" y="1.67" class="f">sudo</text><text x="9.018" y="1.67" class="f">clw</text><text x="13.026" y="1.67" class="f">nmap</text></symbol><symbol id="6"><text y="1.67" class="c">└─</text><text x="2.004" y="1.67" class="d">$</text><text x="4.008" y="1.67" class="f">sudo</text><text x="9.018" y="1.67" class="f">clw</text><text x="13.026" y="1.67" class="f">nmap</text><text x="18.036" y="1.67" class="f">localhost</text></symbol><symbol id="7"><text y="1.67" class="f">[sudo]</text><text x="7.014" y="1.67" class="f">password</text><text x="16.032" y="1.67" class="f">for</text><text x="20.04" y="1.67" class="f">kali:</text></symbol><symbol id="8"><text y="1.67" class="f">#</text><text x="2.004" y="1.67" class="f">Warning:</text><text x="11.022" y="1.67" class="f">iptables-legacy</text><text x="27.054" y="1.67" class="f">tables</text><text x="34.068" y="1.67" class="f">present,</text><text x="43.086" y="1.67" class="f">use</text><text x="47.094" y="1.67" class="f">iptables-legacy-save</text><text x="68.136" y="1.67" class="f">to</text><text x="71.142" y="1.67" class="f">see</text><text x="75.15" y="1.67" class="f">them</text></symbol><symbol id="9"><text y="1.67" class="f">Warning:</text><text x="9.018" y="1.67" class="f">You</text><text x="13.026" y="1.67" class="f">specified</text><text x="23.046" y="1.67" class="f">a</text><text x="25.05" y="1.67" class="f">highly</text><text x="32.064" y="1.67" class="f">aggressive</text><text x="43.086" y="1.67" class="f">--min-hostgroup.</text></symbol><symbol id="10"><text y="1.67" class="f">Starting</text><text x="9.018" y="1.67" class="f">Nmap</text><text x="14.028" y="1.67" class="f">7.92</text><text x="19.038" y="1.67" class="f">(</text><text x="21.042" y="1.67" class="f">https://nmap.org</text><text x="38.076" y="1.67" class="f">)</text><text x="40.08" y="1.67" class="f">at</text><text x="43.086" y="1.67" class="f">2022-05-18</text><text x="54.108" y="1.67" class="f">15:29</text><text x="60.12" y="1.67" class="f">MDT</text></symbol><symbol id="11"><text y="1.67" class="f">Nmap</text><text x="5.01" y="1.67" class="f">scan</text><text x="10.02" y="1.67" class="f">report</text><text x="17.034" y="1.67" class="f">for</text><text x="21.042" y="1.67" class="f">localhost</text><text x="31.062" y="1.67" class="f">(127.0.0.1)</text></symbol><symbol id="12"><text y="1.67" class="f">Host</text><text x="5.01" y="1.67" class="f">is</text><text x="8.016" y="1.67" class="f">up,</text><text x="12.024" y="1.67" class="f">received</text><text x="21.042" y="1.67" class="f">localhost-response</text><text x="40.08" y="1.67" class="f">(0.000018s</text><text x="51.102" y="1.67" class="f">latency).</text></symbol><symbol id="13"><text y="1.67" class="f">Other</text><text x="6.012" y="1.67" class="f">addresses</text><text x="16.032" y="1.67" class="f">for</text><text x="20.04" y="1.67" class="f">localhost</text><text x="30.06" y="1.67" class="f">(not</text><text x="35.07" y="1.67" class="f">scanned):</text><text x="45.09" y="1.67" class="f">::1</text></symbol><symbol id="14"><text y="1.67" class="f">Not</text><text x="4.008" y="1.67" class="f">shown:</text><text x="11.022" y="1.67" class="f">996</text><text x="15.03" y="1.67" class="f">closed</text><text x="22.044" y="1.67" class="f">tcp</text><text x="26.052" y="1.67" class="f">ports</text><text x="32.064" y="1.67" class="f">(reset)</text></symbol><symbol id="15"><text y="1.67" class="f">PORT</text><text x="9.018" y="1.67" class="f">STATE</text><text x="15.03" y="1.67" class="f">SERVICE</text><text x="30.06" y="1.67" class="f">REASON</text></symbol><symbol id="16"><text y="1.67" class="f">1080/tcp</text><text x="9.018" y="1.67" class="f">open</text><text x="15.03" y="1.67" class="f">socks</text><text x="30.06" y="1.67" class="f">syn-ack</text><text x="38.076" y="1.67" class="f">ttl</text><text x="42.084" y="1.67" class="f">64</text></symbol><symbol id="17"><text y="1.67" class="f">2222/tcp</text><text x="9.018" y="1.67" class="f">open</text><text x="15.03" y="1.67" class="f">EtherNetIP-1</text><text x="30.06" y="1.67" class="f">syn-ack</text><text x="38.076" y="1.67" class="f">ttl</text><text x="42.084" y="1.67" class="f">64</text></symbol><symbol id="18"><text y="1.67" class="f">4242/tcp</text><text x="9.018" y="1.67" class="f">open</text><text x="15.03" y="1.67" class="f">vrml-multi-use</text><text x="30.06" y="1.67" class="f">syn-ack</text><text x="38.076" y="1.67" class="f">ttl</text><text x="42.084" y="1.67" class="f">64</text></symbol><symbol id="19"><text y="1.67" class="f">5432/tcp</text><text x="9.018" y="1.67" class="f">open</text><text x="15.03" y="1.67" class="f">postgresql</text><text x="30.06" y="1.67" class="f">syn-ack</text><text x="38.076" y="1.67" class="f">ttl</text><text x="42.084" y="1.67" class="f">64</text></symbol><symbol id="20"><text y="1.67" class="f">Nmap</text><text x="5.01" y="1.67" class="f">done:</text><text x="11.022" y="1.67" class="f">1</text><text x="13.026" y="1.67" class="f">IP</text><text x="16.032" y="1.67" class="f">address</text><text x="24.048" y="1.67" class="f">(1</text><text x="27.054" y="1.67" class="f">host</text><text x="32.064" y="1.67" class="f">up)</text><text x="36.072" y="1.67" class="f">scanned</text><text x="44.088" y="1.67" class="f">in</text><text x="47.094" y="1.67" class="f">0.20</text><text x="52.104" y="1.67" class="f">seconds</text></symbol><symbol id="21"><text y="1.67" class="f">clw</text><text x="4.008" y="1.67" class="f">results</text><text x="12.024" y="1.67" class="f">stored</text><text x="19.038" y="1.67" class="f">in:</text><text x="23.046" y="1.67" class="f">&quot;/root/.netmeld/clw/nmap_20220518T212918.404741_c86e14a4-3881-45d5-900f-f911bc</text></symbol><symbol id="22"><text y="1.67" class="f">d3294c&quot;</text></symbol><symbol id="23"><text y="1.67" class="f">tool-run-id:</text><text x="13.026" y="1.67" class="f">c86e14a4-3881-45d5-900f-f911bcd3294c</text></symbol><symbol id="24"><text y="1.67" class="f">exit</text></symbol><symbol id="a"><path fill="transparent" d="M0 0h101v31H0z"/></symbol></defs><path class="a" d="M0 0h101v67.301H0z"/><g style="animation-duration:9.911059s;animation-iteration-count:infinite;animation-name:h;animation-timing-function:steps(1,end)"><svg width="4343"><svg><use xlink:href="#a"/></svg><svg x="101"><use xlink:href="#a"/><use xlink:href="#1"/><use xlink:href="#2" y="2.171"/></svg><svg x="202"><use xlink:href="#a"/><use xlink:href="#1"/><text y="3.841" class="c">└─</text><text x="2.004" y="3.841" class="d">$</text><text x="4.008" y="3.841" class="f">s</text></svg><svg x="303"><use xlink:href="#a"/><use xlink:href="#1"/><text y="3.841" class="c">└─</text><text x="2.004" y="3.841" class="d">$</text><text x="4.008" y="3.841" class="f">su</text></svg><svg x="404"><use xlink:href="#a"/><use xlink:href="#1"/><text y="3.841" class="c">└─</text><text x="2.004" y="3.841" class="d">$</text><text x="4.008" y="3.841" class="f">sud</text></svg><svg x="505"><use xlink:href="#a"/><use xlink:href="#1"/><use xlink:href="#3" y="2.171"/></svg><svg x="606"><use xlink:href="#a"/><use xlink:href="#1"/><use xlink:href="#3" y="2.171"/></svg><svg x="707"><use xlink:href="#a"/><use xlink:href="#1"/><text y="3.841" class="c">└─</text><text x="2.004" y="3.841" class="d">$</text><text x="4.008" y="3.841" class="f">sudo</text><text x="9.018" y="3.841" class="f">c</text></svg><svg x="808"><use xlink:href="#a"/><use xlink:href="#1"/><text y="3.841" class="c">└─</text><text x="2.004" y="3.841" class="d">$</text><text x="4.008" y="3.841" class="f">sudo</text><text x="9.018" y="3.841" class="f">cl</text></svg><svg x="909"><use xlink:href="#a"/><use xlink:href="#1"/><use xlink:href="#4" y="2.171"/></svg><svg x="1010"><use xlink:href="#a"/><use xlink:href="#1"/><use xlink:href="#4" y="2.171"/></svg><svg x="1111"><use xlink:href="#a"/><use xlink:href="#1"/><text y="3.841" class="c">└─</text><text x="2.004" y="3.841" class="d">$</text><text x="4.008" y="3.841" class="f">sudo</text><text x="9.018" y="3.841" class="f">clw</text><text x="13.026" y="3.841" class="f">n</text></svg><svg x="1212"><use xlink:href="#a"/><use xlink:href="#1"/><text y="3.841" class="c">└─</text><text x="2.004" y="3.841" class="d">$</text><text x="4.008" y="3.841" class="f">sudo</text><text x="9.018" y="3.841" class="f">clw</text><text x="13.026" y="3.841" class="f">nm</text></svg><svg x="1313"><use xlink:href="#a"/><use xlink:href="#1"/><text y="3.841" class="c">└─</text><text x="2.004" y="3.841" class="d">$</text><text x="4.008" y="3.841" class="f">sudo</text><text x="9.018" y="3.841" class="f">clw</text><text x="13.026" y="3.841" class="f">nma</text></svg><svg x="1414"><use xlink:href="#a"/><use xlink:href="#1"/><use xlink:href="#5" y="2.171"/></svg><svg x="1515"><use xlink:href="#a"/><use xlink:href="#1"/><use xlink:href="#5" y="2.171"/></svg><svg x="1616"><use xlink:href="#a"/><use xlink:href="#1"/><text y="3.841" class="c">└─</text><text x="2.004" y="3.841" class="d">$</text><text x="4.008" y="3.841" class="f">sudo</text><text x="9.018" y="3.841" class="f">clw</text><text x="13.026" y="3.841" class="f">nmap</text><text x="18.036" y="3.841" class="f">l</text></svg><svg x="1717"><use xlink:href="#a"/><use xlink:href="#1"/><text y="3.841" class="c">└─</text><text x="2.004" y="3.841" class="d">$</text><text x="4.008" y="3.841" class="f">sudo</text><text x="9.018" y="3.841" class="f">clw</text><text x="13.026" y="3.841" class="f">nmap</text><text x="18.036" y="3.841" class="f">lo</text></svg><svg x="1818"><use xlink:href="#a"/><use xlink:href="#1"/><text y="3.841" class="c">└─</text><text x="2.004" y="3.841" class="d">$</text><text x="4.008" y="3.841" class="f">sudo</text><text x="9.018" y="3.841" class="f">clw</text><text x="13.026" y="3.841" class="f">nmap</text><text x="18.036" y="3.841" class="f">loc</text></svg><svg x="1919"><use xlink:href="#a"/><use xlink:href="#1"/><text y="3.841" class="c">└─</text><text x="2.004" y="3.841" class="d">$</text><text x="4.008" y="3.841" class="f">sudo</text><text x="9.018" y="3.841" class="f">clw</text><text x="13.026" y="3.841" class="f">nmap</text><text x="18.036" y="3.841" class="f">loca</text></svg><svg x="2020"><use xlink:href="#a"/><use xlink:href="#1"/><text y="3.841" class="c">└─</text><text x="2.004" y="3.841" class="d">$</text><text x="4.008" y="3.841" class="f">sudo</text><text x="9.018" y="3.841" class="f">clw</text><text x="13.026" y="3.841" class="f">nmap</text><text x="18.036" y="3.841" class="f">local</text></svg><svg x="2121"><use xlink:href="#a"/><use xlink:href="#1"/><text y="3.841" class="c">└─</text><text x="2.004" y="3.841" class="d">$</text><text x="4.008" y="3.841" class="f">sudo</text><text x="9.018" y="3.841" class="f">clw</text><text x="13.026" y="3.841" class="f">nmap</text><text x="18.036" y="3.841" class="f">localh</text></svg><svg x="2222"><use xlink:href="#a"/><use xlink:href="#1"/><text y="3.841" class="c">└─</text><text x="2.004" y="3.841" class="d">$</text><text x="4.008" y="3.841" class="f">sudo</text><text x="9.018" y="3.841" class="f">clw</text><text x="13.026" y="3.841" class="f">nmap</text><text x="18.036" y="3.841" class="f">localho</text></svg><svg x="2323"><use xlink:href="#a"/><use xlink:href="#1"/><text y="3.841" class="c">└─</text><text x="2.004" y="3.841" class="d">$</text><text x="4.008" y="3.841" class="f">sudo</text><text x="9.018" y="3.841" class="f">clw</text><text x="13.026" y="3.841" class="f">nmap</text><text x="18.036" y="3.841" class="f">localhos</text></svg><svg x="2424"><use xlink:href="#a"/><use xlink:href="#1"/><use xlink:href="#6" y="2.171"/></svg><svg x="2525"><use xlink:href="#a"/><use xlink:href="#1"/><use xlink:href="#6" y="2.171"/></svg><svg x="2626"><use xlink:href="#a"/><use xlink:href="#1"/><use xlink:href="#6" y="2.171"/><use xlink:href="#7" y="4.342"/></svg><svg x="2727"><use xlink:href="#a"/><use xlink:href="#1"/><use xlink:href="#6" y="2.171"/><use xlink:href="#7" y="4.342"/></svg><svg x="2828"><use xlink:href="#a"/><use xlink:href="#1"/><use xlink:href="#6" y="2.171"/><use xlink:href="#7" y="4.342"/><use xlink:href="#8" y="6.513"/></svg><svg x="2929"><use xlink:href="#a"/><use xlink:href="#1"/><use xlink:href="#6" y="2.171"/><use xlink:href="#7" y="4.342"/><use xlink:href="#8" y="6.513"/><use xlink:href="#9" y="8.684"/></svg><svg x="3030"><use xlink:href="#a"/><use xlink:href="#1"/><use xlink:href="#6" y="2.171"/><use xlink:href="#7" y="4.342"/><use xlink:href="#8" y="6.513"/><use xlink:href="#9" y="8.684"/><use xlink:href="#10" y="10.855"/></svg><svg x="3131"><use xlink:href="#a"/><use xlink:href="#1"/><use xlink:href="#6" y="2.171"/><use xlink:href="#7" y="4.342"/><use xlink:href="#8" y="6.513"/><use xlink:href="#9" y="8.684"/><use xlink:href="#10" y="10.855"/><use xlink:href="#11" y="13.026"/></svg><svg x="3232"><use xlink:href="#a"/><use xlink:href="#1"/><use xlink:href="#6" y="2.171"/><use xlink:href="#7" y="4.342"/><use xlink:href="#8" y="6.513"/><use xlink:href="#9" y="8.684"/><use xlink:href="#10" y="10.855"/><use xlink:href="#11" y="13.026"/><use xlink:href="#12" y="15.197"/><use xlink:href="#13" y="17.368"/></svg><svg x="3333"><use xlink:href="#a"/><use xlink:href="#1"/><use xlink:href="#6" y="2.171"/><use xlink:href="#7" y="4.342"/><use xlink:href="#8" y="6.513"/><use xlink:href="#9" y="8.684"/><use xlink:href="#10" y="10.855"/><use xlink:href="#11" y="13.026"/><use xlink:href="#12" y="15.197"/><use xlink:href="#13" y="17.368"/><use xlink:href="#14" y="19.539"/></svg><svg x="3434"><use xlink:href="#a"/><use xlink:href="#1"/><use xlink:href="#6" y="2.171"/><use xlink:href="#7" y="4.342"/><use xlink:href="#8" y="6.513"/><use xlink:href="#9" y="8.684"/><use xlink:href="#10" y="10.855"/><use xlink:href="#11" y="13.026"/><use xlink:href="#12" y="15.197"/><use xlink:href="#13" y="17.368"/><use xlink:href="#14" y="19.539"/><use xlink:href="#15" y="21.71"/><use xlink:href="#16" y="23.881"/><use xlink:href="#17" y="26.052"/><use xlink:href="#18" y="28.223"/><use xlink:href="#19" y="30.394"/></svg><svg x="3535"><use xlink:href="#a"/><use xlink:href="#1"/><use xlink:href="#6" y="2.171"/><use xlink:href="#7" y="4.342"/><use xlink:href="#8" y="6.513"/><use xlink:href="#9" y="8.684"/><use xlink:href="#10" y="10.855"/><use xlink:href="#11" y="13.026"/><use xlink:href="#12" y="15.197"/><use xlink:href="#13" y="17.368"/><use xlink:href="#14" y="19.539"/><use xlink:href="#15" y="21.71"/><use xlink:href="#16" y="23.881"/><use xlink:href="#17" y="26.052"/><use xlink:href="#18" y="28.223"/><use xlink:href="#19" y="30.394"/></svg><svg x="3636"><use xlink:href="#a"/><use xlink:href="#1"/><use xlink:href="#6" y="2.171"/><use xlink:href="#7" y="4.342"/><use xlink:href="#8" y="6.513"/><use xlink:href="#9" y="8.684"/><use xlink:href="#10" y="10.855"/><use xlink:href="#11" y="13.026"/><use xlink:href="#12" y="15.197"/><use xlink:href="#13" y="17.368"/><use xlink:href="#14" y="19.539"/><use xlink:href="#15" y="21.71"/><use xlink:href="#16" y="23.881"/><use xlink:href="#17" y="26.052"/><use xlink:href="#18" y="28.223"/><use xlink:href="#19" y="30.394"/><use xlink:href="#20" y="34.736"/></svg><svg x="3737"><use xlink:href="#a"/><use xlink:href="#1"/><use xlink:href="#6" y="2.171"/><use xlink:href="#7" y="4.342"/><use xlink:href="#8" y="6.513"/><use xlink:href="#9" y="8.684"/><use xlink:href="#10" y="10.855"/><use xlink:href="#11" y="13.026"/><use xlink:href="#12" y="15.197"/><use xlink:href="#13" y="17.368"/><use xlink:href="#14" y="19.539"/><use xlink:href="#15" y="21.71"/><use xlink:href="#16" y="23.881"/><use xlink:href="#17" y="26.052"/><use xlink:href="#18" y="28.223"/><use xlink:href="#19" y="30.394"/><use xlink:href="#20" y="34.736"/><use xlink:href="#21" y="36.907"/><use xlink:href="#22" y="39.078"/></svg><svg x="3838"><use xlink:href="#a"/><use xlink:href="#1"/><use xlink:href="#6" y="2.171"/><use xlink:href="#7" y="4.342"/><use xlink:href="#8" y="6.513"/><use xlink:href="#9" y="8.684"/><use xlink:href="#10" y="10.855"/><use xlink:href="#11" y="13.026"/><use xlink:href="#12" y="15.197"/><use xlink:href="#13" y="17.368"/><use xlink:href="#14" y="19.539"/><use xlink:href="#15" y="21.71"/><use xlink:href="#16" y="23.881"/><use xlink:href="#17" y="26.052"/><use xlink:href="#18" y="28.223"/><use xlink:href="#19" y="30.394"/><use xlink:href="#20" y="34.736"/><use xlink:href="#21" y="36.907"/><use xlink:href="#22" y="39.078"/><use xlink:href="#23" y="41.249"/></svg><svg x="3939"><use xlink:href="#a"/><use xlink:href="#1"/><use xlink:href="#6" y="2.171"/><use xlink:href="#7" y="4.342"/><use xlink:href="#8" y="6.513"/><use xlink:href="#9" y="8.684"/><use xlink:href="#10" y="10.855"/><use xlink:href="#11" y="13.026"/><use xlink:href="#12" y="15.197"/><use xlink:href="#13" y="17.368"/><use xlink:href="#14" y="19.539"/><use xlink:href="#15" y="21.71"/><use xlink:href="#16" y="23.881"/><use xlink:href="#17" y="26.052"/><use xlink:href="#18" y="28.223"/><use xlink:href="#19" y="30.394"/><use xlink:href="#20" y="34.736"/><use xlink:href="#21" y="36.907"/><use xlink:href="#22" y="39.078"/><use xlink:href="#23" y="41.249"/></svg><svg x="4040"><use xlink:href="#a"/><use xlink:href="#1"/><use xlink:href="#6" y="2.171"/><use xlink:href="#7" y="4.342"/><use xlink:href="#8" y="6.513"/><use xlink:href="#9" y="8.684"/><use xlink:href="#10" y="10.855"/><use xlink:href="#11" y="13.026"/><use xlink:href="#12" y="15.197"/><use xlink:href="#13" y="17.368"/><use xlink:href="#14" y="19.539"/><use xlink:href="#15" y="21.71"/><use xlink:href="#16" y="23.881"/><use xlink:href="#17" y="26.052"/><use xlink:href="#18" y="28.223"/><use xlink:href="#19" y="30.394"/><use xlink:href="#20" y="34.736"/><use xlink:href="#21" y="36.907"/><use xlink:href="#22" y="39.078"/><use xlink:href="#23" y="41.249"/><use xlink:href="#1" y="45.591"/><use xlink:href="#2" y="47.762"/></svg><svg x="4141"><use xlink:href="#a"/><use xlink:href="#1"/><use xlink:href="#6" y="2.171"/><use xlink:href="#7" y="4.342"/><use xlink:href="#8" y="6.513"/><use xlink:href="#9" y="8.684"/><use xlink:href="#10" y="10.855"/><use xlink:href="#11" y="13.026"/><use xlink:href="#12" y="15.197"/><use xlink:href="#13" y="17.368"/><use xlink:href="#14" y="19.539"/><use xlink:href="#15" y="21.71"/><use xlink:href="#16" y="23.881"/><use xlink:href="#17" y="26.052"/><use xlink:href="#18" y="28.223"/><use xlink:href="#19" y="30.394"/><use xlink:href="#20" y="34.736"/><use xlink:href="#21" y="36.907"/><use xlink:href="#22" y="39.078"/><use xlink:href="#23" y="41.249"/><use xlink:href="#1" y="45.591"/><use xlink:href="#2" y="47.762"/><use xlink:href="#24" y="49.933"/></svg><svg x="4242"><use xlink:href="#a"/><use xlink:href="#1"/><use xlink:href="#6" y="2.171"/><use xlink:href="#7" y="4.342"/><use xlink:href="#8" y="6.513"/><use xlink:href="#9" y="8.684"/><use xlink:href="#10" y="10.855"/><use xlink:href="#11" y="13.026"/><use xlink:href="#12" y="15.197"/><use xlink:href="#13" y="17.368"/><use xlink:href="#14" y="19.539"/><use xlink:href="#15" y="21.71"/><use xlink:href="#16" y="23.881"/><use xlink:href="#17" y="26.052"/><use xlink:href="#18" y="28.223"/><use xlink:href="#19" y="30.394"/><use xlink:href="#20" y="34.736"/><use xlink:href="#21" y="36.907"/><use xlink:href="#22" y="39.078"/><use xlink:href="#23" y="41.249"/><use xlink:href="#1" y="45.591"/><use xlink:href="#2" y="47.762"/><use xlink:href="#24" y="49.933"/></svg></svg></g></g></svg></svg>