<svg xmlns="http://www.w3.org/2000/svg" xmlns:xlink="http://www.w3.org/1999/xlink" width="1010" height="673.01"><rect width="1010" height="673.01" rx="0" ry="0" class="a"/><svg height="673.01" viewBox="0 0 101 67.301" width="1010" xmlns="http://www.w3.org/2000/svg" xmlns:xlink="http://www.w3.org/1999/xlink"><style>@keyframes h{0%{transform:translateX(0)}.12%{transform:translateX(-101px)}4.24%{transform:translateX(-202px)}4.54%{transform:translateX(-303px)}4.94%{transform:translateX(-404px)}5.23%{transform:translateX(-505px)}5.79%{transform:translateX(-606px)}6.22%{transform:translateX(-707px)}6.56%{transform:translateX(-808px)}7%{transform:translateX(-909px)}10.88%{transform:translateX(-1010px)}12.31%{transform:translateX(-1111px)}12.8%{transform:translateX(-1212px)}13.58%{transform:translateX(-1313px)}14.58%{transform:translateX(-1414px)}17.01%{transform:translateX(-1515px)}17.54%{transform:translateX(-1616px)}18.09%{transform:translateX(-1717px)}18.51%{transform:translateX(-1818px)}21.74%{transform:translateX(-1919px)}24.02%{transform:translateX(-2020px)}24.48%{transform:translateX(-2121px)}25.09%{transform:translateX(-2222px)}25.39%{transform:translateX(-2323px)}26.62%{transform:translateX(-2424px)}26.65%{transform:translateX(-2525px)}32.77%{transform:translateX(-2626px)}33.18%{transform:translateX(-2727px)}33.2%{transform:translateX(-2828px)}42.6%{transform:translateX(-2929px)}53.85%{transform:translateX(-3030px)}54.1%{transform:translateX(-3131px)}54.46%{transform:translateX(-3232px)}54.95%{transform:translateX(-3333px)}55.13%{transform:translateX(-3434px)}55.5%{transform:translateX(-3535px)}55.87%{transform:translateX(-3636px)}55.88%{transform:translateX(-3838px)}71.95%{transform:translateX(-3939px)}72.32%{transform:translateX(-4242px)}to{transform:translateX(-4343px)}}.a{fill:#282d35}.c{fill:#a8cc8c}.c,.d,.f{white-space:pre}.d{fill:#71bef2;font-weight:700}.f{fill:#b9c0cb}</style><g font-family="Monaco,Consolas,Menlo,'Bitstream Vera Sans Mono','Powerline Symbols',monospace" font-size="1.67"><defs><symbol id="1"><text y="1.67" class="c">┌──(</text><text x="4.008" y="1.67" class="d">kali㉿kali-box</text><text x="17.034" y="1.67" class="c">)-[</text><text x="20.04" y="1.67" style="white-space:pre" fill="#b9c0cb" font-weight="700">~</text><text x="21.042" y="1.67" class="c">]</text></symbol><symbol id="2"><text y="1.67" class="c">└─</text><text x="2.004" y="1.67" class="d">$</text></symbol><symbol id="3"><text y="1.67" class="c">└─</text><text x="2.004" y="1.67" class="d">$</text><text x="4.008" y="1.67" class="f">sudo</text></symbol><symbol id="4"><text y="1.67" class="c">└─</text><text x="2.004" y="1.67" class="d">$</text><text x="4.008" y="1.67" class="f">sudo</text><text x="9.018" y="1.67" class="f">clw</text></symbol><symbol id="5"><text y="1.67" class="c">└─</text><text x="2.004" y="1.67" class="d">$</text><text x="4.008" y="1.67" class="f">sudo</text><text x="9.018" y="1.67" class="f">clw</text><text x="13.026" y="1.67" class="f">nc</text></symbol><symbol id="6"><text y="1.67" class="c">└─</text><text x="2.004" y="1.67" class="d">$</text><text x="4.008" y="1.67" class="f">sudo</text><text x="9.018" y="1.67" class="f">clw</text><text x="13.026" y="1.67" class="f">nc</text><text x="16.032" y="1.67" class="f">-lnvp</text></symbol><symbol id="7"><text y="1.67" class="c">└─</text><text x="2.004" y="1.67" class="d">$</text><text x="4.008" y="1.67" class="f">sudo</text><text x="9.018" y="1.67" class="f">clw</text><text x="13.026" y="1.67" class="f">nc</text><text x="16.032" y="1.67" class="f">-lnvp</text><text x="22.044" y="1.67" class="f">8080</text></symbol><symbol id="8"><text y="1.67" class="f">[sudo]</text><text x="7.014" y="1.67" class="f">password</text><text x="16.032" y="1.67" class="f">for</text><text x="20.04" y="1.67" class="f">kali:</text></symbol><symbol id="9"><text y="1.67" class="f">#</text><text x="2.004" y="1.67" class="f">Warning:</text><text x="11.022" y="1.67" class="f">iptables-legacy</text><text x="27.054" y="1.67" class="f">tables</text><text x="34.068" y="1.67" class="f">present,</text><text x="43.086" y="1.67" class="f">use</text><text x="47.094" y="1.67" class="f">iptables-legacy-save</text><text x="68.136" y="1.67" class="f">to</text><text x="71.142" y="1.67" class="f">see</text><text x="75.15" y="1.67" class="f">them</text></symbol><symbol id="10"><text y="1.67" class="f">Ncat:</text><text x="6.012" y="1.67" class="f">Version</text><text x="14.028" y="1.67" class="f">7.92</text><text x="19.038" y="1.67" class="f">(</text><text x="21.042" y="1.67" class="f">https://nmap.org/ncat</text><text x="43.086" y="1.67" class="f">)</text></symbol><symbol id="11"><text y="1.67" class="f">Ncat:</text><text x="6.012" y="1.67" class="f">Listening</text><text x="16.032" y="1.67" class="f">on</text><text x="19.038" y="1.67" class="f">:::8080</text></symbol><symbol id="12"><text y="1.67" class="f">Ncat:</text><text x="6.012" y="1.67" class="f">Listening</text><text x="16.032" y="1.67" class="f">on</text><text x="19.038" y="1.67" class="f">0.0.0.0:8080</text></symbol><symbol id="13"><text y="1.67" class="f">Ncat:</text><text x="6.012" y="1.67" class="f">Connection</text><text x="17.034" y="1.67" class="f">from</text><text x="22.044" y="1.67" class="f">::1.</text></symbol><symbol id="14"><text y="1.67" class="f">Ncat:</text><text x="6.012" y="1.67" class="f">Connection</text><text x="17.034" y="1.67" class="f">from</text><text x="22.044" y="1.67" class="f">::1:39216.</text></symbol><symbol id="15"><text y="1.67" class="f">whoami</text></symbol><symbol id="16"><text y="1.67" class="f">kali</text></symbol><symbol id="17"><text y="1.67" class="f">clw</text><text x="4.008" y="1.67" class="f">results</text><text x="12.024" y="1.67" class="f">stored</text><text x="19.038" y="1.67" class="f">in:</text><text x="23.046" y="1.67" class="f">&quot;/root/.netmeld/clw/nc_20220518T211921.581813_9e4a665c-6c12-43a5-acfb-1497d1c7</text></symbol><symbol id="18"><text y="1.67" class="f">a335&quot;</text></symbol><symbol id="19"><text y="1.67" class="f">tool-run-id:</text><text x="13.026" y="1.67" class="f">9e4a665c-6c12-43a5-acfb-1497d1c7a335</text></symbol><symbol id="a"><path fill="transparent" d="M0 0h101v31H0z"/></symbol></defs><path class="a" d="M0 0h101v67.301H0z"/><g style="animation-duration:28.927851s;animation-iteration-count:infinite;animation-name:h;animation-timing-function:steps(1,end)"><svg width="4444"><svg><use xlink:href="#a"/></svg><svg x="101"><use xlink:href="#a"/><use xlink:href="#1"/><use xlink:href="#2" y="2.171"/></svg><svg x="202"><use xlink:href="#a"/><use xlink:href="#1"/><text y="3.841" class="c">└─</text><text x="2.004" y="3.841" class="d">$</text><text x="4.008" y="3.841" class="f">s</text></svg><svg x="303"><use xlink:href="#a"/><use xlink:href="#1"/><text y="3.841" class="c">└─</text><text x="2.004" y="3.841" class="d">$</text><text x="4.008" y="3.841" class="f">su</text></svg><svg x="404"><use xlink:href="#a"/><use xlink:href="#1"/><text y="3.841" class="c">└─</text><text x="2.004" y="3.841" class="d">$</text><text x="4.008" y="3.841" class="f">sud</text></svg><svg x="505"><use xlink:href="#a"/><use xlink:href="#1"/><use xlink:href="#3" y="2.171"/></svg><svg x="606"><use xlink:href="#a"/><use xlink:href="#1"/><use xlink:href="#3" y="2.171"/></svg><svg x="707"><use xlink:href="#a"/><use xlink:href="#1"/><text y="3.841" class="c">└─</text><text x="2.004" y="3.841" class="d">$</text><text x="4.008" y="3.841" class="f">sudo</text><text x="9.018" y="3.841" class="f">c</text></svg><svg x="808"><use xlink:href="#a"/><use xlink:href="#1"/><text y="3.841" class="c">└─</text><text x="2.004" y="3.841" class="d">$</text><text x="4.008" y="3.841" class="f">sudo</text><text x="9.018" y="3.841" class="f">cl</text></svg><svg x="909"><use xlink:href="#a"/><use xlink:href="#1"/><use xlink:href="#4" y="2.171"/></svg><svg x="1010"><use xlink:href="#a"/><use xlink:href="#1"/><use xlink:href="#4" y="2.171"/></svg><svg x="1111"><use xlink:href="#a"/><use xlink:href="#1"/><text y="3.841" class="c">└─</text><text x="2.004" y="3.841" class="d">$</text><text x="4.008" y="3.841" class="f">sudo</text><text x="9.018" y="3.841" class="f">clw</text><text x="13.026" y="3.841" class="f">n</text></svg><svg x="1212"><use xlink:href="#a"/><use xlink:href="#1"/><use xlink:href="#5" y="2.171"/></svg><svg x="1313"><use xlink:href="#a"/><use xlink:href="#1"/><use xlink:href="#5" y="2.171"/></svg><svg x="1414"><use xlink:href="#a"/><use xlink:href="#1"/><text y="3.841" class="c">└─</text><text x="2.004" y="3.841" class="d">$</text><text x="4.008" y="3.841" class="f">sudo</text><text x="9.018" y="3.841" class="f">clw</text><text x="13.026" y="3.841" class="f">nc</text><text x="16.032" y="3.841" class="f">-</text></svg><svg x="1515"><use xlink:href="#a"/><use xlink:href="#1"/><text y="3.841" class="c">└─</text><text x="2.004" y="3.841" class="d">$</text><text x="4.008" y="3.841" class="f">sudo</text><text x="9.018" y="3.841" class="f">clw</text><text x="13.026" y="3.841" class="f">nc</text><text x="16.032" y="3.841" class="f">-l</text></svg><svg x="1616"><use xlink:href="#a"/><use xlink:href="#1"/><text y="3.841" class="c">└─</text><text x="2.004" y="3.841" class="d">$</text><text x="4.008" y="3.841" class="f">sudo</text><text x="9.018" y="3.841" class="f">clw</text><text x="13.026" y="3.841" class="f">nc</text><text x="16.032" y="3.841" class="f">-ln</text></svg><svg x="1717"><use xlink:href="#a"/><use xlink:href="#1"/><text y="3.841" class="c">└─</text><text x="2.004" y="3.841" class="d">$</text><text x="4.008" y="3.841" class="f">sudo</text><text x="9.018" y="3.841" class="f">clw</text><text x="13.026" y="3.841" class="f">nc</text><text x="16.032" y="3.841" class="f">-lnv</text></svg><svg x="1818"><use xlink:href="#a"/><use xlink:href="#1"/><use xlink:href="#6" y="2.171"/></svg><svg x="1919"><use xlink:href="#a"/><use xlink:href="#1"/><use xlink:href="#6" y="2.171"/></svg><svg x="2020"><use xlink:href="#a"/><use xlink:href="#1"/><text y="3.841" class="c">└─</text><text x="2.004" y="3.841" class="d">$</text><text x="4.008" y="3.841" class="f">sudo</text><text x="9.018" y="3.841" class="f">clw</text><text x="13.026" y="3.841" class="f">nc</text><text x="16.032" y="3.841" class="f">-lnvp</text><text x="22.044" y="3.841" class="f">8</text></svg><svg x="2121"><use xlink:href="#a"/><use xlink:href="#1"/><text y="3.841" class="c">└─</text><text x="2.004" y="3.841" class="d">$</text><text x="4.008" y="3.841" class="f">sudo</text><text x="9.018" y="3.841" class="f">clw</text><text x="13.026" y="3.841" class="f">nc</text><text x="16.032" y="3.841" class="f">-lnvp</text><text x="22.044" y="3.841" class="f">80</text></svg><svg x="2222"><use xlink:href="#a"/><use xlink:href="#1"/><text y="3.841" class="c">└─</text><text x="2.004" y="3.841" class="d">$</text><text x="4.008" y="3.841" class="f">sudo</text><text x="9.018" y="3.841" class="f">clw</text><text x="13.026" y="3.841" class="f">nc</text><text x="16.032" y="3.841" class="f">-lnvp</text><text x="22.044" y="3.841" class="f">808</text></svg><svg x="2323"><use xlink:href="#a"/><use xlink:href="#1"/><use xlink:href="#7" y="2.171"/></svg><svg x="2424"><use xlink:href="#a"/><use xlink:href="#1"/><use xlink:href="#7" y="2.171"/></svg><svg x="2525"><use xlink:href="#a"/><use xlink:href="#1"/><use xlink:href="#7" y="2.171"/><use xlink:href="#8" y="4.342"/></svg><svg x="2626"><use xlink:href="#a"/><use xlink:href="#1"/><use xlink:href="#7" y="2.171"/><use xlink:href="#8" y="4.342"/></svg><svg x="2727"><use xlink:href="#a"/><use xlink:href="#1"/><use xlink:href="#7" y="2.171"/><use xlink:href="#8" y="4.342"/><use xlink:href="#9" y="6.513"/></svg><svg x="2828"><use xlink:href="#a"/><use xlink:href="#1"/><use xlink:href="#7" y="2.171"/><use xlink:href="#8" y="4.342"/><use xlink:href="#9" y="6.513"/><use xlink:href="#10" y="8.684"/><use xlink:href="#11" y="10.855"/><use xlink:href="#12" y="13.026"/></svg><svg x="2929"><use xlink:href="#a"/><use xlink:href="#1"/><use xlink:href="#7" y="2.171"/><use xlink:href="#8" y="4.342"/><use xlink:href="#9" y="6.513"/><use xlink:href="#10" y="8.684"/><use xlink:href="#11" y="10.855"/><use xlink:href="#12" y="13.026"/><use xlink:href="#13" y="15.197"/><use xlink:href="#14" y="17.368"/></svg><svg x="3030"><use xlink:href="#a"/><use xlink:href="#1"/><use xlink:href="#7" y="2.171"/><use xlink:href="#8" y="4.342"/><use xlink:href="#9" y="6.513"/><use xlink:href="#10" y="8.684"/><use xlink:href="#11" y="10.855"/><use xlink:href="#12" y="13.026"/><use xlink:href="#13" y="15.197"/><use xlink:href="#14" y="17.368"/><text y="21.209" class="f">w</text></svg><svg x="3131"><use xlink:href="#a"/><use xlink:href="#1"/><use xlink:href="#7" y="2.171"/><use xlink:href="#8" y="4.342"/><use xlink:href="#9" y="6.513"/><use xlink:href="#10" y="8.684"/><use xlink:href="#11" y="10.855"/><use xlink:href="#12" y="13.026"/><use xlink:href="#13" y="15.197"/><use xlink:href="#14" y="17.368"/><text y="21.209" class="f">wh</text></svg><svg x="3232"><use xlink:href="#a"/><use xlink:href="#1"/><use xlink:href="#7" y="2.171"/><use xlink:href="#8" y="4.342"/><use xlink:href="#9" y="6.513"/><use xlink:href="#10" y="8.684"/><use xlink:href="#11" y="10.855"/><use xlink:href="#12" y="13.026"/><use xlink:href="#13" y="15.197"/><use xlink:href="#14" y="17.368"/><text y="21.209" class="f">who</text></svg><svg x="3333"><use xlink:href="#a"/><use xlink:href="#1"/><use xlink:href="#7" y="2.171"/><use xlink:href="#8" y="4.342"/><use xlink:href="#9" y="6.513"/><use xlink:href="#10" y="8.684"/><use xlink:href="#11" y="10.855"/><use xlink:href="#12" y="13.026"/><use xlink:href="#13" y="15.197"/><use xlink:href="#14" y="17.368"/><text y="21.209" class="f">whoa</text></svg><svg x="3434"><use xlink:href="#a"/><use xlink:href="#1"/><use xlink:href="#7" y="2.171"/><use xlink:href="#8" y="4.342"/><use xlink:href="#9" y="6.513"/><use xlink:href="#10" y="8.684"/><use xlink:href="#11" y="10.855"/><use xlink:href="#12" y="13.026"/><use xlink:href="#13" y="15.197"/><use xlink:href="#14" y="17.368"/><text y="21.209" class="f">whoam</text></svg><svg x="3535"><use xlink:href="#a"/><use xlink:href="#1"/><use xlink:href="#7" y="2.171"/><use xlink:href="#8" y="4.342"/><use xlink:href="#9" y="6.513"/><use xlink:href="#10" y="8.684"/><use xlink:href="#11" y="10.855"/><use xlink:href="#12" y="13.026"/><use xlink:href="#13" y="15.197"/><use xlink:href="#14" y="17.368"/><use xlink:href="#15" y="19.539"/></svg><svg x="3636"><use xlink:href="#a"/><use xlink:href="#1"/><use xlink:href="#7" y="2.171"/><use xlink:href="#8" y="4.342"/><use xlink:href="#9" y="6.513"/><use xlink:href="#10" y="8.684"/><use xlink:href="#11" y="10.855"/><use xlink:href="#12" y="13.026"/><use xlink:href="#13" y="15.197"/><use xlink:href="#14" y="17.368"/><use xlink:href="#15" y="19.539"/></svg><svg x="3737"><use xlink:href="#a"/><use xlink:href="#1"/><use xlink:href="#7" y="2.171"/><use xlink:href="#8" y="4.342"/><use xlink:href="#9" y="6.513"/><use xlink:href="#10" y="8.684"/><use xlink:href="#11" y="10.855"/><use xlink:href="#12" y="13.026"/><use xlink:href="#13" y="15.197"/><use xlink:href="#14" y="17.368"/><use xlink:href="#15" y="19.539"/><use xlink:href="#16" y="21.71"/></svg><svg x="3838"><use xlink:href="#a"/><use xlink:href="#1"/><use xlink:href="#7" y="2.171"/><use xlink:href="#8" y="4.342"/><use xlink:href="#9" y="6.513"/><use xlink:href="#10" y="8.684"/><use xlink:href="#11" y="10.855"/><use xlink:href="#12" y="13.026"/><use xlink:href="#13" y="15.197"/><use xlink:href="#14" y="17.368"/><use xlink:href="#15" y="19.539"/><use xlink:href="#16" y="21.71"/></svg><svg x="3939"><use xlink:href="#a"/><use xlink:href="#1"/><use xlink:href="#7" y="2.171"/><use xlink:href="#8" y="4.342"/><use xlink:href="#9" y="6.513"/><use xlink:href="#10" y="8.684"/><use xlink:href="#11" y="10.855"/><use xlink:href="#12" y="13.026"/><use xlink:href="#13" y="15.197"/><use xlink:href="#14" y="17.368"/><use xlink:href="#15" y="19.539"/><use xlink:href="#16" y="21.71"/><use xlink:href="#17" y="23.881"/><use xlink:href="#18" y="26.052"/></svg><svg x="4040"><use xlink:href="#a"/><use xlink:href="#1"/><use xlink:href="#7" y="2.171"/><use xlink:href="#8" y="4.342"/><use xlink:href="#9" y="6.513"/><use xlink:href="#10" y="8.684"/><use xlink:href="#11" y="10.855"/><use xlink:href="#12" y="13.026"/><use xlink:href="#13" y="15.197"/><use xlink:href="#14" y="17.368"/><use xlink:href="#15" y="19.539"/><use xlink:href="#16" y="21.71"/><use xlink:href="#17" y="23.881"/><use xlink:href="#18" y="26.052"/><use xlink:href="#19" y="28.223"/></svg><svg x="4141"><use xlink:href="#a"/><use xlink:href="#1"/><use xlink:href="#7" y="2.171"/><use xlink:href="#8" y="4.342"/><use xlink:href="#9" y="6.513"/><use xlink:href="#10" y="8.684"/><use xlink:href="#11" y="10.855"/><use xlink:href="#12" y="13.026"/><use xlink:href="#13" y="15.197"/><use xlink:href="#14" y="17.368"/><use xlink:href="#15" y="19.539"/><use xlink:href="#16" y="21.71"/><use xlink:href="#17" y="23.881"/><use xlink:href="#18" y="26.052"/><use xlink:href="#19" y="28.223"/></svg><svg x="4242"><use xlink:href="#a"/><use xlink:href="#1"/><use xlink:href="#7" y="2.171"/><use xlink:href="#8" y="4.342"/><use xlink:href="#9" y="6.513"/><use xlink:href="#10" y="8.684"/><use xlink:href="#11" y="10.855"/><use xlink:href="#12" y="13.026"/><use xlink:href="#13" y="15.197"/><use xlink:href="#14" y="17.368"/><use xlink:href="#15" y="19.539"/><use xlink:href="#16" y="21.71"/><use xlink:href="#17" y="23.881"/><use xlink:href="#18" y="26.052"/><use xlink:href="#19" y="28.223"/><use xlink:href="#1" y="32.565"/><use xlink:href="#2" y="34.736"/></svg><svg x="4343"><use xlink:href="#a"/><use xlink:href="#1"/><use xlink:href="#7" y="2.171"/><use xlink:href="#8" y="4.342"/><use xlink:href="#9" y="6.513"/><use xlink:href="#10" y="8.684"/><use xlink:href="#11" y="10.855"/><use xlink:href="#12" y="13.026"/><use xlink:href="#13" y="15.197"/><use xlink:href="#14" y="17.368"/><use xlink:href="#15" y="19.539"/><use xlink:href="#16" y="21.71"/><use xlink:href="#17" y="23.881"/><use xlink:href="#18" y="26.052"/><use xlink:href="#19" y="28.223"/><use xlink:href="#1" y="32.565"/><use xlink:href="#2" y="34.736"/><text y="38.577" class="f">exit</text></svg></svg></g></g></svg></svg>