<svg xmlns="http://www.w3.org/2000/svg" xmlns:xlink="http://www.w3.org/1999/xlink" width="1010" height="673.01"><rect width="1010" height="673.01" rx="0" ry="0" class="a"/><svg height="673.01" viewBox="0 0 101 67.301" width="1010" xmlns="http://www.w3.org/2000/svg" xmlns:xlink="http://www.w3.org/1999/xlink"><style>@keyframes h{0%{transform:translateX(0)}.3%{transform:translateX(-202px)}16.8%{transform:translateX(-303px)}18%{transform:translateX(-404px)}18.9%{transform:translateX(-505px)}19.8%{transform:translateX(-606px)}21.2%{transform:translateX(-707px)}22.4%{transform:translateX(-808px)}23.5%{transform:translateX(-909px)}25%{transform:translateX(-1010px)}26.5%{transform:translateX(-1111px)}28%{transform:translateX(-1212px)}30%{transform:translateX(-1313px)}31.1%{transform:translateX(-1414px)}32.9%{transform:translateX(-1515px)}33.9%{transform:translateX(-1616px)}41.1%{transform:translateX(-1717px)}42.2%{transform:translateX(-1818px)}43%{transform:translateX(-1919px)}44.5%{transform:translateX(-2020px)}45.8%{transform:translateX(-2121px)}49.7%{transform:translateX(-2222px)}51.2%{transform:translateX(-2323px)}52.8%{transform:translateX(-2424px)}53.8%{transform:translateX(-2525px)}54.5%{transform:translateX(-2626px)}55.4%{transform:translateX(-2727px)}57.4%{transform:translateX(-2828px)}58.5%{transform:translateX(-2929px)}59.5%{transform:translateX(-3030px)}60.4%{transform:translateX(-3131px)}68%{transform:translateX(-3232px)}68.1%{transform:translateX(-3333px)}84.5%{transform:translateX(-3434px)}85.7%{transform:translateX(-3535px)}85.8%{transform:translateX(-3939px)}87%{transform:translateX(-4242px)}to{transform:translateX(-4343px)}}.a{fill:#282d35}.c{fill:#a8cc8c}.c,.d,.f{white-space:pre}.d{fill:#71bef2;font-weight:700}.f{fill:#b9c0cb}</style><g font-family="Monaco,Consolas,Menlo,'Bitstream Vera Sans Mono','Powerline Symbols',monospace" font-size="1.67"><defs><symbol id="1"><text y="1.67" class="c">┌──(</text><text x="4.008" y="1.67" class="d">kali㉿kali-box</text><text x="17.034" y="1.67" class="c">)-[</text><text x="20.04" y="1.67" style="white-space:pre" fill="#b9c0cb" font-weight="700">~</text><text x="21.042" y="1.67" class="c">]</text></symbol><symbol id="2"><text y="1.67" class="c">└─</text><text x="2.004" y="1.67" class="d">$</text></symbol><symbol id="3"><text y="1.67" class="c">└─</text><text x="2.004" y="1.67" class="d">$</text><text x="4.008" y="1.67" class="f">sudo</text></symbol><symbol id="4"><text y="1.67" class="c">└─</text><text x="2.004" y="1.67" class="d">$</text><text x="4.008" y="1.67" class="f">sudo</text><text x="9.018" y="1.67" class="f">clw</text></symbol><symbol id="5"><text y="1.67" class="c">└─</text><text x="2.004" y="1.67" class="d">$</text><text x="4.008" y="1.67" class="f">sudo</text><text x="9.018" y="1.67" class="f">clw</text><text x="13.026" y="1.67" class="f">traceroute</text></symbol><symbol id="6"><text y="1.67" class="c">└─</text><text x="2.004" y="1.67" class="d">$</text><text x="4.008" y="1.67" class="f">sudo</text><text x="9.018" y="1.67" class="f">clw</text><text x="13.026" y="1.67" class="f">traceroute</text><text x="24.048" y="1.67" class="f">localhost</text></symbol><symbol id="7"><text y="1.67" class="f">[sudo]</text><text x="7.014" y="1.67" class="f">password</text><text x="16.032" y="1.67" class="f">for</text><text x="20.04" y="1.67" class="f">kali:</text></symbol><symbol id="8"><text y="1.67" class="f">#</text><text x="2.004" y="1.67" class="f">Warning:</text><text x="11.022" y="1.67" class="f">iptables-legacy</text><text x="27.054" y="1.67" class="f">tables</text><text x="34.068" y="1.67" class="f">present,</text><text x="43.086" y="1.67" class="f">use</text><text x="47.094" y="1.67" class="f">iptables-legacy-save</text><text x="68.136" y="1.67" class="f">to</text><text x="71.142" y="1.67" class="f">see</text><text x="75.15" y="1.67" class="f">them</text></symbol><symbol id="9"><text y="1.67" class="f">traceroute</text><text x="11.022" y="1.67" class="f">to</text><text x="14.028" y="1.67" class="f">localhost</text><text x="24.048" y="1.67" class="f">(127.0.0.1),</text><text x="37.074" y="1.67" class="f">30</text><text x="40.08" y="1.67" class="f">hops</text><text x="45.09" y="1.67" class="f">max,</text><text x="50.1" y="1.67" class="f">60</text><text x="53.106" y="1.67" class="f">byte</text><text x="58.116" y="1.67" class="f">packets</text></symbol><symbol id="10"><text x="1.002" y="1.67" class="f">1</text><text x="4.008" y="1.67" class="f">localhost</text><text x="14.028" y="1.67" class="f">(127.0.0.1)</text><text x="27.054" y="1.67" class="f">0.101</text><text x="33.066" y="1.67" class="f">ms</text><text x="37.074" y="1.67" class="f">0.031</text><text x="43.086" y="1.67" class="f">ms</text><text x="47.094" y="1.67" class="f">0.024</text><text x="53.106" y="1.67" class="f">ms</text></symbol><symbol id="11"><text y="1.67" class="f">clw</text><text x="4.008" y="1.67" class="f">results</text><text x="12.024" y="1.67" class="f">stored</text><text x="19.038" y="1.67" class="f">in:</text><text x="23.046" y="1.67" class="f">&quot;/root/.netmeld/clw/traceroute_20220518T213123.381633_70790065-e055-4d42-8a38-</text></symbol><symbol id="12"><text y="1.67" class="f">692399b215e8&quot;</text></symbol><symbol id="13"><text y="1.67" class="f">tool-run-id:</text><text x="13.026" y="1.67" class="f">70790065-e055-4d42-8a38-692399b215e8</text></symbol><symbol id="a"><path fill="transparent" d="M0 0h101v31H0z"/></symbol></defs><path class="a" d="M0 0h101v67.301H0z"/><g style="animation-duration:9.545616s;animation-iteration-count:infinite;animation-name:h;animation-timing-function:steps(1,end)"><svg width="4444"><svg><use xlink:href="#a"/></svg><svg x="101"><use xlink:href="#a"/><use xlink:href="#1"/></svg><svg x="202"><use xlink:href="#a"/><use xlink:href="#1"/><use xlink:href="#2" y="2.171"/></svg><svg x="303"><use xlink:href="#a"/><use xlink:href="#1"/><text y="3.841" class="c">└─</text><text x="2.004" y="3.841" class="d">$</text><text x="4.008" y="3.841" class="f">s</text></svg><svg x="404"><use xlink:href="#a"/><use xlink:href="#1"/><text y="3.841" class="c">└─</text><text x="2.004" y="3.841" class="d">$</text><text x="4.008" y="3.841" class="f">su</text></svg><svg x="505"><use xlink:href="#a"/><use xlink:href="#1"/><text y="3.841" class="c">└─</text><text x="2.004" y="3.841" class="d">$</text><text x="4.008" y="3.841" class="f">sud</text></svg><svg x="606"><use xlink:href="#a"/><use xlink:href="#1"/><use xlink:href="#3" y="2.171"/></svg><svg x="707"><use xlink:href="#a"/><use xlink:href="#1"/><use xlink:href="#3" y="2.171"/></svg><svg x="808"><use xlink:href="#a"/><use xlink:href="#1"/><text y="3.841" class="c">└─</text><text x="2.004" y="3.841" class="d">$</text><text x="4.008" y="3.841" class="f">sudo</text><text x="9.018" y="3.841" class="f">c</text></svg><svg x="909"><use xlink:href="#a"/><use xlink:href="#1"/><text y="3.841" class="c">└─</text><text x="2.004" y="3.841" class="d">$</text><text x="4.008" y="3.841" class="f">sudo</text><text x="9.018" y="3.841" class="f">cl</text></svg><svg x="1010"><use xlink:href="#a"/><use xlink:href="#1"/><use xlink:href="#4" y="2.171"/></svg><svg x="1111"><use xlink:href="#a"/><use xlink:href="#1"/><use xlink:href="#4" y="2.171"/></svg><svg x="1212"><use xlink:href="#a"/><use xlink:href="#1"/><text y="3.841" class="c">└─</text><text x="2.004" y="3.841" class="d">$</text><text x="4.008" y="3.841" class="f">sudo</text><text x="9.018" y="3.841" class="f">clw</text><text x="13.026" y="3.841" class="f">t</text></svg><svg x="1313"><use xlink:href="#a"/><use xlink:href="#1"/><text y="3.841" class="c">└─</text><text x="2.004" y="3.841" class="d">$</text><text x="4.008" y="3.841" class="f">sudo</text><text x="9.018" y="3.841" class="f">clw</text><text x="13.026" y="3.841" class="f">tr</text></svg><svg x="1414"><use xlink:href="#a"/><use xlink:href="#1"/><text y="3.841" class="c">└─</text><text x="2.004" y="3.841" class="d">$</text><text x="4.008" y="3.841" class="f">sudo</text><text x="9.018" y="3.841" class="f">clw</text><text x="13.026" y="3.841" class="f">tra</text></svg><svg x="1515"><use xlink:href="#a"/><use xlink:href="#1"/><text y="3.841" class="c">└─</text><text x="2.004" y="3.841" class="d">$</text><text x="4.008" y="3.841" class="f">sudo</text><text x="9.018" y="3.841" class="f">clw</text><text x="13.026" y="3.841" class="f">trac</text></svg><svg x="1616"><use xlink:href="#a"/><use xlink:href="#1"/><text y="3.841" class="c">└─</text><text x="2.004" y="3.841" class="d">$</text><text x="4.008" y="3.841" class="f">sudo</text><text x="9.018" y="3.841" class="f">clw</text><text x="13.026" y="3.841" class="f">trace</text></svg><svg x="1717"><use xlink:href="#a"/><use xlink:href="#1"/><text y="3.841" class="c">└─</text><text x="2.004" y="3.841" class="d">$</text><text x="4.008" y="3.841" class="f">sudo</text><text x="9.018" y="3.841" class="f">clw</text><text x="13.026" y="3.841" class="f">tracer</text></svg><svg x="1818"><use xlink:href="#a"/><use xlink:href="#1"/><text y="3.841" class="c">└─</text><text x="2.004" y="3.841" class="d">$</text><text x="4.008" y="3.841" class="f">sudo</text><text x="9.018" y="3.841" class="f">clw</text><text x="13.026" y="3.841" class="f">tracero</text></svg><svg x="1919"><use xlink:href="#a"/><use xlink:href="#1"/><text y="3.841" class="c">└─</text><text x="2.004" y="3.841" class="d">$</text><text x="4.008" y="3.841" class="f">sudo</text><text x="9.018" y="3.841" class="f">clw</text><text x="13.026" y="3.841" class="f">tracerou</text></svg><svg x="2020"><use xlink:href="#a"/><use xlink:href="#1"/><text y="3.841" class="c">└─</text><text x="2.004" y="3.841" class="d">$</text><text x="4.008" y="3.841" class="f">sudo</text><text x="9.018" y="3.841" class="f">clw</text><text x="13.026" y="3.841" class="f">tracerout</text></svg><svg x="2121"><use xlink:href="#a"/><use xlink:href="#1"/><use xlink:href="#5" y="2.171"/></svg><svg x="2222"><use xlink:href="#a"/><use xlink:href="#1"/><use xlink:href="#5" y="2.171"/></svg><svg x="2323"><use xlink:href="#a"/><use xlink:href="#1"/><text y="3.841" class="c">└─</text><text x="2.004" y="3.841" class="d">$</text><text x="4.008" y="3.841" class="f">sudo</text><text x="9.018" y="3.841" class="f">clw</text><text x="13.026" y="3.841" class="f">traceroute</text><text x="24.048" y="3.841" class="f">l</text></svg><svg x="2424"><use xlink:href="#a"/><use xlink:href="#1"/><text y="3.841" class="c">└─</text><text x="2.004" y="3.841" class="d">$</text><text x="4.008" y="3.841" class="f">sudo</text><text x="9.018" y="3.841" class="f">clw</text><text x="13.026" y="3.841" class="f">traceroute</text><text x="24.048" y="3.841" class="f">lo</text></svg><svg x="2525"><use xlink:href="#a"/><use xlink:href="#1"/><text y="3.841" class="c">└─</text><text x="2.004" y="3.841" class="d">$</text><text x="4.008" y="3.841" class="f">sudo</text><text x="9.018" y="3.841" class="f">clw</text><text x="13.026" y="3.841" class="f">traceroute</text><text x="24.048" y="3.841" class="f">loc</text></svg><svg x="2626"><use xlink:href="#a"/><use xlink:href="#1"/><text y="3.841" class="c">└─</text><text x="2.004" y="3.841" class="d">$</text><text x="4.008" y="3.841" class="f">sudo</text><text x="9.018" y="3.841" class="f">clw</text><text x="13.026" y="3.841" class="f">traceroute</text><text x="24.048" y="3.841" class="f">loca</text></svg><svg x="2727"><use xlink:href="#a"/><use xlink:href="#1"/><text y="3.841" class="c">└─</text><text x="2.004" y="3.841" class="d">$</text><text x="4.008" y="3.841" class="f">sudo</text><text x="9.018" y="3.841" class="f">clw</text><text x="13.026" y="3.841" class="f">traceroute</text><text x="24.048" y="3.841" class="f">local</text></svg><svg x="2828"><use xlink:href="#a"/><use xlink:href="#1"/><text y="3.841" class="c">└─</text><text x="2.004" y="3.841" class="d">$</text><text x="4.008" y="3.841" class="f">sudo</text><text x="9.018" y="3.841" class="f">clw</text><text x="13.026" y="3.841" class="f">traceroute</text><text x="24.048" y="3.841" class="f">localh</text></svg><svg x="2929"><use xlink:href="#a"/><use xlink:href="#1"/><text y="3.841" class="c">└─</text><text x="2.004" y="3.841" class="d">$</text><text x="4.008" y="3.841" class="f">sudo</text><text x="9.018" y="3.841" class="f">clw</text><text x="13.026" y="3.841" class="f">traceroute</text><text x="24.048" y="3.841" class="f">localho</text></svg><svg x="3030"><use xlink:href="#a"/><use xlink:href="#1"/><text y="3.841" class="c">└─</text><text x="2.004" y="3.841" class="d">$</text><text x="4.008" y="3.841" class="f">sudo</text><text x="9.018" y="3.841" class="f">clw</text><text x="13.026" y="3.841" class="f">traceroute</text><text x="24.048" y="3.841" class="f">localhos</text></svg><svg x="3131"><use xlink:href="#a"/><use xlink:href="#1"/><use xlink:href="#6" y="2.171"/></svg><svg x="3232"><use xlink:href="#a"/><use xlink:href="#1"/><use xlink:href="#6" y="2.171"/></svg><svg x="3333"><use xlink:href="#a"/><use xlink:href="#1"/><use xlink:href="#6" y="2.171"/><use xlink:href="#7" y="4.342"/></svg><svg x="3434"><use xlink:href="#a"/><use xlink:href="#1"/><use xlink:href="#6" y="2.171"/><use xlink:href="#7" y="4.342"/></svg><svg x="3535"><use xlink:href="#a"/><use xlink:href="#1"/><use xlink:href="#6" y="2.171"/><use xlink:href="#7" y="4.342"/><use xlink:href="#8" y="6.513"/></svg><svg x="3636"><use xlink:href="#a"/><use xlink:href="#1"/><use xlink:href="#6" y="2.171"/><use xlink:href="#7" y="4.342"/><use xlink:href="#8" y="6.513"/><use xlink:href="#9" y="8.684"/></svg><svg x="3737"><use xlink:href="#a"/><use xlink:href="#1"/><use xlink:href="#6" y="2.171"/><use xlink:href="#7" y="4.342"/><use xlink:href="#8" y="6.513"/><use xlink:href="#9" y="8.684"/></svg><svg x="3838"><use xlink:href="#a"/><use xlink:href="#1"/><use xlink:href="#6" y="2.171"/><use xlink:href="#7" y="4.342"/><use xlink:href="#8" y="6.513"/><use xlink:href="#9" y="8.684"/><use xlink:href="#10" y="10.855"/></svg><svg x="3939"><use xlink:href="#a"/><use xlink:href="#1"/><use xlink:href="#6" y="2.171"/><use xlink:href="#7" y="4.342"/><use xlink:href="#8" y="6.513"/><use xlink:href="#9" y="8.684"/><use xlink:href="#10" y="10.855"/><use xlink:href="#11" y="13.026"/><use xlink:href="#12" y="15.197"/></svg><svg x="4040"><use xlink:href="#a"/><use xlink:href="#1"/><use xlink:href="#6" y="2.171"/><use xlink:href="#7" y="4.342"/><use xlink:href="#8" y="6.513"/><use xlink:href="#9" y="8.684"/><use xlink:href="#10" y="10.855"/><use xlink:href="#11" y="13.026"/><use xlink:href="#12" y="15.197"/><use xlink:href="#13" y="17.368"/></svg><svg x="4141"><use xlink:href="#a"/><use xlink:href="#1"/><use xlink:href="#6" y="2.171"/><use xlink:href="#7" y="4.342"/><use xlink:href="#8" y="6.513"/><use xlink:href="#9" y="8.684"/><use xlink:href="#10" y="10.855"/><use xlink:href="#11" y="13.026"/><use xlink:href="#12" y="15.197"/><use xlink:href="#13" y="17.368"/></svg><svg x="4242"><use xlink:href="#a"/><use xlink:href="#1"/><use xlink:href="#6" y="2.171"/><use xlink:href="#7" y="4.342"/><use xlink:href="#8" y="6.513"/><use xlink:href="#9" y="8.684"/><use xlink:href="#10" y="10.855"/><use xlink:href="#11" y="13.026"/><use xlink:href="#12" y="15.197"/><use xlink:href="#13" y="17.368"/><use xlink:href="#1" y="21.71"/><use xlink:href="#2" y="23.881"/></svg><svg x="4343"><use xlink:href="#a"/><use xlink:href="#1"/><use xlink:href="#6" y="2.171"/><use xlink:href="#7" y="4.342"/><use xlink:href="#8" y="6.513"/><use xlink:href="#9" y="8.684"/><use xlink:href="#10" y="10.855"/><use xlink:href="#11" y="13.026"/><use xlink:href="#12" y="15.197"/><use xlink:href="#13" y="17.368"/><use xlink:href="#1" y="21.71"/><use xlink:href="#2" y="23.881"/><text y="27.722" class="f">exit</text></svg></svg></g></g></svg></svg>