<?xml version="1.0" encoding="UTF-8" standalone="no"?>
<!--?xml version="1.0" encoding="utf-8"?-->

<!-- Generator: Adobe Illustrator 18.1.1, SVG Export Plug-In . SVG Version: 6.00 Build 0)  -->

<svg
   xmlns:dc="http://purl.org/dc/elements/1.1/"
   xmlns:cc="http://creativecommons.org/ns#"
   xmlns:rdf="http://www.w3.org/1999/02/22-rdf-syntax-ns#"
   xmlns:svg="http://www.w3.org/2000/svg"
   xmlns="http://www.w3.org/2000/svg"
   xmlns:sodipodi="http://sodipodi.sourceforge.net/DTD/sodipodi-0.dtd"
   xmlns:inkscape="http://www.inkscape.org/namespaces/inkscape"
   version="1.1"
   id="_x31_0"
   x="0px"
   y="0px"
   viewBox="0 0 512 512"
   style="width: 512px; height: 512px; opacity: 1;"
   xml:space="preserve"
   inkscape:version="0.48.5 r10040"
   width="100%"
   height="100%"
   sodipodi:docname="LAN network free icon 4.svg"><metadata
     id="metadata21"><rdf:RDF><cc:Work
         rdf:about=""><dc:format>image/svg+xml</dc:format><dc:type
           rdf:resource="http://purl.org/dc/dcmitype/StillImage" /><dc:title></dc:title></cc:Work></rdf:RDF></metadata><defs
     id="defs19" /><sodipodi:namedview
     pagecolor="#ffffff"
     bordercolor="#666666"
     borderopacity="1"
     objecttolerance="10"
     gridtolerance="10"
     guidetolerance="10"
     inkscape:pageopacity="0"
     inkscape:pageshadow="2"
     inkscape:window-width="640"
     inkscape:window-height="480"
     id="namedview17"
     showgrid="false"
     inkscape:zoom="0.4609375"
     inkscape:cx="256"
     inkscape:cy="256"
     inkscape:window-x="0"
     inkscape:window-y="27"
     inkscape:window-maximized="0"
     inkscape:current-layer="_x31_0" /><style
     type="text/css"
     id="style3">
	.st0{fill:#374149;}
</style><g
     id="g5"><path
       style="fill: rgb(75, 75, 75);"
       class="st0"
       d="M342.547,0.629V0.16l0,0V0H169.441v153.863h173.106V0.629z M300.23,111.547h-88.55V42.238h88.438h0.113v69.254   V111.547z"
       id="path7" /><path
       style="fill: rgb(75, 75, 75);"
       class="st0"
       d="M146.746,389.34v-0.16H92.867h-30.57H8.8H8.636l0,0h-0.16v122.285v0.375l0,0V512h138.27V389.715l0.004-0.375   H146.746z M42.195,478.285v-55.386h70.836v55.386H42.464H42.195z"
       id="path9" /><path
       style="fill: rgb(75, 75, 75);"
       class="st0"
       d="M240.688,389.18h-53.496h-0.165l0,0h-0.16V512h138.27V389.18h-53.882H240.688z M291.422,478.274v0.011h-70.566   h-0.274v-55.386h70.84V478.274z"
       id="path11" /><path
       style="fill: rgb(75, 75, 75);"
       class="st0"
       d="M449.644,389.18h-30.57h-53.496h-0.164l0,0h-0.16v122.285v0.375l0,0V512h138.27V389.18H449.644z    M398.968,478.285v-55.386h70.84v55.386h-70.566H398.968z"
       id="path13" /><polygon
       style="fill: rgb(75, 75, 75);"
       class="st0"
       points="58.453,351.324 58.453,351.484 96.426,351.484 96.539,351.484 96.539,351.484 96.703,351.484    96.703,273.793 236.562,273.793 236.832,273.793 236.832,351.484 274.8,351.484 274.918,351.484 274.918,351.484 275.078,351.484    275.078,273.793 415.02,273.793 415.289,273.793 415.289,351.086 415.289,351.324 415.289,351.324 415.289,351.484    453.535,351.484 453.535,273.793 453.535,234.75 415.289,234.75 275.344,234.75 275.078,234.75 275.078,191.55 237.109,191.55    236.992,191.55 236.992,191.55 236.832,191.55 236.832,234.75 96.703,234.75 58.73,234.75 58.613,234.75 58.613,234.75    58.453,234.75 58.453,273.793 58.453,351.086 58.453,351.324  "
       id="polygon15" /></g></svg>