<svg xmlns="http://www.w3.org/2000/svg" xmlns:xlink="http://www.w3.org/1999/xlink" width="1010" height="716.43"><rect width="1010" height="716.43" rx="0" ry="0" class="a"/><svg height="716.43" viewBox="0 0 101 71.643" width="1010" xmlns="http://www.w3.org/2000/svg" xmlns:xlink="http://www.w3.org/1999/xlink"><style>@keyframes h{0%{transform:translateX(0)}.3%{transform:translateX(-101px)}12.6%{transform:translateX(-202px)}13.3%{transform:translateX(-303px)}14.8%{transform:translateX(-404px)}15.7%{transform:translateX(-505px)}16.9%{transform:translateX(-606px)}18.1%{transform:translateX(-707px)}19.2%{transform:translateX(-808px)}20.9%{transform:translateX(-909px)}22%{transform:translateX(-1010px)}23.8%{transform:translateX(-1111px)}25.7%{transform:translateX(-1212px)}26.3%{transform:translateX(-1313px)}27.2%{transform:translateX(-1414px)}28.2%{transform:translateX(-1515px)}29.4%{transform:translateX(-1616px)}31.3%{transform:translateX(-1717px)}32%{transform:translateX(-1818px)}32.9%{transform:translateX(-1919px)}33.7%{transform:translateX(-2020px)}35.4%{transform:translateX(-2121px)}36.6%{transform:translateX(-2222px)}37.4%{transform:translateX(-2323px)}38.2%{transform:translateX(-2424px)}40.3%{transform:translateX(-2525px)}40.4%{transform:translateX(-2626px)}55.6%{transform:translateX(-2727px)}56.8%{transform:translateX(-3030px)}67%{transform:translateX(-3131px)}77.3%{transform:translateX(-3232px)}87.6%{transform:translateX(-3333px)}92.3%{transform:translateX(-3535px)}93.6%{transform:translateX(-3838px)}to{transform:translateX(-3939px)}}.a{fill:#282d35}.c{fill:#a8cc8c}.c,.d,.f{white-space:pre}.d{fill:#71bef2;font-weight:700}.f{fill:#b9c0cb}</style><g font-family="Monaco,Consolas,Menlo,'Bitstream Vera Sans Mono','Powerline Symbols',monospace" font-size="1.67"><defs><symbol id="1"><text y="1.67" class="c">┌──(</text><text x="4.008" y="1.67" class="d">kali㉿kali-box</text><text x="17.034" y="1.67" class="c">)-[</text><text x="20.04" y="1.67" style="white-space:pre" fill="#b9c0cb" font-weight="700">~</text><text x="21.042" y="1.67" class="c">]</text></symbol><symbol id="2"><text y="1.67" class="c">└─</text><text x="2.004" y="1.67" class="d">$</text></symbol><symbol id="3"><text y="1.67" class="c">└─</text><text x="2.004" y="1.67" class="d">$</text><text x="4.008" y="1.67" class="f">sudo</text></symbol><symbol id="4"><text y="1.67" class="c">└─</text><text x="2.004" y="1.67" class="d">$</text><text x="4.008" y="1.67" class="f">sudo</text><text x="9.018" y="1.67" class="f">clw</text></symbol><symbol id="5"><text y="1.67" class="c">└─</text><text x="2.004" y="1.67" class="d">$</text><text x="4.008" y="1.67" class="f">sudo</text><text x="9.018" y="1.67" class="f">clw</text><text x="13.026" y="1.67" class="f">ping</text></symbol><symbol id="6"><text y="1.67" class="c">└─</text><text x="2.004" y="1.67" class="d">$</text><text x="4.008" y="1.67" class="f">sudo</text><text x="9.018" y="1.67" class="f">clw</text><text x="13.026" y="1.67" class="f">ping</text><text x="18.036" y="1.67" class="f">localhost</text></symbol><symbol id="7"><text y="1.67" class="f">[sudo]</text><text x="7.014" y="1.67" class="f">password</text><text x="16.032" y="1.67" class="f">for</text><text x="20.04" y="1.67" class="f">kali:</text></symbol><symbol id="8"><text y="1.67" class="f">#</text><text x="2.004" y="1.67" class="f">Warning:</text><text x="11.022" y="1.67" class="f">iptables-legacy</text><text x="27.054" y="1.67" class="f">tables</text><text x="34.068" y="1.67" class="f">present,</text><text x="43.086" y="1.67" class="f">use</text><text x="47.094" y="1.67" class="f">iptables-legacy-save</text><text x="68.136" y="1.67" class="f">to</text><text x="71.142" y="1.67" class="f">see</text><text x="75.15" y="1.67" class="f">them</text></symbol><symbol id="9"><text y="1.67" class="f">PING</text><text x="5.01" y="1.67" class="f">localhost(::1)</text><text x="20.04" y="1.67" class="f">56</text><text x="23.046" y="1.67" class="f">data</text><text x="28.056" y="1.67" class="f">bytes</text></symbol><symbol id="10"><text y="1.67" class="f">64</text><text x="3.006" y="1.67" class="f">bytes</text><text x="9.018" y="1.67" class="f">from</text><text x="14.028" y="1.67" class="f">::1:</text><text x="19.038" y="1.67" class="f">icmp_seq=1</text><text x="30.06" y="1.67" class="f">ttl=64</text><text x="37.074" y="1.67" class="f">time=0.029</text><text x="48.096" y="1.67" class="f">ms</text></symbol><symbol id="11"><text y="1.67" class="f">64</text><text x="3.006" y="1.67" class="f">bytes</text><text x="9.018" y="1.67" class="f">from</text><text x="14.028" y="1.67" class="f">::1:</text><text x="19.038" y="1.67" class="f">icmp_seq=2</text><text x="30.06" y="1.67" class="f">ttl=64</text><text x="37.074" y="1.67" class="f">time=0.049</text><text x="48.096" y="1.67" class="f">ms</text></symbol><symbol id="12"><text y="1.67" class="f">64</text><text x="3.006" y="1.67" class="f">bytes</text><text x="9.018" y="1.67" class="f">from</text><text x="14.028" y="1.67" class="f">::1:</text><text x="19.038" y="1.67" class="f">icmp_seq=3</text><text x="30.06" y="1.67" class="f">ttl=64</text><text x="37.074" y="1.67" class="f">time=0.044</text><text x="48.096" y="1.67" class="f">ms</text></symbol><symbol id="13"><text y="1.67" class="f">64</text><text x="3.006" y="1.67" class="f">bytes</text><text x="9.018" y="1.67" class="f">from</text><text x="14.028" y="1.67" class="f">::1:</text><text x="19.038" y="1.67" class="f">icmp_seq=4</text><text x="30.06" y="1.67" class="f">ttl=64</text><text x="37.074" y="1.67" class="f">time=0.040</text><text x="48.096" y="1.67" class="f">ms</text></symbol><symbol id="14"><text y="1.67" class="f">^C</text></symbol><symbol id="15"><text y="1.67" class="f">---</text><text x="4.008" y="1.67" class="f">localhost</text><text x="14.028" y="1.67" class="f">ping</text><text x="19.038" y="1.67" class="f">statistics</text><text x="30.06" y="1.67" class="f">---</text></symbol><symbol id="16"><text y="1.67" class="f">4</text><text x="2.004" y="1.67" class="f">packets</text><text x="10.02" y="1.67" class="f">transmitted,</text><text x="23.046" y="1.67" class="f">4</text><text x="25.05" y="1.67" class="f">received,</text><text x="35.07" y="1.67" class="f">0%</text><text x="38.076" y="1.67" class="f">packet</text><text x="45.09" y="1.67" class="f">loss,</text><text x="51.102" y="1.67" class="f">time</text><text x="56.112" y="1.67" class="f">3059ms</text></symbol><symbol id="17"><text y="1.67" class="f">rtt</text><text x="4.008" y="1.67" class="f">min/avg/max/mdev</text><text x="21.042" y="1.67" class="f">=</text><text x="23.046" y="1.67" class="f">0.029/0.040/0.049/0.007</text><text x="47.094" y="1.67" class="f">ms</text></symbol><symbol id="18"><text y="1.67" class="f">clw</text><text x="4.008" y="1.67" class="f">results</text><text x="12.024" y="1.67" class="f">stored</text><text x="19.038" y="1.67" class="f">in:</text><text x="23.046" y="1.67" class="f">&quot;/root/.netmeld/clw/ping_20220518T211710.136370_ceeb3e6d-646e-43b1-8163-de08f9</text></symbol><symbol id="19"><text y="1.67" class="f">731152&quot;</text></symbol><symbol id="20"><text y="1.67" class="f">tool-run-id:</text><text x="13.026" y="1.67" class="f">ceeb3e6d-646e-43b1-8163-de08f9731152</text></symbol><symbol id="a"><path fill="transparent" d="M0 0h101v33H0z"/></symbol></defs><path class="a" d="M0 0h101v71.643H0z"/><g style="animation-duration:9.947489s;animation-iteration-count:infinite;animation-name:h;animation-timing-function:steps(1,end)"><svg width="4040"><svg><use xlink:href="#a"/></svg><svg x="101"><use xlink:href="#a"/><use xlink:href="#1"/><use xlink:href="#2" y="2.171"/></svg><svg x="202"><use xlink:href="#a"/><use xlink:href="#1"/><text y="3.841" class="c">└─</text><text x="2.004" y="3.841" class="d">$</text><text x="4.008" y="3.841" class="f">s</text></svg><svg x="303"><use xlink:href="#a"/><use xlink:href="#1"/><text y="3.841" class="c">└─</text><text x="2.004" y="3.841" class="d">$</text><text x="4.008" y="3.841" class="f">su</text></svg><svg x="404"><use xlink:href="#a"/><use xlink:href="#1"/><text y="3.841" class="c">└─</text><text x="2.004" y="3.841" class="d">$</text><text x="4.008" y="3.841" class="f">sud</text></svg><svg x="505"><use xlink:href="#a"/><use xlink:href="#1"/><use xlink:href="#3" y="2.171"/></svg><svg x="606"><use xlink:href="#a"/><use xlink:href="#1"/><use xlink:href="#3" y="2.171"/></svg><svg x="707"><use xlink:href="#a"/><use xlink:href="#1"/><text y="3.841" class="c">└─</text><text x="2.004" y="3.841" class="d">$</text><text x="4.008" y="3.841" class="f">sudo</text><text x="9.018" y="3.841" class="f">c</text></svg><svg x="808"><use xlink:href="#a"/><use xlink:href="#1"/><text y="3.841" class="c">└─</text><text x="2.004" y="3.841" class="d">$</text><text x="4.008" y="3.841" class="f">sudo</text><text x="9.018" y="3.841" class="f">cl</text></svg><svg x="909"><use xlink:href="#a"/><use xlink:href="#1"/><use xlink:href="#4" y="2.171"/></svg><svg x="1010"><use xlink:href="#a"/><use xlink:href="#1"/><use xlink:href="#4" y="2.171"/></svg><svg x="1111"><use xlink:href="#a"/><use xlink:href="#1"/><text y="3.841" class="c">└─</text><text x="2.004" y="3.841" class="d">$</text><text x="4.008" y="3.841" class="f">sudo</text><text x="9.018" y="3.841" class="f">clw</text><text x="13.026" y="3.841" class="f">p</text></svg><svg x="1212"><use xlink:href="#a"/><use xlink:href="#1"/><text y="3.841" class="c">└─</text><text x="2.004" y="3.841" class="d">$</text><text x="4.008" y="3.841" class="f">sudo</text><text x="9.018" y="3.841" class="f">clw</text><text x="13.026" y="3.841" class="f">pi</text></svg><svg x="1313"><use xlink:href="#a"/><use xlink:href="#1"/><text y="3.841" class="c">└─</text><text x="2.004" y="3.841" class="d">$</text><text x="4.008" y="3.841" class="f">sudo</text><text x="9.018" y="3.841" class="f">clw</text><text x="13.026" y="3.841" class="f">pin</text></svg><svg x="1414"><use xlink:href="#a"/><use xlink:href="#1"/><use xlink:href="#5" y="2.171"/></svg><svg x="1515"><use xlink:href="#a"/><use xlink:href="#1"/><use xlink:href="#5" y="2.171"/></svg><svg x="1616"><use xlink:href="#a"/><use xlink:href="#1"/><text y="3.841" class="c">└─</text><text x="2.004" y="3.841" class="d">$</text><text x="4.008" y="3.841" class="f">sudo</text><text x="9.018" y="3.841" class="f">clw</text><text x="13.026" y="3.841" class="f">ping</text><text x="18.036" y="3.841" class="f">l</text></svg><svg x="1717"><use xlink:href="#a"/><use xlink:href="#1"/><text y="3.841" class="c">└─</text><text x="2.004" y="3.841" class="d">$</text><text x="4.008" y="3.841" class="f">sudo</text><text x="9.018" y="3.841" class="f">clw</text><text x="13.026" y="3.841" class="f">ping</text><text x="18.036" y="3.841" class="f">lo</text></svg><svg x="1818"><use xlink:href="#a"/><use xlink:href="#1"/><text y="3.841" class="c">└─</text><text x="2.004" y="3.841" class="d">$</text><text x="4.008" y="3.841" class="f">sudo</text><text x="9.018" y="3.841" class="f">clw</text><text x="13.026" y="3.841" class="f">ping</text><text x="18.036" y="3.841" class="f">loc</text></svg><svg x="1919"><use xlink:href="#a"/><use xlink:href="#1"/><text y="3.841" class="c">└─</text><text x="2.004" y="3.841" class="d">$</text><text x="4.008" y="3.841" class="f">sudo</text><text x="9.018" y="3.841" class="f">clw</text><text x="13.026" y="3.841" class="f">ping</text><text x="18.036" y="3.841" class="f">loca</text></svg><svg x="2020"><use xlink:href="#a"/><use xlink:href="#1"/><text y="3.841" class="c">└─</text><text x="2.004" y="3.841" class="d">$</text><text x="4.008" y="3.841" class="f">sudo</text><text x="9.018" y="3.841" class="f">clw</text><text x="13.026" y="3.841" class="f">ping</text><text x="18.036" y="3.841" class="f">local</text></svg><svg x="2121"><use xlink:href="#a"/><use xlink:href="#1"/><text y="3.841" class="c">└─</text><text x="2.004" y="3.841" class="d">$</text><text x="4.008" y="3.841" class="f">sudo</text><text x="9.018" y="3.841" class="f">clw</text><text x="13.026" y="3.841" class="f">ping</text><text x="18.036" y="3.841" class="f">localh</text></svg><svg x="2222"><use xlink:href="#a"/><use xlink:href="#1"/><text y="3.841" class="c">└─</text><text x="2.004" y="3.841" class="d">$</text><text x="4.008" y="3.841" class="f">sudo</text><text x="9.018" y="3.841" class="f">clw</text><text x="13.026" y="3.841" class="f">ping</text><text x="18.036" y="3.841" class="f">localho</text></svg><svg x="2323"><use xlink:href="#a"/><use xlink:href="#1"/><text y="3.841" class="c">└─</text><text x="2.004" y="3.841" class="d">$</text><text x="4.008" y="3.841" class="f">sudo</text><text x="9.018" y="3.841" class="f">clw</text><text x="13.026" y="3.841" class="f">ping</text><text x="18.036" y="3.841" class="f">localhos</text></svg><svg x="2424"><use xlink:href="#a"/><use xlink:href="#1"/><use xlink:href="#6" y="2.171"/></svg><svg x="2525"><use xlink:href="#a"/><use xlink:href="#1"/><use xlink:href="#6" y="2.171"/></svg><svg x="2626"><use xlink:href="#a"/><use xlink:href="#1"/><use xlink:href="#6" y="2.171"/><use xlink:href="#7" y="4.342"/></svg><svg x="2727"><use xlink:href="#a"/><use xlink:href="#1"/><use xlink:href="#6" y="2.171"/><use xlink:href="#7" y="4.342"/></svg><svg x="2828"><use xlink:href="#a"/><use xlink:href="#1"/><use xlink:href="#6" y="2.171"/><use xlink:href="#7" y="4.342"/><use xlink:href="#8" y="6.513"/></svg><svg x="2929"><use xlink:href="#a"/><use xlink:href="#1"/><use xlink:href="#6" y="2.171"/><use xlink:href="#7" y="4.342"/><use xlink:href="#8" y="6.513"/><use xlink:href="#9" y="8.684"/></svg><svg x="3030"><use xlink:href="#a"/><use xlink:href="#1"/><use xlink:href="#6" y="2.171"/><use xlink:href="#7" y="4.342"/><use xlink:href="#8" y="6.513"/><use xlink:href="#9" y="8.684"/><use xlink:href="#10" y="10.855"/></svg><svg x="3131"><use xlink:href="#a"/><use xlink:href="#1"/><use xlink:href="#6" y="2.171"/><use xlink:href="#7" y="4.342"/><use xlink:href="#8" y="6.513"/><use xlink:href="#9" y="8.684"/><use xlink:href="#10" y="10.855"/><use xlink:href="#11" y="13.026"/></svg><svg x="3232"><use xlink:href="#a"/><use xlink:href="#1"/><use xlink:href="#6" y="2.171"/><use xlink:href="#7" y="4.342"/><use xlink:href="#8" y="6.513"/><use xlink:href="#9" y="8.684"/><use xlink:href="#10" y="10.855"/><use xlink:href="#11" y="13.026"/><use xlink:href="#12" y="15.197"/></svg><svg x="3333"><use xlink:href="#a"/><use xlink:href="#1"/><use xlink:href="#6" y="2.171"/><use xlink:href="#7" y="4.342"/><use xlink:href="#8" y="6.513"/><use xlink:href="#9" y="8.684"/><use xlink:href="#10" y="10.855"/><use xlink:href="#11" y="13.026"/><use xlink:href="#12" y="15.197"/><use xlink:href="#13" y="17.368"/></svg><svg x="3434"><use xlink:href="#a"/><use xlink:href="#1"/><use xlink:href="#6" y="2.171"/><use xlink:href="#7" y="4.342"/><use xlink:href="#8" y="6.513"/><use xlink:href="#9" y="8.684"/><use xlink:href="#10" y="10.855"/><use xlink:href="#11" y="13.026"/><use xlink:href="#12" y="15.197"/><use xlink:href="#13" y="17.368"/><use xlink:href="#14" y="19.539"/><use xlink:href="#15" y="21.71"/><use xlink:href="#16" y="23.881"/><use xlink:href="#17" y="26.052"/></svg><svg x="3535"><use xlink:href="#a"/><use xlink:href="#1"/><use xlink:href="#6" y="2.171"/><use xlink:href="#7" y="4.342"/><use xlink:href="#8" y="6.513"/><use xlink:href="#9" y="8.684"/><use xlink:href="#10" y="10.855"/><use xlink:href="#11" y="13.026"/><use xlink:href="#12" y="15.197"/><use xlink:href="#13" y="17.368"/><use xlink:href="#14" y="19.539"/><use xlink:href="#15" y="21.71"/><use xlink:href="#16" y="23.881"/><use xlink:href="#17" y="26.052"/><use xlink:href="#18" y="28.223"/><use xlink:href="#19" y="30.394"/></svg><svg x="3636"><use xlink:href="#a"/><use xlink:href="#1"/><use xlink:href="#6" y="2.171"/><use xlink:href="#7" y="4.342"/><use xlink:href="#8" y="6.513"/><use xlink:href="#9" y="8.684"/><use xlink:href="#10" y="10.855"/><use xlink:href="#11" y="13.026"/><use xlink:href="#12" y="15.197"/><use xlink:href="#13" y="17.368"/><use xlink:href="#14" y="19.539"/><use xlink:href="#15" y="21.71"/><use xlink:href="#16" y="23.881"/><use xlink:href="#17" y="26.052"/><use xlink:href="#18" y="28.223"/><use xlink:href="#19" y="30.394"/><use xlink:href="#20" y="32.565"/></svg><svg x="3737"><use xlink:href="#a"/><use xlink:href="#1"/><use xlink:href="#6" y="2.171"/><use xlink:href="#7" y="4.342"/><use xlink:href="#8" y="6.513"/><use xlink:href="#9" y="8.684"/><use xlink:href="#10" y="10.855"/><use xlink:href="#11" y="13.026"/><use xlink:href="#12" y="15.197"/><use xlink:href="#13" y="17.368"/><use xlink:href="#14" y="19.539"/><use xlink:href="#15" y="21.71"/><use xlink:href="#16" y="23.881"/><use xlink:href="#17" y="26.052"/><use xlink:href="#18" y="28.223"/><use xlink:href="#19" y="30.394"/><use xlink:href="#20" y="32.565"/></svg><svg x="3838"><use xlink:href="#a"/><use xlink:href="#1"/><use xlink:href="#6" y="2.171"/><use xlink:href="#7" y="4.342"/><use xlink:href="#8" y="6.513"/><use xlink:href="#9" y="8.684"/><use xlink:href="#10" y="10.855"/><use xlink:href="#11" y="13.026"/><use xlink:href="#12" y="15.197"/><use xlink:href="#13" y="17.368"/><use xlink:href="#14" y="19.539"/><use xlink:href="#15" y="21.71"/><use xlink:href="#16" y="23.881"/><use xlink:href="#17" y="26.052"/><use xlink:href="#18" y="28.223"/><use xlink:href="#19" y="30.394"/><use xlink:href="#20" y="32.565"/><use xlink:href="#1" y="36.907"/><use xlink:href="#2" y="39.078"/></svg><svg x="3939"><use xlink:href="#a"/><use xlink:href="#1"/><use xlink:href="#6" y="2.171"/><use xlink:href="#7" y="4.342"/><use xlink:href="#8" y="6.513"/><use xlink:href="#9" y="8.684"/><use xlink:href="#10" y="10.855"/><use xlink:href="#11" y="13.026"/><use xlink:href="#12" y="15.197"/><use xlink:href="#13" y="17.368"/><use xlink:href="#14" y="19.539"/><use xlink:href="#15" y="21.71"/><use xlink:href="#16" y="23.881"/><use xlink:href="#17" y="26.052"/><use xlink:href="#18" y="28.223"/><use xlink:href="#19" y="30.394"/><use xlink:href="#20" y="32.565"/><use xlink:href="#1" y="36.907"/><use xlink:href="#2" y="39.078"/><text y="42.919" class="f">exit</text></svg></svg></g></g></svg></svg>