<svg xmlns="http://www.w3.org/2000/svg" xmlns:xlink="http://www.w3.org/1999/xlink" width="770" height="542.75"><rect width="770" height="542.75" rx="0" ry="0" class="a"/><svg height="542.75" viewBox="0 0 77 54.275" width="770" xmlns="http://www.w3.org/2000/svg" xmlns:xlink="http://www.w3.org/1999/xlink"><style>@keyframes j{0%{transform:translateX(0)}1.7%{transform:translateX(-77px)}2.5%{transform:translateX(-231px)}2.6%{transform:translateX(-308px)}11.3%{transform:translateX(-462px)}12.9%{transform:translateX(-539px)}14.5%{transform:translateX(-616px)}16.8%{transform:translateX(-693px)}20.6%{transform:translateX(-770px)}23.9%{transform:translateX(-847px)}26.9%{transform:translateX(-924px)}31%{transform:translateX(-1001px)}32.6%{transform:translateX(-1078px)}33.8%{transform:translateX(-1155px)}35.6%{transform:translateX(-1232px)}37.5%{transform:translateX(-1309px)}39.8%{transform:translateX(-1386px)}42.6%{transform:translateX(-1540px)}42.8%{transform:translateX(-1617px)}73.6%{transform:translateX(-1694px)}75.1%{transform:translateX(-1771px)}75.8%{transform:translateX(-2002px)}92%{transform:translateX(-2079px)}95.3%{transform:translateX(-2156px)}95.9%{transform:translateX(-2233px)}98.9%{transform:translateX(-2310px)}to{transform:translateX(-2464px)}}.a{fill:#282d35}.c{fill:#a8cc8c;white-space:pre}.d{fill:#71bef2;font-weight:700}.d,.f,.g{white-space:pre}.f{fill:#a8cc8c;text-decoration:underline}.g{fill:#999}.h{fill:#b9c0cb}.h,.l,.m{white-space:pre}.l{fill:#e88388;font-weight:700}.m{fill:#b9c0cb;text-decoration:underline}</style><g font-family="Monaco,Consolas,Menlo,'Bitstream Vera Sans Mono','Powerline Symbols',monospace" font-size="1.67"><defs><symbol id="1"><text y="1.67" class="c">┌──(</text><text x="4.008" y="1.67" class="d">kali㉿kali-box</text><text x="17.034" y="1.67" class="c">)-[</text><text x="20.04" y="1.67" style="white-space:pre" fill="#b9c0cb" font-weight="700">~</text><text x="21.042" y="1.67" class="c">]</text></symbol><symbol id="2"><text y="1.67" class="c">└─</text><text x="2.004" y="1.67" class="d">$</text></symbol><symbol id="3"><text y="1.67" class="c">└─</text><text x="2.004" y="1.67" class="d">$</text><text x="4.008" y="1.67" class="f">sudo</text><text x="9.018" y="1.67" class="g">ldconfig</text></symbol><symbol id="4"><text y="1.67" class="c">└─</text><text x="2.004" y="1.67" class="d">$</text><text x="4.008" y="1.67" class="f">sudo</text><text x="9.018" y="1.67" class="c">ldconfig</text></symbol><symbol id="5"><text y="1.67" class="h">[sudo]</text><text x="7.014" y="1.67" class="h">password</text><text x="16.032" y="1.67" class="h">for</text><text x="20.04" y="1.67" class="h">kali:</text></symbol><symbol id="6"><text y="1.67" class="c">└─</text><text x="2.004" y="1.67" class="d">$</text><text x="4.008" y="1.67" class="c">exit</text></symbol><symbol id="a"><path fill="transparent" d="M0 0h77v25H0z"/></symbol></defs><path class="a" d="M0 0h77v54.275H0z"/><g style="animation-duration:6.194894s;animation-iteration-count:infinite;animation-name:j;animation-timing-function:steps(1,end)"><svg width="2541"><svg><use xlink:href="#a"/></svg><svg x="77"><use xlink:href="#a"/></svg><svg x="154"><use xlink:href="#a"/><use xlink:href="#1"/><use xlink:href="#2" y="2.171"/></svg><svg x="231"><use xlink:href="#a"/><use xlink:href="#1"/><use xlink:href="#2" y="2.171"/></svg><svg x="308"><use xlink:href="#a"/><use xlink:href="#1"/><use xlink:href="#2" y="2.171"/></svg><svg x="385"><use xlink:href="#a"/><use xlink:href="#1"/><text y="3.841" class="c">└─</text><text x="2.004" y="3.841" class="d">$</text><text x="4.008" y="3.841" class="l">s</text></svg><svg x="462"><use xlink:href="#a"/><use xlink:href="#1"/><text y="3.841" class="c">└─</text><text x="2.004" y="3.841" class="d">$</text><text x="4.008" y="3.841" class="l">s</text><text x="5.01" y="3.841" class="g">udo</text><text x="9.018" y="3.841" class="g">ldconfig</text></svg><svg x="539"><use xlink:href="#a"/><use xlink:href="#1"/><text y="3.841" class="c">└─</text><text x="2.004" y="3.841" class="d">$</text><text x="4.008" y="3.841" class="c">su</text><text x="6.012" y="3.841" class="g">do</text><text x="9.018" y="3.841" class="g">ldconfig</text></svg><svg x="616"><use xlink:href="#a"/><use xlink:href="#1"/><text y="3.841" class="c">└─</text><text x="2.004" y="3.841" class="d">$</text><text x="4.008" y="3.841" class="l">sud</text><text x="7.014" y="3.841" class="g">o</text><text x="9.018" y="3.841" class="g">ldconfig</text></svg><svg x="693"><use xlink:href="#a"/><use xlink:href="#1"/><use xlink:href="#3" y="2.171"/></svg><svg x="770"><use xlink:href="#a"/><use xlink:href="#1"/><use xlink:href="#3" y="2.171"/></svg><svg x="847"><use xlink:href="#a"/><use xlink:href="#1"/><text y="3.841" class="c">└─</text><text x="2.004" y="3.841" class="d">$</text><text x="4.008" y="3.841" class="f">sudo</text><text x="9.018" y="3.841" class="c">l</text><text x="10.02" y="3.841" class="g">dconfig</text></svg><svg x="924"><use xlink:href="#a"/><use xlink:href="#1"/><text y="3.841" class="c">└─</text><text x="2.004" y="3.841" class="d">$</text><text x="4.008" y="3.841" class="f">sudo</text><text x="9.018" y="3.841" class="c">ld</text><text x="11.022" y="3.841" class="g">config</text></svg><svg x="1001"><use xlink:href="#a"/><use xlink:href="#1"/><text y="3.841" class="c">└─</text><text x="2.004" y="3.841" class="d">$</text><text x="4.008" y="3.841" class="f">sudo</text><text x="9.018" y="3.841" class="m">ldc</text><text x="12.024" y="3.841" class="g">onfig</text></svg><svg x="1078"><use xlink:href="#a"/><use xlink:href="#1"/><text y="3.841" class="c">└─</text><text x="2.004" y="3.841" class="d">$</text><text x="4.008" y="3.841" class="f">sudo</text><text x="9.018" y="3.841" class="m">ldco</text><text x="13.026" y="3.841" class="g">nfig</text></svg><svg x="1155"><use xlink:href="#a"/><use xlink:href="#1"/><text y="3.841" class="c">└─</text><text x="2.004" y="3.841" class="d">$</text><text x="4.008" y="3.841" class="f">sudo</text><text x="9.018" y="3.841" class="m">ldcon</text><text x="14.028" y="3.841" class="g">fig</text></svg><svg x="1232"><use xlink:href="#a"/><use xlink:href="#1"/><text y="3.841" class="c">└─</text><text x="2.004" y="3.841" class="d">$</text><text x="4.008" y="3.841" class="f">sudo</text><text x="9.018" y="3.841" class="m">ldconf</text><text x="15.03" y="3.841" class="g">ig</text></svg><svg x="1309"><use xlink:href="#a"/><use xlink:href="#1"/><text y="3.841" class="c">└─</text><text x="2.004" y="3.841" class="d">$</text><text x="4.008" y="3.841" class="f">sudo</text><text x="9.018" y="3.841" class="m">ldconfi</text><text x="16.032" y="3.841" class="g">g</text></svg><svg x="1386"><use xlink:href="#a"/><use xlink:href="#1"/><use xlink:href="#4" y="2.171"/></svg><svg x="1463"><use xlink:href="#a"/><use xlink:href="#1"/><use xlink:href="#4" y="2.171"/></svg><svg x="1540"><use xlink:href="#a"/><use xlink:href="#1"/><use xlink:href="#4" y="2.171"/></svg><svg x="1617"><use xlink:href="#a"/><use xlink:href="#1"/><use xlink:href="#4" y="2.171"/><use xlink:href="#5" y="4.342"/></svg><svg x="1694"><use xlink:href="#a"/><use xlink:href="#1"/><use xlink:href="#4" y="2.171"/><use xlink:href="#5" y="4.342"/></svg><svg x="1771"><use xlink:href="#a"/><use xlink:href="#1"/><use xlink:href="#4" y="2.171"/><use xlink:href="#5" y="4.342"/></svg><svg x="1848"><use xlink:href="#a"/><use xlink:href="#1"/><use xlink:href="#4" y="2.171"/><use xlink:href="#5" y="4.342"/><use xlink:href="#1" y="8.684"/><use xlink:href="#2" y="10.855"/></svg><svg x="1925"><use xlink:href="#a"/><use xlink:href="#1"/><use xlink:href="#4" y="2.171"/><use xlink:href="#5" y="4.342"/><use xlink:href="#1" y="8.684"/><use xlink:href="#2" y="10.855"/></svg><svg x="2002"><use xlink:href="#a"/><use xlink:href="#1"/><use xlink:href="#4" y="2.171"/><use xlink:href="#5" y="4.342"/><use xlink:href="#1" y="8.684"/><use xlink:href="#2" y="10.855"/></svg><svg x="2079"><use xlink:href="#a"/><use xlink:href="#1"/><use xlink:href="#4" y="2.171"/><use xlink:href="#5" y="4.342"/><use xlink:href="#1" y="8.684"/><text y="12.525" class="c">└─</text><text x="2.004" y="12.525" class="d">$</text><text x="4.008" y="12.525" class="l">e</text></svg><svg x="2156"><use xlink:href="#a"/><use xlink:href="#1"/><use xlink:href="#4" y="2.171"/><use xlink:href="#5" y="4.342"/><use xlink:href="#1" y="8.684"/><text y="12.525" class="c">└─</text><text x="2.004" y="12.525" class="d">$</text><text x="4.008" y="12.525" class="c">ex</text></svg><svg x="2233"><use xlink:href="#a"/><use xlink:href="#1"/><use xlink:href="#4" y="2.171"/><use xlink:href="#5" y="4.342"/><use xlink:href="#1" y="8.684"/><text y="12.525" class="c">└─</text><text x="2.004" y="12.525" class="d">$</text><text x="4.008" y="12.525" class="l">exi</text></svg><svg x="2310"><use xlink:href="#a"/><use xlink:href="#1"/><use xlink:href="#4" y="2.171"/><use xlink:href="#5" y="4.342"/><use xlink:href="#1" y="8.684"/><use xlink:href="#6" y="10.855"/></svg><svg x="2387"><use xlink:href="#a"/><use xlink:href="#1"/><use xlink:href="#4" y="2.171"/><use xlink:href="#5" y="4.342"/><use xlink:href="#1" y="8.684"/><use xlink:href="#6" y="10.855"/></svg><svg x="2464"><use xlink:href="#a"/><use xlink:href="#1"/><use xlink:href="#4" y="2.171"/><use xlink:href="#5" y="4.342"/><use xlink:href="#1" y="8.684"/><use xlink:href="#6" y="10.855"/></svg></svg></g></g></svg></svg>