<svg xmlns="http://www.w3.org/2000/svg" xmlns:xlink="http://www.w3.org/1999/xlink" width="770" height="542.75"><rect width="770" height="542.75" rx="0" ry="0" class="a"/><svg height="542.75" viewBox="0 0 77 54.275" width="770" xmlns="http://www.w3.org/2000/svg" xmlns:xlink="http://www.w3.org/1999/xlink"><style>@keyframes i{0%{transform:translateX(0)}1.1%{transform:translateX(-77px)}1.6%{transform:translateX(-308px)}28.9%{transform:translateX(-462px)}30.7%{transform:translateX(-539px)}33%{transform:translateX(-616px)}34.9%{transform:translateX(-693px)}38.3%{transform:translateX(-770px)}41.1%{transform:translateX(-847px)}42.3%{transform:translateX(-924px)}44.3%{transform:translateX(-1001px)}46.8%{transform:translateX(-1078px)}48.3%{transform:translateX(-1155px)}49.9%{transform:translateX(-1232px)}51.5%{transform:translateX(-1309px)}53.4%{transform:translateX(-1386px)}54.5%{transform:translateX(-1463px)}56.1%{transform:translateX(-1540px)}59.6%{transform:translateX(-1694px)}61.3%{transform:translateX(-2002px)}61.7%{transform:translateX(-2233px)}to{transform:translateX(-2310px)}}.a{fill:#282d35}.c{fill:#a8cc8c}.c,.d,.f{white-space:pre}.d{fill:#71bef2;font-weight:700}.f{fill:#dbab79}.g{fill:#b9c0cb}.g,.k,.l,.m{white-space:pre}.k{fill:#b9c0cb;text-decoration:underline}.l,.m{fill:#999}.m{fill:#e88388;font-weight:700}</style><g font-family="Monaco,Consolas,Menlo,'Bitstream Vera Sans Mono','Powerline Symbols',monospace" font-size="1.67"><defs><symbol id="1"><text y="1.67" class="c">┌──(</text><text x="4.008" y="1.67" class="d">kali㉿kali-box</text><text x="17.034" y="1.67" class="c">)-[</text><text x="20.04" y="1.67" style="white-space:pre" fill="#b9c0cb" font-weight="700">~</text><text x="21.042" y="1.67" class="c">]</text></symbol><symbol id="2"><text y="1.67" class="c">└─</text><text x="2.004" y="1.67" class="d">$</text></symbol><symbol id="3"><text y="1.67" class="c">└─</text><text x="2.004" y="1.67" class="d">$</text><text x="4.008" y="1.67" class="c">nmdl-initialize</text></symbol><symbol id="4"><text y="1.67" class="f">hint:</text><text x="6.012" y="1.67" class="f">Using</text><text x="12.024" y="1.67" class="f">&apos;master&apos;</text><text x="21.042" y="1.67" class="f">as</text><text x="24.048" y="1.67" class="f">the</text><text x="28.056" y="1.67" class="f">name</text><text x="33.066" y="1.67" class="f">for</text><text x="37.074" y="1.67" class="f">the</text><text x="41.082" y="1.67" class="f">initial</text><text x="49.098" y="1.67" class="f">branch.</text><text x="57.114" y="1.67" class="f">This</text><text x="62.124" y="1.67" class="f">default</text><text x="70.14" y="1.67" class="f">branch</text></symbol><symbol id="5"><text y="1.67" class="f">name</text></symbol><symbol id="6"><text y="1.67" class="f">hint:</text><text x="6.012" y="1.67" class="f">is</text><text x="9.018" y="1.67" class="f">subject</text><text x="17.034" y="1.67" class="f">to</text><text x="20.04" y="1.67" class="f">change.</text><text x="28.056" y="1.67" class="f">To</text><text x="31.062" y="1.67" class="f">configure</text><text x="41.082" y="1.67" class="f">the</text><text x="45.09" y="1.67" class="f">initial</text><text x="53.106" y="1.67" class="f">branch</text><text x="60.12" y="1.67" class="f">name</text><text x="65.13" y="1.67" class="f">to</text><text x="68.136" y="1.67" class="f">use</text><text x="72.144" y="1.67" class="f">in</text><text x="75.15" y="1.67" class="f">al</text></symbol><symbol id="7"><text y="1.67" class="f">l</text></symbol><symbol id="8"><text y="1.67" class="f">hint:</text><text x="6.012" y="1.67" class="f">of</text><text x="9.018" y="1.67" class="f">your</text><text x="14.028" y="1.67" class="f">new</text><text x="18.036" y="1.67" class="f">repositories,</text><text x="32.064" y="1.67" class="f">which</text><text x="38.076" y="1.67" class="f">will</text><text x="43.086" y="1.67" class="f">suppress</text><text x="52.104" y="1.67" class="f">this</text><text x="57.114" y="1.67" class="f">warning,</text><text x="66.132" y="1.67" class="f">call:</text></symbol><symbol id="9"><text y="1.67" class="f">hint:</text></symbol><symbol id="10"><text y="1.67" class="f">hint:</text><text x="8.016" y="1.67" class="f">git</text><text x="12.024" y="1.67" class="f">config</text><text x="19.038" y="1.67" class="f">--global</text><text x="28.056" y="1.67" class="f">init.defaultBranch</text><text x="47.094" y="1.67" class="f">&lt;name&gt;</text></symbol><symbol id="11"><text y="1.67" class="f">hint:</text><text x="6.012" y="1.67" class="f">Names</text><text x="12.024" y="1.67" class="f">commonly</text><text x="21.042" y="1.67" class="f">chosen</text><text x="28.056" y="1.67" class="f">instead</text><text x="36.072" y="1.67" class="f">of</text><text x="39.078" y="1.67" class="f">&apos;master&apos;</text><text x="48.096" y="1.67" class="f">are</text><text x="52.104" y="1.67" class="f">&apos;main&apos;,</text><text x="60.12" y="1.67" class="f">&apos;trunk&apos;</text><text x="68.136" y="1.67" class="f">and</text></symbol><symbol id="12"><text y="1.67" class="f">hint:</text><text x="6.012" y="1.67" class="f">&apos;development&apos;.</text><text x="21.042" y="1.67" class="f">The</text><text x="25.05" y="1.67" class="f">just-created</text><text x="38.076" y="1.67" class="f">branch</text><text x="45.09" y="1.67" class="f">can</text><text x="49.098" y="1.67" class="f">be</text><text x="52.104" y="1.67" class="f">renamed</text><text x="60.12" y="1.67" class="f">via</text><text x="64.128" y="1.67" class="f">this</text><text x="69.138" y="1.67" class="f">command:</text></symbol><symbol id="13"><text y="1.67" class="f">hint:</text><text x="8.016" y="1.67" class="f">git</text><text x="12.024" y="1.67" class="f">branch</text><text x="19.038" y="1.67" class="f">-m</text><text x="22.044" y="1.67" class="f">&lt;name&gt;</text></symbol><symbol id="14"><text y="1.67" class="g">Initialized</text><text x="12.024" y="1.67" class="g">empty</text><text x="18.036" y="1.67" class="g">Git</text><text x="22.044" y="1.67" class="g">repository</text><text x="33.066" y="1.67" class="g">in</text><text x="36.072" y="1.67" class="g">/home/kali/.netmeld/datalake/.git/</text></symbol><symbol id="a"><path fill="transparent" d="M0 0h77v25H0z"/></symbol></defs><path class="a" d="M0 0h77v54.275H0z"/><g style="animation-duration:9.782926s;animation-iteration-count:infinite;animation-name:i;animation-timing-function:steps(1,end)"><svg width="2387"><svg><use xlink:href="#a"/></svg><svg x="77"><use xlink:href="#a"/></svg><svg x="154"><use xlink:href="#a"/><use xlink:href="#1"/><use xlink:href="#2" y="2.171"/></svg><svg x="231"><use xlink:href="#a"/><use xlink:href="#1"/><use xlink:href="#2" y="2.171"/></svg><svg x="308"><use xlink:href="#a"/><use xlink:href="#1"/><use xlink:href="#2" y="2.171"/></svg><svg x="385"><use xlink:href="#a"/><use xlink:href="#1"/><text y="3.841" class="c">└─</text><text x="2.004" y="3.841" class="d">$</text><text x="4.008" y="3.841" class="k">n</text></svg><svg x="462"><use xlink:href="#a"/><use xlink:href="#1"/><text y="3.841" class="c">└─</text><text x="2.004" y="3.841" class="d">$</text><text x="4.008" y="3.841" class="k">n</text><text x="5.01" y="3.841" class="l">mdl-initialize</text></svg><svg x="539"><use xlink:href="#a"/><use xlink:href="#1"/><text y="3.841" class="c">└─</text><text x="2.004" y="3.841" class="d">$</text><text x="4.008" y="3.841" class="c">nm</text><text x="6.012" y="3.841" class="l">dl-initialize</text></svg><svg x="616"><use xlink:href="#a"/><use xlink:href="#1"/><text y="3.841" class="c">└─</text><text x="2.004" y="3.841" class="d">$</text><text x="4.008" y="3.841" class="k">nmd</text><text x="7.014" y="3.841" class="l">l-initialize</text></svg><svg x="693"><use xlink:href="#a"/><use xlink:href="#1"/><text y="3.841" class="c">└─</text><text x="2.004" y="3.841" class="d">$</text><text x="4.008" y="3.841" class="k">nmdl</text><text x="8.016" y="3.841" class="l">-initialize</text></svg><svg x="770"><use xlink:href="#a"/><use xlink:href="#1"/><text y="3.841" class="c">└─</text><text x="2.004" y="3.841" class="d">$</text><text x="4.008" y="3.841" class="k">nmdl-</text><text x="9.018" y="3.841" class="l">initialize</text></svg><svg x="847"><use xlink:href="#a"/><use xlink:href="#1"/><text y="3.841" class="c">└─</text><text x="2.004" y="3.841" class="d">$</text><text x="4.008" y="3.841" class="k">nmdl-i</text><text x="10.02" y="3.841" class="l">nitialize</text></svg><svg x="924"><use xlink:href="#a"/><use xlink:href="#1"/><text y="3.841" class="c">└─</text><text x="2.004" y="3.841" class="d">$</text><text x="4.008" y="3.841" class="k">nmdl-in</text><text x="11.022" y="3.841" class="l">itialize</text></svg><svg x="1001"><use xlink:href="#a"/><use xlink:href="#1"/><text y="3.841" class="c">└─</text><text x="2.004" y="3.841" class="d">$</text><text x="4.008" y="3.841" class="k">nmdl-ini</text><text x="12.024" y="3.841" class="l">tialize</text></svg><svg x="1078"><use xlink:href="#a"/><use xlink:href="#1"/><text y="3.841" class="c">└─</text><text x="2.004" y="3.841" class="d">$</text><text x="4.008" y="3.841" class="k">nmdl-init</text><text x="13.026" y="3.841" class="l">ialize</text></svg><svg x="1155"><use xlink:href="#a"/><use xlink:href="#1"/><text y="3.841" class="c">└─</text><text x="2.004" y="3.841" class="d">$</text><text x="4.008" y="3.841" class="m">nmdl-initi</text><text x="14.028" y="3.841" class="l">alize</text></svg><svg x="1232"><use xlink:href="#a"/><use xlink:href="#1"/><text y="3.841" class="c">└─</text><text x="2.004" y="3.841" class="d">$</text><text x="4.008" y="3.841" class="m">nmdl-initia</text><text x="15.03" y="3.841" class="l">lize</text></svg><svg x="1309"><use xlink:href="#a"/><use xlink:href="#1"/><text y="3.841" class="c">└─</text><text x="2.004" y="3.841" class="d">$</text><text x="4.008" y="3.841" class="m">nmdl-initial</text><text x="16.032" y="3.841" class="l">ize</text></svg><svg x="1386"><use xlink:href="#a"/><use xlink:href="#1"/><text y="3.841" class="c">└─</text><text x="2.004" y="3.841" class="d">$</text><text x="4.008" y="3.841" class="m">nmdl-initiali</text><text x="17.034" y="3.841" class="l">ze</text></svg><svg x="1463"><use xlink:href="#a"/><use xlink:href="#1"/><text y="3.841" class="c">└─</text><text x="2.004" y="3.841" class="d">$</text><text x="4.008" y="3.841" class="m">nmdl-initializ</text><text x="18.036" y="3.841" class="l">e</text></svg><svg x="1540"><use xlink:href="#a"/><use xlink:href="#1"/><use xlink:href="#3" y="2.171"/></svg><svg x="1617"><use xlink:href="#a"/><use xlink:href="#1"/><use xlink:href="#3" y="2.171"/></svg><svg x="1694"><use xlink:href="#a"/><use xlink:href="#1"/><use xlink:href="#3" y="2.171"/></svg><svg x="1771"><use xlink:href="#a"/><use xlink:href="#1"/><use xlink:href="#3" y="2.171"/><use xlink:href="#4" y="4.342"/><use xlink:href="#5" y="6.513"/><use xlink:href="#6" y="8.684"/><use xlink:href="#7" y="10.855"/><use xlink:href="#8" y="13.026"/><use xlink:href="#9" y="15.197"/></svg><svg x="1848"><use xlink:href="#a"/><use xlink:href="#1"/><use xlink:href="#3" y="2.171"/><use xlink:href="#4" y="4.342"/><use xlink:href="#5" y="6.513"/><use xlink:href="#6" y="8.684"/><use xlink:href="#7" y="10.855"/><use xlink:href="#8" y="13.026"/><use xlink:href="#9" y="15.197"/><use xlink:href="#10" y="17.368"/><use xlink:href="#9" y="19.539"/><use xlink:href="#11" y="21.71"/><use xlink:href="#12" y="23.881"/><use xlink:href="#9" y="26.052"/><use xlink:href="#13" y="28.223"/></svg><svg x="1925"><use xlink:href="#a"/><use xlink:href="#1"/><use xlink:href="#3" y="2.171"/><use xlink:href="#4" y="4.342"/><use xlink:href="#5" y="6.513"/><use xlink:href="#6" y="8.684"/><use xlink:href="#7" y="10.855"/><use xlink:href="#8" y="13.026"/><use xlink:href="#9" y="15.197"/><use xlink:href="#10" y="17.368"/><use xlink:href="#9" y="19.539"/><use xlink:href="#11" y="21.71"/><use xlink:href="#12" y="23.881"/><use xlink:href="#9" y="26.052"/><use xlink:href="#13" y="28.223"/><use xlink:href="#14" y="30.394"/></svg><svg x="2002"><use xlink:href="#a"/><use xlink:href="#1"/><use xlink:href="#3" y="2.171"/><use xlink:href="#4" y="4.342"/><use xlink:href="#5" y="6.513"/><use xlink:href="#6" y="8.684"/><use xlink:href="#7" y="10.855"/><use xlink:href="#8" y="13.026"/><use xlink:href="#9" y="15.197"/><use xlink:href="#10" y="17.368"/><use xlink:href="#9" y="19.539"/><use xlink:href="#11" y="21.71"/><use xlink:href="#12" y="23.881"/><use xlink:href="#9" y="26.052"/><use xlink:href="#13" y="28.223"/><use xlink:href="#14" y="30.394"/></svg><svg x="2079"><use xlink:href="#a"/><use xlink:href="#1"/><use xlink:href="#3" y="2.171"/><use xlink:href="#4" y="4.342"/><use xlink:href="#5" y="6.513"/><use xlink:href="#6" y="8.684"/><use xlink:href="#7" y="10.855"/><use xlink:href="#8" y="13.026"/><use xlink:href="#9" y="15.197"/><use xlink:href="#10" y="17.368"/><use xlink:href="#9" y="19.539"/><use xlink:href="#11" y="21.71"/><use xlink:href="#12" y="23.881"/><use xlink:href="#9" y="26.052"/><use xlink:href="#13" y="28.223"/><use xlink:href="#14" y="30.394"/><use xlink:href="#1" y="34.736"/><use xlink:href="#2" y="36.907"/></svg><svg x="2156"><use xlink:href="#a"/><use xlink:href="#1"/><use xlink:href="#3" y="2.171"/><use xlink:href="#4" y="4.342"/><use xlink:href="#5" y="6.513"/><use xlink:href="#6" y="8.684"/><use xlink:href="#7" y="10.855"/><use xlink:href="#8" y="13.026"/><use xlink:href="#9" y="15.197"/><use xlink:href="#10" y="17.368"/><use xlink:href="#9" y="19.539"/><use xlink:href="#11" y="21.71"/><use xlink:href="#12" y="23.881"/><use xlink:href="#9" y="26.052"/><use xlink:href="#13" y="28.223"/><use xlink:href="#14" y="30.394"/><use xlink:href="#1" y="34.736"/><use xlink:href="#2" y="36.907"/></svg><svg x="2233"><use xlink:href="#a"/><use xlink:href="#1"/><use xlink:href="#3" y="2.171"/><use xlink:href="#4" y="4.342"/><use xlink:href="#5" y="6.513"/><use xlink:href="#6" y="8.684"/><use xlink:href="#7" y="10.855"/><use xlink:href="#8" y="13.026"/><use xlink:href="#9" y="15.197"/><use xlink:href="#10" y="17.368"/><use xlink:href="#9" y="19.539"/><use xlink:href="#11" y="21.71"/><use xlink:href="#12" y="23.881"/><use xlink:href="#9" y="26.052"/><use xlink:href="#13" y="28.223"/><use xlink:href="#14" y="30.394"/><use xlink:href="#1" y="34.736"/><use xlink:href="#2" y="36.907"/></svg><svg x="2310"><use xlink:href="#a"/><use xlink:href="#1"/><use xlink:href="#3" y="2.171"/><use xlink:href="#4" y="4.342"/><use xlink:href="#5" y="6.513"/><use xlink:href="#6" y="8.684"/><use xlink:href="#7" y="10.855"/><use xlink:href="#8" y="13.026"/><use xlink:href="#9" y="15.197"/><use xlink:href="#10" y="17.368"/><use xlink:href="#9" y="19.539"/><use xlink:href="#11" y="21.71"/><use xlink:href="#12" y="23.881"/><use xlink:href="#9" y="26.052"/><use xlink:href="#13" y="28.223"/><use xlink:href="#14" y="30.394"/><use xlink:href="#1" y="34.736"/><use xlink:href="#2" y="36.907"/></svg></svg></g></g></svg></svg>