<?xml version="1.0" encoding="UTF-8" standalone="no"?>
<!DOCTYPE svg PUBLIC "-//W3C//DTD SVG 1.1//EN"
 "http://www.w3.org/Graphics/SVG/1.1/DTD/svg11.dtd">
<!-- Generated by graphviz version 2.40.1 (20161225.0304)
 -->
<!-- Title: netmeld Pages: 1 -->
<svg width="722pt" height="419pt"
 viewBox="0.00 0.00 722.00 419.00" xmlns="http://www.w3.org/2000/svg" xmlns:xlink="http://www.w3.org/1999/xlink">
<g id="graph0" class="graph" transform="scale(1 1) rotate(0) translate(4 415)">
<title>netmeld</title>
<polygon fill="#ffffff" stroke="transparent" points="-4,4 -4,-415 718,-415 718,4 -4,4"/>
<text text-anchor="middle" x="357" y="-7.8" font-family="Times,serif" font-size="14.00" fill="#000000">Netmeld Tool Suite 2.x &#45;&#45; Playbook Dataflow</text>
<!-- datastore -->
<g id="node1" class="node">
<title>datastore</title>
<polygon fill="none" stroke="#000000" points="484,-247 395,-247 395,-209 484,-209 484,-247"/>
<text text-anchor="middle" x="439.5" y="-231.8" font-family="Times,serif" font-size="14.00" fill="#000000">Datastore &amp;</text>
<text text-anchor="middle" x="439.5" y="-216.8" font-family="Times,serif" font-size="14.00" fill="#000000">Core Helpers</text>
</g>
<!-- nmpbes -->
<g id="node6" class="node">
<title>nmpbes</title>
<polygon fill="none" stroke="#000000" points="714,-291 538,-291 538,-255 714,-255 714,-291"/>
<text text-anchor="middle" x="626" y="-269.3" font-family="Times,serif" font-size="14.00" fill="#000000">nmdb&#45;playbook&#45;export&#45;scans</text>
</g>
<!-- datastore&#45;&gt;nmpbes -->
<g id="edge6" class="edge">
<title>datastore&#45;&gt;nmpbes</title>
<path fill="none" stroke="#000000" d="M484.1714,-238.7786C501.3183,-242.9159 521.5055,-247.7868 541.1873,-252.5358"/>
<polygon fill="#000000" stroke="#000000" points="540.5606,-255.985 551.1026,-254.9282 542.2025,-249.1802 540.5606,-255.985"/>
</g>
<!-- nmpbn -->
<g id="node7" class="node">
<title>nmpbn</title>
<polygon fill="none" stroke="#000000" points="697.5,-201 554.5,-201 554.5,-165 697.5,-165 697.5,-201"/>
<text text-anchor="middle" x="626" y="-179.3" font-family="Times,serif" font-size="14.00" fill="#000000">nmdb&#45;playbook&#45;nessus</text>
</g>
<!-- datastore&#45;&gt;nmpbn -->
<g id="edge7" class="edge">
<title>datastore&#45;&gt;nmpbn</title>
<path fill="none" stroke="#000000" stroke-dasharray="5,2" d="M484.1714,-217.2214C502.3121,-212.8443 523.8559,-207.646 544.6038,-202.6398"/>
<polygon fill="#000000" stroke="#000000" points="545.4849,-206.0278 554.3849,-200.2798 543.8429,-199.223 545.4849,-206.0278"/>
</g>
<!-- nmpbis -->
<g id="node2" class="node">
<title>nmpbis</title>
<polygon fill="none" stroke="#000000" points="177,-411 0,-411 0,-375 177,-375 177,-411"/>
<text text-anchor="middle" x="88.5" y="-389.3" font-family="Times,serif" font-size="14.00" fill="#000000">nmdb&#45;playbook&#45;insert&#45;source</text>
</g>
<!-- nmpbis&#45;&gt;datastore -->
<g id="edge3" class="edge">
<title>nmpbis&#45;&gt;datastore</title>
<path fill="none" stroke="#000000" d="M143.6223,-374.8714C195.7629,-356.8695 275.5562,-327.087 341,-293 363.2755,-281.3976 386.8036,-266.0024 405.277,-253.1073"/>
<polygon fill="#000000" stroke="#000000" points="407.5001,-255.8221 413.6485,-247.1937 403.4614,-250.1046 407.5001,-255.8221"/>
</g>
<!-- nmpbir -->
<g id="node3" class="node">
<title>nmpbir</title>
<polygon fill="none" stroke="#000000" points="175.5,-301 1.5,-301 1.5,-265 175.5,-265 175.5,-301"/>
<text text-anchor="middle" x="88.5" y="-279.3" font-family="Times,serif" font-size="14.00" fill="#000000">nmdb&#45;playbook&#45;insert&#45;router</text>
</g>
<!-- nmpbir&#45;&gt;datastore -->
<g id="edge4" class="edge">
<title>nmpbir&#45;&gt;datastore</title>
<path fill="none" stroke="#000000" d="M175.715,-269.3338C241.0839,-259.0908 328.5487,-245.3855 384.4716,-236.6227"/>
<polygon fill="#000000" stroke="#000000" points="385.1966,-240.0519 394.5342,-235.0459 384.1129,-233.1363 385.1966,-240.0519"/>
</g>
<!-- nmpb -->
<g id="node4" class="node">
<title>nmpb</title>
<polygon fill="none" stroke="#000000" points="140,-133 37,-133 37,-97 140,-97 140,-133"/>
<text text-anchor="middle" x="88.5" y="-111.3" font-family="Times,serif" font-size="14.00" fill="#000000">nmdb&#45;playbook</text>
</g>
<!-- nmpb&#45;&gt;datastore -->
<g id="edge5" class="edge">
<title>nmpb&#45;&gt;datastore</title>
<path fill="none" stroke="#000000" d="M149.8718,-134.7579C216.2945,-156.1418 321.2304,-189.9246 384.8891,-210.4187"/>
<polygon fill="#000000" stroke="#000000" points="150.8827,-131.4065 140.2913,-131.6735 148.7375,-138.0697 150.8827,-131.4065"/>
<polygon fill="#000000" stroke="#000000" points="384.1478,-213.8569 394.7393,-213.5899 386.293,-207.1937 384.1478,-213.8569"/>
</g>
<!-- pbcore -->
<g id="node5" class="node">
<title>pbcore</title>
<polygon fill="none" stroke="#000000" points="341,-91 231,-91 231,-23 341,-23 341,-91"/>
<text text-anchor="middle" x="286" y="-75.8" font-family="Times,serif" font-size="14.00" fill="#000000">Playbook Core</text>
<text text-anchor="middle" x="286" y="-60.8" font-family="Times,serif" font-size="14.00" fill="#000000">Helpers</text>
<text text-anchor="start" x="239" y="-45.8" font-family="Times,serif" font-size="14.00" fill="#000000">Schemas</text>
<text text-anchor="middle" x="286" y="-30.8" font-family="Times,serif" font-size="14.00" fill="#000000">QueriesPlaybook</text>
</g>
<!-- nmpb&#45;&gt;pbcore -->
<g id="edge1" class="edge">
<title>nmpb&#45;&gt;pbcore</title>
<path fill="none" stroke="#000000" d="M140.1328,-99.8369C164.861,-92.575 194.7377,-83.8011 220.9959,-76.0898"/>
<polygon fill="#000000" stroke="#000000" points="222.2556,-79.3677 230.8642,-73.1918 220.2832,-72.6514 222.2556,-79.3677"/>
</g>
<!-- pbcore&#45;&gt;datastore -->
<g id="edge2" class="edge">
<title>pbcore&#45;&gt;datastore</title>
<path fill="none" stroke="#000000" d="M316.6941,-91.1934C345.7676,-123.5815 388.833,-171.5566 415.4808,-201.2425"/>
<polygon fill="#000000" stroke="#000000" points="412.9251,-203.6349 422.2097,-208.7385 418.1342,-198.9589 412.9251,-203.6349"/>
</g>
</g>
</svg>
