<?xml version="1.0" encoding="UTF-8" standalone="no"?>
<!DOCTYPE svg PUBLIC "-//W3C//DTD SVG 1.1//EN"
 "http://www.w3.org/Graphics/SVG/1.1/DTD/svg11.dtd">
<!-- Generated by graphviz version 2.43.0 (0)
 -->
<!-- Title: G Pages: 1 -->
<svg width="1208pt" height="539pt"
 viewBox="0.00 0.00 1208.00 539.00" xmlns="http://www.w3.org/2000/svg" xmlns:xlink="http://www.w3.org/1999/xlink">
<g id="graph0" class="graph" transform="scale(1 1) rotate(0) translate(4 535)">
<title>G</title>
<polygon fill="white" stroke="transparent" points="-4,4 -4,-535 1204,-535 1204,4 -4,4"/>
<text text-anchor="middle" x="600" y="-7.8" font-family="Times,serif" font-size="14.00">Netmeld Tool Suite 2.x &#45;&#45; Playbook Workflow</text>
<g id="clust1" class="cluster">
<title>cluster_preparation</title>
<polygon fill="none" stroke="black" stroke-dasharray="5,2" points="8,-31 8,-523 570,-523 570,-31 8,-31"/>
<text text-anchor="middle" x="289" y="-507.8" font-family="Times,serif" font-size="14.00">Playbook preparation</text>
</g>
<g id="clust2" class="cluster">
<title>cluster_execution</title>
<polygon fill="none" stroke="black" stroke-dasharray="5,2" points="697,-156 697,-413 1192,-413 1192,-156 697,-156"/>
<text text-anchor="middle" x="944.5" y="-397.8" font-family="Times,serif" font-size="14.00">Playbook review and execution</text>
</g>
<!-- nmpbroe -->
<g id="node1" class="node">
<title>nmpbroe</title>
<polygon fill="none" stroke="black" points="562,-491.5 16,-491.5 16,-438.5 562,-438.5 562,-491.5"/>
<text text-anchor="start" x="24" y="-476.3" font-family="Times,serif" font-size="14.00">RoE In&#45;scope &amp; Out&#45;of&#45;scope</text>
<text text-anchor="start" x="24" y="-461.3" font-family="Times,serif" font-size="14.00"> &#160;&#160;&#160;psql site &#45;c &quot;INSERT INTO playbook_roe_ip_nets VALUES (ipNet, true)&quot;</text>
<text text-anchor="middle" x="289" y="-446.3" font-family="Times,serif" font-size="14.00"> &#160;&#160;&#160;psql site &#45;c &quot;INSERT INTO playbook_roe_ip_nets VALUES (ipNet, false)&quot;</text>
</g>
<!-- nmpbis -->
<g id="node2" class="node">
<title>nmpbis</title>
<polygon fill="none" stroke="black" points="420.5,-367 157.5,-367 157.5,-179 420.5,-179 420.5,-367"/>
<text text-anchor="start" x="165.5" y="-351.8" font-family="Times,serif" font-size="14.00">nmdb&#45;playbook&#45;insert&#45;source</text>
<text text-anchor="start" x="165.5" y="-336.8" font-family="Times,serif" font-size="14.00"> &#160;&#160;&#160;Required Options:</text>
<text text-anchor="start" x="165.5" y="-321.8" font-family="Times,serif" font-size="14.00"> &#160;&#160;&#160;&#160;&#160;&#45;&#45;[intra&#45;network|inter&#45;network]</text>
<text text-anchor="start" x="165.5" y="-306.8" font-family="Times,serif" font-size="14.00"> &#160;&#160;&#160;&#160;&#160;&#45;&#45;db&#45;name arg (=site)</text>
<text text-anchor="start" x="165.5" y="-291.8" font-family="Times,serif" font-size="14.00"> &#160;&#160;&#160;&#160;&#160;&#45;&#45;interface arg</text>
<text text-anchor="start" x="165.5" y="-276.8" font-family="Times,serif" font-size="14.00"> &#160;&#160;&#160;&#160;&#160;&#45;&#45;ip&#45;addr arg</text>
<text text-anchor="start" x="165.5" y="-261.8" font-family="Times,serif" font-size="14.00"> &#160;&#160;&#160;&#160;&#160;&#45;&#45;stage arg</text>
<text text-anchor="start" x="165.5" y="-246.8" font-family="Times,serif" font-size="14.00"> &#160;&#160;&#160;Optional Options:</text>
<text text-anchor="start" x="165.5" y="-231.8" font-family="Times,serif" font-size="14.00"> &#160;&#160;&#160;&#160;&#160;&#45;&#45;description arg</text>
<text text-anchor="start" x="165.5" y="-216.8" font-family="Times,serif" font-size="14.00"> &#160;&#160;&#160;&#160;&#160;&#45;&#45;mac&#45;addr arg</text>
<text text-anchor="start" x="165.5" y="-201.8" font-family="Times,serif" font-size="14.00"> &#160;&#160;&#160;&#160;&#160;&#45;&#45;ptp&#45;rtr&#45;ip&#45;addr arg</text>
<text text-anchor="start" x="165.5" y="-186.8" font-family="Times,serif" font-size="14.00"> &#160;&#160;&#160;&#160;&#160;&#45;&#45;vlan arg (=65535)</text>
</g>
<!-- nmpbroe&#45;&gt;nmpbis -->
<g id="edge2" class="edge">
<title>nmpbroe&#45;&gt;nmpbis</title>
<path fill="none" stroke="black" d="M289,-438.24C289,-417.87 289,-397.5 289,-377.13"/>
<polygon fill="black" stroke="black" points="292.5,-377.12 289,-367.12 285.5,-377.13 292.5,-377.12"/>
</g>
<!-- nmpb -->
<g id="node4" class="node">
<title>nmpb</title>
<polygon fill="none" stroke="black" points="1184,-382 705,-382 705,-164 1184,-164 1184,-382"/>
<text text-anchor="start" x="713" y="-366.8" font-family="Times,serif" font-size="14.00">nmdb&#45;playbook</text>
<text text-anchor="start" x="713" y="-351.8" font-family="Times,serif" font-size="14.00"> &#160;&#160;&#160;Required Options:</text>
<text text-anchor="start" x="713" y="-336.8" font-family="Times,serif" font-size="14.00"> &#160;&#160;&#160;&#160;&#160;&#45;&#45;[intra&#45;network|inter&#45;network]</text>
<text text-anchor="start" x="713" y="-321.8" font-family="Times,serif" font-size="14.00"> &#160;&#160;&#160;&#160;&#160;&#45;&#45;capture&#45;duration arg (=300)</text>
<text text-anchor="start" x="713" y="-306.8" font-family="Times,serif" font-size="14.00"> &#160;&#160;&#160;&#160;&#160;&#45;&#45;db&#45;name arg (=site)</text>
<text text-anchor="start" x="713" y="-291.8" font-family="Times,serif" font-size="14.00"> &#160;&#160;&#160;Optional Options:</text>
<text text-anchor="start" x="713" y="-276.8" font-family="Times,serif" font-size="14.00"> &#160;&#160;&#160;&#160;&#160;&#45;&#45;exclude&#45;command arg (=none)</text>
<text text-anchor="start" x="713" y="-261.8" font-family="Times,serif" font-size="14.00"> &#160;&#160;&#160;&#160;&#160;&#45;&#45;execute</text>
<text text-anchor="start" x="713" y="-246.8" font-family="Times,serif" font-size="14.00"> &#160;&#160;&#160;&#160;&#160;&#45;&#45;no&#45;prompt</text>
<text text-anchor="start" x="713" y="-231.8" font-family="Times,serif" font-size="14.00"> &#160;&#160;&#160;&#160;&#160;&#45;&#45;phase arg (=all)</text>
<text text-anchor="start" x="713" y="-216.8" font-family="Times,serif" font-size="14.00"> &#160;&#160;&#160;&#160;&#160;&#45;&#45;script arg</text>
<text text-anchor="start" x="713" y="-201.8" font-family="Times,serif" font-size="14.00"> &#160;&#160;&#160;&#160;&#160;&#45;&#45;stage arg (=all)</text>
<text text-anchor="start" x="713" y="-186.8" font-family="Times,serif" font-size="14.00"> &#160;&#160;&#160;Advanced Options:</text>
<text text-anchor="start" x="713" y="-171.8" font-family="Times,serif" font-size="14.00"> &#160;&#160;&#160;&#160;&#160;&#45;&#45;config&#45;file arg (=/usr/local/etc/netmeld/nmdb&#45;playbook.conf)</text>
</g>
<!-- nmpbroe&#45;&gt;nmpb -->
<!-- nmpbir -->
<g id="node3" class="node">
<title>nmpbir</title>
<polygon fill="none" stroke="black" points="399.5,-107 178.5,-107 178.5,-39 399.5,-39 399.5,-107"/>
<text text-anchor="start" x="186.5" y="-91.8" font-family="Times,serif" font-size="14.00">nmdb&#45;playbook&#45;insert&#45;router</text>
<text text-anchor="start" x="186.5" y="-76.8" font-family="Times,serif" font-size="14.00"> &#160;&#160;&#160;Required Options:</text>
<text text-anchor="start" x="186.5" y="-61.8" font-family="Times,serif" font-size="14.00"> &#160;&#160;&#160;&#160;&#160;&#45;&#45;db&#45;name arg (=site)</text>
<text text-anchor="start" x="186.5" y="-46.8" font-family="Times,serif" font-size="14.00"> &#160;&#160;&#160;&#160;&#160;&#45;&#45;ip&#45;addr arg</text>
</g>
<!-- nmpbis&#45;&gt;nmpbir -->
<g id="edge3" class="edge">
<title>nmpbis&#45;&gt;nmpbir</title>
<path fill="none" stroke="black" d="M289,-178.87C289,-158.39 289,-137.91 289,-117.43"/>
<polygon fill="black" stroke="black" points="292.5,-117.37 289,-107.38 285.5,-117.38 292.5,-117.37"/>
</g>
<!-- nmpbis&#45;&gt;nmpb -->
<g id="edge4" class="edge">
<title>nmpbis&#45;&gt;nmpb</title>
<path fill="none" stroke="black" d="M420.67,-273C499.11,-273 601.46,-273 694.8,-273"/>
<polygon fill="black" stroke="black" points="694.96,-276.5 704.96,-273 694.96,-269.5 694.96,-276.5"/>
<text text-anchor="middle" x="633.5" y="-276.8" font-family="Times,serif" font-size="14.00">&#45;&#45;intra&#45;network</text>
</g>
<!-- nmpbir&#45;&gt;nmpb -->
<g id="edge5" class="edge">
<title>nmpbir&#45;&gt;nmpb</title>
<path fill="none" stroke="black" d="M399.75,-106.59C480.31,-131.24 593,-165.73 694.91,-196.92"/>
<polygon fill="black" stroke="black" points="694.15,-200.35 704.74,-199.93 696.2,-193.65 694.15,-200.35"/>
<text text-anchor="middle" x="633.5" y="-193.8" font-family="Times,serif" font-size="14.00">&#45;&#45;inter&#45;network</text>
</g>
</g>
</svg>
