<?xml version="1.0" encoding="UTF-8" standalone="no"?>
<!DOCTYPE svg PUBLIC "-//W3C//DTD SVG 1.1//EN"
 "http://www.w3.org/Graphics/SVG/1.1/DTD/svg11.dtd">
<!-- Generated by graphviz version 2.43.0 (0)
 -->
<!-- Title: G Pages: 1 -->
<svg width="1334pt" height="2223pt"
 viewBox="0.00 0.00 1334.00 2223.00" xmlns="http://www.w3.org/2000/svg" xmlns:xlink="http://www.w3.org/1999/xlink">
<g id="graph0" class="graph" transform="scale(1 1) rotate(0) translate(4 2219)">
<title>G</title>
<polygon fill="white" stroke="transparent" points="-4,4 -4,-2219 1330,-2219 1330,4 -4,4"/>
<text text-anchor="start" x="418" y="-2198.3" font-family="Times,serif" font-weight="bold" font-size="14.00">Example: Playbook Inter&#45;Network Execution Process (Default)</text>
<text text-anchor="start" x="279" y="-2179.3" font-family="Times,serif" font-size="14.00">Assume:</text>
<text text-anchor="start" x="279" y="-2161.3" font-family="liberation mono" font-size="14.00"> &#160;psql site &#45;c &quot;insert into playbook_roe_ip_nets values (&#39;1.2.3.0/24&#39;, true)&quot;</text>
<text text-anchor="start" x="279" y="-2146.3" font-family="liberation mono" font-size="14.00"> &#160;psql site &#45;c &quot;insert into playbook_roe_ip_nets values (&#39;1.2.4.0/24&#39;, true)&quot;</text>
<text text-anchor="start" x="279" y="-2131.3" font-family="liberation mono" font-size="14.00"> &#160;psql site &#45;c &quot;insert into playbook_roe_ip_nets values (&#39;1.2.5.0/24&#39;, true)&quot;</text>
<text text-anchor="start" x="279" y="-2116.3" font-family="liberation mono" font-size="14.00"> &#160;nmdb&#45;playbook&#45;insert&#45;source &#45;&#45;inter&#45;network &#45;&#45;interface eth0 &#45;&#45;ip&#45;addr 1.2.3.4/24 &#45;&#45;stage 1</text>
<text text-anchor="start" x="279" y="-2101.3" font-family="liberation mono" font-size="14.00"> &#160;nmdb&#45;playbook&#45;insert&#45;router &#45;&#45;ip&#45;addr 1.2.3.1</text>
<text text-anchor="start" x="279" y="-2083.3" font-family="Times,serif" font-size="14.00">Execution:</text>
<text text-anchor="start" x="279" y="-2065.3" font-family="liberation mono" font-size="14.00"> &#160;nmdb&#45;playbook &#45;&#45;inter&#45;network &#45;&#45;execute</text>
<!-- pre_phase -->
<g id="node1" class="node">
<title>pre_phase</title>
<path fill="none" stroke="black" d="M1247.5,-2056C1247.5,-2056 78.5,-2056 78.5,-2056 72.5,-2056 66.5,-2050 66.5,-2044 66.5,-2044 66.5,-1870 66.5,-1870 66.5,-1864 72.5,-1858 78.5,-1858 78.5,-1858 1247.5,-1858 1247.5,-1858 1253.5,-1858 1259.5,-1864 1259.5,-1870 1259.5,-1870 1259.5,-2044 1259.5,-2044 1259.5,-2050 1253.5,-2056 1247.5,-2056"/>
<text text-anchor="start" x="626" y="-2031.8" font-family="liberation mono" font-weight="bold" font-size="14.00">Pre&#45;Phase</text>
<text text-anchor="start" x="101.5" y="-2001.8" font-family="liberation mono" font-weight="bold" font-size="14.00">Configure NIC for stage; passive listen</text>
<text text-anchor="start" x="85" y="-1987.8" font-family="liberation mono" font-size="14.00">sysctl &#45;q &#45;w net.ipv6.conf.eth0.autoconf=0</text>
<text text-anchor="start" x="85" y="-1973.8" font-family="liberation mono" font-size="14.00">sysctl &#45;q &#45;w net.ipv6.conf.eth0.accept_ra=0</text>
<text text-anchor="start" x="85" y="-1959.8" font-family="liberation mono" font-size="14.00">ip link set dev eth0 up</text>
<text text-anchor="start" x="85" y="-1945.8" font-family="liberation mono" font-size="14.00">sleep 1s</text>
<text text-anchor="start" x="85" y="-1931.8" font-family="liberation mono" font-size="14.00">clw dumpcap &#45;i eth0 &#45;a duration:300</text>
<text text-anchor="start" x="85" y="-1917.8" font-family="liberation mono" font-size="14.00">ip link set dev eth0 down</text>
<text text-anchor="start" x="85" y="-1903.8" font-family="liberation mono" font-size="14.00">sleep 0.5s</text>
<text text-anchor="start" x="455" y="-1917" font-family="liberation mono" font-size="100.00">→</text>
<text text-anchor="start" x="531" y="-2001.8" font-family="liberation mono" font-weight="bold" font-size="14.00">Configure NIC for phases; non&#45;portfast wait</text>
<text text-anchor="start" x="531" y="-1987.8" font-family="liberation mono" font-size="14.00">sysctl &#45;q &#45;w net.ipv6.conf.eth0.autoconf=0</text>
<text text-anchor="start" x="531" y="-1973.8" font-family="liberation mono" font-size="14.00">sysctl &#45;q &#45;w net.ipv6.conf.eth0.accept_ra=0</text>
<text text-anchor="start" x="531" y="-1959.8" font-family="liberation mono" font-size="14.00">ip link set dev eth0 up</text>
<text text-anchor="start" x="531" y="-1945.8" font-family="liberation mono" font-size="14.00">sleep 1s</text>
<text text-anchor="start" x="531" y="-1931.8" font-family="liberation mono" font-size="14.00">clw dumpcap &#45;i eth0 &#45;a duration:90</text>
<text text-anchor="start" x="531" y="-1917.8" font-family="liberation mono" font-size="14.00">sysctl &#45;q &#45;w net.ipv6.conf.eth0.autoconf=1</text>
<text text-anchor="start" x="531" y="-1903.8" font-family="liberation mono" font-size="14.00">sysctl &#45;q &#45;w net.ipv6.conf.eth0.accept_ra=1</text>
<text text-anchor="start" x="531" y="-1889.8" font-family="liberation mono" font-size="14.00">ip addr add 1.2.3.4/24 dev eth0</text>
<text text-anchor="start" x="531" y="-1875.8" font-family="liberation mono" font-size="14.00">sleep 0.5s</text>
<text text-anchor="start" x="901" y="-1917" font-family="liberation mono" font-size="100.00">→</text>
<text text-anchor="start" x="1043" y="-2001.8" font-family="liberation mono" font-weight="bold" font-size="14.00">Configure routes</text>
<text text-anchor="start" x="977" y="-1987.8" font-family="liberation mono" font-size="14.00">ip route add 1.2.3.1 dev eth0</text>
<text text-anchor="start" x="977" y="-1973.8" font-family="liberation mono" font-size="14.00">ip route add default via 1.2.3.1</text>
<text text-anchor="start" x="977" y="-1959.8" font-family="liberation mono" font-size="14.00">ip route flush cache</text>
<text text-anchor="start" x="977" y="-1945.8" font-family="liberation mono" font-size="14.00">sleep 0.5s</text>
</g>
<!-- phase1 -->
<g id="node2" class="node">
<title>phase1</title>
<path fill="none" stroke="black" d="M1314,-1804C1314,-1804 12,-1804 12,-1804 6,-1804 0,-1798 0,-1792 0,-1792 0,-1646 0,-1646 0,-1640 6,-1634 12,-1634 12,-1634 1314,-1634 1314,-1634 1320,-1634 1326,-1640 1326,-1646 1326,-1646 1326,-1792 1326,-1792 1326,-1798 1320,-1804 1314,-1804"/>
<text text-anchor="start" x="580.5" y="-1779.8" font-family="liberation mono" font-weight="bold" font-size="14.00">Phase 1</text>
<text text-anchor="start" x="63.5" y="-1749.8" font-family="liberation mono" font-weight="bold" font-size="14.00">Check Router Reachability</text>
<text text-anchor="start" x="18" y="-1735.8" font-family="liberation mono" font-size="14.00">clw nmap &#45;n &#45;sn &#45;e eth0 1.2.3.1 2&gt;&amp;1</text>
<text text-anchor="start" x="18" y="-1721.8" font-family="liberation mono" font-size="14.00"> &#160;| grep &#39;Host is up&#39;</text>
<text text-anchor="start" x="331" y="-1679" font-family="liberation mono" font-size="100.00">→</text>
<text text-anchor="start" x="498" y="-1749.8" font-family="liberation mono" font-weight="bold" font-size="14.00">Target Files (RoE excluded)</text>
<text text-anchor="start" x="407" y="-1735.8" font-family="liberation mono" font-size="14.00">psql &quot;dbname=site &quot; &#45;A &#45;t &#45;c</text>
<text text-anchor="start" x="407" y="-1721.8" font-family="liberation mono" font-size="14.00"> &#160;&quot; SELECT DISTINCT ip_net</text>
<text text-anchor="start" x="407" y="-1707.8" font-family="liberation mono" font-size="14.00"> &#160;&#160;&#160;FROM playbook_roe_ip_nets</text>
<text text-anchor="start" x="407" y="-1693.8" font-family="liberation mono" font-size="14.00"> &#160;&#160;&#160;WHERE (NOT in_scope)</text>
<text text-anchor="start" x="407" y="-1679.8" font-family="liberation mono" font-size="14.00"> &#160;&#160;&#160;&#160;&#160;AND (4 = family(ip_net))</text>
<text text-anchor="start" x="407" y="-1665.8" font-family="liberation mono" font-size="14.00"> &#160;&#160;&#160;ORDER BY ip_net &quot;</text>
<text text-anchor="start" x="407" y="-1651.8" font-family="liberation mono" font-size="14.00"> &#160;&gt;&gt; ~/.netmeld/playbook/DTS_UUID/RoE&#45;Exclude&#45;IPs</text>
<text text-anchor="start" x="827" y="-1679" font-family="liberation mono" font-size="100.00">→</text>
<text text-anchor="start" x="994" y="-1749.8" font-family="liberation mono" font-weight="bold" font-size="14.00">Target Files (RoE included)</text>
<text text-anchor="start" x="903" y="-1735.8" font-family="liberation mono" font-size="14.00">psql &quot;dbname=site &quot; &#45;A &#45;t &#45;c</text>
<text text-anchor="start" x="903" y="-1721.8" font-family="liberation mono" font-size="14.00"> &#160;&quot; SELECT DISTINCT ip_net</text>
<text text-anchor="start" x="903" y="-1707.8" font-family="liberation mono" font-size="14.00"> &#160;&#160;&#160;FROM playbook_roe_ip_nets</text>
<text text-anchor="start" x="903" y="-1693.8" font-family="liberation mono" font-size="14.00"> &#160;&#160;&#160;WHERE (in_scope)</text>
<text text-anchor="start" x="903" y="-1679.8" font-family="liberation mono" font-size="14.00"> &#160;&#160;&#160;&#160;&#160;AND (4 = family(ip_net))</text>
<text text-anchor="start" x="903" y="-1665.8" font-family="liberation mono" font-size="14.00"> &#160;&#160;&#160;ORDER BY ip_net &quot;</text>
<text text-anchor="start" x="903" y="-1651.8" font-family="liberation mono" font-size="14.00"> &#160;&gt;&gt; ~/.netmeld/playbook/DTS_UUID/RoE&#45;Include&#45;IPs</text>
</g>
<!-- pre_phase&#45;&gt;phase1 -->
<g id="edge1" class="edge">
<title>pre_phase&#45;&gt;phase1</title>
<path fill="none" stroke="black" d="M663,-1857.97C663,-1843.6 663,-1828.82 663,-1814.52"/>
<polygon fill="black" stroke="black" points="666.5,-1814.21 663,-1804.21 659.5,-1814.21 666.5,-1814.21"/>
</g>
<!-- phase2 -->
<g id="node3" class="node">
<title>phase2</title>
<path fill="none" stroke="black" d="M941.5,-1580C941.5,-1580 384.5,-1580 384.5,-1580 378.5,-1580 372.5,-1574 372.5,-1568 372.5,-1568 372.5,-1184 372.5,-1184 372.5,-1178 378.5,-1172 384.5,-1172 384.5,-1172 941.5,-1172 941.5,-1172 947.5,-1172 953.5,-1178 953.5,-1184 953.5,-1184 953.5,-1568 953.5,-1568 953.5,-1574 947.5,-1580 941.5,-1580"/>
<text text-anchor="start" x="634.5" y="-1555.8" font-family="liberation mono" font-weight="bold" font-size="14.00">Phase 2</text>
<text text-anchor="start" x="514.5" y="-1525.8" font-family="liberation mono" font-weight="bold" font-size="14.00">Host Discovery and IP Protocol Scans</text>
<text text-anchor="start" x="391" y="-1511.8" font-family="liberation mono" font-size="14.00">clw nmap &#45;T4 &#45;n &#45;e eth0 &#45;PR &#45;sn &#45;PE &#45;PP &#45;PM</text>
<text text-anchor="start" x="391" y="-1497.8" font-family="liberation mono" font-size="14.00"> &#160;&#45;iL ~/.netmeld/playbook/DTS_UUID/RoE&#45;Include&#45;IPs</text>
<text text-anchor="start" x="391" y="-1483.8" font-family="liberation mono" font-size="14.00"> &#160;&#45;&#45;excludefile ~/.netmeld/playbook/DTS_UUID/RoE&#45;Exclude&#45;IPs</text>
<text text-anchor="start" x="391" y="-1455.8" font-family="liberation mono" font-size="14.00">clw nmap &#45;T4 &#45;n &#45;e eth0 &#45;PR &#45;sn</text>
<text text-anchor="start" x="391" y="-1441.8" font-family="liberation mono" font-size="14.00"> &#160;&#45;PS21&#45;25,49,53,65,80,88,111,123,135&#45;139,161&#45;162,179,389,427,</text>
<text text-anchor="start" x="391" y="-1427.8" font-family="liberation mono" font-size="14.00"> &#160;&#160;&#160;&#160;&#160;443,445,464,543&#45;544,636,749&#45;751,873,902,1645&#45;1646,1812&#45;1813,</text>
<text text-anchor="start" x="391" y="-1413.8" font-family="liberation mono" font-size="14.00"> &#160;&#160;&#160;&#160;&#160;2049,3260,3268&#45;3269,3283,3306,3389,3868,4174,5353&#45;5355,5432,</text>
<text text-anchor="start" x="391" y="-1399.8" font-family="liberation mono" font-size="14.00"> &#160;&#160;&#160;&#160;&#160;5900&#45;5919,8000,8080&#45;8089,8443,8888,9000&#45;9010,9443,</text>
<text text-anchor="start" x="391" y="-1385.8" font-family="liberation mono" font-size="14.00"> &#160;&#160;&#160;&#160;&#160;10000&#45;10010,10443,49152&#45;49169,65530&#45;65535</text>
<text text-anchor="start" x="391" y="-1371.8" font-family="liberation mono" font-size="14.00"> &#160;&#45;PA21&#45;25,49,53,65,80,88,111,123,135&#45;139,161&#45;162,179,389,427,</text>
<text text-anchor="start" x="391" y="-1357.8" font-family="liberation mono" font-size="14.00"> &#160;&#160;&#160;&#160;&#160;443,445,464,543&#45;544,636,749&#45;751,873,902,1645&#45;1646,1812&#45;1813,</text>
<text text-anchor="start" x="391" y="-1343.8" font-family="liberation mono" font-size="14.00"> &#160;&#160;&#160;&#160;&#160;2049,3260,3268&#45;3269,3283,3306,3389,3868,4174,5353&#45;5355,5432,</text>
<text text-anchor="start" x="391" y="-1329.8" font-family="liberation mono" font-size="14.00"> &#160;&#160;&#160;&#160;&#160;5900&#45;5919,8000,8080&#45;8089,8443,8888,9000&#45;9010,9443,</text>
<text text-anchor="start" x="391" y="-1315.8" font-family="liberation mono" font-size="14.00"> &#160;&#160;&#160;&#160;&#160;10000&#45;10010,10443,49152&#45;49169,65530&#45;65535</text>
<text text-anchor="start" x="391" y="-1301.8" font-family="liberation mono" font-size="14.00"> &#160;&#45;PU49,53,65&#45;69,88,111,123,135&#45;139,161&#45;162,389,427,464,500,</text>
<text text-anchor="start" x="391" y="-1287.8" font-family="liberation mono" font-size="14.00"> &#160;&#160;&#160;&#160;&#160;543&#45;544,546&#45;547,749&#45;751,902,1645&#45;1646,1812&#45;1813,1985,2049,</text>
<text text-anchor="start" x="391" y="-1273.8" font-family="liberation mono" font-size="14.00"> &#160;&#160;&#160;&#160;&#160;3268&#45;3269,4174,5353&#45;5355,49152&#45;49169,65530&#45;65535</text>
<text text-anchor="start" x="391" y="-1259.8" font-family="liberation mono" font-size="14.00"> &#160;&#45;iL ~/.netmeld/playbook/DTS_UUID/RoE&#45;Include&#45;IPs</text>
<text text-anchor="start" x="391" y="-1245.8" font-family="liberation mono" font-size="14.00"> &#160;&#45;&#45;excludefile ~/.netmeld/playbook/DTS_UUID/RoE&#45;Exclude&#45;IPs</text>
<text text-anchor="start" x="391" y="-1217.8" font-family="liberation mono" font-size="14.00">clw nmap &#45;T4 &#45;n &#45;e eth0 &#45;PR &#45;sO</text>
<text text-anchor="start" x="391" y="-1203.8" font-family="liberation mono" font-size="14.00"> &#160;&#45;iL ~/.netmeld/playbook/DTS_UUID/RoE&#45;Include&#45;IPs</text>
<text text-anchor="start" x="391" y="-1189.8" font-family="liberation mono" font-size="14.00"> &#160;&#45;&#45;excludefile ~/.netmeld/playbook/DTS_UUID/RoE&#45;Exclude&#45;IPs</text>
</g>
<!-- phase1&#45;&gt;phase2 -->
<g id="edge2" class="edge">
<title>phase1&#45;&gt;phase2</title>
<path fill="none" stroke="black" d="M663,-1633.71C663,-1620.04 663,-1605.36 663,-1590.21"/>
<polygon fill="black" stroke="black" points="666.5,-1590.18 663,-1580.18 659.5,-1590.18 666.5,-1590.18"/>
</g>
<!-- phase3 -->
<g id="node4" class="node">
<title>phase3</title>
<path fill="none" stroke="black" d="M917,-1118C917,-1118 409,-1118 409,-1118 403,-1118 397,-1112 397,-1106 397,-1106 397,-1016 397,-1016 397,-1010 403,-1004 409,-1004 409,-1004 917,-1004 917,-1004 923,-1004 929,-1010 929,-1016 929,-1016 929,-1106 929,-1106 929,-1112 923,-1118 917,-1118"/>
<text text-anchor="start" x="634" y="-1093.8" font-family="liberation mono" font-weight="bold" font-size="14.00">Phase 3</text>
<text text-anchor="start" x="547" y="-1063.8" font-family="liberation mono" font-weight="bold" font-size="14.00">Default DNS Lookup With Nmap</text>
<text text-anchor="start" x="415" y="-1049.8" font-family="liberation mono" font-size="14.00">clw nmap &#45;T4 &#45;R &#45;e eth0 &#45;sL &#45;&#45;resolve&#45;all</text>
<text text-anchor="start" x="415" y="-1035.8" font-family="liberation mono" font-size="14.00"> &#160;&#45;iL ~/.netmeld/playbook/DTS_UUID/RoE&#45;Include&#45;IPs</text>
<text text-anchor="start" x="415" y="-1021.8" font-family="liberation mono" font-size="14.00"> &#160;&#45;&#45;excludefile ~/.netmeld/playbook/DTS_UUID/RoE&#45;Exclude&#45;IPs</text>
</g>
<!-- phase2&#45;&gt;phase3 -->
<g id="edge3" class="edge">
<title>phase2&#45;&gt;phase3</title>
<path fill="none" stroke="black" d="M663,-1171.91C663,-1156.42 663,-1141.59 663,-1128.12"/>
<polygon fill="black" stroke="black" points="666.5,-1128.1 663,-1118.1 659.5,-1128.1 666.5,-1128.1"/>
</g>
<!-- phase4 -->
<g id="node5" class="node">
<title>phase4</title>
<path fill="none" stroke="black" d="M1222.5,-950C1222.5,-950 103.5,-950 103.5,-950 97.5,-950 91.5,-944 91.5,-938 91.5,-938 91.5,-652 91.5,-652 91.5,-646 97.5,-640 103.5,-640 103.5,-640 1222.5,-640 1222.5,-640 1228.5,-640 1234.5,-646 1234.5,-652 1234.5,-652 1234.5,-938 1234.5,-938 1234.5,-944 1228.5,-950 1222.5,-950"/>
<text text-anchor="start" x="646.5" y="-925.8" font-family="liberation mono" font-weight="bold" font-size="14.00">Phase 4</text>
<text text-anchor="start" x="242" y="-895.8" font-family="liberation mono" font-weight="bold" font-size="14.00">Target Files (Responding Hosts)</text>
<text text-anchor="start" x="110" y="-881.8" font-family="liberation mono" font-size="14.00">psql &quot;dbname=site &quot; &#45;A &#45;t &#45;c</text>
<text text-anchor="start" x="110" y="-867.8" font-family="liberation mono" font-size="14.00"> &#160;&quot; SELECT DISTINCT ia.ip_addr</text>
<text text-anchor="start" x="110" y="-853.8" font-family="liberation mono" font-size="14.00"> &#160;&#160;&#160;FROM raw_ip_addrs AS ia</text>
<text text-anchor="start" x="110" y="-839.8" font-family="liberation mono" font-size="14.00"> &#160;&#160;&#160;JOIN tool_runs AS tr</text>
<text text-anchor="start" x="110" y="-825.8" font-family="liberation mono" font-size="14.00"> &#160;&#160;&#160;&#160;&#160;ON (ia.tool_run_id = tr.id)</text>
<text text-anchor="start" x="110" y="-811.8" font-family="liberation mono" font-size="14.00"> &#160;&#160;&#160;JOIN playbook_roe_ip_nets AS roe</text>
<text text-anchor="start" x="110" y="-797.8" font-family="liberation mono" font-size="14.00"> &#160;&#160;&#160;&#160;&#160;ON (ia.ip_addr &lt;&lt;= roe.ip_net)</text>
<text text-anchor="start" x="110" y="-783.8" font-family="liberation mono" font-size="14.00"> &#160;&#160;&#160;WHERE (ia.is_responding)</text>
<text text-anchor="start" x="110" y="-769.8" font-family="liberation mono" font-size="14.00"> &#160;&#160;&#160;&#160;&#160;AND (4 = family(ia.ip_addr))</text>
<text text-anchor="start" x="110" y="-755.8" font-family="liberation mono" font-size="14.00"> &#160;&#160;&#160;&#160;&#160;AND (roe.in_scope)</text>
<text text-anchor="start" x="110" y="-741.8" font-family="liberation mono" font-size="14.00"> &#160;&#160;&#160;&#160;&#160;AND (tr.tool_name = &#39;nmap&#39;)</text>
<text text-anchor="start" x="110" y="-727.8" font-family="liberation mono" font-size="14.00"> &#160;&#160;&#160;&#160;&#160;AND (tr.command_line LIKE</text>
<text text-anchor="start" x="110" y="-713.8" font-family="liberation mono" font-size="14.00"> &#160;&#160;&#160;&#160;&#160;&#160;&#160;&#160;&#160;&#160;&#160;&#39;%nmap %~/.netmeld/playbook/DTS_UUID/%RoE&#45;%&#45;IPs %&#39;)</text>
<text text-anchor="start" x="110" y="-699.8" font-family="liberation mono" font-size="14.00"> &#160;&#160;&#160;ORDER BY ia.ip_addr &quot;</text>
<text text-anchor="start" x="110" y="-685.8" font-family="liberation mono" font-size="14.00"> &#160;&gt;&gt; ~/.netmeld/playbook/DTS_UUID/Responding&#45;Host&#45;IPs</text>
<text text-anchor="start" x="645" y="-755" font-family="liberation mono" font-size="100.00">→</text>
<text text-anchor="start" x="812" y="-895.8" font-family="liberation mono" font-weight="bold" font-size="14.00">Port Scans (plus basic info gathering)</text>
<text text-anchor="start" x="721" y="-881.8" font-family="liberation mono" font-size="14.00">clw nmap &#45;T4 &#45;n &#45;e eth0 &#45;PR &#45;Pn &#45;O</text>
<text text-anchor="start" x="721" y="-867.8" font-family="liberation mono" font-size="14.00"> &#160;&#45;&#45;script &#39;(banner or dns&#45;nsid or ntp&#45;info or rpcinfo</text>
<text text-anchor="start" x="721" y="-853.8" font-family="liberation mono" font-size="14.00"> &#160;&#160;&#160;&#160;&#160;or ssh&#45;hostkey or ssh2&#45;enum&#45;algos or ssl&#45;cert</text>
<text text-anchor="start" x="721" y="-839.8" font-family="liberation mono" font-size="14.00"> &#160;&#160;&#160;&#160;&#160;or smtp&#45;commands or smb&#45;os&#45;discovery or smbv2&#45;enabled</text>
<text text-anchor="start" x="721" y="-825.8" font-family="liberation mono" font-size="14.00"> &#160;&#160;&#160;&#160;&#160;or vnc&#45;info)&#39;</text>
<text text-anchor="start" x="721" y="-811.8" font-family="liberation mono" font-size="14.00"> &#160;&#45;sS &#45;p `nmdb&#45;export&#45;port&#45;list &#45;&#45;tcp&#45;all`</text>
<text text-anchor="start" x="721" y="-797.8" font-family="liberation mono" font-size="14.00"> &#160;&#45;iL ~/.netmeld/playbook/DTS_UUID/Responding&#45;Host&#45;IPs</text>
<text text-anchor="start" x="721" y="-783.8" font-family="liberation mono" font-size="14.00"> &#160;&#45;&#45;excludefile ~/.netmeld/playbook/DTS_UUID/RoE&#45;Exclude&#45;IPs</text>
<text text-anchor="start" x="721" y="-755.8" font-family="liberation mono" font-size="14.00">clw nmap &#45;T4 &#45;n &#45;e eth0 &#45;PR &#45;Pn &#45;O</text>
<text text-anchor="start" x="721" y="-741.8" font-family="liberation mono" font-size="14.00"> &#160;&#45;&#45;script &#39;(banner or dns&#45;nsid or ntp&#45;info or rpcinfo </text>
<text text-anchor="start" x="721" y="-727.8" font-family="liberation mono" font-size="14.00"> &#160;&#160;&#160;&#160;&#160;or ssh&#45;hostkey or ssh2&#45;enum&#45;algos or ssl&#45;cert</text>
<text text-anchor="start" x="721" y="-713.8" font-family="liberation mono" font-size="14.00"> &#160;&#160;&#160;&#160;&#160;or smtp&#45;commands or smb&#45;os&#45;discovery or smbv2&#45;enabled</text>
<text text-anchor="start" x="721" y="-699.8" font-family="liberation mono" font-size="14.00"> &#160;&#160;&#160;&#160;&#160;or vnc&#45;info)&#39;</text>
<text text-anchor="start" x="721" y="-685.8" font-family="liberation mono" font-size="14.00"> &#160;&#45;sU &#45;p `nmdb&#45;export&#45;port&#45;list &#45;&#45;udp`</text>
<text text-anchor="start" x="721" y="-671.8" font-family="liberation mono" font-size="14.00"> &#160;&#45;iL ~/.netmeld/playbook/DTS_UUID/Responding&#45;Host&#45;IPs</text>
<text text-anchor="start" x="721" y="-657.8" font-family="liberation mono" font-size="14.00"> &#160;&#45;&#45;excludefile ~/.netmeld/playbook/DTS_UUID/RoE&#45;Exclude&#45;IPs</text>
</g>
<!-- phase3&#45;&gt;phase4 -->
<g id="edge4" class="edge">
<title>phase3&#45;&gt;phase4</title>
<path fill="none" stroke="black" d="M663,-1003.69C663,-990.46 663,-975.7 663,-960.31"/>
<polygon fill="black" stroke="black" points="666.5,-960.12 663,-950.12 659.5,-960.12 666.5,-960.12"/>
</g>
<!-- phase5 -->
<g id="node6" class="node">
<title>phase5</title>
<path fill="none" stroke="black" d="M1239,-586C1239,-586 87,-586 87,-586 81,-586 75,-580 75,-574 75,-574 75,-430 75,-430 75,-424 81,-418 87,-418 87,-418 1239,-418 1239,-418 1245,-418 1251,-424 1251,-430 1251,-430 1251,-574 1251,-574 1251,-580 1245,-586 1239,-586"/>
<text text-anchor="start" x="555.5" y="-561.8" font-family="liberation mono" font-weight="bold" font-size="14.00">Phase 5</text>
<text text-anchor="start" x="208.5" y="-531.8" font-family="liberation mono" font-weight="bold" font-size="14.00">Target Files (DNS servers)</text>
<text text-anchor="start" x="93" y="-517.8" font-family="liberation mono" font-size="14.00">psql &#45;R, &quot;dbname=site &quot; &#45;A &#45;t &#45;c</text>
<text text-anchor="start" x="93" y="-503.8" font-family="liberation mono" font-size="14.00"> &#160;&quot; SELECT DISTINCT host(ip_addr)</text>
<text text-anchor="start" x="93" y="-489.8" font-family="liberation mono" font-size="14.00"> &#160;&#160;&#160;FROM ports_services</text>
<text text-anchor="start" x="93" y="-475.8" font-family="liberation mono" font-size="14.00"> &#160;&#160;&#160;WHERE port = &#39;53&#39;</text>
<text text-anchor="start" x="93" y="-461.8" font-family="liberation mono" font-size="14.00"> &#160;&#160;&#160;&#160;&#160;AND port_state = &#39;open&#39; &quot;</text>
<text text-anchor="start" x="93" y="-447.8" font-family="liberation mono" font-size="14.00"> &#160;&gt;&gt; ~/.netmeld/playbook/DTS_UUID/Possible&#45;DNS&#45;Servers</text>
<text text-anchor="start" x="554" y="-462" font-family="liberation mono" font-size="100.00">→</text>
<text text-anchor="start" x="815.5" y="-531.8" font-family="liberation mono" font-weight="bold" font-size="14.00">Learned DNS Lookup With Nmap</text>
<text text-anchor="start" x="630" y="-517.8" font-family="liberation mono" font-size="14.00">clw nmap &#45;T4 &#45;R &#45;e eth0 &#45;sL &#45;&#45;resolve&#45;all</text>
<text text-anchor="start" x="630" y="-503.8" font-family="liberation mono" font-size="14.00"> &#160;&#45;&#45;dns&#45;servers $(cat ~/.netmeld/playbook/DTS_UUID/Possible&#45;DNS&#45;Servers )</text>
<text text-anchor="start" x="630" y="-489.8" font-family="liberation mono" font-size="14.00"> &#160;&#45;iL ~/.netmeld/playbook/DTS_UUID/RoE&#45;Include&#45;IPs</text>
<text text-anchor="start" x="630" y="-475.8" font-family="liberation mono" font-size="14.00"> &#160;&#45;&#45;excludefile ~/.netmeld/playbook/DTS_UUID/RoE&#45;Exclude&#45;IPs</text>
</g>
<!-- phase4&#45;&gt;phase5 -->
<g id="edge5" class="edge">
<title>phase4&#45;&gt;phase5</title>
<path fill="none" stroke="black" d="M663,-639.98C663,-625.06 663,-610.26 663,-596.21"/>
<polygon fill="black" stroke="black" points="666.5,-596.12 663,-586.12 659.5,-596.12 666.5,-596.12"/>
</g>
<!-- phase6 -->
<g id="node7" class="node">
<title>phase6</title>
<path fill="none" stroke="black" d="M966.5,-364C966.5,-364 359.5,-364 359.5,-364 353.5,-364 347.5,-358 347.5,-352 347.5,-352 347.5,-234 347.5,-234 347.5,-228 353.5,-222 359.5,-222 359.5,-222 966.5,-222 966.5,-222 972.5,-222 978.5,-228 978.5,-234 978.5,-234 978.5,-352 978.5,-352 978.5,-358 972.5,-364 966.5,-364"/>
<text text-anchor="start" x="634.5" y="-339.8" font-family="liberation mono" font-weight="bold" font-size="14.00">Phase 6</text>
<text text-anchor="start" x="576.5" y="-309.8" font-family="liberation mono" font-weight="bold" font-size="14.00">Manual Testing Prompt</text>
<text text-anchor="start" x="366" y="-295.8" font-family="liberation mono" font-size="14.00">echo &#39;&#39;;</text>
<text text-anchor="start" x="366" y="-281.8" font-family="liberation mono" font-size="14.00">echo &#39;Finish any manual testing that is using eth0 1.2.3.4/24.&#39;;</text>
<text text-anchor="start" x="366" y="-267.8" font-family="liberation mono" font-size="14.00">echo &#39;Close this xterm when manual testing is complete.&#39;;</text>
<text text-anchor="start" x="366" y="-253.8" font-family="liberation mono" font-size="14.00">echo &#39;When this xterm is closed, eth0 1.2.3.4/24 will be deconfigured.&#39;;</text>
<text text-anchor="start" x="366" y="-239.8" font-family="liberation mono" font-size="14.00">while [[ 1 == 1 ]]; do sleep 600; done;</text>
</g>
<!-- phase5&#45;&gt;phase6 -->
<g id="edge6" class="edge">
<title>phase5&#45;&gt;phase6</title>
<path fill="none" stroke="black" d="M663,-418C663,-403.61 663,-388.66 663,-374.35"/>
<polygon fill="black" stroke="black" points="666.5,-374.05 663,-364.05 659.5,-374.05 666.5,-374.05"/>
</g>
<!-- post_phase -->
<g id="node8" class="node">
<title>post_phase</title>
<path fill="none" stroke="black" d="M1173.5,-168C1173.5,-168 152.5,-168 152.5,-168 146.5,-168 140.5,-162 140.5,-156 140.5,-156 140.5,-12 140.5,-12 140.5,-6 146.5,0 152.5,0 152.5,0 1173.5,0 1173.5,0 1179.5,0 1185.5,-6 1185.5,-12 1185.5,-12 1185.5,-156 1185.5,-156 1185.5,-162 1179.5,-168 1173.5,-168"/>
<text text-anchor="start" x="651" y="-143.8" font-family="liberation mono" font-weight="bold" font-size="14.00">Post&#45;Phase</text>
<text text-anchor="start" x="217" y="-113.8" font-family="liberation mono" font-weight="bold" font-size="14.00">Deconfigure routes</text>
<text text-anchor="start" x="159" y="-99.8" font-family="liberation mono" font-size="14.00">ip route del default via 1.2.3.1</text>
<text text-anchor="start" x="159" y="-85.8" font-family="liberation mono" font-size="14.00">ip route del 1.2.3.1 dev eth0</text>
<text text-anchor="start" x="159" y="-71.8" font-family="liberation mono" font-size="14.00">ip route flush cache</text>
<text text-anchor="start" x="159" y="-57.8" font-family="liberation mono" font-size="14.00">sleep 0.5s</text>
<text text-anchor="start" x="439" y="-44" font-family="liberation mono" font-size="100.00">→</text>
<text text-anchor="start" x="589" y="-113.8" font-family="liberation mono" font-weight="bold" font-size="14.00">Deconfigure NIC for phase</text>
<text text-anchor="start" x="515" y="-99.8" font-family="liberation mono" font-size="14.00">ip addr del 1.2.3.4/24 dev eth0</text>
<text text-anchor="start" x="515" y="-85.8" font-family="liberation mono" font-size="14.00">sysctl &#45;q &#45;w net.ipv6.conf.eth0.accept_ra=0</text>
<text text-anchor="start" x="515" y="-71.8" font-family="liberation mono" font-size="14.00">sysctl &#45;q &#45;w net.ipv6.conf.eth0.autoconf=0</text>
<text text-anchor="start" x="515" y="-57.8" font-family="liberation mono" font-size="14.00">sleep 0.5s</text>
<text text-anchor="start" x="885" y="-44" font-family="liberation mono" font-size="100.00">→</text>
<text text-anchor="start" x="961" y="-113.8" font-family="liberation mono" font-weight="bold" font-size="14.00">Deconfigure NIC for stage</text>
<text text-anchor="start" x="961" y="-99.8" font-family="liberation mono" font-size="14.00">ip link set dev eth0 down</text>
<text text-anchor="start" x="961" y="-85.8" font-family="liberation mono" font-size="14.00">sleep 0.5s</text>
</g>
<!-- phase6&#45;&gt;post_phase -->
<g id="edge7" class="edge">
<title>phase6&#45;&gt;post_phase</title>
<path fill="none" stroke="black" d="M663,-221.92C663,-207.91 663,-192.99 663,-178.34"/>
<polygon fill="black" stroke="black" points="666.5,-178.25 663,-168.25 659.5,-178.25 666.5,-178.25"/>
</g>
</g>
</svg>
