<?xml version="1.0" encoding="UTF-8" standalone="no"?>
<!DOCTYPE svg PUBLIC "-//W3C//DTD SVG 1.1//EN"
 "http://www.w3.org/Graphics/SVG/1.1/DTD/svg11.dtd">
<!-- Generated by graphviz version 2.40.1 (20161225.0304)
 -->
<!-- Title: netmeld Pages: 1 -->
<svg width="701pt" height="743pt"
 viewBox="0.00 0.00 701.00 742.50" xmlns="http://www.w3.org/2000/svg" xmlns:xlink="http://www.w3.org/1999/xlink">
<g id="graph0" class="graph" transform="scale(1 1) rotate(0) translate(4 738.5)">
<title>netmeld</title>
<polygon fill="#ffffff" stroke="transparent" points="-4,4 -4,-738.5 697,-738.5 697,4 -4,4"/>
<text text-anchor="middle" x="346.5" y="-7.8" font-family="Times,serif" font-size="14.00" fill="#000000">Netmeld Tool Suite 2.x &#45;&#45; Datastore &amp; Core Helper Dataflow</text>
<g id="clust1" class="cluster">
<title>cluster_binaries</title>
<polygon fill="none" stroke="#000000" stroke-dasharray="5,2" points="353,-561.5 353,-726.5 511,-726.5 511,-561.5 353,-561.5"/>
<text text-anchor="middle" x="432" y="-711.3" font-family="Times,serif" font-size="14.00" fill="#000000">Binaries</text>
</g>
<!-- init -->
<g id="node1" class="node">
<title>init</title>
<polygon fill="none" stroke="#000000" points="482,-695.5 382,-695.5 382,-659.5 482,-659.5 482,-695.5"/>
<text text-anchor="middle" x="432" y="-673.8" font-family="Times,serif" font-size="14.00" fill="#000000">nmdb&#45;initialize</text>
</g>
<!-- datastore -->
<g id="node8" class="node">
<title>datastore</title>
<path fill="none" stroke="#000000" d="M693,-602.2273C693,-604.0331 662.5213,-605.5 625,-605.5 587.4787,-605.5 557,-604.0331 557,-602.2273 557,-602.2273 557,-572.7727 557,-572.7727 557,-570.9669 587.4787,-569.5 625,-569.5 662.5213,-569.5 693,-570.9669 693,-572.7727 693,-572.7727 693,-602.2273 693,-602.2273"/>
<path fill="none" stroke="#000000" d="M693,-602.2273C693,-600.4214 662.5213,-598.9545 625,-598.9545 587.4787,-598.9545 557,-600.4214 557,-602.2273"/>
<text text-anchor="middle" x="625" y="-583.8" font-family="Times,serif" font-size="14.00" fill="#000000">PostgreSQL Database</text>
</g>
<!-- init&#45;&gt;datastore -->
<g id="edge1" class="edge">
<title>init&#45;&gt;datastore</title>
<path fill="none" stroke="#000000" d="M471.0564,-659.2872C501.6329,-645.0287 544.3069,-625.1289 576.972,-609.8965"/>
<polygon fill="#000000" stroke="#000000" points="578.7476,-612.9304 586.3315,-605.532 575.7892,-606.5862 578.7476,-612.9304"/>
</g>
<!-- remove -->
<g id="node2" class="node">
<title>remove</title>
<polygon fill="none" stroke="#000000" points="503,-605.5 361,-605.5 361,-569.5 503,-569.5 503,-605.5"/>
<text text-anchor="middle" x="432" y="-583.8" font-family="Times,serif" font-size="14.00" fill="#000000">nmdb&#45;remove&#45;tool&#45;run</text>
</g>
<!-- remove&#45;&gt;datastore -->
<g id="edge2" class="edge">
<title>remove&#45;&gt;datastore</title>
<path fill="none" stroke="#000000" d="M503.0439,-587.5C517.2281,-587.5 532.2025,-587.5 546.6175,-587.5"/>
<polygon fill="#000000" stroke="#000000" points="546.9958,-591.0001 556.9957,-587.5 546.9957,-584.0001 546.9958,-591.0001"/>
</g>
<!-- objects -->
<g id="node3" class="node">
<title>objects</title>
<polygon fill="none" stroke="#000000" points="492,-515 372,-515 372,-192 492,-192 492,-515"/>
<text text-anchor="middle" x="432" y="-499.8" font-family="Times,serif" font-size="14.00" fill="#000000">Objects</text>
<text text-anchor="start" x="380" y="-484.8" font-family="Times,serif" font-size="14.00" fill="#000000">AbstractObject</text>
<text text-anchor="start" x="380" y="-469.8" font-family="Times,serif" font-size="14.00" fill="#000000">AcBook</text>
<text text-anchor="start" x="380" y="-454.8" font-family="Times,serif" font-size="14.00" fill="#000000">AcNetworkBook</text>
<text text-anchor="start" x="380" y="-439.8" font-family="Times,serif" font-size="14.00" fill="#000000">AcRule</text>
<text text-anchor="start" x="380" y="-424.8" font-family="Times,serif" font-size="14.00" fill="#000000">AcServiceBook</text>
<text text-anchor="start" x="380" y="-409.8" font-family="Times,serif" font-size="14.00" fill="#000000">Cve</text>
<text text-anchor="start" x="380" y="-394.8" font-family="Times,serif" font-size="14.00" fill="#000000">DeviceInformation</text>
<text text-anchor="start" x="380" y="-379.8" font-family="Times,serif" font-size="14.00" fill="#000000">Interface</text>
<text text-anchor="start" x="380" y="-364.8" font-family="Times,serif" font-size="14.00" fill="#000000">InterfaceNetwork</text>
<text text-anchor="start" x="380" y="-349.8" font-family="Times,serif" font-size="14.00" fill="#000000">IpAddress</text>
<text text-anchor="start" x="380" y="-334.8" font-family="Times,serif" font-size="14.00" fill="#000000">IpNetwork</text>
<text text-anchor="start" x="380" y="-319.8" font-family="Times,serif" font-size="14.00" fill="#000000">MacAddress</text>
<text text-anchor="start" x="380" y="-304.8" font-family="Times,serif" font-size="14.00" fill="#000000">OperatingSystem</text>
<text text-anchor="start" x="380" y="-289.8" font-family="Times,serif" font-size="14.00" fill="#000000">Port</text>
<text text-anchor="start" x="380" y="-274.8" font-family="Times,serif" font-size="14.00" fill="#000000">Route</text>
<text text-anchor="start" x="380" y="-259.8" font-family="Times,serif" font-size="14.00" fill="#000000">Service</text>
<text text-anchor="start" x="380" y="-244.8" font-family="Times,serif" font-size="14.00" fill="#000000">Time</text>
<text text-anchor="start" x="380" y="-229.8" font-family="Times,serif" font-size="14.00" fill="#000000">ToolObservations</text>
<text text-anchor="start" x="380" y="-214.8" font-family="Times,serif" font-size="14.00" fill="#000000">Uuid</text>
<text text-anchor="start" x="380" y="-199.8" font-family="Times,serif" font-size="14.00" fill="#000000">Vlan</text>
</g>
<!-- utils -->
<g id="node7" class="node">
<title>utils</title>
<polygon fill="none" stroke="#000000" points="680,-196 570,-196 570,-23 680,-23 680,-196"/>
<text text-anchor="middle" x="625" y="-180.8" font-family="Times,serif" font-size="14.00" fill="#000000">Utils</text>
<text text-anchor="start" x="578" y="-165.8" font-family="Times,serif" font-size="14.00" fill="#000000">AcBookUtilities</text>
<text text-anchor="start" x="578" y="-150.8" font-family="Times,serif" font-size="14.00" fill="#000000">Exit</text>
<text text-anchor="start" x="578" y="-135.8" font-family="Times,serif" font-size="14.00" fill="#000000">FileManager</text>
<text text-anchor="start" x="578" y="-120.8" font-family="Times,serif" font-size="14.00" fill="#000000">ForkExec</text>
<text text-anchor="start" x="578" y="-105.8" font-family="Times,serif" font-size="14.00" fill="#000000">Logger</text>
<text text-anchor="start" x="578" y="-90.8" font-family="Times,serif" font-size="14.00" fill="#000000">LoggerSingleton</text>
<text text-anchor="start" x="578" y="-75.8" font-family="Times,serif" font-size="14.00" fill="#000000">ProgramOptions</text>
<text text-anchor="start" x="578" y="-60.8" font-family="Times,serif" font-size="14.00" fill="#000000">QueriesCommon</text>
<text text-anchor="start" x="578" y="-45.8" font-family="Times,serif" font-size="14.00" fill="#000000">Severity</text>
<text text-anchor="start" x="578" y="-30.8" font-family="Times,serif" font-size="14.00" fill="#000000">StringUtilities</text>
</g>
<!-- objects&#45;&gt;utils -->
<g id="edge5" class="edge">
<title>objects&#45;&gt;utils</title>
<path fill="none" stroke="#000000" d="M492.0085,-277.6344C514.7663,-248.8628 540.6996,-216.0766 563.5853,-187.1434"/>
<polygon fill="#000000" stroke="#000000" points="566.4956,-189.1059 569.9542,-179.0915 561.0054,-184.7633 566.4956,-189.1059"/>
</g>
<!-- objects&#45;&gt;datastore -->
<g id="edge3" class="edge">
<title>objects&#45;&gt;datastore</title>
<path fill="none" stroke="#000000" d="M498.602,-434.2506C535.1042,-478.5071 577.9392,-530.4419 603.2012,-561.0704"/>
<polygon fill="#000000" stroke="#000000" points="501.0714,-431.7439 492.0085,-426.2564 495.6712,-436.1979 501.0714,-431.7439"/>
<polygon fill="#000000" stroke="#000000" points="600.7775,-563.6326 609.8405,-569.1201 606.1777,-559.1785 600.7775,-563.6326"/>
</g>
<!-- parsers -->
<g id="node4" class="node">
<title>parsers</title>
<polygon fill="none" stroke="#000000" points="307,-225.5 179,-225.5 179,-127.5 307,-127.5 307,-225.5"/>
<text text-anchor="middle" x="243" y="-210.3" font-family="Times,serif" font-size="14.00" fill="#000000">Parsers</text>
<text text-anchor="start" x="187" y="-195.3" font-family="Times,serif" font-size="14.00" fill="#000000">ParserCve</text>
<text text-anchor="start" x="187" y="-180.3" font-family="Times,serif" font-size="14.00" fill="#000000">ParserDomainName</text>
<text text-anchor="start" x="187" y="-165.3" font-family="Times,serif" font-size="14.00" fill="#000000">ParserHelper</text>
<text text-anchor="start" x="187" y="-150.3" font-family="Times,serif" font-size="14.00" fill="#000000">ParserIpAddress</text>
<text text-anchor="start" x="187" y="-135.3" font-family="Times,serif" font-size="14.00" fill="#000000">ParserMacAddress</text>
</g>
<!-- parsers&#45;&gt;objects -->
<g id="edge10" class="edge">
<title>parsers&#45;&gt;objects</title>
<path fill="none" stroke="#000000" d="M295.396,-225.5693C316.6946,-245.5156 341.5799,-268.8209 364.2322,-290.0349"/>
<polygon fill="#000000" stroke="#000000" points="362.1288,-292.8603 371.8202,-297.1412 366.9137,-287.7509 362.1288,-292.8603"/>
</g>
<!-- parsers&#45;&gt;utils -->
<g id="edge6" class="edge">
<title>parsers&#45;&gt;utils</title>
<path fill="none" stroke="#000000" d="M307.3691,-165.2101C377.5922,-152.8935 489.3792,-133.2869 559.8922,-120.9194"/>
<polygon fill="#000000" stroke="#000000" points="560.7414,-124.324 569.9864,-119.149 559.532,-117.4292 560.7414,-124.324"/>
</g>
<!-- schemas -->
<g id="node5" class="node">
<title>schemas</title>
<polygon fill="none" stroke="#000000" points="657.5,-695.5 592.5,-695.5 592.5,-659.5 657.5,-659.5 657.5,-695.5"/>
<text text-anchor="middle" x="625" y="-673.8" font-family="Times,serif" font-size="14.00" fill="#000000">Schemas</text>
</g>
<!-- schemas&#45;&gt;datastore -->
<g id="edge9" class="edge">
<title>schemas&#45;&gt;datastore</title>
<path fill="none" stroke="#000000" d="M625,-659.2902C625,-644.7982 625,-630.3062 625,-615.8142"/>
<polygon fill="#000000" stroke="#000000" points="628.5001,-615.7812 625,-605.7813 621.5001,-615.7813 628.5001,-615.7812"/>
</g>
<!-- tools -->
<g id="node6" class="node">
<title>tools</title>
<polygon fill="none" stroke="#000000" points="125,-225.5 0,-225.5 0,-127.5 125,-127.5 125,-225.5"/>
<text text-anchor="middle" x="62.5" y="-210.3" font-family="Times,serif" font-size="14.00" fill="#000000">Tools</text>
<text text-anchor="start" x="8" y="-195.3" font-family="Times,serif" font-size="14.00" fill="#000000">AbstractExportTool</text>
<text text-anchor="start" x="8" y="-180.3" font-family="Times,serif" font-size="14.00" fill="#000000">AbstractGraphTool</text>
<text text-anchor="start" x="8" y="-165.3" font-family="Times,serif" font-size="14.00" fill="#000000">AbstractImportTool</text>
<text text-anchor="start" x="8" y="-150.3" font-family="Times,serif" font-size="14.00" fill="#000000">AbstractInsertTool</text>
<text text-anchor="start" x="8" y="-135.3" font-family="Times,serif" font-size="14.00" fill="#000000">AbstractTool</text>
</g>
<!-- tools&#45;&gt;objects -->
<g id="edge8" class="edge">
<title>tools&#45;&gt;objects</title>
<path fill="none" stroke="#000000" d="M125.2218,-220.6625C142.2656,-231.7561 160.9972,-243.152 179,-252.5 238.9622,-283.6354 310.7883,-311.4735 362.5644,-329.9985"/>
<polygon fill="#000000" stroke="#000000" points="361.3967,-333.2979 371.9914,-333.3478 363.7403,-326.7019 361.3967,-333.2979"/>
</g>
<!-- tools&#45;&gt;parsers -->
<g id="edge4" class="edge">
<title>tools&#45;&gt;parsers</title>
<path fill="none" stroke="#000000" d="M125.1236,-176.5C139.1344,-176.5 154.1283,-176.5 168.5649,-176.5"/>
<polygon fill="#000000" stroke="#000000" points="168.9566,-180.0001 178.9565,-176.5 168.9565,-173.0001 168.9566,-180.0001"/>
</g>
<!-- tools&#45;&gt;utils -->
<g id="edge7" class="edge">
<title>tools&#45;&gt;utils</title>
<path fill="none" stroke="#000000" d="M123.5753,-127.3102C140.5582,-116.3305 159.6719,-106.247 179,-100.5 309.6286,-61.6586 471.404,-80.4669 559.7868,-96.0228"/>
<polygon fill="#000000" stroke="#000000" points="559.2104,-99.4752 569.6725,-97.8034 560.4513,-92.5861 559.2104,-99.4752"/>
</g>
</g>
</svg>
