<?xml version="1.0" encoding="UTF-8" standalone="no"?>
<!DOCTYPE svg PUBLIC "-//W3C//DTD SVG 1.1//EN"
 "http://www.w3.org/Graphics/SVG/1.1/DTD/svg11.dtd">
<!-- Generated by graphviz version 2.43.0 (0)
 -->
<!-- Title: netmeld Pages: 1 -->
<svg width="2065pt" height="1605pt"
 viewBox="0.00 0.00 2065.00 1604.72" xmlns="http://www.w3.org/2000/svg" xmlns:xlink="http://www.w3.org/1999/xlink">
<g id="graph0" class="graph" transform="scale(1 1) rotate(0) translate(4 1600.72)">
<title>netmeld</title>
<polygon fill="white" stroke="transparent" points="-4,4 -4,-1600.72 2061,-1600.72 2061,4 -4,4"/>
<text text-anchor="middle" x="1028.5" y="-7.8" font-family="Times,serif" font-size="14.00">Netmeld Tool Suite 2.x &#45;&#45; Datastore Components and General Dataflow</text>
<g id="clust1" class="cluster">
<title>cluster_bin</title>
<polygon fill="none" stroke="black" stroke-dasharray="5,2" points="8,-134.72 8,-1252.72 892,-1252.72 892,-134.72 8,-134.72"/>
<text text-anchor="middle" x="450" y="-1237.52" font-family="Times,serif" font-size="14.00">Binary Resources</text>
<text text-anchor="middle" x="450" y="-1222.52" font-family="Times,serif" font-size="14.00">(Includes Sub&#45;Module Binaries)</text>
</g>
<g id="clust4" class="cluster">
<title>cluster_lib</title>
<polygon fill="none" stroke="black" stroke-dasharray="5,2" points="912,-333.72 912,-1588.72 2049,-1588.72 2049,-333.72 912,-333.72"/>
<text text-anchor="middle" x="1480.5" y="-1573.52" font-family="Times,serif" font-size="14.00">Library Resources</text>
</g>
<g id="clust5" class="cluster">
<title>cluster_datastore</title>
<polygon fill="none" stroke="black" stroke-dasharray="5,2" points="1847,-218.72 1847,-293.72 2036,-293.72 2036,-218.72 1847,-218.72"/>
<text text-anchor="middle" x="1941.5" y="-278.52" font-family="Times,serif" font-size="14.00">Data Store(s)</text>
</g>
<!-- users -->
<g id="node1" class="node">
<title>users</title>
<ellipse fill="none" stroke="black" cx="280.5" cy="-64.72" rx="41.94" ry="41.94"/>
<text text-anchor="middle" x="280.5" y="-68.52" font-family="Times,serif" font-size="14.00">End</text>
<text text-anchor="middle" x="280.5" y="-53.52" font-family="Times,serif" font-size="14.00">Users</text>
</g>
<!-- bins_ -->
<g id="node2" class="node">
<title>bins_</title>
<polygon fill="none" stroke="black" points="865,-282.72 600,-282.72 600,-168.72 865,-168.72 865,-282.72"/>
<polygon fill="none" stroke="black" points="607.5,-175.72 607.5,-275.72 688.5,-275.72 688.5,-175.72 607.5,-175.72"/>
<text text-anchor="start" x="612.5" y="-229.52" font-family="Times,serif" font-size="14.00">Datastore</text>
<text text-anchor="start" x="626.5" y="-214.52" font-family="Times,serif" font-size="14.00">Bin(s)</text>
<polygon fill="none" stroke="black" points="688.5,-250.72 688.5,-275.72 858.5,-275.72 858.5,-250.72 688.5,-250.72"/>
<text text-anchor="start" x="693.5" y="-259.52" font-family="Times,serif" font-size="14.00">nmdb&#45;analyze&#45;data</text>
<polygon fill="none" stroke="black" points="688.5,-225.72 688.5,-250.72 858.5,-250.72 858.5,-225.72 688.5,-225.72"/>
<text text-anchor="start" x="693.5" y="-234.52" font-family="Times,serif" font-size="14.00">nmdb&#45;convert&#45;acls</text>
<polygon fill="none" stroke="black" points="688.5,-200.72 688.5,-225.72 858.5,-225.72 858.5,-200.72 688.5,-200.72"/>
<text text-anchor="start" x="693.5" y="-209.52" font-family="Times,serif" font-size="14.00">nmdb&#45;initialize</text>
<polygon fill="none" stroke="black" points="688.5,-175.72 688.5,-200.72 858.5,-200.72 858.5,-175.72 688.5,-175.72"/>
<text text-anchor="start" x="693.5" y="-184.52" font-family="Times,serif" font-size="14.00">nmdb&#45;remove&#45;tool&#45;run</text>
</g>
<!-- users&#45;&gt;bins_ -->
<g id="edge5" class="edge">
<title>users&#45;&gt;bins_</title>
<path fill="none" stroke="black" d="M322.2,-70.7C374.82,-79.21 468.75,-97.03 545,-125.72 549.28,-127.33 553.58,-129.02 557.89,-130.77"/>
<polygon fill="black" stroke="black" points="556.77,-134.1 567.34,-134.72 559.46,-127.64 556.77,-134.1"/>
</g>
<!-- psqldb -->
<g id="node12" class="node">
<title>psqldb</title>
<path fill="none" stroke="black" d="M2028,-259.45C2028,-261.25 1989.23,-262.72 1941.5,-262.72 1893.77,-262.72 1855,-261.25 1855,-259.45 1855,-259.45 1855,-229.99 1855,-229.99 1855,-228.19 1893.77,-226.72 1941.5,-226.72 1989.23,-226.72 2028,-228.19 2028,-229.99 2028,-229.99 2028,-259.45 2028,-259.45"/>
<path fill="none" stroke="black" d="M2028,-259.45C2028,-257.64 1989.23,-256.17 1941.5,-256.17 1893.77,-256.17 1855,-257.64 1855,-259.45"/>
<text text-anchor="middle" x="1941.5" y="-241.02" font-family="Times,serif" font-size="14.00">PostgreSQL Database</text>
</g>
<!-- users&#45;&gt;psqldb -->
<g id="edge6" class="edge">
<title>users&#45;&gt;psqldb</title>
<path fill="none" stroke="black" d="M332.4,-64.72C454.53,-64.72 773.86,-64.72 1040.5,-64.72 1040.5,-64.72 1040.5,-64.72 1321.5,-64.72 1542.61,-64.72 1597.96,-102.81 1806,-177.72 1838.93,-189.58 1874.29,-207.41 1900.49,-221.7"/>
<polygon fill="black" stroke="black" points="332.23,-61.22 322.23,-64.72 332.23,-68.22 332.23,-61.22"/>
<polygon fill="black" stroke="black" points="1898.91,-224.82 1909.35,-226.59 1902.29,-218.7 1898.91,-224.82"/>
</g>
<!-- tools -->
<g id="node9" class="node">
<title>tools</title>
<polygon fill="none" stroke="black" points="1163,-921.22 920,-921.22 920,-782.22 1163,-782.22 1163,-921.22"/>
<polygon fill="none" stroke="black" points="927.5,-788.72 927.5,-913.72 985.5,-913.72 985.5,-788.72 927.5,-788.72"/>
<text text-anchor="start" x="932.5" y="-847.52" font-family="Times,serif" font-size="14.00">Tool(s)</text>
<polygon fill="none" stroke="black" points="985.5,-888.72 985.5,-913.72 1156.5,-913.72 1156.5,-888.72 985.5,-888.72"/>
<text text-anchor="start" x="990.5" y="-897.52" font-family="Times,serif" font-size="14.00">AbstractDatastoreTool</text>
<polygon fill="none" stroke="black" points="985.5,-863.72 985.5,-888.72 1156.5,-888.72 1156.5,-863.72 985.5,-863.72"/>
<text text-anchor="start" x="990.5" y="-872.52" font-family="Times,serif" font-size="14.00">AbstractExportTool</text>
<polygon fill="none" stroke="black" points="985.5,-838.72 985.5,-863.72 1156.5,-863.72 1156.5,-838.72 985.5,-838.72"/>
<text text-anchor="start" x="990.5" y="-847.52" font-family="Times,serif" font-size="14.00">AbstractGraphTool</text>
<polygon fill="none" stroke="black" points="985.5,-813.72 985.5,-838.72 1156.5,-838.72 1156.5,-813.72 985.5,-813.72"/>
<text text-anchor="start" x="990.5" y="-822.52" font-family="Times,serif" font-size="14.00">AbstractImportTool</text>
<polygon fill="none" stroke="black" points="985.5,-788.72 985.5,-813.72 1156.5,-813.72 1156.5,-788.72 985.5,-788.72"/>
<text text-anchor="start" x="990.5" y="-797.52" font-family="Times,serif" font-size="14.00">AbstractInsertTool</text>
</g>
<!-- bins_&#45;&gt;tools -->
<g id="edge9" class="edge">
<title>bins_&#45;&gt;tools</title>
<path fill="none" stroke="black" d="M892,-462.72C897.27,-472.91 902.46,-483.34 907.55,-493.93"/>
<polygon fill="black" stroke="black" points="904.54,-495.75 912,-503.27 910.86,-492.74 904.54,-495.75"/>
</g>
<!-- bins_&#45;&gt;psqldb -->
<g id="edge10" class="edge">
<title>bins_:init&#45;&gt;psqldb</title>
<path fill="none" stroke="black" d="M859.5,-212.72C1223.39,-212.72 1655.88,-231.06 1844.53,-239.97"/>
<polygon fill="black" stroke="black" points="1844.54,-243.48 1854.7,-240.45 1844.87,-236.48 1844.54,-243.48"/>
</g>
<!-- bins_&#45;&gt;psqldb -->
<g id="edge11" class="edge">
<title>bins_:remove&#45;&gt;psqldb</title>
<path fill="none" stroke="black" d="M859.5,-187.72C1280.35,-187.72 1388.22,-164.93 1806,-215.72 1824.39,-217.96 1843.99,-221.5 1862.36,-225.35"/>
<polygon fill="black" stroke="black" points="1861.63,-228.77 1872.14,-227.45 1863.1,-221.93 1861.63,-228.77"/>
</g>
<!-- bins_exporters -->
<g id="node3" class="node">
<title>bins_exporters</title>
<polygon fill="none" stroke="black" points="858.5,-869.22 606.5,-869.22 606.5,-780.22 858.5,-780.22 858.5,-869.22"/>
<polygon fill="none" stroke="black" points="613.5,-786.72 613.5,-861.72 687.5,-861.72 687.5,-786.72 613.5,-786.72"/>
<text text-anchor="start" x="618.5" y="-828.02" font-family="Times,serif" font-size="14.00">Exporter</text>
<text text-anchor="start" x="629" y="-813.02" font-family="Times,serif" font-size="14.00">Bin(s)</text>
<polygon fill="none" stroke="black" points="687.5,-836.72 687.5,-861.72 851.5,-861.72 851.5,-836.72 687.5,-836.72"/>
<text text-anchor="start" x="692.5" y="-845.52" font-family="Times,serif" font-size="14.00">nmdb&#45;export&#45;port&#45;list</text>
<polygon fill="none" stroke="black" points="687.5,-811.72 687.5,-836.72 851.5,-836.72 851.5,-811.72 687.5,-811.72"/>
<text text-anchor="start" x="692.5" y="-820.52" font-family="Times,serif" font-size="14.00">nmdb&#45;export&#45;query</text>
<polygon fill="none" stroke="black" points="687.5,-786.72 687.5,-811.72 851.5,-811.72 851.5,-786.72 687.5,-786.72"/>
<text text-anchor="start" x="692.5" y="-795.52" font-family="Times,serif" font-size="14.00">nmdb&#45;export&#45;scans</text>
</g>
<!-- bins_graphers -->
<g id="node4" class="node">
<title>bins_graphers</title>
<polygon fill="none" stroke="black" points="855,-569.22 610,-569.22 610,-480.22 855,-480.22 855,-569.22"/>
<polygon fill="none" stroke="black" points="617.5,-486.72 617.5,-561.72 687.5,-561.72 687.5,-486.72 617.5,-486.72"/>
<text text-anchor="start" x="622.5" y="-528.02" font-family="Times,serif" font-size="14.00">Grapher</text>
<text text-anchor="start" x="631" y="-513.02" font-family="Times,serif" font-size="14.00">Bin(s)</text>
<polygon fill="none" stroke="black" points="687.5,-536.72 687.5,-561.72 848.5,-561.72 848.5,-536.72 687.5,-536.72"/>
<text text-anchor="start" x="692.5" y="-545.52" font-family="Times,serif" font-size="14.00">nmdb&#45;graph&#45;ac</text>
<polygon fill="none" stroke="black" points="687.5,-511.72 687.5,-536.72 848.5,-536.72 848.5,-511.72 687.5,-511.72"/>
<text text-anchor="start" x="692.5" y="-520.52" font-family="Times,serif" font-size="14.00">nmdb&#45;graph&#45;aws</text>
<polygon fill="none" stroke="black" points="687.5,-486.72 687.5,-511.72 848.5,-511.72 848.5,-486.72 687.5,-486.72"/>
<text text-anchor="start" x="692.5" y="-495.52" font-family="Times,serif" font-size="14.00">nmdb&#45;graph&#45;network</text>
</g>
<!-- bins_importers -->
<g id="node5" class="node">
<title>bins_importers</title>
<polygon fill="none" stroke="black" points="545,-1206.72 16,-1206.72 16,-142.72 545,-142.72 545,-1206.72"/>
<polygon fill="none" stroke="black" points="23.5,-149.72 23.5,-1199.72 97.5,-1199.72 97.5,-149.72 23.5,-149.72"/>
<text text-anchor="start" x="28.5" y="-678.52" font-family="Times,serif" font-size="14.00">Importer</text>
<text text-anchor="start" x="39" y="-663.52" font-family="Times,serif" font-size="14.00">Bin(s)</text>
<polygon fill="none" stroke="black" points="97.5,-1174.72 97.5,-1199.72 538.5,-1199.72 538.5,-1174.72 97.5,-1174.72"/>
<text text-anchor="start" x="102.5" y="-1183.52" font-family="Times,serif" font-size="14.00">nmdb&#45;import&#45;aws&#45;ec2&#45;describe&#45;instances</text>
<polygon fill="none" stroke="black" points="97.5,-1149.72 97.5,-1174.72 538.5,-1174.72 538.5,-1149.72 97.5,-1149.72"/>
<text text-anchor="start" x="102.5" y="-1158.52" font-family="Times,serif" font-size="14.00">nmdb&#45;import&#45;aws&#45;ec2&#45;describe&#45;network&#45;acls</text>
<polygon fill="none" stroke="black" points="97.5,-1124.72 97.5,-1149.72 538.5,-1149.72 538.5,-1124.72 97.5,-1124.72"/>
<text text-anchor="start" x="102.5" y="-1133.52" font-family="Times,serif" font-size="14.00">nmdb&#45;import&#45;aws&#45;ec2&#45;describe&#45;network&#45;interfaces</text>
<polygon fill="none" stroke="black" points="97.5,-1099.72 97.5,-1124.72 538.5,-1124.72 538.5,-1099.72 97.5,-1099.72"/>
<text text-anchor="start" x="102.5" y="-1108.52" font-family="Times,serif" font-size="14.00">nmdb&#45;import&#45;aws&#45;ec2&#45;describe&#45;route&#45;tables</text>
<polygon fill="none" stroke="black" points="97.5,-1074.72 97.5,-1099.72 538.5,-1099.72 538.5,-1074.72 97.5,-1074.72"/>
<text text-anchor="start" x="102.5" y="-1083.52" font-family="Times,serif" font-size="14.00">nmdb&#45;import&#45;aws&#45;ec2&#45;describe&#45;security&#45;groups</text>
<polygon fill="none" stroke="black" points="97.5,-1049.72 97.5,-1074.72 538.5,-1074.72 538.5,-1049.72 97.5,-1049.72"/>
<text text-anchor="start" x="102.5" y="-1058.52" font-family="Times,serif" font-size="14.00">nmdb&#45;import&#45;aws&#45;ec2&#45;describe&#45;subnets</text>
<polygon fill="none" stroke="black" points="97.5,-1024.72 97.5,-1049.72 538.5,-1049.72 538.5,-1024.72 97.5,-1024.72"/>
<text text-anchor="start" x="102.5" y="-1033.52" font-family="Times,serif" font-size="14.00">nmdb&#45;import&#45;aws&#45;ec2&#45;describe&#45;transit&#45;gateway&#45;attachments</text>
<polygon fill="none" stroke="black" points="97.5,-999.72 97.5,-1024.72 538.5,-1024.72 538.5,-999.72 97.5,-999.72"/>
<text text-anchor="start" x="102.5" y="-1008.52" font-family="Times,serif" font-size="14.00">nmdb&#45;import&#45;aws&#45;ec2&#45;describe&#45;vpc&#45;peering&#45;connections</text>
<polygon fill="none" stroke="black" points="97.5,-974.72 97.5,-999.72 538.5,-999.72 538.5,-974.72 97.5,-974.72"/>
<text text-anchor="start" x="102.5" y="-983.52" font-family="Times,serif" font-size="14.00">nmdb&#45;import&#45;aws&#45;ec2&#45;describe&#45;vpcs</text>
<polygon fill="none" stroke="black" points="97.5,-949.72 97.5,-974.72 538.5,-974.72 538.5,-949.72 97.5,-949.72"/>
<text text-anchor="start" x="102.5" y="-958.52" font-family="Times,serif" font-size="14.00">nmdb&#45;import&#45;brocade</text>
<polygon fill="none" stroke="black" points="97.5,-924.72 97.5,-949.72 538.5,-949.72 538.5,-924.72 97.5,-924.72"/>
<text text-anchor="start" x="102.5" y="-933.52" font-family="Times,serif" font-size="14.00">nmdb&#45;import&#45;brocade&#45;show&#45;ip&#45;route</text>
<polygon fill="none" stroke="black" points="97.5,-899.72 97.5,-924.72 538.5,-924.72 538.5,-899.72 97.5,-899.72"/>
<text text-anchor="start" x="102.5" y="-908.52" font-family="Times,serif" font-size="14.00">nmdb&#45;import&#45;cisco</text>
<polygon fill="none" stroke="black" points="97.5,-874.72 97.5,-899.72 538.5,-899.72 538.5,-874.72 97.5,-874.72"/>
<text text-anchor="start" x="102.5" y="-883.52" font-family="Times,serif" font-size="14.00">nmdb&#45;import&#45;cisco&#45;show&#45;ip&#45;route</text>
<polygon fill="none" stroke="black" points="97.5,-849.72 97.5,-874.72 538.5,-874.72 538.5,-849.72 97.5,-849.72"/>
<text text-anchor="start" x="102.5" y="-858.52" font-family="Times,serif" font-size="14.00">nmdb&#45;import&#45;cisco&#45;wireless</text>
<polygon fill="none" stroke="black" points="97.5,-824.72 97.5,-849.72 538.5,-849.72 538.5,-824.72 97.5,-824.72"/>
<text text-anchor="start" x="102.5" y="-833.52" font-family="Times,serif" font-size="14.00">nmdb&#45;import&#45;clw</text>
<polygon fill="none" stroke="black" points="97.5,-799.72 97.5,-824.72 538.5,-824.72 538.5,-799.72 97.5,-799.72"/>
<text text-anchor="start" x="102.5" y="-808.52" font-family="Times,serif" font-size="14.00">nmdb&#45;import&#45;dig</text>
<polygon fill="none" stroke="black" points="97.5,-774.72 97.5,-799.72 538.5,-799.72 538.5,-774.72 97.5,-774.72"/>
<text text-anchor="start" x="102.5" y="-783.52" font-family="Times,serif" font-size="14.00">nmdb&#45;import&#45;dpkg</text>
<polygon fill="none" stroke="black" points="97.5,-749.72 97.5,-774.72 538.5,-774.72 538.5,-749.72 97.5,-749.72"/>
<text text-anchor="start" x="102.5" y="-758.52" font-family="Times,serif" font-size="14.00">nmdb&#45;import&#45;f5&#45;json</text>
<polygon fill="none" stroke="black" points="97.5,-724.72 97.5,-749.72 538.5,-749.72 538.5,-724.72 97.5,-724.72"/>
<text text-anchor="start" x="102.5" y="-733.52" font-family="Times,serif" font-size="14.00">nmdb&#45;import&#45;hosts</text>
<polygon fill="none" stroke="black" points="97.5,-699.72 97.5,-724.72 538.5,-724.72 538.5,-699.72 97.5,-699.72"/>
<text text-anchor="start" x="102.5" y="-708.52" font-family="Times,serif" font-size="14.00">nmdb&#45;import&#45;ip&#45;addr&#45;show</text>
<polygon fill="none" stroke="black" points="97.5,-674.72 97.5,-699.72 538.5,-699.72 538.5,-674.72 97.5,-674.72"/>
<text text-anchor="start" x="102.5" y="-683.52" font-family="Times,serif" font-size="14.00">nmdb&#45;import&#45;ipconfig</text>
<polygon fill="none" stroke="black" points="97.5,-649.72 97.5,-674.72 538.5,-674.72 538.5,-649.72 97.5,-649.72"/>
<text text-anchor="start" x="102.5" y="-658.52" font-family="Times,serif" font-size="14.00">nmdb&#45;import&#45;ip&#45;route&#45;show</text>
<polygon fill="none" stroke="black" points="97.5,-624.72 97.5,-649.72 538.5,-649.72 538.5,-624.72 97.5,-624.72"/>
<text text-anchor="start" x="102.5" y="-633.52" font-family="Times,serif" font-size="14.00">nmdb&#45;import&#45;iptables&#45;save</text>
<polygon fill="none" stroke="black" points="97.5,-599.72 97.5,-624.72 538.5,-624.72 538.5,-599.72 97.5,-599.72"/>
<text text-anchor="start" x="102.5" y="-608.52" font-family="Times,serif" font-size="14.00">nmdb&#45;import&#45;juniper&#45;conf</text>
<polygon fill="none" stroke="black" points="97.5,-574.72 97.5,-599.72 538.5,-599.72 538.5,-574.72 97.5,-574.72"/>
<text text-anchor="start" x="102.5" y="-583.52" font-family="Times,serif" font-size="14.00">nmdb&#45;import&#45;juniper&#45;set</text>
<polygon fill="none" stroke="black" points="97.5,-549.72 97.5,-574.72 538.5,-574.72 538.5,-549.72 97.5,-549.72"/>
<text text-anchor="start" x="102.5" y="-558.52" font-family="Times,serif" font-size="14.00">nmdb&#45;import&#45;juniper&#45;show&#45;route</text>
<polygon fill="none" stroke="black" points="97.5,-524.72 97.5,-549.72 538.5,-549.72 538.5,-524.72 97.5,-524.72"/>
<text text-anchor="start" x="102.5" y="-533.52" font-family="Times,serif" font-size="14.00">nmdb&#45;import&#45;juniper&#45;xml</text>
<polygon fill="none" stroke="black" points="97.5,-499.72 97.5,-524.72 538.5,-524.72 538.5,-499.72 97.5,-499.72"/>
<text text-anchor="start" x="102.5" y="-508.52" font-family="Times,serif" font-size="14.00">nmdb&#45;import&#45;nessus</text>
<polygon fill="none" stroke="black" points="97.5,-474.72 97.5,-499.72 538.5,-499.72 538.5,-474.72 97.5,-474.72"/>
<text text-anchor="start" x="102.5" y="-483.52" font-family="Times,serif" font-size="14.00">nmdb&#45;import&#45;nmap</text>
<polygon fill="none" stroke="black" points="97.5,-449.72 97.5,-474.72 538.5,-474.72 538.5,-449.72 97.5,-449.72"/>
<text text-anchor="start" x="102.5" y="-458.52" font-family="Times,serif" font-size="14.00">nmdb&#45;import&#45;paloalto&#45;xml</text>
<polygon fill="none" stroke="black" points="97.5,-424.72 97.5,-449.72 538.5,-449.72 538.5,-424.72 97.5,-424.72"/>
<text text-anchor="start" x="102.5" y="-433.52" font-family="Times,serif" font-size="14.00">nmdb&#45;import&#45;pcap</text>
<polygon fill="none" stroke="black" points="97.5,-399.72 97.5,-424.72 538.5,-424.72 538.5,-399.72 97.5,-399.72"/>
<text text-anchor="start" x="102.5" y="-408.52" font-family="Times,serif" font-size="14.00">nmdb&#45;import&#45;ping</text>
<polygon fill="none" stroke="black" points="97.5,-374.72 97.5,-399.72 538.5,-399.72 538.5,-374.72 97.5,-374.72"/>
<text text-anchor="start" x="102.5" y="-383.52" font-family="Times,serif" font-size="14.00">nmdb&#45;import&#45;powerconnect</text>
<polygon fill="none" stroke="black" points="97.5,-349.72 97.5,-374.72 538.5,-374.72 538.5,-349.72 97.5,-349.72"/>
<text text-anchor="start" x="102.5" y="-358.52" font-family="Times,serif" font-size="14.00">nmdb&#45;import&#45;prowler</text>
<polygon fill="none" stroke="black" points="97.5,-324.72 97.5,-349.72 538.5,-349.72 538.5,-324.72 97.5,-324.72"/>
<text text-anchor="start" x="102.5" y="-333.52" font-family="Times,serif" font-size="14.00">nmdb&#45;import&#45;rpm&#45;query</text>
<polygon fill="none" stroke="black" points="97.5,-299.72 97.5,-324.72 538.5,-324.72 538.5,-299.72 97.5,-299.72"/>
<text text-anchor="start" x="102.5" y="-308.52" font-family="Times,serif" font-size="14.00">nmdb&#45;import&#45;show&#45;cdp&#45;neighbor</text>
<polygon fill="none" stroke="black" points="97.5,-274.72 97.5,-299.72 538.5,-299.72 538.5,-274.72 97.5,-274.72"/>
<text text-anchor="start" x="102.5" y="-283.52" font-family="Times,serif" font-size="14.00">nmdb&#45;import&#45;show&#45;inventory</text>
<polygon fill="none" stroke="black" points="97.5,-249.72 97.5,-274.72 538.5,-274.72 538.5,-249.72 97.5,-249.72"/>
<text text-anchor="start" x="102.5" y="-258.52" font-family="Times,serif" font-size="14.00">nmdb&#45;import&#45;show&#45;mac&#45;address&#45;table</text>
<polygon fill="none" stroke="black" points="97.5,-224.72 97.5,-249.72 538.5,-249.72 538.5,-224.72 97.5,-224.72"/>
<text text-anchor="start" x="102.5" y="-233.52" font-family="Times,serif" font-size="14.00">nmdb&#45;import&#45;show&#45;neighbor</text>
<polygon fill="none" stroke="black" points="97.5,-199.72 97.5,-224.72 538.5,-224.72 538.5,-199.72 97.5,-199.72"/>
<text text-anchor="start" x="102.5" y="-208.52" font-family="Times,serif" font-size="14.00">nmdb&#45;import&#45;traceroute</text>
<polygon fill="none" stroke="black" points="97.5,-174.72 97.5,-199.72 538.5,-199.72 538.5,-174.72 97.5,-174.72"/>
<text text-anchor="start" x="102.5" y="-183.52" font-family="Times,serif" font-size="14.00">nmdb&#45;import&#45;tshark</text>
<polygon fill="none" stroke="black" points="97.5,-149.72 97.5,-174.72 538.5,-174.72 538.5,-149.72 97.5,-149.72"/>
<text text-anchor="start" x="102.5" y="-158.52" font-family="Times,serif" font-size="14.00">nmdb&#45;import&#45;vyos</text>
</g>
<!-- bins_importers&#45;&gt;bins_ -->
<!-- bins_importers&#45;&gt;bins_exporters -->
<!-- bins_importers&#45;&gt;bins_graphers -->
<!-- bins_inserters -->
<g id="node6" class="node">
<title>bins_inserters</title>
<polygon fill="none" stroke="black" points="884,-744.22 581,-744.22 581,-605.22 884,-605.22 884,-744.22"/>
<polygon fill="none" stroke="black" points="588.5,-611.72 588.5,-736.72 656.5,-736.72 656.5,-611.72 588.5,-611.72"/>
<text text-anchor="start" x="593.5" y="-678.02" font-family="Times,serif" font-size="14.00">Inserter</text>
<text text-anchor="start" x="601" y="-663.02" font-family="Times,serif" font-size="14.00">Bin(s)</text>
<polygon fill="none" stroke="black" points="656.5,-711.72 656.5,-736.72 877.5,-736.72 877.5,-711.72 656.5,-711.72"/>
<text text-anchor="start" x="661.5" y="-720.52" font-family="Times,serif" font-size="14.00">nmdb&#45;insert&#45;ac</text>
<polygon fill="none" stroke="black" points="656.5,-686.72 656.5,-711.72 877.5,-711.72 877.5,-686.72 656.5,-686.72"/>
<text text-anchor="start" x="661.5" y="-695.52" font-family="Times,serif" font-size="14.00">nmdb&#45;insert&#45;address</text>
<polygon fill="none" stroke="black" points="656.5,-661.72 656.5,-686.72 877.5,-686.72 877.5,-661.72 656.5,-661.72"/>
<text text-anchor="start" x="661.5" y="-670.52" font-family="Times,serif" font-size="14.00">nmdb&#45;insert&#45;device</text>
<polygon fill="none" stroke="black" points="656.5,-636.72 656.5,-661.72 877.5,-661.72 877.5,-636.72 656.5,-636.72"/>
<text text-anchor="start" x="661.5" y="-645.52" font-family="Times,serif" font-size="14.00">nmdb&#45;insert&#45;device&#45;hardware</text>
<polygon fill="none" stroke="black" points="656.5,-611.72 656.5,-636.72 877.5,-636.72 877.5,-611.72 656.5,-611.72"/>
<text text-anchor="start" x="661.5" y="-620.52" font-family="Times,serif" font-size="14.00">nmdb&#45;insert&#45;network</text>
</g>
<!-- bins_importers&#45;&gt;bins_inserters -->
<!-- objects -->
<g id="node7" class="node">
<title>objects</title>
<polygon fill="none" stroke="black" points="1806,-1481.22 1478,-1481.22 1478,-342.22 1806,-342.22 1806,-1481.22"/>
<polygon fill="none" stroke="black" points="1485,-348.72 1485,-1473.72 1560,-1473.72 1560,-348.72 1485,-348.72"/>
<text text-anchor="start" x="1490" y="-907.52" font-family="Times,serif" font-size="14.00">Object(s)</text>
<polygon fill="none" stroke="black" points="1560,-1448.72 1560,-1473.72 1799,-1473.72 1799,-1448.72 1560,-1448.72"/>
<text text-anchor="start" x="1565" y="-1457.52" font-family="Times,serif" font-size="14.00">AbstractDatastoreObject</text>
<polygon fill="none" stroke="black" points="1560,-1423.72 1560,-1448.72 1799,-1448.72 1799,-1423.72 1560,-1423.72"/>
<text text-anchor="start" x="1565" y="-1432.52" font-family="Times,serif" font-size="14.00">AcBook</text>
<polygon fill="none" stroke="black" points="1560,-1398.72 1560,-1423.72 1799,-1423.72 1799,-1398.72 1560,-1398.72"/>
<text text-anchor="start" x="1565" y="-1407.52" font-family="Times,serif" font-size="14.00">AclIpNetSet</text>
<polygon fill="none" stroke="black" points="1560,-1373.72 1560,-1398.72 1799,-1398.72 1799,-1373.72 1560,-1373.72"/>
<text text-anchor="start" x="1565" y="-1382.52" font-family="Times,serif" font-size="14.00">AclPortSet</text>
<polygon fill="none" stroke="black" points="1560,-1348.72 1560,-1373.72 1799,-1373.72 1799,-1348.72 1560,-1348.72"/>
<text text-anchor="start" x="1565" y="-1357.52" font-family="Times,serif" font-size="14.00">AclRule</text>
<polygon fill="none" stroke="black" points="1560,-1323.72 1560,-1348.72 1799,-1348.72 1799,-1323.72 1560,-1323.72"/>
<text text-anchor="start" x="1565" y="-1332.52" font-family="Times,serif" font-size="14.00">AclRulePort</text>
<polygon fill="none" stroke="black" points="1560,-1298.72 1560,-1323.72 1799,-1323.72 1799,-1298.72 1560,-1298.72"/>
<text text-anchor="start" x="1565" y="-1307.52" font-family="Times,serif" font-size="14.00">AclRuleService</text>
<polygon fill="none" stroke="black" points="1560,-1273.72 1560,-1298.72 1799,-1298.72 1799,-1273.72 1560,-1273.72"/>
<text text-anchor="start" x="1565" y="-1282.52" font-family="Times,serif" font-size="14.00">AclService</text>
<polygon fill="none" stroke="black" points="1560,-1248.72 1560,-1273.72 1799,-1273.72 1799,-1248.72 1560,-1248.72"/>
<text text-anchor="start" x="1565" y="-1257.52" font-family="Times,serif" font-size="14.00">AclZone</text>
<polygon fill="none" stroke="black" points="1560,-1223.72 1560,-1248.72 1799,-1248.72 1799,-1223.72 1560,-1223.72"/>
<text text-anchor="start" x="1565" y="-1232.52" font-family="Times,serif" font-size="14.00">AcNetworkBook</text>
<polygon fill="none" stroke="black" points="1560,-1198.72 1560,-1223.72 1799,-1223.72 1799,-1198.72 1560,-1198.72"/>
<text text-anchor="start" x="1565" y="-1207.52" font-family="Times,serif" font-size="14.00">AcRule</text>
<polygon fill="none" stroke="black" points="1560,-1173.72 1560,-1198.72 1799,-1198.72 1799,-1173.72 1560,-1173.72"/>
<text text-anchor="start" x="1565" y="-1182.52" font-family="Times,serif" font-size="14.00">AcServiceBook</text>
<polygon fill="none" stroke="black" points="1560,-1148.72 1560,-1173.72 1799,-1173.72 1799,-1148.72 1560,-1148.72"/>
<text text-anchor="start" x="1565" y="-1157.52" font-family="Times,serif" font-size="14.00">aws/Attachment</text>
<polygon fill="none" stroke="black" points="1560,-1123.72 1560,-1148.72 1799,-1148.72 1799,-1123.72 1560,-1123.72"/>
<text text-anchor="start" x="1565" y="-1132.52" font-family="Times,serif" font-size="14.00">aws/CidrBlock</text>
<polygon fill="none" stroke="black" points="1560,-1098.72 1560,-1123.72 1799,-1123.72 1799,-1098.72 1560,-1098.72"/>
<text text-anchor="start" x="1565" y="-1107.52" font-family="Times,serif" font-size="14.00">aws/Instance</text>
<polygon fill="none" stroke="black" points="1560,-1073.72 1560,-1098.72 1799,-1098.72 1799,-1073.72 1560,-1073.72"/>
<text text-anchor="start" x="1565" y="-1082.52" font-family="Times,serif" font-size="14.00">aws/NetworkAcl</text>
<polygon fill="none" stroke="black" points="1560,-1048.72 1560,-1073.72 1799,-1073.72 1799,-1048.72 1560,-1048.72"/>
<text text-anchor="start" x="1565" y="-1057.52" font-family="Times,serif" font-size="14.00">aws/NetworkAclRule</text>
<polygon fill="none" stroke="black" points="1560,-1023.72 1560,-1048.72 1799,-1048.72 1799,-1023.72 1560,-1023.72"/>
<text text-anchor="start" x="1565" y="-1032.52" font-family="Times,serif" font-size="14.00">aws/NetworkInterface</text>
<polygon fill="none" stroke="black" points="1560,-998.72 1560,-1023.72 1799,-1023.72 1799,-998.72 1560,-998.72"/>
<text text-anchor="start" x="1565" y="-1007.52" font-family="Times,serif" font-size="14.00">aws/Route</text>
<polygon fill="none" stroke="black" points="1560,-973.72 1560,-998.72 1799,-998.72 1799,-973.72 1560,-973.72"/>
<text text-anchor="start" x="1565" y="-982.52" font-family="Times,serif" font-size="14.00">aws/RouteTable</text>
<polygon fill="none" stroke="black" points="1560,-948.72 1560,-973.72 1799,-973.72 1799,-948.72 1560,-948.72"/>
<text text-anchor="start" x="1565" y="-957.52" font-family="Times,serif" font-size="14.00">aws/SecurityGroup</text>
<polygon fill="none" stroke="black" points="1560,-923.72 1560,-948.72 1799,-948.72 1799,-923.72 1560,-923.72"/>
<text text-anchor="start" x="1565" y="-932.52" font-family="Times,serif" font-size="14.00">aws/SecurityGroupRule</text>
<polygon fill="none" stroke="black" points="1560,-898.72 1560,-923.72 1799,-923.72 1799,-898.72 1560,-898.72"/>
<text text-anchor="start" x="1565" y="-907.52" font-family="Times,serif" font-size="14.00">aws/Subnet</text>
<polygon fill="none" stroke="black" points="1560,-873.72 1560,-898.72 1799,-898.72 1799,-873.72 1560,-873.72"/>
<text text-anchor="start" x="1565" y="-882.52" font-family="Times,serif" font-size="14.00">aws/TransitGatewayAttachment</text>
<polygon fill="none" stroke="black" points="1560,-848.72 1560,-873.72 1799,-873.72 1799,-848.72 1560,-848.72"/>
<text text-anchor="start" x="1565" y="-857.52" font-family="Times,serif" font-size="14.00">aws/Vpc</text>
<polygon fill="none" stroke="black" points="1560,-823.72 1560,-848.72 1799,-848.72 1799,-823.72 1560,-823.72"/>
<text text-anchor="start" x="1565" y="-832.52" font-family="Times,serif" font-size="14.00">aws/VpcPeeringConnection</text>
<polygon fill="none" stroke="black" points="1560,-798.72 1560,-823.72 1799,-823.72 1799,-798.72 1560,-798.72"/>
<text text-anchor="start" x="1565" y="-807.52" font-family="Times,serif" font-size="14.00">Cve</text>
<polygon fill="none" stroke="black" points="1560,-773.72 1560,-798.72 1799,-798.72 1799,-773.72 1560,-773.72"/>
<text text-anchor="start" x="1565" y="-782.52" font-family="Times,serif" font-size="14.00">DeviceInformation</text>
<polygon fill="none" stroke="black" points="1560,-748.72 1560,-773.72 1799,-773.72 1799,-748.72 1560,-748.72"/>
<text text-anchor="start" x="1565" y="-757.52" font-family="Times,serif" font-size="14.00">DnsLookup</text>
<polygon fill="none" stroke="black" points="1560,-723.72 1560,-748.72 1799,-748.72 1799,-723.72 1560,-723.72"/>
<text text-anchor="start" x="1565" y="-732.52" font-family="Times,serif" font-size="14.00">DnsResolver</text>
<polygon fill="none" stroke="black" points="1560,-698.72 1560,-723.72 1799,-723.72 1799,-698.72 1560,-698.72"/>
<text text-anchor="start" x="1565" y="-707.52" font-family="Times,serif" font-size="14.00">Interface</text>
<polygon fill="none" stroke="black" points="1560,-673.72 1560,-698.72 1799,-698.72 1799,-673.72 1560,-673.72"/>
<text text-anchor="start" x="1565" y="-682.52" font-family="Times,serif" font-size="14.00">InterfaceNetwork</text>
<polygon fill="none" stroke="black" points="1560,-648.72 1560,-673.72 1799,-673.72 1799,-648.72 1560,-648.72"/>
<text text-anchor="start" x="1565" y="-657.52" font-family="Times,serif" font-size="14.00">IpAddress</text>
<polygon fill="none" stroke="black" points="1560,-623.72 1560,-648.72 1799,-648.72 1799,-623.72 1560,-623.72"/>
<text text-anchor="start" x="1565" y="-632.52" font-family="Times,serif" font-size="14.00">IpNetwork</text>
<polygon fill="none" stroke="black" points="1560,-598.72 1560,-623.72 1799,-623.72 1799,-598.72 1560,-598.72"/>
<text text-anchor="start" x="1565" y="-607.52" font-family="Times,serif" font-size="14.00">MacAddress</text>
<polygon fill="none" stroke="black" points="1560,-573.72 1560,-598.72 1799,-598.72 1799,-573.72 1560,-573.72"/>
<text text-anchor="start" x="1565" y="-582.52" font-family="Times,serif" font-size="14.00">OperatingSystem</text>
<polygon fill="none" stroke="black" points="1560,-548.72 1560,-573.72 1799,-573.72 1799,-548.72 1560,-548.72"/>
<text text-anchor="start" x="1565" y="-557.52" font-family="Times,serif" font-size="14.00">Package</text>
<polygon fill="none" stroke="black" points="1560,-523.72 1560,-548.72 1799,-548.72 1799,-523.72 1560,-523.72"/>
<text text-anchor="start" x="1565" y="-532.52" font-family="Times,serif" font-size="14.00">Port</text>
<polygon fill="none" stroke="black" points="1560,-498.72 1560,-523.72 1799,-523.72 1799,-498.72 1560,-498.72"/>
<text text-anchor="start" x="1565" y="-507.52" font-family="Times,serif" font-size="14.00">PortRange</text>
<polygon fill="none" stroke="black" points="1560,-473.72 1560,-498.72 1799,-498.72 1799,-473.72 1560,-473.72"/>
<text text-anchor="start" x="1565" y="-482.52" font-family="Times,serif" font-size="14.00">Route</text>
<polygon fill="none" stroke="black" points="1560,-448.72 1560,-473.72 1799,-473.72 1799,-448.72 1560,-448.72"/>
<text text-anchor="start" x="1565" y="-457.52" font-family="Times,serif" font-size="14.00">Service</text>
<polygon fill="none" stroke="black" points="1560,-423.72 1560,-448.72 1799,-448.72 1799,-423.72 1560,-423.72"/>
<text text-anchor="start" x="1565" y="-432.52" font-family="Times,serif" font-size="14.00">ToolObservations</text>
<polygon fill="none" stroke="black" points="1560,-398.72 1560,-423.72 1799,-423.72 1799,-398.72 1560,-398.72"/>
<text text-anchor="start" x="1565" y="-407.52" font-family="Times,serif" font-size="14.00">TracerouteHop</text>
<polygon fill="none" stroke="black" points="1560,-373.72 1560,-398.72 1799,-398.72 1799,-373.72 1560,-373.72"/>
<text text-anchor="start" x="1565" y="-382.52" font-family="Times,serif" font-size="14.00">Vlan</text>
<polygon fill="none" stroke="black" points="1560,-348.72 1560,-373.72 1799,-373.72 1799,-348.72 1560,-348.72"/>
<text text-anchor="start" x="1565" y="-357.52" font-family="Times,serif" font-size="14.00">Vrf</text>
</g>
<!-- utils -->
<g id="node10" class="node">
<title>utils</title>
<polygon fill="none" stroke="black" points="2041,-1557.22 1842,-1557.22 1842,-1468.22 2041,-1468.22 2041,-1557.22"/>
<polygon fill="none" stroke="black" points="1849.5,-1474.72 1849.5,-1549.72 1905.5,-1549.72 1905.5,-1474.72 1849.5,-1474.72"/>
<text text-anchor="start" x="1854.5" y="-1508.52" font-family="Times,serif" font-size="14.00">Util(s)</text>
<polygon fill="none" stroke="black" points="1905.5,-1524.72 1905.5,-1549.72 2034.5,-1549.72 2034.5,-1524.72 1905.5,-1524.72"/>
<text text-anchor="start" x="1910.5" y="-1533.52" font-family="Times,serif" font-size="14.00">AcBookUtilities</text>
<polygon fill="none" stroke="black" points="1905.5,-1499.72 1905.5,-1524.72 2034.5,-1524.72 2034.5,-1499.72 1905.5,-1499.72"/>
<text text-anchor="start" x="1910.5" y="-1508.52" font-family="Times,serif" font-size="14.00">QueriesCommon</text>
<polygon fill="none" stroke="black" points="1905.5,-1474.72 1905.5,-1499.72 2034.5,-1499.72 2034.5,-1474.72 1905.5,-1474.72"/>
<text text-anchor="start" x="1910.5" y="-1483.52" font-family="Times,serif" font-size="14.00">ServiceFactory</text>
</g>
<!-- objects&#45;&gt;utils -->
<g id="edge18" class="edge">
<title>objects&#45;&gt;utils</title>
<path fill="none" stroke="black" d="M1806.11,-1241.23C1848.03,-1325.91 1888.41,-1407.49 1913.77,-1458.73"/>
<polygon fill="black" stroke="black" points="1910.76,-1460.53 1918.33,-1467.94 1917.03,-1457.42 1910.76,-1460.53"/>
</g>
<!-- objects&#45;&gt;psqldb -->
<g id="edge8" class="edge">
<title>objects&#45;&gt;psqldb</title>
<path fill="none" stroke="black" d="M1811.23,-373.01C1820.96,-356.38 1831.21,-340.23 1842,-324.72 1847.83,-316.35 1854.77,-308.38 1862.23,-300.96"/>
<polygon fill="black" stroke="black" points="1808.16,-371.33 1806.19,-381.74 1814.22,-374.83 1808.16,-371.33"/>
<polygon fill="black" stroke="black" points="1865.01,-303.14 1869.84,-293.72 1860.18,-298.07 1865.01,-303.14"/>
</g>
<!-- parsers -->
<g id="node8" class="node">
<title>parsers</title>
<polygon fill="none" stroke="black" points="1442,-1052.72 1199,-1052.72 1199,-888.72 1442,-888.72 1442,-1052.72"/>
<polygon fill="none" stroke="black" points="1206.5,-895.72 1206.5,-1045.72 1281.5,-1045.72 1281.5,-895.72 1206.5,-895.72"/>
<text text-anchor="start" x="1211.5" y="-967.02" font-family="Times,serif" font-size="14.00">Parser(s)</text>
<polygon fill="none" stroke="black" points="1281.5,-1020.72 1281.5,-1045.72 1435.5,-1045.72 1435.5,-1020.72 1281.5,-1020.72"/>
<text text-anchor="start" x="1286.5" y="-1029.52" font-family="Times,serif" font-size="14.00">ParserCve</text>
<polygon fill="none" stroke="black" points="1281.5,-995.72 1281.5,-1020.72 1435.5,-1020.72 1435.5,-995.72 1281.5,-995.72"/>
<text text-anchor="start" x="1286.5" y="-1004.52" font-family="Times,serif" font-size="14.00">ParserDomainName</text>
<polygon fill="none" stroke="black" points="1281.5,-970.72 1281.5,-995.72 1435.5,-995.72 1435.5,-970.72 1281.5,-970.72"/>
<text text-anchor="start" x="1286.5" y="-979.52" font-family="Times,serif" font-size="14.00">ParserHelper</text>
<polygon fill="none" stroke="black" points="1281.5,-945.72 1281.5,-970.72 1435.5,-970.72 1435.5,-945.72 1281.5,-945.72"/>
<text text-anchor="start" x="1286.5" y="-954.52" font-family="Times,serif" font-size="14.00">ParserIpAddress</text>
<polygon fill="none" stroke="black" points="1281.5,-920.72 1281.5,-945.72 1435.5,-945.72 1435.5,-920.72 1281.5,-920.72"/>
<text text-anchor="start" x="1286.5" y="-929.52" font-family="Times,serif" font-size="14.00">ParserMacAddress</text>
<polygon fill="none" stroke="black" points="1281.5,-895.72 1281.5,-920.72 1435.5,-920.72 1435.5,-895.72 1281.5,-895.72"/>
<text text-anchor="start" x="1286.5" y="-904.52" font-family="Times,serif" font-size="14.00">ParserTestHelper</text>
</g>
<!-- parsers&#45;&gt;objects -->
<g id="edge16" class="edge">
<title>parsers&#45;&gt;objects</title>
<path fill="none" stroke="black" d="M1442.29,-948.41C1450.67,-946.87 1459.21,-945.29 1467.79,-943.7"/>
<polygon fill="black" stroke="black" points="1468.7,-947.1 1477.89,-941.84 1467.42,-940.21 1468.7,-947.1"/>
</g>
<!-- parsers&#45;&gt;utils -->
<g id="edge17" class="edge">
<title>parsers&#45;&gt;utils</title>
<path fill="none" stroke="black" d="M1333.92,-1052.86C1356.09,-1187.34 1406.92,-1445.05 1478,-1499.72 1531.28,-1540.7 1712.59,-1533.65 1831.74,-1523.86"/>
<polygon fill="black" stroke="black" points="1832.32,-1527.32 1842,-1523 1831.74,-1520.35 1832.32,-1527.32"/>
</g>
<!-- tools&#45;&gt;objects -->
<g id="edge12" class="edge">
<title>tools&#45;&gt;objects</title>
<path fill="none" stroke="black" d="M1163.11,-852.58C1242.59,-854.34 1348.82,-858.98 1442,-870.72 1450.52,-871.79 1459.22,-873.03 1467.98,-874.4"/>
<polygon fill="black" stroke="black" points="1467.47,-877.86 1477.9,-875.99 1468.58,-870.95 1467.47,-877.86"/>
</g>
<!-- tools&#45;&gt;parsers -->
<g id="edge13" class="edge">
<title>tools&#45;&gt;parsers</title>
<path fill="none" stroke="black" d="M1163.19,-903.57C1171.86,-907.29 1180.63,-911.06 1189.35,-914.81"/>
<polygon fill="black" stroke="black" points="1188.22,-918.13 1198.79,-918.86 1190.99,-911.7 1188.22,-918.13"/>
</g>
<!-- tools&#45;&gt;utils -->
<g id="edge14" class="edge">
<title>tools&#45;&gt;utils</title>
<path fill="none" stroke="black" d="M1062.77,-921.33C1108.93,-1065.38 1237.01,-1393.62 1478,-1524.72 1587.14,-1584.09 1733.25,-1567.33 1831.81,-1544.77"/>
<polygon fill="black" stroke="black" points="1832.85,-1548.12 1841.79,-1542.43 1831.25,-1541.3 1832.85,-1548.12"/>
</g>
<!-- tools&#45;&gt;psqldb -->
<g id="edge15" class="edge">
<title>tools:dstool&#45;&gt;psqldb</title>
<path fill="none" stroke="black" d="M1157.5,-901.72C1175.83,-901.72 1463.05,-335.34 1478,-324.72 1535.54,-283.86 1726.93,-261.67 1844.71,-251.59"/>
<polygon fill="black" stroke="black" points="1838.84,-257.5 1847,-250.74 1836.41,-250.94 1838.84,-257.5"/>
</g>
<!-- schemas -->
<g id="node11" class="node">
<title>schemas</title>
<polygon fill="none" stroke="black" points="1986,-377.72 1897,-377.72 1897,-341.72 1986,-341.72 1986,-377.72"/>
<text text-anchor="middle" x="1941.5" y="-356.02" font-family="Times,serif" font-size="14.00">Schema(s)</text>
</g>
<!-- schemas&#45;&gt;psqldb -->
<g id="edge7" class="edge">
<title>schemas&#45;&gt;psqldb</title>
<path fill="none" stroke="black" d="M1941.5,-341.61C1941.5,-318.82 1941.5,-296.04 1941.5,-273.25"/>
<polygon fill="black" stroke="black" points="1945,-273.14 1941.5,-263.14 1938,-273.14 1945,-273.14"/>
</g>
</g>
</svg>
