<?xml version="1.0" encoding="UTF-8" standalone="no"?>
<!DOCTYPE svg PUBLIC "-//W3C//DTD SVG 1.1//EN"
 "http://www.w3.org/Graphics/SVG/1.1/DTD/svg11.dtd">
<!-- Generated by graphviz version 2.43.0 (0)
 -->
<!-- Title: netmeld Pages: 1 -->
<svg width="1598pt" height="934pt"
 viewBox="0.00 0.00 1598.44 934.08" xmlns="http://www.w3.org/2000/svg" xmlns:xlink="http://www.w3.org/1999/xlink">
<g id="graph0" class="graph" transform="scale(1 1) rotate(0) translate(4 930.08)">
<title>netmeld</title>
<polygon fill="white" stroke="transparent" points="-4,4 -4,-930.08 1594.44,-930.08 1594.44,4 -4,4"/>
<text text-anchor="middle" x="795.22" y="-7.8" font-family="Times,serif" font-size="14.00">Netmeld Tool Suite 2.x &#45;&#45; Components and General Dataflow</text>
<g id="clust1" class="cluster">
<title>cluster_lib</title>
<polygon fill="none" stroke="black" stroke-dasharray="5,2" points="494.44,-326.08 494.44,-905.08 1582.44,-905.08 1582.44,-326.08 494.44,-326.08"/>
<text text-anchor="middle" x="1038.44" y="-889.88" font-family="Times,serif" font-size="14.00">Library Resources</text>
</g>
<g id="clust2" class="cluster">
<title>cluster_datastore</title>
<polygon fill="none" stroke="black" stroke-dasharray="5,2" points="1381.44,-208.08 1381.44,-287.08 1568.44,-287.08 1568.44,-208.08 1381.44,-208.08"/>
<text text-anchor="middle" x="1474.94" y="-271.88" font-family="Times,serif" font-size="14.00">Data Store(s)</text>
</g>
<!-- users -->
<g id="node1" class="node">
<title>users</title>
<ellipse fill="none" stroke="black" cx="41.72" cy="-288.08" rx="41.94" ry="41.94"/>
<text text-anchor="middle" x="41.72" y="-291.88" font-family="Times,serif" font-size="14.00">End</text>
<text text-anchor="middle" x="41.72" y="-276.88" font-family="Times,serif" font-size="14.00">Users</text>
</g>
<!-- bins -->
<g id="node2" class="node">
<title>bins</title>
<polygon fill="none" stroke="black" points="466.44,-926.08 119.44,-926.08 119.44,-112.08 466.44,-112.08 466.44,-926.08"/>
<polygon fill="none" stroke="black" points="126.94,-119.08 126.94,-919.08 179.94,-919.08 179.94,-119.08 126.94,-119.08"/>
<text text-anchor="start" x="131.94" y="-515.38" font-family="Times,serif" font-size="14.00">Bin(s)</text>
<polygon fill="none" stroke="black" points="179.94,-894.08 179.94,-919.08 459.94,-919.08 459.94,-894.08 179.94,-894.08"/>
<text text-anchor="start" x="184.94" y="-902.88" font-family="Times,serif" font-size="14.00">nmdb&#45;export&#45;port&#45;list</text>
<polygon fill="none" stroke="black" points="179.94,-869.08 179.94,-894.08 459.94,-894.08 459.94,-869.08 179.94,-869.08"/>
<text text-anchor="start" x="184.94" y="-877.88" font-family="Times,serif" font-size="14.00">nmdb&#45;export&#45;query</text>
<polygon fill="none" stroke="black" points="179.94,-844.08 179.94,-869.08 459.94,-869.08 459.94,-844.08 179.94,-844.08"/>
<text text-anchor="start" x="184.94" y="-852.88" font-family="Times,serif" font-size="14.00">nmdb&#45;graph&#45;ac</text>
<polygon fill="none" stroke="black" points="179.94,-819.08 179.94,-844.08 459.94,-844.08 459.94,-819.08 179.94,-819.08"/>
<text text-anchor="start" x="184.94" y="-827.88" font-family="Times,serif" font-size="14.00">nmdb&#45;graph&#45;network</text>
<polygon fill="none" stroke="black" points="179.94,-794.08 179.94,-819.08 459.94,-819.08 459.94,-794.08 179.94,-794.08"/>
<text text-anchor="start" x="184.94" y="-802.88" font-family="Times,serif" font-size="14.00">nmdb&#45;import&#45;brocade</text>
<polygon fill="none" stroke="black" points="179.94,-769.08 179.94,-794.08 459.94,-794.08 459.94,-769.08 179.94,-769.08"/>
<text text-anchor="start" x="184.94" y="-777.88" font-family="Times,serif" font-size="14.00">nmdb&#45;import&#45;cisco</text>
<polygon fill="none" stroke="black" points="179.94,-744.08 179.94,-769.08 459.94,-769.08 459.94,-744.08 179.94,-744.08"/>
<text text-anchor="start" x="184.94" y="-752.88" font-family="Times,serif" font-size="14.00">nmdb&#45;import&#45;cisco&#45;wireless</text>
<polygon fill="none" stroke="black" points="179.94,-719.08 179.94,-744.08 459.94,-744.08 459.94,-719.08 179.94,-719.08"/>
<text text-anchor="start" x="184.94" y="-727.88" font-family="Times,serif" font-size="14.00">nmdb&#45;import&#45;clw</text>
<polygon fill="none" stroke="black" points="179.94,-694.08 179.94,-719.08 459.94,-719.08 459.94,-694.08 179.94,-694.08"/>
<text text-anchor="start" x="184.94" y="-702.88" font-family="Times,serif" font-size="14.00">nmdb&#45;import&#45;hosts</text>
<polygon fill="none" stroke="black" points="179.94,-669.08 179.94,-694.08 459.94,-694.08 459.94,-669.08 179.94,-669.08"/>
<text text-anchor="start" x="184.94" y="-677.88" font-family="Times,serif" font-size="14.00">nmdb&#45;import&#45;ip&#45;addr&#45;show</text>
<polygon fill="none" stroke="black" points="179.94,-644.08 179.94,-669.08 459.94,-669.08 459.94,-644.08 179.94,-644.08"/>
<text text-anchor="start" x="184.94" y="-652.88" font-family="Times,serif" font-size="14.00">nmdb&#45;import&#45;ipconfig</text>
<polygon fill="none" stroke="black" points="179.94,-619.08 179.94,-644.08 459.94,-644.08 459.94,-619.08 179.94,-619.08"/>
<text text-anchor="start" x="184.94" y="-627.88" font-family="Times,serif" font-size="14.00">nmdb&#45;import&#45;ip&#45;route&#45;show</text>
<polygon fill="none" stroke="black" points="179.94,-594.08 179.94,-619.08 459.94,-619.08 459.94,-594.08 179.94,-594.08"/>
<text text-anchor="start" x="184.94" y="-602.88" font-family="Times,serif" font-size="14.00">nmdb&#45;import&#45;iptables&#45;save</text>
<polygon fill="none" stroke="black" points="179.94,-569.08 179.94,-594.08 459.94,-594.08 459.94,-569.08 179.94,-569.08"/>
<text text-anchor="start" x="184.94" y="-577.88" font-family="Times,serif" font-size="14.00">nmdb&#45;import&#45;juniper&#45;conf</text>
<polygon fill="none" stroke="black" points="179.94,-544.08 179.94,-569.08 459.94,-569.08 459.94,-544.08 179.94,-544.08"/>
<text text-anchor="start" x="184.94" y="-552.88" font-family="Times,serif" font-size="14.00">nmdb&#45;import&#45;juniper&#45;set</text>
<polygon fill="none" stroke="black" points="179.94,-519.08 179.94,-544.08 459.94,-544.08 459.94,-519.08 179.94,-519.08"/>
<text text-anchor="start" x="184.94" y="-527.88" font-family="Times,serif" font-size="14.00">nmdb&#45;import&#45;nessus</text>
<polygon fill="none" stroke="black" points="179.94,-494.08 179.94,-519.08 459.94,-519.08 459.94,-494.08 179.94,-494.08"/>
<text text-anchor="start" x="184.94" y="-502.88" font-family="Times,serif" font-size="14.00">nmdb&#45;import&#45;nmap</text>
<polygon fill="none" stroke="black" points="179.94,-469.08 179.94,-494.08 459.94,-494.08 459.94,-469.08 179.94,-469.08"/>
<text text-anchor="start" x="184.94" y="-477.88" font-family="Times,serif" font-size="14.00">nmdb&#45;import&#45;pcap</text>
<polygon fill="none" stroke="black" points="179.94,-444.08 179.94,-469.08 459.94,-469.08 459.94,-444.08 179.94,-444.08"/>
<text text-anchor="start" x="184.94" y="-452.88" font-family="Times,serif" font-size="14.00">nmdb&#45;import&#45;ping</text>
<polygon fill="none" stroke="black" points="179.94,-419.08 179.94,-444.08 459.94,-444.08 459.94,-419.08 179.94,-419.08"/>
<text text-anchor="start" x="184.94" y="-427.88" font-family="Times,serif" font-size="14.00">nmdb&#45;import&#45;powerconnect</text>
<polygon fill="none" stroke="black" points="179.94,-394.08 179.94,-419.08 459.94,-419.08 459.94,-394.08 179.94,-394.08"/>
<text text-anchor="start" x="184.94" y="-402.88" font-family="Times,serif" font-size="14.00">nmdb&#45;import&#45;show&#45;cdp&#45;neighbor</text>
<polygon fill="none" stroke="black" points="179.94,-369.08 179.94,-394.08 459.94,-394.08 459.94,-369.08 179.94,-369.08"/>
<text text-anchor="start" x="184.94" y="-377.88" font-family="Times,serif" font-size="14.00">nmdb&#45;import&#45;show&#45;inventory</text>
<polygon fill="none" stroke="black" points="179.94,-344.08 179.94,-369.08 459.94,-369.08 459.94,-344.08 179.94,-344.08"/>
<text text-anchor="start" x="184.94" y="-352.88" font-family="Times,serif" font-size="14.00">nmdb&#45;import&#45;show&#45;mac&#45;address&#45;table</text>
<polygon fill="none" stroke="black" points="179.94,-319.08 179.94,-344.08 459.94,-344.08 459.94,-319.08 179.94,-319.08"/>
<text text-anchor="start" x="184.94" y="-327.88" font-family="Times,serif" font-size="14.00">nmdb&#45;import&#45;tshark</text>
<polygon fill="none" stroke="black" points="179.94,-294.08 179.94,-319.08 459.94,-319.08 459.94,-294.08 179.94,-294.08"/>
<text text-anchor="start" x="184.94" y="-302.88" font-family="Times,serif" font-size="14.00">nmdb&#45;import&#45;vyos</text>
<polygon fill="none" stroke="black" points="179.94,-269.08 179.94,-294.08 459.94,-294.08 459.94,-269.08 179.94,-269.08"/>
<text text-anchor="start" x="184.94" y="-277.88" font-family="Times,serif" font-size="14.00">nmdb&#45;initialize</text>
<polygon fill="none" stroke="black" points="179.94,-244.08 179.94,-269.08 459.94,-269.08 459.94,-244.08 179.94,-244.08"/>
<text text-anchor="start" x="184.94" y="-252.88" font-family="Times,serif" font-size="14.00">nmdb&#45;insert&#45;ac</text>
<polygon fill="none" stroke="black" points="179.94,-219.08 179.94,-244.08 459.94,-244.08 459.94,-219.08 179.94,-219.08"/>
<text text-anchor="start" x="184.94" y="-227.88" font-family="Times,serif" font-size="14.00">nmdb&#45;insert&#45;address</text>
<polygon fill="none" stroke="black" points="179.94,-194.08 179.94,-219.08 459.94,-219.08 459.94,-194.08 179.94,-194.08"/>
<text text-anchor="start" x="184.94" y="-202.88" font-family="Times,serif" font-size="14.00">nmdb&#45;insert&#45;device</text>
<polygon fill="none" stroke="black" points="179.94,-169.08 179.94,-194.08 459.94,-194.08 459.94,-169.08 179.94,-169.08"/>
<text text-anchor="start" x="184.94" y="-177.88" font-family="Times,serif" font-size="14.00">nmdb&#45;insert&#45;device&#45;hardware</text>
<polygon fill="none" stroke="black" points="179.94,-144.08 179.94,-169.08 459.94,-169.08 459.94,-144.08 179.94,-144.08"/>
<text text-anchor="start" x="184.94" y="-152.88" font-family="Times,serif" font-size="14.00">nmdb&#45;insert&#45;network</text>
<polygon fill="none" stroke="black" points="179.94,-119.08 179.94,-144.08 459.94,-144.08 459.94,-119.08 179.94,-119.08"/>
<text text-anchor="start" x="184.94" y="-127.88" font-family="Times,serif" font-size="14.00">nmdb&#45;remove&#45;tool&#45;run</text>
</g>
<!-- users&#45;&gt;bins -->
<g id="edge1" class="edge">
<title>users&#45;&gt;bins</title>
<path fill="none" stroke="black" d="M72.78,-315.94C83.7,-326.06 96.96,-338.35 111.5,-351.83"/>
<polygon fill="black" stroke="black" points="109.5,-354.75 119.21,-358.98 114.26,-349.61 109.5,-354.75"/>
</g>
<!-- psqldb -->
<g id="node8" class="node">
<title>psqldb</title>
<path fill="none" stroke="black" d="M1560.44,-252.34C1560.44,-254.33 1522.12,-255.95 1474.94,-255.95 1427.76,-255.95 1389.44,-254.33 1389.44,-252.34 1389.44,-252.34 1389.44,-219.82 1389.44,-219.82 1389.44,-217.82 1427.76,-216.2 1474.94,-216.2 1522.12,-216.2 1560.44,-217.82 1560.44,-219.82 1560.44,-219.82 1560.44,-252.34 1560.44,-252.34"/>
<path fill="none" stroke="black" d="M1560.44,-252.34C1560.44,-250.35 1522.12,-248.73 1474.94,-248.73 1427.76,-248.73 1389.44,-250.35 1389.44,-252.34"/>
<text text-anchor="middle" x="1474.94" y="-232.38" font-family="Times,serif" font-size="14.00">PostgreSQL Database</text>
</g>
<!-- users&#45;&gt;psqldb -->
<g id="edge2" class="edge">
<title>users&#45;&gt;psqldb</title>
<path fill="none" stroke="black" d="M48.03,-236.65C55.67,-191.26 74.26,-127.28 119.44,-94.08 300.61,39.05 399.11,-57.08 623.94,-57.08 623.94,-57.08 623.94,-57.08 905.94,-57.08 1104.49,-57.08 1153.96,-94.22 1339.44,-165.08 1371.98,-177.51 1406.71,-195.99 1432.72,-210.98"/>
<polygon fill="black" stroke="black" points="44.56,-236.2 46.48,-246.62 51.47,-237.27 44.56,-236.2"/>
<polygon fill="black" stroke="black" points="1431.14,-214.11 1441.54,-216.12 1434.67,-208.06 1431.14,-214.11"/>
</g>
<!-- tools -->
<g id="node5" class="node">
<title>tools</title>
<polygon fill="none" stroke="black" points="747.44,-611.58 502.44,-611.58 502.44,-472.58 747.44,-472.58 747.44,-611.58"/>
<polygon fill="none" stroke="black" points="509.94,-479.08 509.94,-604.08 568.94,-604.08 568.94,-479.08 509.94,-479.08"/>
<text text-anchor="start" x="514.94" y="-537.88" font-family="Times,serif" font-size="14.00">Tool(s)</text>
<polygon fill="none" stroke="black" points="568.94,-579.08 568.94,-604.08 740.94,-604.08 740.94,-579.08 568.94,-579.08"/>
<text text-anchor="start" x="573.94" y="-587.88" font-family="Times,serif" font-size="14.00">AbstractDatastoreTool</text>
<polygon fill="none" stroke="black" points="568.94,-554.08 568.94,-579.08 740.94,-579.08 740.94,-554.08 568.94,-554.08"/>
<text text-anchor="start" x="573.94" y="-562.88" font-family="Times,serif" font-size="14.00">AbstractExportTool</text>
<polygon fill="none" stroke="black" points="568.94,-529.08 568.94,-554.08 740.94,-554.08 740.94,-529.08 568.94,-529.08"/>
<text text-anchor="start" x="573.94" y="-537.88" font-family="Times,serif" font-size="14.00">AbstractGraphTool</text>
<polygon fill="none" stroke="black" points="568.94,-504.08 568.94,-529.08 740.94,-529.08 740.94,-504.08 568.94,-504.08"/>
<text text-anchor="start" x="573.94" y="-512.88" font-family="Times,serif" font-size="14.00">AbstractImportTool</text>
<polygon fill="none" stroke="black" points="568.94,-479.08 568.94,-504.08 740.94,-504.08 740.94,-479.08 568.94,-479.08"/>
<text text-anchor="start" x="573.94" y="-487.88" font-family="Times,serif" font-size="14.00">AbstractInsertTool</text>
</g>
<!-- bins&#45;&gt;tools -->
<g id="edge5" class="edge">
<title>bins&#45;&gt;tools</title>
<path fill="none" stroke="black" d="M466.67,-531.12C475.21,-531.71 483.72,-532.3 492.11,-532.89"/>
<polygon fill="black" stroke="black" points="483.85,-534.04 494.44,-533.6 485.89,-527.34 483.85,-534.04"/>
</g>
<!-- bins&#45;&gt;psqldb -->
<g id="edge6" class="edge">
<title>bins:init&#45;&gt;psqldb</title>
<path fill="none" stroke="black" d="M460.94,-281.08C729.02,-281.08 794.55,-246.09 1062.44,-236.08 1170.89,-232.03 1295.54,-232.78 1378.96,-234.07"/>
<polygon fill="black" stroke="black" points="1379.13,-237.57 1389.18,-234.23 1379.24,-230.57 1379.13,-237.57"/>
</g>
<!-- bins&#45;&gt;psqldb -->
<g id="edge7" class="edge">
<title>bins:remove&#45;&gt;psqldb</title>
<path fill="none" stroke="black" d="M460.94,-131.08C800.41,-131.08 1200.47,-190.14 1379.3,-219.67"/>
<polygon fill="black" stroke="black" points="1378.76,-223.13 1389.2,-221.31 1379.91,-216.22 1378.76,-223.13"/>
</g>
<!-- objects -->
<g id="node3" class="node">
<title>objects</title>
<polygon fill="none" stroke="black" points="1339.44,-798.08 1062.44,-798.08 1062.44,-334.08 1339.44,-334.08 1339.44,-798.08"/>
<polygon fill="none" stroke="black" points="1069.94,-341.08 1069.94,-791.08 1144.94,-791.08 1144.94,-341.08 1069.94,-341.08"/>
<text text-anchor="start" x="1074.94" y="-562.38" font-family="Times,serif" font-size="14.00">Object(s)</text>
<polygon fill="none" stroke="black" points="1144.94,-766.08 1144.94,-791.08 1332.94,-791.08 1332.94,-766.08 1144.94,-766.08"/>
<text text-anchor="start" x="1149.94" y="-774.88" font-family="Times,serif" font-size="14.00">AbstractDatastoreObject</text>
<polygon fill="none" stroke="black" points="1144.94,-741.08 1144.94,-766.08 1332.94,-766.08 1332.94,-741.08 1144.94,-741.08"/>
<text text-anchor="start" x="1149.94" y="-749.88" font-family="Times,serif" font-size="14.00">AcBook</text>
<polygon fill="none" stroke="black" points="1144.94,-716.08 1144.94,-741.08 1332.94,-741.08 1332.94,-716.08 1144.94,-716.08"/>
<text text-anchor="start" x="1149.94" y="-724.88" font-family="Times,serif" font-size="14.00">AcNetworkBook</text>
<polygon fill="none" stroke="black" points="1144.94,-691.08 1144.94,-716.08 1332.94,-716.08 1332.94,-691.08 1144.94,-691.08"/>
<text text-anchor="start" x="1149.94" y="-699.88" font-family="Times,serif" font-size="14.00">AcRule</text>
<polygon fill="none" stroke="black" points="1144.94,-666.08 1144.94,-691.08 1332.94,-691.08 1332.94,-666.08 1144.94,-666.08"/>
<text text-anchor="start" x="1149.94" y="-674.88" font-family="Times,serif" font-size="14.00">AcServiceBook</text>
<polygon fill="none" stroke="black" points="1144.94,-641.08 1144.94,-666.08 1332.94,-666.08 1332.94,-641.08 1144.94,-641.08"/>
<text text-anchor="start" x="1149.94" y="-649.88" font-family="Times,serif" font-size="14.00">Cve</text>
<polygon fill="none" stroke="black" points="1144.94,-616.08 1144.94,-641.08 1332.94,-641.08 1332.94,-616.08 1144.94,-616.08"/>
<text text-anchor="start" x="1149.94" y="-624.88" font-family="Times,serif" font-size="14.00">DeviceInformation</text>
<polygon fill="none" stroke="black" points="1144.94,-591.08 1144.94,-616.08 1332.94,-616.08 1332.94,-591.08 1144.94,-591.08"/>
<text text-anchor="start" x="1149.94" y="-599.88" font-family="Times,serif" font-size="14.00">Interface</text>
<polygon fill="none" stroke="black" points="1144.94,-566.08 1144.94,-591.08 1332.94,-591.08 1332.94,-566.08 1144.94,-566.08"/>
<text text-anchor="start" x="1149.94" y="-574.88" font-family="Times,serif" font-size="14.00">InterfaceNetwork</text>
<polygon fill="none" stroke="black" points="1144.94,-541.08 1144.94,-566.08 1332.94,-566.08 1332.94,-541.08 1144.94,-541.08"/>
<text text-anchor="start" x="1149.94" y="-549.88" font-family="Times,serif" font-size="14.00">IpAddress</text>
<polygon fill="none" stroke="black" points="1144.94,-516.08 1144.94,-541.08 1332.94,-541.08 1332.94,-516.08 1144.94,-516.08"/>
<text text-anchor="start" x="1149.94" y="-524.88" font-family="Times,serif" font-size="14.00">IpNetwork</text>
<polygon fill="none" stroke="black" points="1144.94,-491.08 1144.94,-516.08 1332.94,-516.08 1332.94,-491.08 1144.94,-491.08"/>
<text text-anchor="start" x="1149.94" y="-499.88" font-family="Times,serif" font-size="14.00">MacAddress</text>
<polygon fill="none" stroke="black" points="1144.94,-466.08 1144.94,-491.08 1332.94,-491.08 1332.94,-466.08 1144.94,-466.08"/>
<text text-anchor="start" x="1149.94" y="-474.88" font-family="Times,serif" font-size="14.00">OperatingSystem</text>
<polygon fill="none" stroke="black" points="1144.94,-441.08 1144.94,-466.08 1332.94,-466.08 1332.94,-441.08 1144.94,-441.08"/>
<text text-anchor="start" x="1149.94" y="-449.88" font-family="Times,serif" font-size="14.00">Port</text>
<polygon fill="none" stroke="black" points="1144.94,-416.08 1144.94,-441.08 1332.94,-441.08 1332.94,-416.08 1144.94,-416.08"/>
<text text-anchor="start" x="1149.94" y="-424.88" font-family="Times,serif" font-size="14.00">Route</text>
<polygon fill="none" stroke="black" points="1144.94,-391.08 1144.94,-416.08 1332.94,-416.08 1332.94,-391.08 1144.94,-391.08"/>
<text text-anchor="start" x="1149.94" y="-399.88" font-family="Times,serif" font-size="14.00">Service</text>
<polygon fill="none" stroke="black" points="1144.94,-366.08 1144.94,-391.08 1332.94,-391.08 1332.94,-366.08 1144.94,-366.08"/>
<text text-anchor="start" x="1149.94" y="-374.88" font-family="Times,serif" font-size="14.00">ToolObservations</text>
<polygon fill="none" stroke="black" points="1144.94,-341.08 1144.94,-366.08 1332.94,-366.08 1332.94,-341.08 1144.94,-341.08"/>
<text text-anchor="start" x="1149.94" y="-349.88" font-family="Times,serif" font-size="14.00">Vlan</text>
</g>
<!-- utils -->
<g id="node6" class="node">
<title>utils</title>
<polygon fill="none" stroke="black" points="1574.44,-873.58 1375.44,-873.58 1375.44,-784.58 1574.44,-784.58 1574.44,-873.58"/>
<polygon fill="none" stroke="black" points="1382.94,-791.08 1382.94,-866.08 1438.94,-866.08 1438.94,-791.08 1382.94,-791.08"/>
<text text-anchor="start" x="1387.94" y="-824.88" font-family="Times,serif" font-size="14.00">Util(s)</text>
<polygon fill="none" stroke="black" points="1438.94,-841.08 1438.94,-866.08 1567.94,-866.08 1567.94,-841.08 1438.94,-841.08"/>
<text text-anchor="start" x="1443.94" y="-849.88" font-family="Times,serif" font-size="14.00">AcBookUtilities</text>
<polygon fill="none" stroke="black" points="1438.94,-816.08 1438.94,-841.08 1567.94,-841.08 1567.94,-816.08 1438.94,-816.08"/>
<text text-anchor="start" x="1443.94" y="-824.88" font-family="Times,serif" font-size="14.00">QueriesCommon</text>
<polygon fill="none" stroke="black" points="1438.94,-791.08 1438.94,-816.08 1567.94,-816.08 1567.94,-791.08 1438.94,-791.08"/>
<text text-anchor="start" x="1443.94" y="-799.88" font-family="Times,serif" font-size="14.00">ServiceFactory</text>
</g>
<!-- objects&#45;&gt;utils -->
<g id="edge14" class="edge">
<title>objects&#45;&gt;utils</title>
<path fill="none" stroke="black" d="M1339.53,-699.12C1368.31,-726.94 1396.98,-754.67 1420.41,-777.33"/>
<polygon fill="black" stroke="black" points="1418.21,-780.06 1427.83,-784.5 1423.08,-775.03 1418.21,-780.06"/>
</g>
<!-- objects&#45;&gt;psqldb -->
<g id="edge4" class="edge">
<title>objects&#45;&gt;psqldb</title>
<path fill="none" stroke="black" d="M1345.96,-351.02C1355.61,-339.27 1365.47,-327.87 1375.44,-317.08 1382.74,-309.17 1390.82,-301.34 1399.12,-293.85"/>
<polygon fill="black" stroke="black" points="1343.24,-348.81 1339.65,-358.78 1348.68,-353.23 1343.24,-348.81"/>
<polygon fill="black" stroke="black" points="1401.62,-296.32 1406.79,-287.08 1396.98,-291.07 1401.62,-296.32"/>
</g>
<!-- parsers -->
<g id="node4" class="node">
<title>parsers</title>
<polygon fill="none" stroke="black" points="1026.44,-743.08 783.44,-743.08 783.44,-579.08 1026.44,-579.08 1026.44,-743.08"/>
<polygon fill="none" stroke="black" points="790.94,-586.08 790.94,-736.08 865.94,-736.08 865.94,-586.08 790.94,-586.08"/>
<text text-anchor="start" x="795.94" y="-657.38" font-family="Times,serif" font-size="14.00">Parser(s)</text>
<polygon fill="none" stroke="black" points="865.94,-711.08 865.94,-736.08 1019.94,-736.08 1019.94,-711.08 865.94,-711.08"/>
<text text-anchor="start" x="870.94" y="-719.88" font-family="Times,serif" font-size="14.00">ParserCve</text>
<polygon fill="none" stroke="black" points="865.94,-686.08 865.94,-711.08 1019.94,-711.08 1019.94,-686.08 865.94,-686.08"/>
<text text-anchor="start" x="870.94" y="-694.88" font-family="Times,serif" font-size="14.00">ParserDomainName</text>
<polygon fill="none" stroke="black" points="865.94,-661.08 865.94,-686.08 1019.94,-686.08 1019.94,-661.08 865.94,-661.08"/>
<text text-anchor="start" x="870.94" y="-669.88" font-family="Times,serif" font-size="14.00">ParserHelper</text>
<polygon fill="none" stroke="black" points="865.94,-636.08 865.94,-661.08 1019.94,-661.08 1019.94,-636.08 865.94,-636.08"/>
<text text-anchor="start" x="870.94" y="-644.88" font-family="Times,serif" font-size="14.00">ParserIpAddress</text>
<polygon fill="none" stroke="black" points="865.94,-611.08 865.94,-636.08 1019.94,-636.08 1019.94,-611.08 865.94,-611.08"/>
<text text-anchor="start" x="870.94" y="-619.88" font-family="Times,serif" font-size="14.00">ParserMacAddress</text>
<polygon fill="none" stroke="black" points="865.94,-586.08 865.94,-611.08 1019.94,-611.08 1019.94,-586.08 865.94,-586.08"/>
<text text-anchor="start" x="870.94" y="-594.88" font-family="Times,serif" font-size="14.00">ParserTestHelper</text>
</g>
<!-- parsers&#45;&gt;objects -->
<g id="edge12" class="edge">
<title>parsers&#45;&gt;objects</title>
<path fill="none" stroke="black" d="M1026.79,-622.03C1035.31,-619.28 1043.94,-616.48 1052.58,-613.69"/>
<polygon fill="black" stroke="black" points="1053.89,-616.95 1062.33,-610.54 1051.74,-610.29 1053.89,-616.95"/>
</g>
<!-- parsers&#45;&gt;utils -->
<g id="edge13" class="edge">
<title>parsers&#45;&gt;utils</title>
<path fill="none" stroke="black" d="M966.92,-743.1C992.91,-771.57 1025.73,-800.29 1062.44,-816.08 1158.6,-857.43 1279.41,-855.72 1365.2,-846.69"/>
<polygon fill="black" stroke="black" points="1365.66,-850.16 1375.22,-845.58 1364.9,-843.2 1365.66,-850.16"/>
</g>
<!-- tools&#45;&gt;objects -->
<g id="edge8" class="edge">
<title>tools&#45;&gt;objects</title>
<path fill="none" stroke="black" d="M747.67,-547.17C836.57,-550.89 957.58,-555.94 1052.05,-559.89"/>
<polygon fill="black" stroke="black" points="1052.13,-563.4 1062.27,-560.32 1052.42,-556.41 1052.13,-563.4"/>
</g>
<!-- tools&#45;&gt;parsers -->
<g id="edge9" class="edge">
<title>tools&#45;&gt;parsers</title>
<path fill="none" stroke="black" d="M747.47,-594.1C756.16,-597.82 764.94,-601.58 773.68,-605.32"/>
<polygon fill="black" stroke="black" points="772.57,-608.65 783.14,-609.37 775.32,-602.22 772.57,-608.65"/>
</g>
<!-- tools&#45;&gt;utils -->
<g id="edge10" class="edge">
<title>tools&#45;&gt;utils</title>
<path fill="none" stroke="black" d="M659.97,-611.58C687.11,-660.11 729.47,-722.83 783.44,-761.08 956.72,-883.9 1218.87,-869.79 1365.27,-849.11"/>
<polygon fill="black" stroke="black" points="1365.78,-852.57 1375.18,-847.67 1364.78,-845.64 1365.78,-852.57"/>
</g>
<!-- tools&#45;&gt;psqldb -->
<g id="edge11" class="edge">
<title>tools:dstool&#45;&gt;psqldb</title>
<path fill="none" stroke="black" d="M741.94,-592.08C771.51,-592.08 762.56,-561.02 783.44,-540.08 895.72,-427.47 918.18,-382.98 1062.44,-316.08 1164.37,-268.8 1293.02,-249.45 1379.09,-241.54"/>
<polygon fill="black" stroke="black" points="1373.32,-247.46 1381.44,-240.65 1370.85,-240.91 1373.32,-247.46"/>
</g>
<!-- schemas -->
<g id="node7" class="node">
<title>schemas</title>
<polygon fill="none" stroke="black" points="1519.44,-370.08 1430.44,-370.08 1430.44,-334.08 1519.44,-334.08 1519.44,-370.08"/>
<text text-anchor="middle" x="1474.94" y="-348.38" font-family="Times,serif" font-size="14.00">Schema(s)</text>
</g>
<!-- schemas&#45;&gt;psqldb -->
<g id="edge3" class="edge">
<title>schemas&#45;&gt;psqldb</title>
<path fill="none" stroke="black" d="M1474.94,-334.07C1474.94,-311.4 1474.94,-288.74 1474.94,-266.08"/>
<polygon fill="black" stroke="black" points="1478.44,-266.02 1474.94,-256.02 1471.44,-266.02 1478.44,-266.02"/>
</g>
</g>
</svg>
