<?xml version="1.0" encoding="UTF-8" standalone="no"?>
<!DOCTYPE svg PUBLIC "-//W3C//DTD SVG 1.1//EN"
 "http://www.w3.org/Graphics/SVG/1.1/DTD/svg11.dtd">
<!-- Generated by graphviz version 2.43.0 (0)
 -->
<!-- Title: netmeld Pages: 1 -->
<svg width="1486pt" height="887pt"
 viewBox="0.00 0.00 1486.44 887.00" xmlns="http://www.w3.org/2000/svg" xmlns:xlink="http://www.w3.org/1999/xlink">
<g id="graph0" class="graph" transform="scale(1 1) rotate(0) translate(4 883)">
<title>netmeld</title>
<polygon fill="white" stroke="transparent" points="-4,4 -4,-883 1482.44,-883 1482.44,4 -4,4"/>
<text text-anchor="middle" x="739.22" y="-7.8" font-family="Times,serif" font-size="14.00">Netmeld Tool Suite 2.x &#45;&#45; Datastore Components and General Dataflow</text>
<g id="clust1" class="cluster">
<title>cluster_lib</title>
<polygon fill="none" stroke="black" stroke-dasharray="5,2" points="384.44,-292 384.44,-871 1470.44,-871 1470.44,-292 384.44,-292"/>
<text text-anchor="middle" x="927.44" y="-855.8" font-family="Times,serif" font-size="14.00">Library Resources</text>
</g>
<g id="clust2" class="cluster">
<title>cluster_datastore</title>
<polygon fill="none" stroke="black" stroke-dasharray="5,2" points="1269.44,-174 1269.44,-253 1456.44,-253 1456.44,-174 1269.44,-174"/>
<text text-anchor="middle" x="1362.94" y="-237.8" font-family="Times,serif" font-size="14.00">Data Store(s)</text>
</g>
<!-- users -->
<g id="node1" class="node">
<title>users</title>
<ellipse fill="none" stroke="black" cx="41.72" cy="-91" rx="41.94" ry="41.94"/>
<text text-anchor="middle" x="41.72" y="-94.8" font-family="Times,serif" font-size="14.00">End</text>
<text text-anchor="middle" x="41.72" y="-79.8" font-family="Times,serif" font-size="14.00">Users</text>
</g>
<!-- bins -->
<g id="node2" class="node">
<title>bins</title>
<polygon fill="none" stroke="black" points="356.44,-266 119.44,-266 119.44,-102 356.44,-102 356.44,-266"/>
<polygon fill="none" stroke="black" points="126.94,-109 126.94,-259 179.94,-259 179.94,-109 126.94,-109"/>
<text text-anchor="start" x="131.94" y="-180.3" font-family="Times,serif" font-size="14.00">Bin(s)</text>
<polygon fill="none" stroke="black" points="179.94,-234 179.94,-259 349.94,-259 349.94,-234 179.94,-234"/>
<text text-anchor="start" x="184.94" y="-242.8" font-family="Times,serif" font-size="14.00">nmdb&#45;export&#45;*</text>
<polygon fill="none" stroke="black" points="179.94,-209 179.94,-234 349.94,-234 349.94,-209 179.94,-209"/>
<text text-anchor="start" x="184.94" y="-217.8" font-family="Times,serif" font-size="14.00">nmdb&#45;graph&#45;*</text>
<polygon fill="none" stroke="black" points="179.94,-184 179.94,-209 349.94,-209 349.94,-184 179.94,-184"/>
<text text-anchor="start" x="184.94" y="-192.8" font-family="Times,serif" font-size="14.00">nmdb&#45;import&#45;*</text>
<polygon fill="none" stroke="black" points="179.94,-159 179.94,-184 349.94,-184 349.94,-159 179.94,-159"/>
<text text-anchor="start" x="184.94" y="-167.8" font-family="Times,serif" font-size="14.00">nmdb&#45;insert&#45;*</text>
<polygon fill="none" stroke="black" points="179.94,-134 179.94,-159 349.94,-159 349.94,-134 179.94,-134"/>
<text text-anchor="start" x="184.94" y="-142.8" font-family="Times,serif" font-size="14.00">nmdb&#45;initialize</text>
<polygon fill="none" stroke="black" points="179.94,-109 179.94,-134 349.94,-134 349.94,-109 179.94,-109"/>
<text text-anchor="start" x="184.94" y="-117.8" font-family="Times,serif" font-size="14.00">nmdb&#45;remove&#45;tool&#45;run</text>
</g>
<!-- users&#45;&gt;bins -->
<g id="edge1" class="edge">
<title>users&#45;&gt;bins</title>
<path fill="none" stroke="black" d="M79.71,-108.71C88.82,-113.08 99.1,-118 109.93,-123.18"/>
<polygon fill="black" stroke="black" points="108.61,-126.43 119.14,-127.59 111.63,-120.12 108.61,-126.43"/>
</g>
<!-- psqldb -->
<g id="node8" class="node">
<title>psqldb</title>
<path fill="none" stroke="black" d="M1448.44,-218.26C1448.44,-220.26 1410.12,-221.88 1362.94,-221.88 1315.76,-221.88 1277.44,-220.26 1277.44,-218.26 1277.44,-218.26 1277.44,-185.74 1277.44,-185.74 1277.44,-183.74 1315.76,-182.12 1362.94,-182.12 1410.12,-182.12 1448.44,-183.74 1448.44,-185.74 1448.44,-185.74 1448.44,-218.26 1448.44,-218.26"/>
<path fill="none" stroke="black" d="M1448.44,-218.26C1448.44,-216.27 1410.12,-214.65 1362.94,-214.65 1315.76,-214.65 1277.44,-216.27 1277.44,-218.26"/>
<text text-anchor="middle" x="1362.94" y="-198.3" font-family="Times,serif" font-size="14.00">PostgreSQL Database</text>
</g>
<!-- users&#45;&gt;psqldb -->
<g id="edge2" class="edge">
<title>users&#45;&gt;psqldb</title>
<path fill="none" stroke="black" d="M92.31,-79.04C177.69,-59.53 358.18,-23 512.94,-23 512.94,-23 512.94,-23 793.94,-23 990.71,-23 1045.79,-37.35 1227.44,-113 1265.22,-128.74 1303.71,-155.52 1329.78,-175.6"/>
<polygon fill="black" stroke="black" points="91.34,-75.67 82.38,-81.33 92.91,-82.49 91.34,-75.67"/>
<polygon fill="black" stroke="black" points="1327.76,-178.47 1337.79,-181.87 1332.07,-172.95 1327.76,-178.47"/>
</g>
<!-- tools -->
<g id="node5" class="node">
<title>tools</title>
<polygon fill="none" stroke="black" points="635.44,-541.5 392.44,-541.5 392.44,-402.5 635.44,-402.5 635.44,-541.5"/>
<polygon fill="none" stroke="black" points="399.94,-409 399.94,-534 457.94,-534 457.94,-409 399.94,-409"/>
<text text-anchor="start" x="404.94" y="-467.8" font-family="Times,serif" font-size="14.00">Tool(s)</text>
<polygon fill="none" stroke="black" points="457.94,-509 457.94,-534 628.94,-534 628.94,-509 457.94,-509"/>
<text text-anchor="start" x="462.94" y="-517.8" font-family="Times,serif" font-size="14.00">AbstractDatastoreTool</text>
<polygon fill="none" stroke="black" points="457.94,-484 457.94,-509 628.94,-509 628.94,-484 457.94,-484"/>
<text text-anchor="start" x="462.94" y="-492.8" font-family="Times,serif" font-size="14.00">AbstractExportTool</text>
<polygon fill="none" stroke="black" points="457.94,-459 457.94,-484 628.94,-484 628.94,-459 457.94,-459"/>
<text text-anchor="start" x="462.94" y="-467.8" font-family="Times,serif" font-size="14.00">AbstractGraphTool</text>
<polygon fill="none" stroke="black" points="457.94,-434 457.94,-459 628.94,-459 628.94,-434 457.94,-434"/>
<text text-anchor="start" x="462.94" y="-442.8" font-family="Times,serif" font-size="14.00">AbstractImportTool</text>
<polygon fill="none" stroke="black" points="457.94,-409 457.94,-434 628.94,-434 628.94,-409 457.94,-409"/>
<text text-anchor="start" x="462.94" y="-417.8" font-family="Times,serif" font-size="14.00">AbstractInsertTool</text>
</g>
<!-- bins&#45;&gt;tools -->
<g id="edge5" class="edge">
<title>bins&#45;&gt;tools</title>
<path fill="none" stroke="black" d="M317.09,-266.14C335.99,-286.01 356.73,-307.81 377.43,-329.56"/>
<polygon fill="black" stroke="black" points="375.01,-332.1 384.44,-336.94 380.08,-327.28 375.01,-332.1"/>
</g>
<!-- bins&#45;&gt;psqldb -->
<g id="edge6" class="edge">
<title>bins:init&#45;&gt;psqldb</title>
<path fill="none" stroke="black" d="M350.94,-146C688.28,-146 1087.97,-177.47 1266.97,-193.23"/>
<polygon fill="black" stroke="black" points="1266.88,-196.73 1277.15,-194.12 1267.49,-189.76 1266.88,-196.73"/>
</g>
<!-- bins&#45;&gt;psqldb -->
<g id="edge7" class="edge">
<title>bins:remove&#45;&gt;psqldb</title>
<path fill="none" stroke="black" d="M350.94,-121C740.88,-121 843.58,-91.39 1227.44,-160 1251.56,-164.31 1277.4,-171.68 1299.92,-179.05"/>
<polygon fill="black" stroke="black" points="1299.09,-182.47 1309.68,-182.32 1301.31,-175.83 1299.09,-182.47"/>
</g>
<!-- objects -->
<g id="node3" class="node">
<title>objects</title>
<polygon fill="none" stroke="black" points="1227.44,-764 950.44,-764 950.44,-300 1227.44,-300 1227.44,-764"/>
<polygon fill="none" stroke="black" points="957.94,-307 957.94,-757 1032.94,-757 1032.94,-307 957.94,-307"/>
<text text-anchor="start" x="962.94" y="-528.3" font-family="Times,serif" font-size="14.00">Object(s)</text>
<polygon fill="none" stroke="black" points="1032.94,-732 1032.94,-757 1220.94,-757 1220.94,-732 1032.94,-732"/>
<text text-anchor="start" x="1037.94" y="-740.8" font-family="Times,serif" font-size="14.00">AbstractDatastoreObject</text>
<polygon fill="none" stroke="black" points="1032.94,-707 1032.94,-732 1220.94,-732 1220.94,-707 1032.94,-707"/>
<text text-anchor="start" x="1037.94" y="-715.8" font-family="Times,serif" font-size="14.00">AcBook</text>
<polygon fill="none" stroke="black" points="1032.94,-682 1032.94,-707 1220.94,-707 1220.94,-682 1032.94,-682"/>
<text text-anchor="start" x="1037.94" y="-690.8" font-family="Times,serif" font-size="14.00">AcNetworkBook</text>
<polygon fill="none" stroke="black" points="1032.94,-657 1032.94,-682 1220.94,-682 1220.94,-657 1032.94,-657"/>
<text text-anchor="start" x="1037.94" y="-665.8" font-family="Times,serif" font-size="14.00">AcRule</text>
<polygon fill="none" stroke="black" points="1032.94,-632 1032.94,-657 1220.94,-657 1220.94,-632 1032.94,-632"/>
<text text-anchor="start" x="1037.94" y="-640.8" font-family="Times,serif" font-size="14.00">AcServiceBook</text>
<polygon fill="none" stroke="black" points="1032.94,-607 1032.94,-632 1220.94,-632 1220.94,-607 1032.94,-607"/>
<text text-anchor="start" x="1037.94" y="-615.8" font-family="Times,serif" font-size="14.00">Cve</text>
<polygon fill="none" stroke="black" points="1032.94,-582 1032.94,-607 1220.94,-607 1220.94,-582 1032.94,-582"/>
<text text-anchor="start" x="1037.94" y="-590.8" font-family="Times,serif" font-size="14.00">DeviceInformation</text>
<polygon fill="none" stroke="black" points="1032.94,-557 1032.94,-582 1220.94,-582 1220.94,-557 1032.94,-557"/>
<text text-anchor="start" x="1037.94" y="-565.8" font-family="Times,serif" font-size="14.00">Interface</text>
<polygon fill="none" stroke="black" points="1032.94,-532 1032.94,-557 1220.94,-557 1220.94,-532 1032.94,-532"/>
<text text-anchor="start" x="1037.94" y="-540.8" font-family="Times,serif" font-size="14.00">InterfaceNetwork</text>
<polygon fill="none" stroke="black" points="1032.94,-507 1032.94,-532 1220.94,-532 1220.94,-507 1032.94,-507"/>
<text text-anchor="start" x="1037.94" y="-515.8" font-family="Times,serif" font-size="14.00">IpAddress</text>
<polygon fill="none" stroke="black" points="1032.94,-482 1032.94,-507 1220.94,-507 1220.94,-482 1032.94,-482"/>
<text text-anchor="start" x="1037.94" y="-490.8" font-family="Times,serif" font-size="14.00">IpNetwork</text>
<polygon fill="none" stroke="black" points="1032.94,-457 1032.94,-482 1220.94,-482 1220.94,-457 1032.94,-457"/>
<text text-anchor="start" x="1037.94" y="-465.8" font-family="Times,serif" font-size="14.00">MacAddress</text>
<polygon fill="none" stroke="black" points="1032.94,-432 1032.94,-457 1220.94,-457 1220.94,-432 1032.94,-432"/>
<text text-anchor="start" x="1037.94" y="-440.8" font-family="Times,serif" font-size="14.00">OperatingSystem</text>
<polygon fill="none" stroke="black" points="1032.94,-407 1032.94,-432 1220.94,-432 1220.94,-407 1032.94,-407"/>
<text text-anchor="start" x="1037.94" y="-415.8" font-family="Times,serif" font-size="14.00">Port</text>
<polygon fill="none" stroke="black" points="1032.94,-382 1032.94,-407 1220.94,-407 1220.94,-382 1032.94,-382"/>
<text text-anchor="start" x="1037.94" y="-390.8" font-family="Times,serif" font-size="14.00">Route</text>
<polygon fill="none" stroke="black" points="1032.94,-357 1032.94,-382 1220.94,-382 1220.94,-357 1032.94,-357"/>
<text text-anchor="start" x="1037.94" y="-365.8" font-family="Times,serif" font-size="14.00">Service</text>
<polygon fill="none" stroke="black" points="1032.94,-332 1032.94,-357 1220.94,-357 1220.94,-332 1032.94,-332"/>
<text text-anchor="start" x="1037.94" y="-340.8" font-family="Times,serif" font-size="14.00">ToolObservations</text>
<polygon fill="none" stroke="black" points="1032.94,-307 1032.94,-332 1220.94,-332 1220.94,-307 1032.94,-307"/>
<text text-anchor="start" x="1037.94" y="-315.8" font-family="Times,serif" font-size="14.00">Vlan</text>
</g>
<!-- utils -->
<g id="node6" class="node">
<title>utils</title>
<polygon fill="none" stroke="black" points="1462.44,-839.5 1263.44,-839.5 1263.44,-750.5 1462.44,-750.5 1462.44,-839.5"/>
<polygon fill="none" stroke="black" points="1270.94,-757 1270.94,-832 1326.94,-832 1326.94,-757 1270.94,-757"/>
<text text-anchor="start" x="1275.94" y="-790.8" font-family="Times,serif" font-size="14.00">Util(s)</text>
<polygon fill="none" stroke="black" points="1326.94,-807 1326.94,-832 1455.94,-832 1455.94,-807 1326.94,-807"/>
<text text-anchor="start" x="1331.94" y="-815.8" font-family="Times,serif" font-size="14.00">AcBookUtilities</text>
<polygon fill="none" stroke="black" points="1326.94,-782 1326.94,-807 1455.94,-807 1455.94,-782 1326.94,-782"/>
<text text-anchor="start" x="1331.94" y="-790.8" font-family="Times,serif" font-size="14.00">QueriesCommon</text>
<polygon fill="none" stroke="black" points="1326.94,-757 1326.94,-782 1455.94,-782 1455.94,-757 1326.94,-757"/>
<text text-anchor="start" x="1331.94" y="-765.8" font-family="Times,serif" font-size="14.00">ServiceFactory</text>
</g>
<!-- objects&#45;&gt;utils -->
<g id="edge14" class="edge">
<title>objects&#45;&gt;utils</title>
<path fill="none" stroke="black" d="M1227.53,-665.04C1256.31,-692.86 1284.98,-720.59 1308.41,-743.25"/>
<polygon fill="black" stroke="black" points="1306.21,-745.98 1315.83,-750.42 1311.08,-740.95 1306.21,-745.98"/>
</g>
<!-- objects&#45;&gt;psqldb -->
<g id="edge4" class="edge">
<title>objects&#45;&gt;psqldb</title>
<path fill="none" stroke="black" d="M1233.96,-316.94C1243.61,-305.2 1253.47,-293.8 1263.44,-283 1270.74,-275.09 1278.82,-267.26 1287.12,-259.77"/>
<polygon fill="black" stroke="black" points="1231.24,-314.73 1227.65,-324.7 1236.68,-319.15 1231.24,-314.73"/>
<polygon fill="black" stroke="black" points="1289.62,-262.24 1294.79,-253 1284.98,-257 1289.62,-262.24"/>
</g>
<!-- parsers -->
<g id="node4" class="node">
<title>parsers</title>
<polygon fill="none" stroke="black" points="914.44,-673 671.44,-673 671.44,-509 914.44,-509 914.44,-673"/>
<polygon fill="none" stroke="black" points="678.94,-516 678.94,-666 753.94,-666 753.94,-516 678.94,-516"/>
<text text-anchor="start" x="683.94" y="-587.3" font-family="Times,serif" font-size="14.00">Parser(s)</text>
<polygon fill="none" stroke="black" points="753.94,-641 753.94,-666 907.94,-666 907.94,-641 753.94,-641"/>
<text text-anchor="start" x="758.94" y="-649.8" font-family="Times,serif" font-size="14.00">ParserCve</text>
<polygon fill="none" stroke="black" points="753.94,-616 753.94,-641 907.94,-641 907.94,-616 753.94,-616"/>
<text text-anchor="start" x="758.94" y="-624.8" font-family="Times,serif" font-size="14.00">ParserDomainName</text>
<polygon fill="none" stroke="black" points="753.94,-591 753.94,-616 907.94,-616 907.94,-591 753.94,-591"/>
<text text-anchor="start" x="758.94" y="-599.8" font-family="Times,serif" font-size="14.00">ParserHelper</text>
<polygon fill="none" stroke="black" points="753.94,-566 753.94,-591 907.94,-591 907.94,-566 753.94,-566"/>
<text text-anchor="start" x="758.94" y="-574.8" font-family="Times,serif" font-size="14.00">ParserIpAddress</text>
<polygon fill="none" stroke="black" points="753.94,-541 753.94,-566 907.94,-566 907.94,-541 753.94,-541"/>
<text text-anchor="start" x="758.94" y="-549.8" font-family="Times,serif" font-size="14.00">ParserMacAddress</text>
<polygon fill="none" stroke="black" points="753.94,-516 753.94,-541 907.94,-541 907.94,-516 753.94,-516"/>
<text text-anchor="start" x="758.94" y="-524.8" font-family="Times,serif" font-size="14.00">ParserTestHelper</text>
</g>
<!-- parsers&#45;&gt;objects -->
<g id="edge12" class="edge">
<title>parsers&#45;&gt;objects</title>
<path fill="none" stroke="black" d="M914.79,-566.75C923.22,-565.06 931.76,-563.34 940.3,-561.63"/>
<polygon fill="black" stroke="black" points="941.21,-565.01 950.33,-559.62 939.84,-558.15 941.21,-565.01"/>
</g>
<!-- parsers&#45;&gt;utils -->
<g id="edge13" class="edge">
<title>parsers&#45;&gt;utils</title>
<path fill="none" stroke="black" d="M838.47,-673.22C865.17,-713.68 903.14,-758.69 950.44,-782 1044.79,-828.51 1166.66,-825.84 1253.22,-815.16"/>
<polygon fill="black" stroke="black" points="1253.87,-818.61 1263.34,-813.86 1252.97,-811.67 1253.87,-818.61"/>
</g>
<!-- tools&#45;&gt;objects -->
<g id="edge8" class="edge">
<title>tools&#45;&gt;objects</title>
<path fill="none" stroke="black" d="M635.67,-471.96C715.2,-473.35 821.44,-477.91 914.44,-491 922.9,-492.19 931.56,-493.6 940.26,-495.17"/>
<polygon fill="black" stroke="black" points="939.64,-498.61 950.11,-497.01 940.92,-491.73 939.64,-498.61"/>
</g>
<!-- tools&#45;&gt;parsers -->
<g id="edge9" class="edge">
<title>tools&#45;&gt;parsers</title>
<path fill="none" stroke="black" d="M635.63,-523.85C644.3,-527.57 653.07,-531.34 661.79,-535.09"/>
<polygon fill="black" stroke="black" points="660.66,-538.41 671.23,-539.14 663.43,-531.98 660.66,-538.41"/>
</g>
<!-- tools&#45;&gt;utils -->
<g id="edge10" class="edge">
<title>tools&#45;&gt;utils</title>
<path fill="none" stroke="black" d="M551.28,-541.63C578.92,-588.96 620.77,-650.17 671.44,-691 776.55,-775.69 818.23,-783.77 950.44,-811 1051.54,-831.82 1169.49,-824.07 1253.13,-813.35"/>
<polygon fill="black" stroke="black" points="1253.7,-816.8 1263.16,-812.03 1252.79,-809.86 1253.7,-816.8"/>
</g>
<!-- tools&#45;&gt;psqldb -->
<g id="edge11" class="edge">
<title>tools:dstool&#45;&gt;psqldb</title>
<path fill="none" stroke="black" d="M629.94,-522C662,-522 648.35,-485.24 671.44,-463 777.9,-360.46 813.38,-337.34 950.44,-282 1054.2,-240.11 1181.75,-219.68 1267.1,-210.04"/>
<polygon fill="black" stroke="black" points="1261.93,-216.4 1269.44,-208.92 1258.91,-210.08 1261.93,-216.4"/>
</g>
<!-- schemas -->
<g id="node7" class="node">
<title>schemas</title>
<polygon fill="none" stroke="black" points="1407.44,-336 1318.44,-336 1318.44,-300 1407.44,-300 1407.44,-336"/>
<text text-anchor="middle" x="1362.94" y="-314.3" font-family="Times,serif" font-size="14.00">Schema(s)</text>
</g>
<!-- schemas&#45;&gt;psqldb -->
<g id="edge3" class="edge">
<title>schemas&#45;&gt;psqldb</title>
<path fill="none" stroke="black" d="M1362.94,-299.99C1362.94,-277.33 1362.94,-254.66 1362.94,-232"/>
<polygon fill="black" stroke="black" points="1366.44,-231.94 1362.94,-221.94 1359.44,-231.94 1366.44,-231.94"/>
</g>
</g>
</svg>
