<?xml version="1.0" encoding="UTF-8" standalone="no"?>
<!DOCTYPE svg PUBLIC "-//W3C//DTD SVG 1.1//EN"
 "http://www.w3.org/Graphics/SVG/1.1/DTD/svg11.dtd">
<!-- Generated by graphviz version 2.43.0 (0)
 -->
<!-- Title: netmeld Pages: 1 -->
<svg width="1488pt" height="887pt"
 viewBox="0.00 0.00 1488.44 887.00" xmlns="http://www.w3.org/2000/svg" xmlns:xlink="http://www.w3.org/1999/xlink">
<g id="graph0" class="graph" transform="scale(1 1) rotate(0) translate(4 883)">
<title>netmeld</title>
<polygon fill="white" stroke="transparent" points="-4,4 -4,-883 1484.44,-883 1484.44,4 -4,4"/>
<text text-anchor="middle" x="740.22" y="-7.8" font-family="Times,serif" font-size="14.00">Netmeld Tool Suite 2.x &#45;&#45; Components and General Dataflow</text>
<g id="clust1" class="cluster">
<title>cluster_lib</title>
<polygon fill="none" stroke="black" stroke-dasharray="5,2" points="384.44,-292 384.44,-871 1472.44,-871 1472.44,-292 384.44,-292"/>
<text text-anchor="middle" x="928.44" y="-855.8" font-family="Times,serif" font-size="14.00">Library Resources</text>
</g>
<g id="clust2" class="cluster">
<title>cluster_datastore</title>
<polygon fill="none" stroke="black" stroke-dasharray="5,2" points="1271.44,-174 1271.44,-253 1458.44,-253 1458.44,-174 1271.44,-174"/>
<text text-anchor="middle" x="1364.94" y="-237.8" font-family="Times,serif" font-size="14.00">Data Store(s)</text>
</g>
<!-- users -->
<g id="node1" class="node">
<title>users</title>
<ellipse fill="none" stroke="black" cx="41.72" cy="-91" rx="41.94" ry="41.94"/>
<text text-anchor="middle" x="41.72" y="-94.8" font-family="Times,serif" font-size="14.00">End</text>
<text text-anchor="middle" x="41.72" y="-79.8" font-family="Times,serif" font-size="14.00">Users</text>
</g>
<!-- bins -->
<g id="node2" class="node">
<title>bins</title>
<polygon fill="none" stroke="black" points="356.44,-266 119.44,-266 119.44,-102 356.44,-102 356.44,-266"/>
<polygon fill="none" stroke="black" points="126.94,-109 126.94,-259 179.94,-259 179.94,-109 126.94,-109"/>
<text text-anchor="start" x="131.94" y="-180.3" font-family="Times,serif" font-size="14.00">Bin(s)</text>
<polygon fill="none" stroke="black" points="179.94,-234 179.94,-259 349.94,-259 349.94,-234 179.94,-234"/>
<text text-anchor="start" x="184.94" y="-242.8" font-family="Times,serif" font-size="14.00">nmdb&#45;export&#45;*</text>
<polygon fill="none" stroke="black" points="179.94,-209 179.94,-234 349.94,-234 349.94,-209 179.94,-209"/>
<text text-anchor="start" x="184.94" y="-217.8" font-family="Times,serif" font-size="14.00">nmdb&#45;graph&#45;*</text>
<polygon fill="none" stroke="black" points="179.94,-184 179.94,-209 349.94,-209 349.94,-184 179.94,-184"/>
<text text-anchor="start" x="184.94" y="-192.8" font-family="Times,serif" font-size="14.00">nmdb&#45;import&#45;*</text>
<polygon fill="none" stroke="black" points="179.94,-159 179.94,-184 349.94,-184 349.94,-159 179.94,-159"/>
<text text-anchor="start" x="184.94" y="-167.8" font-family="Times,serif" font-size="14.00">nmdb&#45;insert&#45;*</text>
<polygon fill="none" stroke="black" points="179.94,-134 179.94,-159 349.94,-159 349.94,-134 179.94,-134"/>
<text text-anchor="start" x="184.94" y="-142.8" font-family="Times,serif" font-size="14.00">nmdb&#45;initialize</text>
<polygon fill="none" stroke="black" points="179.94,-109 179.94,-134 349.94,-134 349.94,-109 179.94,-109"/>
<text text-anchor="start" x="184.94" y="-117.8" font-family="Times,serif" font-size="14.00">nmdb&#45;remove&#45;tool&#45;run</text>
</g>
<!-- users&#45;&gt;bins -->
<g id="edge1" class="edge">
<title>users&#45;&gt;bins</title>
<path fill="none" stroke="black" d="M79.71,-108.71C88.82,-113.08 99.1,-118 109.93,-123.18"/>
<polygon fill="black" stroke="black" points="108.61,-126.43 119.14,-127.59 111.63,-120.12 108.61,-126.43"/>
</g>
<!-- psqldb -->
<g id="node8" class="node">
<title>psqldb</title>
<path fill="none" stroke="black" d="M1450.44,-218.26C1450.44,-220.26 1412.12,-221.88 1364.94,-221.88 1317.76,-221.88 1279.44,-220.26 1279.44,-218.26 1279.44,-218.26 1279.44,-185.74 1279.44,-185.74 1279.44,-183.74 1317.76,-182.12 1364.94,-182.12 1412.12,-182.12 1450.44,-183.74 1450.44,-185.74 1450.44,-185.74 1450.44,-218.26 1450.44,-218.26"/>
<path fill="none" stroke="black" d="M1450.44,-218.26C1450.44,-216.27 1412.12,-214.65 1364.94,-214.65 1317.76,-214.65 1279.44,-216.27 1279.44,-218.26"/>
<text text-anchor="middle" x="1364.94" y="-198.3" font-family="Times,serif" font-size="14.00">PostgreSQL Database</text>
</g>
<!-- users&#45;&gt;psqldb -->
<g id="edge2" class="edge">
<title>users&#45;&gt;psqldb</title>
<path fill="none" stroke="black" d="M92.42,-79.04C177.98,-59.53 358.86,-23 513.94,-23 513.94,-23 513.94,-23 795.94,-23 992.62,-23 1047.98,-36.11 1229.44,-112 1267.56,-127.94 1306.28,-155.28 1332.32,-175.65"/>
<polygon fill="black" stroke="black" points="91.43,-75.68 82.47,-81.33 93,-82.5 91.43,-75.68"/>
<polygon fill="black" stroke="black" points="1330.3,-178.52 1340.31,-181.99 1334.66,-173.03 1330.3,-178.52"/>
</g>
<!-- tools -->
<g id="node5" class="node">
<title>tools</title>
<polygon fill="none" stroke="black" points="637.44,-541.5 392.44,-541.5 392.44,-402.5 637.44,-402.5 637.44,-541.5"/>
<polygon fill="none" stroke="black" points="399.94,-409 399.94,-534 458.94,-534 458.94,-409 399.94,-409"/>
<text text-anchor="start" x="404.94" y="-467.8" font-family="Times,serif" font-size="14.00">Tool(s)</text>
<polygon fill="none" stroke="black" points="458.94,-509 458.94,-534 630.94,-534 630.94,-509 458.94,-509"/>
<text text-anchor="start" x="463.94" y="-517.8" font-family="Times,serif" font-size="14.00">AbstractDatastoreTool</text>
<polygon fill="none" stroke="black" points="458.94,-484 458.94,-509 630.94,-509 630.94,-484 458.94,-484"/>
<text text-anchor="start" x="463.94" y="-492.8" font-family="Times,serif" font-size="14.00">AbstractExportTool</text>
<polygon fill="none" stroke="black" points="458.94,-459 458.94,-484 630.94,-484 630.94,-459 458.94,-459"/>
<text text-anchor="start" x="463.94" y="-467.8" font-family="Times,serif" font-size="14.00">AbstractGraphTool</text>
<polygon fill="none" stroke="black" points="458.94,-434 458.94,-459 630.94,-459 630.94,-434 458.94,-434"/>
<text text-anchor="start" x="463.94" y="-442.8" font-family="Times,serif" font-size="14.00">AbstractImportTool</text>
<polygon fill="none" stroke="black" points="458.94,-409 458.94,-434 630.94,-434 630.94,-409 458.94,-409"/>
<text text-anchor="start" x="463.94" y="-417.8" font-family="Times,serif" font-size="14.00">AbstractInsertTool</text>
</g>
<!-- bins&#45;&gt;tools -->
<g id="edge5" class="edge">
<title>bins&#45;&gt;tools</title>
<path fill="none" stroke="black" d="M317.37,-266.14C336.2,-285.85 356.84,-307.47 377.45,-329.06"/>
<polygon fill="black" stroke="black" points="375,-331.56 384.44,-336.38 380.07,-326.73 375,-331.56"/>
</g>
<!-- bins&#45;&gt;psqldb -->
<g id="edge6" class="edge">
<title>bins:init&#45;&gt;psqldb</title>
<path fill="none" stroke="black" d="M350.94,-146C689.16,-146 1089.94,-177.51 1269.13,-193.26"/>
<polygon fill="black" stroke="black" points="1269.04,-196.76 1279.31,-194.15 1269.66,-189.79 1269.04,-196.76"/>
</g>
<!-- bins&#45;&gt;psqldb -->
<g id="edge7" class="edge">
<title>bins:remove&#45;&gt;psqldb</title>
<path fill="none" stroke="black" d="M350.94,-121C741.77,-121 844.71,-91.23 1229.44,-160 1253.56,-164.31 1279.4,-171.68 1301.92,-179.05"/>
<polygon fill="black" stroke="black" points="1301.09,-182.47 1311.68,-182.32 1303.31,-175.83 1301.09,-182.47"/>
</g>
<!-- objects -->
<g id="node3" class="node">
<title>objects</title>
<polygon fill="none" stroke="black" points="1229.44,-764 952.44,-764 952.44,-300 1229.44,-300 1229.44,-764"/>
<polygon fill="none" stroke="black" points="959.94,-307 959.94,-757 1034.94,-757 1034.94,-307 959.94,-307"/>
<text text-anchor="start" x="964.94" y="-528.3" font-family="Times,serif" font-size="14.00">Object(s)</text>
<polygon fill="none" stroke="black" points="1034.94,-732 1034.94,-757 1222.94,-757 1222.94,-732 1034.94,-732"/>
<text text-anchor="start" x="1039.94" y="-740.8" font-family="Times,serif" font-size="14.00">AbstractDatastoreObject</text>
<polygon fill="none" stroke="black" points="1034.94,-707 1034.94,-732 1222.94,-732 1222.94,-707 1034.94,-707"/>
<text text-anchor="start" x="1039.94" y="-715.8" font-family="Times,serif" font-size="14.00">AcBook</text>
<polygon fill="none" stroke="black" points="1034.94,-682 1034.94,-707 1222.94,-707 1222.94,-682 1034.94,-682"/>
<text text-anchor="start" x="1039.94" y="-690.8" font-family="Times,serif" font-size="14.00">AcNetworkBook</text>
<polygon fill="none" stroke="black" points="1034.94,-657 1034.94,-682 1222.94,-682 1222.94,-657 1034.94,-657"/>
<text text-anchor="start" x="1039.94" y="-665.8" font-family="Times,serif" font-size="14.00">AcRule</text>
<polygon fill="none" stroke="black" points="1034.94,-632 1034.94,-657 1222.94,-657 1222.94,-632 1034.94,-632"/>
<text text-anchor="start" x="1039.94" y="-640.8" font-family="Times,serif" font-size="14.00">AcServiceBook</text>
<polygon fill="none" stroke="black" points="1034.94,-607 1034.94,-632 1222.94,-632 1222.94,-607 1034.94,-607"/>
<text text-anchor="start" x="1039.94" y="-615.8" font-family="Times,serif" font-size="14.00">Cve</text>
<polygon fill="none" stroke="black" points="1034.94,-582 1034.94,-607 1222.94,-607 1222.94,-582 1034.94,-582"/>
<text text-anchor="start" x="1039.94" y="-590.8" font-family="Times,serif" font-size="14.00">DeviceInformation</text>
<polygon fill="none" stroke="black" points="1034.94,-557 1034.94,-582 1222.94,-582 1222.94,-557 1034.94,-557"/>
<text text-anchor="start" x="1039.94" y="-565.8" font-family="Times,serif" font-size="14.00">Interface</text>
<polygon fill="none" stroke="black" points="1034.94,-532 1034.94,-557 1222.94,-557 1222.94,-532 1034.94,-532"/>
<text text-anchor="start" x="1039.94" y="-540.8" font-family="Times,serif" font-size="14.00">InterfaceNetwork</text>
<polygon fill="none" stroke="black" points="1034.94,-507 1034.94,-532 1222.94,-532 1222.94,-507 1034.94,-507"/>
<text text-anchor="start" x="1039.94" y="-515.8" font-family="Times,serif" font-size="14.00">IpAddress</text>
<polygon fill="none" stroke="black" points="1034.94,-482 1034.94,-507 1222.94,-507 1222.94,-482 1034.94,-482"/>
<text text-anchor="start" x="1039.94" y="-490.8" font-family="Times,serif" font-size="14.00">IpNetwork</text>
<polygon fill="none" stroke="black" points="1034.94,-457 1034.94,-482 1222.94,-482 1222.94,-457 1034.94,-457"/>
<text text-anchor="start" x="1039.94" y="-465.8" font-family="Times,serif" font-size="14.00">MacAddress</text>
<polygon fill="none" stroke="black" points="1034.94,-432 1034.94,-457 1222.94,-457 1222.94,-432 1034.94,-432"/>
<text text-anchor="start" x="1039.94" y="-440.8" font-family="Times,serif" font-size="14.00">OperatingSystem</text>
<polygon fill="none" stroke="black" points="1034.94,-407 1034.94,-432 1222.94,-432 1222.94,-407 1034.94,-407"/>
<text text-anchor="start" x="1039.94" y="-415.8" font-family="Times,serif" font-size="14.00">Port</text>
<polygon fill="none" stroke="black" points="1034.94,-382 1034.94,-407 1222.94,-407 1222.94,-382 1034.94,-382"/>
<text text-anchor="start" x="1039.94" y="-390.8" font-family="Times,serif" font-size="14.00">Route</text>
<polygon fill="none" stroke="black" points="1034.94,-357 1034.94,-382 1222.94,-382 1222.94,-357 1034.94,-357"/>
<text text-anchor="start" x="1039.94" y="-365.8" font-family="Times,serif" font-size="14.00">Service</text>
<polygon fill="none" stroke="black" points="1034.94,-332 1034.94,-357 1222.94,-357 1222.94,-332 1034.94,-332"/>
<text text-anchor="start" x="1039.94" y="-340.8" font-family="Times,serif" font-size="14.00">ToolObservations</text>
<polygon fill="none" stroke="black" points="1034.94,-307 1034.94,-332 1222.94,-332 1222.94,-307 1034.94,-307"/>
<text text-anchor="start" x="1039.94" y="-315.8" font-family="Times,serif" font-size="14.00">Vlan</text>
</g>
<!-- utils -->
<g id="node6" class="node">
<title>utils</title>
<polygon fill="none" stroke="black" points="1464.44,-839.5 1265.44,-839.5 1265.44,-750.5 1464.44,-750.5 1464.44,-839.5"/>
<polygon fill="none" stroke="black" points="1272.94,-757 1272.94,-832 1328.94,-832 1328.94,-757 1272.94,-757"/>
<text text-anchor="start" x="1277.94" y="-790.8" font-family="Times,serif" font-size="14.00">Util(s)</text>
<polygon fill="none" stroke="black" points="1328.94,-807 1328.94,-832 1457.94,-832 1457.94,-807 1328.94,-807"/>
<text text-anchor="start" x="1333.94" y="-815.8" font-family="Times,serif" font-size="14.00">AcBookUtilities</text>
<polygon fill="none" stroke="black" points="1328.94,-782 1328.94,-807 1457.94,-807 1457.94,-782 1328.94,-782"/>
<text text-anchor="start" x="1333.94" y="-790.8" font-family="Times,serif" font-size="14.00">QueriesCommon</text>
<polygon fill="none" stroke="black" points="1328.94,-757 1328.94,-782 1457.94,-782 1457.94,-757 1328.94,-757"/>
<text text-anchor="start" x="1333.94" y="-765.8" font-family="Times,serif" font-size="14.00">ServiceFactory</text>
</g>
<!-- objects&#45;&gt;utils -->
<g id="edge14" class="edge">
<title>objects&#45;&gt;utils</title>
<path fill="none" stroke="black" d="M1229.53,-665.04C1258.31,-692.86 1286.98,-720.59 1310.41,-743.25"/>
<polygon fill="black" stroke="black" points="1308.21,-745.98 1317.83,-750.42 1313.08,-740.95 1308.21,-745.98"/>
</g>
<!-- objects&#45;&gt;psqldb -->
<g id="edge4" class="edge">
<title>objects&#45;&gt;psqldb</title>
<path fill="none" stroke="black" d="M1235.96,-316.94C1245.61,-305.2 1255.47,-293.8 1265.44,-283 1272.74,-275.09 1280.82,-267.26 1289.12,-259.77"/>
<polygon fill="black" stroke="black" points="1233.24,-314.73 1229.65,-324.7 1238.68,-319.15 1233.24,-314.73"/>
<polygon fill="black" stroke="black" points="1291.62,-262.24 1296.79,-253 1286.98,-257 1291.62,-262.24"/>
</g>
<!-- parsers -->
<g id="node4" class="node">
<title>parsers</title>
<polygon fill="none" stroke="black" points="916.44,-673 673.44,-673 673.44,-509 916.44,-509 916.44,-673"/>
<polygon fill="none" stroke="black" points="680.94,-516 680.94,-666 755.94,-666 755.94,-516 680.94,-516"/>
<text text-anchor="start" x="685.94" y="-587.3" font-family="Times,serif" font-size="14.00">Parser(s)</text>
<polygon fill="none" stroke="black" points="755.94,-641 755.94,-666 909.94,-666 909.94,-641 755.94,-641"/>
<text text-anchor="start" x="760.94" y="-649.8" font-family="Times,serif" font-size="14.00">ParserCve</text>
<polygon fill="none" stroke="black" points="755.94,-616 755.94,-641 909.94,-641 909.94,-616 755.94,-616"/>
<text text-anchor="start" x="760.94" y="-624.8" font-family="Times,serif" font-size="14.00">ParserDomainName</text>
<polygon fill="none" stroke="black" points="755.94,-591 755.94,-616 909.94,-616 909.94,-591 755.94,-591"/>
<text text-anchor="start" x="760.94" y="-599.8" font-family="Times,serif" font-size="14.00">ParserHelper</text>
<polygon fill="none" stroke="black" points="755.94,-566 755.94,-591 909.94,-591 909.94,-566 755.94,-566"/>
<text text-anchor="start" x="760.94" y="-574.8" font-family="Times,serif" font-size="14.00">ParserIpAddress</text>
<polygon fill="none" stroke="black" points="755.94,-541 755.94,-566 909.94,-566 909.94,-541 755.94,-541"/>
<text text-anchor="start" x="760.94" y="-549.8" font-family="Times,serif" font-size="14.00">ParserMacAddress</text>
<polygon fill="none" stroke="black" points="755.94,-516 755.94,-541 909.94,-541 909.94,-516 755.94,-516"/>
<text text-anchor="start" x="760.94" y="-524.8" font-family="Times,serif" font-size="14.00">ParserTestHelper</text>
</g>
<!-- parsers&#45;&gt;objects -->
<g id="edge12" class="edge">
<title>parsers&#45;&gt;objects</title>
<path fill="none" stroke="black" d="M916.79,-566.75C925.22,-565.06 933.76,-563.34 942.3,-561.63"/>
<polygon fill="black" stroke="black" points="943.21,-565.01 952.33,-559.62 941.84,-558.15 943.21,-565.01"/>
</g>
<!-- parsers&#45;&gt;utils -->
<g id="edge13" class="edge">
<title>parsers&#45;&gt;utils</title>
<path fill="none" stroke="black" d="M840.47,-673.22C867.17,-713.68 905.14,-758.69 952.44,-782 1046.79,-828.51 1168.66,-825.84 1255.22,-815.16"/>
<polygon fill="black" stroke="black" points="1255.87,-818.61 1265.34,-813.86 1254.97,-811.67 1255.87,-818.61"/>
</g>
<!-- tools&#45;&gt;objects -->
<g id="edge8" class="edge">
<title>tools&#45;&gt;objects</title>
<path fill="none" stroke="black" d="M637.85,-471.96C717.49,-473.36 823.55,-477.94 916.44,-491 924.9,-492.19 933.56,-493.6 942.26,-495.17"/>
<polygon fill="black" stroke="black" points="941.64,-498.61 952.11,-497.01 942.92,-491.73 941.64,-498.61"/>
</g>
<!-- tools&#45;&gt;parsers -->
<g id="edge9" class="edge">
<title>tools&#45;&gt;parsers</title>
<path fill="none" stroke="black" d="M637.47,-524.02C646.16,-527.74 654.94,-531.5 663.68,-535.24"/>
<polygon fill="black" stroke="black" points="662.57,-538.57 673.14,-539.29 665.32,-532.14 662.57,-538.57"/>
</g>
<!-- tools&#45;&gt;utils -->
<g id="edge10" class="edge">
<title>tools&#45;&gt;utils</title>
<path fill="none" stroke="black" d="M552.61,-541.62C580.47,-588.95 622.6,-650.16 673.44,-691 778.67,-775.54 820.23,-783.77 952.44,-811 1053.54,-831.82 1171.49,-824.07 1255.13,-813.35"/>
<polygon fill="black" stroke="black" points="1255.7,-816.8 1265.16,-812.03 1254.79,-809.86 1255.7,-816.8"/>
</g>
<!-- tools&#45;&gt;psqldb -->
<g id="edge11" class="edge">
<title>tools:dstool&#45;&gt;psqldb</title>
<path fill="none" stroke="black" d="M631.94,-522C664,-522 650.35,-485.24 673.44,-463 779.9,-360.46 815.38,-337.34 952.44,-282 1056.2,-240.11 1183.75,-219.68 1269.1,-210.04"/>
<polygon fill="black" stroke="black" points="1263.93,-216.4 1271.44,-208.92 1260.91,-210.08 1263.93,-216.4"/>
</g>
<!-- schemas -->
<g id="node7" class="node">
<title>schemas</title>
<polygon fill="none" stroke="black" points="1409.44,-336 1320.44,-336 1320.44,-300 1409.44,-300 1409.44,-336"/>
<text text-anchor="middle" x="1364.94" y="-314.3" font-family="Times,serif" font-size="14.00">Schema(s)</text>
</g>
<!-- schemas&#45;&gt;psqldb -->
<g id="edge3" class="edge">
<title>schemas&#45;&gt;psqldb</title>
<path fill="none" stroke="black" d="M1364.94,-299.99C1364.94,-277.33 1364.94,-254.66 1364.94,-232"/>
<polygon fill="black" stroke="black" points="1368.44,-231.94 1364.94,-221.94 1361.44,-231.94 1368.44,-231.94"/>
</g>
</g>
</svg>
