<?xml version="1.0" encoding="UTF-8" standalone="no"?>
<!DOCTYPE svg PUBLIC "-//W3C//DTD SVG 1.1//EN"
 "http://www.w3.org/Graphics/SVG/1.1/DTD/svg11.dtd">
<!-- Generated by graphviz version 2.40.1 (20161225.0304)
 -->
<!-- Title: netmeld Pages: 1 -->
<svg width="764pt" height="476pt"
 viewBox="0.00 0.00 764.00 476.00" xmlns="http://www.w3.org/2000/svg" xmlns:xlink="http://www.w3.org/1999/xlink">
<g id="graph0" class="graph" transform="scale(1 1) rotate(0) translate(4 472)">
<title>netmeld</title>
<polygon fill="#ffffff" stroke="transparent" points="-4,4 -4,-472 760,-472 760,4 -4,4"/>
<text text-anchor="middle" x="378" y="-7.8" font-family="Times,serif" font-size="14.00" fill="#000000">Netmeld Tool Suite 2.x &#45;&#45; Dataflow Overview</text>
<!-- srcManual -->
<g id="node1" class="node">
<title>srcManual</title>
<polygon fill="none" stroke="#000000" points="86,-468 0,-468 0,-415 92,-415 92,-462 86,-468"/>
<polyline fill="none" stroke="#000000" points="86,-468 86,-462 "/>
<polyline fill="none" stroke="#000000" points="92,-462 86,-462 "/>
<text text-anchor="middle" x="46" y="-452.8" font-family="Times,serif" font-size="14.00" fill="#000000">Targeted</text>
<text text-anchor="middle" x="46" y="-437.8" font-family="Times,serif" font-size="14.00" fill="#000000">Configuration</text>
<text text-anchor="middle" x="46" y="-422.8" font-family="Times,serif" font-size="14.00" fill="#000000">Settings</text>
</g>
<!-- inserters -->
<g id="node9" class="node">
<title>inserters</title>
<polygon fill="none" stroke="#000000" points="340.5,-404.5 277.5,-404.5 277.5,-368.5 340.5,-368.5 340.5,-404.5"/>
<text text-anchor="middle" x="309" y="-382.8" font-family="Times,serif" font-size="14.00" fill="#000000">Inserters</text>
</g>
<!-- srcManual&#45;&gt;inserters -->
<g id="edge1" class="edge">
<title>srcManual&#45;&gt;inserters</title>
<path fill="none" stroke="#000000" d="M92.1121,-431.8568C141.6587,-421.4953 219.6981,-405.1753 267.4187,-395.1957"/>
<polygon fill="#000000" stroke="#000000" points="268.3386,-398.5791 277.4103,-393.1062 266.9056,-391.7274 268.3386,-398.5791"/>
</g>
<!-- srcConfigs -->
<g id="node2" class="node">
<title>srcConfigs</title>
<polygon fill="none" stroke="#000000" points="86,-310.5 0,-310.5 0,-272.5 92,-272.5 92,-304.5 86,-310.5"/>
<polyline fill="none" stroke="#000000" points="86,-310.5 86,-304.5 "/>
<polyline fill="none" stroke="#000000" points="92,-304.5 86,-304.5 "/>
<text text-anchor="middle" x="46" y="-295.3" font-family="Times,serif" font-size="14.00" fill="#000000">Configuration</text>
<text text-anchor="middle" x="46" y="-280.3" font-family="Times,serif" font-size="14.00" fill="#000000">&amp; Other Files</text>
</g>
<!-- fetchers -->
<g id="node6" class="node">
<title>fetchers</title>
<polygon fill="none" stroke="#000000" points="214,-359.5 152,-359.5 152,-323.5 214,-323.5 214,-359.5"/>
<text text-anchor="middle" x="183" y="-337.8" font-family="Times,serif" font-size="14.00" fill="#000000">Fetchers</text>
</g>
<!-- srcConfigs&#45;&gt;fetchers -->
<g id="edge3" class="edge">
<title>srcConfigs&#45;&gt;fetchers</title>
<path fill="none" stroke="#000000" d="M101.8317,-311.8765C115.2179,-316.762 129.2729,-321.8916 141.8547,-326.4835"/>
<polygon fill="#000000" stroke="#000000" points="102.594,-308.429 92.0001,-308.2884 100.1941,-315.0047 102.594,-308.429"/>
<polygon fill="#000000" stroke="#000000" points="140.9943,-329.8952 151.5882,-330.0359 143.3943,-323.3195 140.9943,-329.8952"/>
</g>
<!-- importers -->
<g id="node8" class="node">
<title>importers</title>
<polygon fill="none" stroke="#000000" points="344,-259.5 274,-259.5 274,-223.5 344,-223.5 344,-259.5"/>
<text text-anchor="middle" x="309" y="-237.8" font-family="Times,serif" font-size="14.00" fill="#000000">Importers</text>
</g>
<!-- srcConfigs&#45;&gt;importers -->
<g id="edge2" class="edge">
<title>srcConfigs&#45;&gt;importers</title>
<path fill="none" stroke="#000000" d="M92.1121,-282.7334C140.4234,-273.5488 215.8246,-259.2139 263.794,-250.0943"/>
<polygon fill="#000000" stroke="#000000" points="264.7183,-253.4813 273.8887,-248.1752 263.4109,-246.6045 264.7183,-253.4813"/>
</g>
<!-- clw -->
<g id="node3" class="node">
<title>clw</title>
<polygon fill="none" stroke="#000000" points="220,-159 146,-159 146,-106 220,-106 220,-159"/>
<text text-anchor="middle" x="183" y="-143.8" font-family="Times,serif" font-size="14.00" fill="#000000">Command</text>
<text text-anchor="middle" x="183" y="-128.8" font-family="Times,serif" font-size="14.00" fill="#000000">Line</text>
<text text-anchor="middle" x="183" y="-113.8" font-family="Times,serif" font-size="14.00" fill="#000000">Wrapper</text>
</g>
<!-- clw&#45;&gt;importers -->
<g id="edge5" class="edge">
<title>clw&#45;&gt;importers</title>
<path fill="none" stroke="#000000" d="M213.8231,-159.1644C234.0576,-176.6689 260.3457,-199.4102 280.1658,-216.5561"/>
<polygon fill="#000000" stroke="#000000" points="278.1043,-219.4006 287.957,-223.2961 282.684,-214.1067 278.1043,-219.4006"/>
</g>
<!-- datastore -->
<g id="node4" class="node">
<title>datastore</title>
<polygon fill="none" stroke="#000000" points="487,-260.5 398,-260.5 398,-222.5 487,-222.5 487,-260.5"/>
<text text-anchor="middle" x="442.5" y="-245.3" font-family="Times,serif" font-size="14.00" fill="#000000">Datastore &amp;</text>
<text text-anchor="middle" x="442.5" y="-230.3" font-family="Times,serif" font-size="14.00" fill="#000000">Core Helpers</text>
</g>
<!-- exporters -->
<g id="node5" class="node">
<title>exporters</title>
<polygon fill="none" stroke="#000000" points="610,-354.5 541,-354.5 541,-318.5 610,-318.5 610,-354.5"/>
<text text-anchor="middle" x="575.5" y="-332.8" font-family="Times,serif" font-size="14.00" fill="#000000">Exporters</text>
</g>
<!-- datastore&#45;&gt;exporters -->
<g id="edge10" class="edge">
<title>datastore&#45;&gt;exporters</title>
<path fill="none" stroke="#000000" d="M469.4145,-260.7247C490.2793,-275.6281 519.3185,-296.3703 541.7406,-312.3861"/>
<polygon fill="#000000" stroke="#000000" points="539.8075,-315.3065 549.9792,-318.2709 543.8762,-309.6104 539.8075,-315.3065"/>
</g>
<!-- graphers -->
<g id="node7" class="node">
<title>graphers</title>
<polygon fill="none" stroke="#000000" points="608.5,-259.5 542.5,-259.5 542.5,-223.5 608.5,-223.5 608.5,-259.5"/>
<text text-anchor="middle" x="575.5" y="-237.8" font-family="Times,serif" font-size="14.00" fill="#000000">Graphers</text>
</g>
<!-- datastore&#45;&gt;graphers -->
<g id="edge11" class="edge">
<title>datastore&#45;&gt;graphers</title>
<path fill="none" stroke="#000000" d="M487.1571,-241.5C501.6097,-241.5 517.6109,-241.5 531.9799,-241.5"/>
<polygon fill="#000000" stroke="#000000" points="532.1089,-245.0001 542.1088,-241.5 532.1088,-238.0001 532.1089,-245.0001"/>
</g>
<!-- queries -->
<g id="node11" class="node">
<title>queries</title>
<polygon fill="none" stroke="#000000" points="605,-168.5 546,-168.5 546,-130.5 605,-130.5 605,-168.5"/>
<text text-anchor="middle" x="575.5" y="-153.3" font-family="Times,serif" font-size="14.00" fill="#000000">Manual</text>
<text text-anchor="middle" x="575.5" y="-138.3" font-family="Times,serif" font-size="14.00" fill="#000000">Queries</text>
</g>
<!-- datastore&#45;&gt;queries -->
<g id="edge12" class="edge">
<title>datastore&#45;&gt;queries</title>
<path fill="none" stroke="#000000" d="M470.0577,-222.4375C490.2088,-208.4984 517.726,-189.4639 539.5969,-174.3352"/>
<polygon fill="#000000" stroke="#000000" points="541.7446,-177.1054 547.9776,-168.538 537.7623,-171.3485 541.7446,-177.1054"/>
</g>
<!-- artConfigs -->
<g id="node12" class="node">
<title>artConfigs</title>
<polygon fill="none" stroke="#000000" points="750,-368 664,-368 664,-315 756,-315 756,-362 750,-368"/>
<polyline fill="none" stroke="#000000" points="750,-368 750,-362 "/>
<polyline fill="none" stroke="#000000" points="756,-362 750,-362 "/>
<text text-anchor="middle" x="710" y="-352.8" font-family="Times,serif" font-size="14.00" fill="#000000">Aggregated</text>
<text text-anchor="middle" x="710" y="-337.8" font-family="Times,serif" font-size="14.00" fill="#000000">Configuration</text>
<text text-anchor="middle" x="710" y="-322.8" font-family="Times,serif" font-size="14.00" fill="#000000">Artifacts</text>
</g>
<!-- exporters&#45;&gt;artConfigs -->
<g id="edge13" class="edge">
<title>exporters&#45;&gt;artConfigs</title>
<path fill="none" stroke="#000000" d="M610.1371,-337.7876C623.4176,-338.2813 638.9371,-338.8583 653.7284,-339.4081"/>
<polygon fill="#000000" stroke="#000000" points="653.6925,-342.9091 663.8157,-339.7831 653.9526,-335.9139 653.6925,-342.9091"/>
</g>
<!-- fetchers&#45;&gt;importers -->
<g id="edge4" class="edge">
<title>fetchers&#45;&gt;importers</title>
<path fill="none" stroke="#000000" stroke-dasharray="5,2" d="M205.8176,-323.3908C226.0291,-307.3499 255.7105,-283.7933 278.0566,-266.0583"/>
<polygon fill="#000000" stroke="#000000" points="280.2692,-268.7706 285.9263,-259.8124 275.9176,-263.2875 280.2692,-268.7706"/>
</g>
<!-- artGraphs -->
<g id="node13" class="node">
<title>artGraphs</title>
<polygon fill="none" stroke="#000000" points="738.5,-260.5 675.5,-260.5 675.5,-222.5 744.5,-222.5 744.5,-254.5 738.5,-260.5"/>
<polyline fill="none" stroke="#000000" points="738.5,-260.5 738.5,-254.5 "/>
<polyline fill="none" stroke="#000000" points="744.5,-254.5 738.5,-254.5 "/>
<text text-anchor="middle" x="710" y="-245.3" font-family="Times,serif" font-size="14.00" fill="#000000">Topology</text>
<text text-anchor="middle" x="710" y="-230.3" font-family="Times,serif" font-size="14.00" fill="#000000">Graphs</text>
</g>
<!-- graphers&#45;&gt;artGraphs -->
<g id="edge14" class="edge">
<title>graphers&#45;&gt;artGraphs</title>
<path fill="none" stroke="#000000" d="M608.7472,-241.5C625.7337,-241.5 646.648,-241.5 665.0501,-241.5"/>
<polygon fill="#000000" stroke="#000000" points="665.2591,-245.0001 675.2591,-241.5 665.259,-238.0001 665.2591,-245.0001"/>
</g>
<!-- importers&#45;&gt;datastore -->
<g id="edge8" class="edge">
<title>importers&#45;&gt;datastore</title>
<path fill="none" stroke="#000000" d="M344.0756,-241.5C357.3825,-241.5 372.8757,-241.5 387.5781,-241.5"/>
<polygon fill="#000000" stroke="#000000" points="387.5938,-245.0001 397.5937,-241.5 387.5937,-238.0001 387.5938,-245.0001"/>
</g>
<!-- inserters&#45;&gt;datastore -->
<g id="edge7" class="edge">
<title>inserters&#45;&gt;datastore</title>
<path fill="none" stroke="#000000" d="M325.6379,-368.4288C348.8649,-343.2011 391.1691,-297.2527 418.0029,-268.1074"/>
<polygon fill="#000000" stroke="#000000" points="420.6028,-270.4508 424.8013,-260.7233 415.4531,-265.7094 420.6028,-270.4508"/>
</g>
<!-- playbook -->
<g id="node10" class="node">
<title>playbook</title>
<polygon fill="none" stroke="#000000" points="343,-160.5 275,-160.5 275,-124.5 343,-124.5 343,-160.5"/>
<text text-anchor="middle" x="309" y="-138.8" font-family="Times,serif" font-size="14.00" fill="#000000">Playbook</text>
</g>
<!-- playbook&#45;&gt;clw -->
<g id="edge6" class="edge">
<title>playbook&#45;&gt;clw</title>
<path fill="none" stroke="#000000" d="M274.726,-139.7798C260.9889,-138.6896 244.9332,-137.4153 230.1284,-136.2404"/>
<polygon fill="#000000" stroke="#000000" points="230.3683,-132.7485 220.1227,-135.4462 229.8144,-139.7265 230.3683,-132.7485"/>
</g>
<!-- playbook&#45;&gt;datastore -->
<g id="edge9" class="edge">
<title>playbook&#45;&gt;datastore</title>
<path fill="none" stroke="#000000" d="M341.6417,-166.7062C361.9788,-181.7877 388.0922,-201.1527 408.6521,-216.3993"/>
<polygon fill="#000000" stroke="#000000" points="343.6032,-163.8034 333.486,-160.6581 339.4335,-169.4261 343.6032,-163.8034"/>
<polygon fill="#000000" stroke="#000000" points="406.6871,-219.2995 416.8043,-222.4448 410.8567,-213.6768 406.6871,-219.2995"/>
</g>
<!-- artReports -->
<g id="node14" class="node">
<title>artReports</title>
<polygon fill="none" stroke="#000000" points="740.5,-168.5 673.5,-168.5 673.5,-130.5 746.5,-130.5 746.5,-162.5 740.5,-168.5"/>
<polyline fill="none" stroke="#000000" points="740.5,-168.5 740.5,-162.5 "/>
<polyline fill="none" stroke="#000000" points="746.5,-162.5 740.5,-162.5 "/>
<text text-anchor="middle" x="710" y="-153.3" font-family="Times,serif" font-size="14.00" fill="#000000">Formatted</text>
<text text-anchor="middle" x="710" y="-138.3" font-family="Times,serif" font-size="14.00" fill="#000000">Reports</text>
</g>
<!-- queries&#45;&gt;artReports -->
<g id="edge15" class="edge">
<title>queries&#45;&gt;artReports</title>
<path fill="none" stroke="#000000" d="M605.0166,-149.5C622.0591,-149.5 643.8818,-149.5 663.2117,-149.5"/>
<polygon fill="#000000" stroke="#000000" points="663.3501,-153.0001 673.35,-149.5 663.35,-146.0001 663.3501,-153.0001"/>
</g>
<!-- artRaw -->
<g id="node15" class="node">
<title>artRaw</title>
<polygon fill="none" stroke="#000000" points="737.5,-76 676.5,-76 676.5,-23 743.5,-23 743.5,-70 737.5,-76"/>
<polyline fill="none" stroke="#000000" points="737.5,-76 737.5,-70 "/>
<polyline fill="none" stroke="#000000" points="743.5,-70 737.5,-70 "/>
<text text-anchor="middle" x="710" y="-60.8" font-family="Times,serif" font-size="14.00" fill="#000000">Arbitrary</text>
<text text-anchor="middle" x="710" y="-45.8" font-family="Times,serif" font-size="14.00" fill="#000000">Raw</text>
<text text-anchor="middle" x="710" y="-30.8" font-family="Times,serif" font-size="14.00" fill="#000000">Data</text>
</g>
<!-- queries&#45;&gt;artRaw -->
<g id="edge16" class="edge">
<title>queries&#45;&gt;artRaw</title>
<path fill="none" stroke="#000000" d="M601.115,-130.4554C620.0387,-116.3857 646.2137,-96.9247 668.1575,-80.6097"/>
<polygon fill="#000000" stroke="#000000" points="670.3998,-83.3039 676.3365,-74.5286 666.2232,-77.6864 670.3998,-83.3039"/>
</g>
</g>
</svg>
