<?xml version="1.0" encoding="UTF-8" standalone="no"?>
<!DOCTYPE svg PUBLIC "-//W3C//DTD SVG 1.1//EN"
 "http://www.w3.org/Graphics/SVG/1.1/DTD/svg11.dtd">
<!-- Generated by graphviz version 2.43.0 (0)
 -->
<!-- Title: netmeld Pages: 1 -->
<svg width="625pt" height="538pt"
 viewBox="0.00 0.00 625.00 538.00" xmlns="http://www.w3.org/2000/svg" xmlns:xlink="http://www.w3.org/1999/xlink">
<g id="graph0" class="graph" transform="scale(1 1) rotate(0) translate(4 534)">
<title>netmeld</title>
<polygon fill="white" stroke="transparent" points="-4,4 -4,-534 621,-534 621,4 -4,4"/>
<text text-anchor="middle" x="308.5" y="-7.8" font-family="Times,serif" font-size="14.00">Netmeld Tool Suite 2.x &#45;&#45; General Dataflow Overview</text>
<g id="clust1" class="cluster">
<title>cluster_sources</title>
<polygon fill="none" stroke="black" points="8,-74 8,-459 141,-459 141,-74 8,-74"/>
<text text-anchor="middle" x="74.5" y="-443.8" font-family="Times,serif" font-size="14.00">Data Sources</text>
</g>
<g id="clust4" class="cluster">
<title>cluster_artifacts</title>
<polygon fill="none" stroke="black" points="463,-31 463,-522 617,-522 617,-31 463,-31"/>
<text text-anchor="middle" x="540" y="-506.8" font-family="Times,serif" font-size="14.00">Collection Artifacts</text>
</g>
<!-- srcTargeted -->
<g id="node1" class="node">
<title>srcTargeted</title>
<polygon fill="none" stroke="black" points="126,-227.5 17,-227.5 17,-174.5 132,-174.5 132,-221.5 126,-227.5"/>
<polyline fill="none" stroke="black" points="126,-227.5 126,-221.5 "/>
<polyline fill="none" stroke="black" points="132,-221.5 126,-221.5 "/>
<text text-anchor="middle" x="74.5" y="-212.3" font-family="Times,serif" font-size="14.00">Targeted</text>
<text text-anchor="middle" x="74.5" y="-197.3" font-family="Times,serif" font-size="14.00">Configuration</text>
<text text-anchor="middle" x="74.5" y="-182.3" font-family="Times,serif" font-size="14.00">Settings</text>
</g>
<!-- datastore -->
<g id="node6" class="node">
<title>datastore</title>
<polygon fill="none" stroke="black" points="417,-275 330,-275 330,-239 417,-239 417,-275"/>
<text text-anchor="middle" x="373.5" y="-253.3" font-family="Times,serif" font-size="14.00">Datastore</text>
</g>
<!-- srcTargeted&#45;&gt;datastore -->
<g id="edge1" class="edge">
<title>srcTargeted&#45;&gt;datastore</title>
<path fill="none" stroke="black" d="M119.36,-174.37C149.91,-158.87 191.94,-143.55 230.5,-150"/>
</g>
<!-- playbook -->
<g id="node8" class="node">
<title>playbook</title>
<polygon fill="none" stroke="black" points="272,-376 191,-376 191,-340 272,-340 272,-376"/>
<text text-anchor="middle" x="231.5" y="-354.3" font-family="Times,serif" font-size="14.00">Playbook</text>
</g>
<!-- srcTargeted&#45;&gt;playbook -->
<g id="edge2" class="edge">
<title>srcTargeted&#45;&gt;playbook</title>
<path fill="none" stroke="black" d="M110.69,-227.73C120.86,-236.05 131.71,-245.53 141,-255 164.04,-278.48 165.32,-288.25 187,-313 192.76,-319.58 199.2,-326.47 205.33,-332.83"/>
<polygon fill="black" stroke="black" points="202.82,-335.27 212.31,-339.99 207.84,-330.39 202.82,-335.27"/>
</g>
<!-- srcConfigs -->
<g id="node2" class="node">
<title>srcConfigs</title>
<polygon fill="none" stroke="black" points="126,-320 17,-320 17,-282 132,-282 132,-314 126,-320"/>
<polyline fill="none" stroke="black" points="126,-320 126,-314 "/>
<polyline fill="none" stroke="black" points="132,-314 126,-314 "/>
<text text-anchor="middle" x="74.5" y="-304.8" font-family="Times,serif" font-size="14.00">Configuration</text>
<text text-anchor="middle" x="74.5" y="-289.8" font-family="Times,serif" font-size="14.00">Files</text>
</g>
<!-- srcConfigs&#45;&gt;datastore -->
<g id="edge3" class="edge">
<title>srcConfigs&#45;&gt;datastore</title>
<path fill="none" stroke="black" d="M106.05,-281.9C117.5,-274.15 130.31,-264.73 141,-255 186.34,-213.72 170.02,-139.88 230.5,-150"/>
</g>
<!-- fetchers -->
<g id="node7" class="node">
<title>fetchers</title>
<polygon fill="none" stroke="black" points="271,-466 192,-466 192,-430 271,-430 271,-466"/>
<text text-anchor="middle" x="231.5" y="-444.3" font-family="Times,serif" font-size="14.00">Fetchers</text>
</g>
<!-- srcConfigs&#45;&gt;fetchers -->
<g id="edge4" class="edge">
<title>srcConfigs&#45;&gt;fetchers</title>
<path fill="none" stroke="black" d="M105.41,-320.1C117.03,-328.11 130.13,-337.91 141,-348 164.35,-369.68 165.69,-379.31 187,-403 192.85,-409.5 199.32,-416.37 205.45,-422.72"/>
<polygon fill="black" stroke="black" points="202.94,-425.16 212.42,-429.89 207.96,-420.28 202.94,-425.16"/>
</g>
<!-- srcNetwork -->
<g id="node3" class="node">
<title>srcNetwork</title>
<polygon fill="none" stroke="black" points="112.5,-120 30.5,-120 30.5,-82 118.5,-82 118.5,-114 112.5,-120"/>
<polyline fill="none" stroke="black" points="112.5,-120 112.5,-114 "/>
<polyline fill="none" stroke="black" points="118.5,-114 112.5,-114 "/>
<text text-anchor="middle" x="74.5" y="-104.8" font-family="Times,serif" font-size="14.00">Network</text>
<text text-anchor="middle" x="74.5" y="-89.8" font-family="Times,serif" font-size="14.00">Collection</text>
</g>
<!-- srcNetwork&#45;&gt;datastore -->
<g id="edge5" class="edge">
<title>srcNetwork&#45;&gt;datastore</title>
<path fill="none" stroke="black" d="M118.79,-118.29C149.44,-129.63 191.81,-143.52 230.5,-150"/>
<path fill="none" stroke="black" d="M232.5,-150C283.25,-158.49 327.74,-202.01 352.3,-230.87"/>
<polygon fill="black" stroke="black" points="349.61,-233.11 358.68,-238.57 355,-228.64 349.61,-233.11"/>
</g>
<!-- srcNetwork&#45;&gt;playbook -->
<g id="edge6" class="edge">
<title>srcNetwork&#45;&gt;playbook</title>
<path fill="none" stroke="black" d="M111.25,-120.22C122.17,-127.63 133.3,-136.99 141,-148 184.62,-210.39 149.16,-246.94 187,-313 190.86,-319.74 195.96,-326.23 201.3,-332.08"/>
<polygon fill="black" stroke="black" points="199.16,-334.89 208.64,-339.62 204.18,-330.01 199.16,-334.89"/>
</g>
<!-- srcOther -->
<g id="node4" class="node">
<title>srcOther</title>
<polygon fill="none" stroke="black" points="127,-427.5 16,-427.5 16,-374.5 133,-374.5 133,-421.5 127,-427.5"/>
<polyline fill="none" stroke="black" points="127,-427.5 127,-421.5 "/>
<polyline fill="none" stroke="black" points="133,-421.5 127,-421.5 "/>
<text text-anchor="middle" x="74.5" y="-412.3" font-family="Times,serif" font-size="14.00">&quot;Other&quot;</text>
<text text-anchor="middle" x="74.5" y="-397.3" font-family="Times,serif" font-size="14.00">Manually</text>
<text text-anchor="middle" x="74.5" y="-382.3" font-family="Times,serif" font-size="14.00">CollectedData</text>
</g>
<!-- datalake -->
<g id="node5" class="node">
<title>datalake</title>
<polygon fill="none" stroke="black" points="413.5,-479 333.5,-479 333.5,-443 413.5,-443 413.5,-479"/>
<text text-anchor="middle" x="373.5" y="-457.3" font-family="Times,serif" font-size="14.00">Datalake</text>
</g>
<!-- srcOther&#45;&gt;datalake -->
<g id="edge7" class="edge">
<title>srcOther&#45;&gt;datalake</title>
<path fill="none" stroke="black" d="M97.98,-427.83C118.52,-450.09 151.1,-480.1 187,-493 231.75,-509.08 285.55,-496.54 323.66,-482.73"/>
<polygon fill="black" stroke="black" points="325.37,-485.82 333.49,-479.01 322.89,-479.28 325.37,-485.82"/>
</g>
<!-- tool_clw -->
<g id="node9" class="node">
<title>tool_clw</title>
<polygon fill="none" stroke="black" points="276,-285.5 187,-285.5 187,-232.5 276,-232.5 276,-285.5"/>
<text text-anchor="middle" x="231.5" y="-270.3" font-family="Times,serif" font-size="14.00">Command</text>
<text text-anchor="middle" x="231.5" y="-255.3" font-family="Times,serif" font-size="14.00">Line</text>
<text text-anchor="middle" x="231.5" y="-240.3" font-family="Times,serif" font-size="14.00">Wrapper</text>
</g>
<!-- srcOther&#45;&gt;tool_clw -->
<g id="edge8" class="edge">
<title>srcOther&#45;&gt;tool_clw</title>
<path fill="none" stroke="black" d="M108.96,-374.36C119.39,-365.81 130.82,-356.17 141,-347 160.1,-329.8 180.59,-309.77 197.15,-293.17"/>
<polygon fill="black" stroke="black" points="199.89,-295.37 204.46,-285.81 194.93,-290.44 199.89,-295.37"/>
</g>
<!-- datalake&#45;&gt;datastore -->
<g id="edge9" class="edge">
<title>datalake&#45;&gt;datastore</title>
<path fill="none" stroke="black" stroke-dasharray="5,2" d="M373.5,-442.87C373.5,-390.4 373.5,-337.94 373.5,-285.47"/>
<polygon fill="black" stroke="black" points="377,-285.33 373.5,-275.33 370,-285.33 377,-285.33"/>
</g>
<!-- artArbitrary -->
<g id="node13" class="node">
<title>artArbitrary</title>
<polygon fill="none" stroke="black" points="575,-490.5 498,-490.5 498,-437.5 581,-437.5 581,-484.5 575,-490.5"/>
<polyline fill="none" stroke="black" points="575,-490.5 575,-484.5 "/>
<polyline fill="none" stroke="black" points="581,-484.5 575,-484.5 "/>
<text text-anchor="middle" x="539.5" y="-475.3" font-family="Times,serif" font-size="14.00">Arbitrary</text>
<text text-anchor="middle" x="539.5" y="-460.3" font-family="Times,serif" font-size="14.00">Raw</text>
<text text-anchor="middle" x="539.5" y="-445.3" font-family="Times,serif" font-size="14.00">Data</text>
</g>
<!-- datalake&#45;&gt;artArbitrary -->
<g id="edge18" class="edge">
<title>datalake&#45;&gt;artArbitrary</title>
<path fill="none" stroke="black" d="M413.78,-461.72C435.9,-462.12 463.78,-462.63 487.57,-463.07"/>
<polygon fill="black" stroke="black" points="487.76,-466.57 497.83,-463.26 487.89,-459.57 487.76,-466.57"/>
</g>
<!-- artConfigs -->
<g id="node10" class="node">
<title>artConfigs</title>
<polygon fill="none" stroke="black" points="591,-276.5 482,-276.5 482,-223.5 597,-223.5 597,-270.5 591,-276.5"/>
<polyline fill="none" stroke="black" points="591,-276.5 591,-270.5 "/>
<polyline fill="none" stroke="black" points="597,-270.5 591,-270.5 "/>
<text text-anchor="middle" x="539.5" y="-261.3" font-family="Times,serif" font-size="14.00">Aggregated</text>
<text text-anchor="middle" x="539.5" y="-246.3" font-family="Times,serif" font-size="14.00">Configuration</text>
<text text-anchor="middle" x="539.5" y="-231.3" font-family="Times,serif" font-size="14.00">Artifacts</text>
</g>
<!-- datastore&#45;&gt;artConfigs -->
<g id="edge14" class="edge">
<title>datastore&#45;&gt;artConfigs</title>
<path fill="none" stroke="black" d="M417.16,-255.18C433.82,-254.47 453.31,-253.64 471.74,-252.85"/>
<polygon fill="black" stroke="black" points="472,-256.34 481.85,-252.42 471.71,-249.35 472,-256.34"/>
</g>
<!-- artGraphs -->
<g id="node11" class="node">
<title>artGraphs</title>
<polygon fill="none" stroke="black" points="574,-169 499,-169 499,-131 580,-131 580,-163 574,-169"/>
<polyline fill="none" stroke="black" points="574,-169 574,-163 "/>
<polyline fill="none" stroke="black" points="580,-163 574,-163 "/>
<text text-anchor="middle" x="539.5" y="-153.8" font-family="Times,serif" font-size="14.00">Topology</text>
<text text-anchor="middle" x="539.5" y="-138.8" font-family="Times,serif" font-size="14.00">Graphs</text>
</g>
<!-- datastore&#45;&gt;artGraphs -->
<g id="edge15" class="edge">
<title>datastore&#45;&gt;artGraphs</title>
<path fill="none" stroke="black" d="M400.65,-238.88C418.18,-226.83 441.83,-210.76 463,-197 474.45,-189.56 487,-181.65 498.53,-174.48"/>
<polygon fill="black" stroke="black" points="500.45,-177.41 507.1,-169.17 496.76,-171.46 500.45,-177.41"/>
</g>
<!-- artReports -->
<g id="node12" class="node">
<title>artReports</title>
<polygon fill="none" stroke="black" points="579.5,-77 493.5,-77 493.5,-39 585.5,-39 585.5,-71 579.5,-77"/>
<polyline fill="none" stroke="black" points="579.5,-77 579.5,-71 "/>
<polyline fill="none" stroke="black" points="585.5,-71 579.5,-71 "/>
<text text-anchor="middle" x="539.5" y="-61.8" font-family="Times,serif" font-size="14.00">Formatted</text>
<text text-anchor="middle" x="539.5" y="-46.8" font-family="Times,serif" font-size="14.00">Reports</text>
</g>
<!-- datastore&#45;&gt;artReports -->
<g id="edge16" class="edge">
<title>datastore&#45;&gt;artReports</title>
<path fill="none" stroke="black" d="M381.58,-238.59C394.16,-207.76 422.89,-145.04 463,-104 470.97,-95.85 480.66,-88.56 490.42,-82.31"/>
<polygon fill="black" stroke="black" points="492.25,-85.29 498.96,-77.1 488.6,-79.32 492.25,-85.29"/>
</g>
<!-- artTargeted -->
<g id="node14" class="node">
<title>artTargeted</title>
<polygon fill="none" stroke="black" points="573.5,-383.5 499.5,-383.5 499.5,-330.5 579.5,-330.5 579.5,-377.5 573.5,-383.5"/>
<polyline fill="none" stroke="black" points="573.5,-383.5 573.5,-377.5 "/>
<polyline fill="none" stroke="black" points="579.5,-377.5 573.5,-377.5 "/>
<text text-anchor="middle" x="539.5" y="-368.3" font-family="Times,serif" font-size="14.00">Targeted</text>
<text text-anchor="middle" x="539.5" y="-353.3" font-family="Times,serif" font-size="14.00">Raw</text>
<text text-anchor="middle" x="539.5" y="-338.3" font-family="Times,serif" font-size="14.00">Data</text>
</g>
<!-- datastore&#45;&gt;artTargeted -->
<g id="edge17" class="edge">
<title>datastore&#45;&gt;artTargeted</title>
<path fill="none" stroke="black" d="M404.2,-275.11C428.27,-289.79 462.66,-310.76 490.61,-327.8"/>
<polygon fill="black" stroke="black" points="489.08,-330.97 499.44,-333.18 492.73,-324.99 489.08,-330.97"/>
</g>
<!-- fetchers&#45;&gt;datalake -->
<g id="edge10" class="edge">
<title>fetchers&#45;&gt;datalake</title>
<path fill="none" stroke="black" stroke-dasharray="5,2" d="M271.13,-451.59C287.08,-453.07 305.77,-454.8 322.73,-456.38"/>
<polygon fill="black" stroke="black" points="322.75,-459.89 333.03,-457.33 323.39,-452.92 322.75,-459.89"/>
</g>
<!-- fetchers&#45;&gt;artArbitrary -->
<g id="edge19" class="edge">
<title>fetchers&#45;&gt;artArbitrary</title>
<path fill="none" stroke="black" d="M252.43,-429.92C284.58,-401.71 346.88,-351.18 372.5,-359"/>
</g>
<!-- playbook&#45;&gt;datastore -->
<g id="edge12" class="edge">
<title>playbook&#45;&gt;datastore</title>
<path fill="none" stroke="black" d="M265.96,-333.86C288.09,-317.89 316.99,-297.05 339.1,-281.1"/>
<polygon fill="black" stroke="black" points="263.59,-331.25 257.53,-339.94 267.69,-336.93 263.59,-331.25"/>
<polygon fill="black" stroke="black" points="341.15,-283.93 347.22,-275.24 337.06,-278.25 341.15,-283.93"/>
</g>
<!-- playbook&#45;&gt;tool_clw -->
<g id="edge13" class="edge">
<title>playbook&#45;&gt;tool_clw</title>
<path fill="none" stroke="black" d="M231.5,-339.92C231.5,-325.23 231.5,-310.54 231.5,-295.85"/>
<polygon fill="black" stroke="black" points="235,-295.68 231.5,-285.68 228,-295.68 235,-295.68"/>
</g>
<!-- playbook&#45;&gt;artArbitrary -->
<g id="edge20" class="edge">
<title>playbook&#45;&gt;artArbitrary</title>
<path fill="none" stroke="black" d="M272.03,-352.37C300.58,-349.71 339.72,-349 372.5,-359"/>
</g>
<!-- tool_clw&#45;&gt;datastore -->
<g id="edge11" class="edge">
<title>tool_clw&#45;&gt;datastore</title>
<path fill="none" stroke="black" stroke-dasharray="5,2" d="M276.03,-258.38C289.85,-258.18 305.29,-257.96 319.69,-257.75"/>
<polygon fill="black" stroke="black" points="320.01,-261.25 329.96,-257.61 319.91,-254.25 320.01,-261.25"/>
</g>
<!-- tool_clw&#45;&gt;artArbitrary -->
<g id="edge21" class="edge">
<title>tool_clw&#45;&gt;artArbitrary</title>
<path fill="none" stroke="black" d="M258.5,-285.69C284.61,-310.37 327.36,-345.23 372.5,-359"/>
<path fill="none" stroke="black" d="M374.5,-359C387.31,-362.91 447.08,-402.2 490.78,-431.58"/>
<polygon fill="black" stroke="black" points="489.04,-434.62 499.28,-437.31 492.95,-428.82 489.04,-434.62"/>
</g>
</g>
</svg>
