<?xml version="1.0" encoding="UTF-8" standalone="no"?>
<!DOCTYPE svg PUBLIC "-//W3C//DTD SVG 1.1//EN"
 "http://www.w3.org/Graphics/SVG/1.1/DTD/svg11.dtd">
<!-- Generated by graphviz version 2.43.0 (0)
 -->
<!-- Title: netmeld Pages: 1 -->
<svg width="960pt" height="211pt"
 viewBox="0.00 0.00 960.00 210.50" xmlns="http://www.w3.org/2000/svg" xmlns:xlink="http://www.w3.org/1999/xlink">
<g id="graph0" class="graph" transform="scale(1 1) rotate(0) translate(4 206.5)">
<title>netmeld</title>
<polygon fill="white" stroke="transparent" points="-4,4 -4,-206.5 956,-206.5 956,4 -4,4"/>
<text text-anchor="middle" x="476" y="-7.8" font-family="Times,serif" font-size="14.00">Netmeld Tool Suite 2.x &#45;&#45; Netmeld Modules Generalized Dataflow</text>
<!-- dataSources -->
<g id="node1" class="node">
<title>dataSources</title>
<polygon fill="none" stroke="black" points="226,-176 0,-176 0,-61 226,-61 226,-176"/>
<polygon fill="none" stroke="black" points="0,-60.5 0,-175.5 78,-175.5 78,-60.5 0,-60.5"/>
<text text-anchor="start" x="5" y="-114.3" font-family="Times,serif" font-size="14.00">Source(s)</text>
<polygon fill="none" stroke="black" points="78,-150.5 78,-175.5 226,-175.5 226,-150.5 78,-150.5"/>
<text text-anchor="start" x="83" y="-159.3" font-family="Times,serif" font-size="14.00">Configuration Files</text>
<polygon fill="none" stroke="black" points="78,-125.5 78,-150.5 226,-150.5 226,-125.5 78,-125.5"/>
<text text-anchor="start" x="83" y="-134.3" font-family="Times,serif" font-size="14.00">Network Collection</text>
<polygon fill="none" stroke="black" points="78,-100.5 78,-125.5 226,-125.5 226,-100.5 78,-100.5"/>
<text text-anchor="start" x="83" y="-109.3" font-family="Times,serif" font-size="14.00">Targeted Settings</text>
<polygon fill="none" stroke="black" points="78,-60.5 78,-100.5 226,-100.5 226,-60.5 78,-60.5"/>
<text text-anchor="start" x="83" y="-84.3" font-family="Times,serif" font-size="14.00">&quot;Other&quot; Manually</text>
<text text-anchor="start" x="93" y="-69.3" font-family="Times,serif" font-size="14.00">Collected Data</text>
</g>
<!-- dataCollectors -->
<g id="node2" class="node">
<title>dataCollectors</title>
<polygon fill="none" stroke="black" points="448,-168.5 280,-168.5 280,-68.5 448,-68.5 448,-168.5"/>
<polygon fill="none" stroke="black" points="280,-68.5 280,-168.5 373,-168.5 373,-68.5 280,-68.5"/>
<text text-anchor="start" x="285" y="-114.8" font-family="Times,serif" font-size="14.00">Collector(s)</text>
<polygon fill="none" stroke="black" points="373,-143.5 373,-168.5 448,-168.5 448,-143.5 373,-143.5"/>
<text text-anchor="start" x="378" y="-152.3" font-family="Times,serif" font-size="14.00">Fetchers</text>
<polygon fill="none" stroke="black" points="373,-118.5 373,-143.5 448,-143.5 448,-118.5 373,-118.5"/>
<text text-anchor="start" x="378" y="-127.3" font-family="Times,serif" font-size="14.00">Playbook</text>
<polygon fill="none" stroke="black" points="373,-93.5 373,-118.5 448,-118.5 448,-93.5 373,-93.5"/>
<text text-anchor="start" x="378" y="-102.3" font-family="Times,serif" font-size="14.00">CLW</text>
<polygon fill="none" stroke="black" points="373,-68.5 373,-93.5 448,-93.5 448,-68.5 373,-68.5"/>
<text text-anchor="start" x="378" y="-77.3" font-family="Times,serif" font-size="14.00">People</text>
</g>
<!-- dataSources&#45;&gt;dataCollectors -->
<g id="edge1" class="edge">
<title>dataSources&#45;&gt;dataCollectors</title>
<path fill="none" stroke="black" d="M226.12,-118.5C240.66,-118.5 255.43,-118.5 269.62,-118.5"/>
<polygon fill="black" stroke="black" points="269.84,-122 279.84,-118.5 269.84,-115 269.84,-122"/>
</g>
<!-- dataParsers -->
<g id="node3" class="node">
<title>dataParsers</title>
<polygon fill="none" stroke="black" points="658,-202.5 502,-202.5 502,-152.5 658,-152.5 658,-202.5"/>
<polygon fill="none" stroke="black" points="502,-152.5 502,-202.5 577,-202.5 577,-152.5 502,-152.5"/>
<text text-anchor="start" x="507" y="-173.8" font-family="Times,serif" font-size="14.00">Parser(s)</text>
<polygon fill="none" stroke="black" points="577,-177.5 577,-202.5 658,-202.5 658,-177.5 577,-177.5"/>
<text text-anchor="start" x="582" y="-186.3" font-family="Times,serif" font-size="14.00">Datastore</text>
<polygon fill="none" stroke="black" points="577,-152.5 577,-177.5 658,-177.5 658,-152.5 577,-152.5"/>
<text text-anchor="start" x="582" y="-161.3" font-family="Times,serif" font-size="14.00">People</text>
</g>
<!-- dataCollectors&#45;&gt;dataParsers -->
<g id="edge2" class="edge">
<title>dataCollectors&#45;&gt;dataParsers</title>
<path fill="none" stroke="black" d="M448.04,-141.4C462.46,-145.37 477.48,-149.51 492,-153.51"/>
<polygon fill="black" stroke="black" points="491.38,-156.97 501.96,-156.26 493.25,-150.23 491.38,-156.97"/>
</g>
<!-- dataStorage -->
<g id="node4" class="node">
<title>dataStorage</title>
<polygon fill="none" stroke="black" points="658,-98 502,-98 502,-23 658,-23 658,-98"/>
<polygon fill="none" stroke="black" points="502,-22.5 502,-97.5 569,-97.5 569,-22.5 502,-22.5"/>
<text text-anchor="start" x="507" y="-56.3" font-family="Times,serif" font-size="14.00">Storage</text>
<polygon fill="none" stroke="black" points="569,-72.5 569,-97.5 658,-97.5 658,-72.5 569,-72.5"/>
<text text-anchor="start" x="574" y="-81.3" font-family="Times,serif" font-size="14.00">Datalake</text>
<polygon fill="none" stroke="black" points="569,-47.5 569,-72.5 658,-72.5 658,-47.5 569,-47.5"/>
<text text-anchor="start" x="574" y="-56.3" font-family="Times,serif" font-size="14.00">Datastore</text>
<polygon fill="none" stroke="black" points="569,-22.5 569,-47.5 658,-47.5 658,-22.5 569,-22.5"/>
<text text-anchor="start" x="574" y="-31.3" font-family="Times,serif" font-size="14.00">Filesystem</text>
</g>
<!-- dataCollectors&#45;&gt;dataStorage -->
<g id="edge3" class="edge">
<title>dataCollectors&#45;&gt;dataStorage</title>
<path fill="none" stroke="black" d="M448.04,-95.99C462.46,-92.09 477.48,-88.01 492,-84.08"/>
<polygon fill="black" stroke="black" points="493.22,-87.38 501.96,-81.38 491.39,-80.62 493.22,-87.38"/>
</g>
<!-- dataParsers&#45;&gt;dataStorage -->
<g id="edge6" class="edge">
<title>dataParsers&#45;&gt;dataStorage</title>
<path fill="none" stroke="black" d="M580,-152.48C580,-137.84 580,-123.21 580,-108.57"/>
<polygon fill="black" stroke="black" points="583.5,-108.43 580,-98.43 576.5,-108.43 583.5,-108.43"/>
</g>
<!-- dataArtifacts -->
<g id="node5" class="node">
<title>dataArtifacts</title>
<polygon fill="none" stroke="black" points="952,-181 712,-181 712,-56 952,-56 952,-181"/>
<polygon fill="none" stroke="black" points="712,-55.5 712,-180.5 795,-180.5 795,-55.5 712,-55.5"/>
<text text-anchor="start" x="717" y="-114.3" font-family="Times,serif" font-size="14.00">Artifact(s)</text>
<polygon fill="none" stroke="black" points="795,-155.5 795,-180.5 952,-180.5 952,-155.5 795,-155.5"/>
<text text-anchor="start" x="800" y="-164.3" font-family="Times,serif" font-size="14.00">Arbitrary Raw Data</text>
<polygon fill="none" stroke="black" points="795,-130.5 795,-155.5 952,-155.5 952,-130.5 795,-130.5"/>
<text text-anchor="start" x="800" y="-139.3" font-family="Times,serif" font-size="14.00">Processed Raw Data</text>
<polygon fill="none" stroke="black" points="795,-105.5 795,-130.5 952,-130.5 952,-105.5 795,-105.5"/>
<text text-anchor="start" x="800" y="-114.3" font-family="Times,serif" font-size="14.00">Aggregated Data</text>
<polygon fill="none" stroke="black" points="795,-80.5 795,-105.5 952,-105.5 952,-80.5 795,-80.5"/>
<text text-anchor="start" x="800" y="-89.3" font-family="Times,serif" font-size="14.00">Topology Graphs</text>
<polygon fill="none" stroke="black" points="795,-55.5 795,-80.5 952,-80.5 952,-55.5 795,-55.5"/>
<text text-anchor="start" x="800" y="-64.3" font-family="Times,serif" font-size="14.00">Formatted Reports</text>
</g>
<!-- dataParsers&#45;&gt;dataArtifacts -->
<g id="edge4" class="edge">
<title>dataParsers&#45;&gt;dataArtifacts</title>
<path fill="none" stroke="black" d="M658.05,-159.32C672.05,-156.01 687,-152.48 702.03,-148.94"/>
<polygon fill="black" stroke="black" points="702.98,-152.31 711.91,-146.61 701.37,-145.5 702.98,-152.31"/>
</g>
<!-- dataStorage&#45;&gt;dataArtifacts -->
<g id="edge5" class="edge">
<title>dataStorage&#45;&gt;dataArtifacts</title>
<path fill="none" stroke="black" d="M658.05,-78.38C672.05,-81.62 687,-85.09 702.03,-88.58"/>
<polygon fill="black" stroke="black" points="701.38,-92.02 711.91,-90.87 702.96,-85.2 701.38,-92.02"/>
</g>
</g>
</svg>
