<?xml version="1.0" encoding="UTF-8" standalone="no"?>
<!DOCTYPE svg PUBLIC "-//W3C//DTD SVG 1.1//EN"
 "http://www.w3.org/Graphics/SVG/1.1/DTD/svg11.dtd">
<!-- Generated by graphviz version 2.43.0 (0)
 -->
<!-- Title: netmeld Pages: 1 -->
<svg width="494pt" height="219pt"
 viewBox="0.00 0.00 494.00 219.00" xmlns="http://www.w3.org/2000/svg" xmlns:xlink="http://www.w3.org/1999/xlink">
<g id="graph0" class="graph" transform="scale(1 1) rotate(0) translate(4 215)">
<title>netmeld</title>
<polygon fill="white" stroke="transparent" points="-4,4 -4,-215 490,-215 490,4 -4,4"/>
<text text-anchor="middle" x="243" y="-7.8" font-family="Times,serif" font-size="14.00">Netmeld Tool Suite 2.x &#45;&#45; Core Components and General Dataflow</text>
<!-- objects -->
<g id="node1" class="node">
<title>objects</title>
<polygon fill="none" stroke="black" points="286.5,-209 162.5,-209 162.5,-141 286.5,-141 286.5,-209"/>
<text text-anchor="middle" x="224.5" y="-193.8" font-family="Times,serif" font-size="14.00">Objects</text>
<text text-anchor="start" x="170.5" y="-178.8" font-family="Times,serif" font-size="14.00">AbstractObject</text>
<text text-anchor="start" x="170.5" y="-163.8" font-family="Times,serif" font-size="14.00">Time</text>
<text text-anchor="start" x="170.5" y="-148.8" font-family="Times,serif" font-size="14.00">Uuid</text>
</g>
<!-- utils -->
<g id="node3" class="node">
<title>utils</title>
<polygon fill="none" stroke="black" points="484.5,-211 340.5,-211 340.5,-23 484.5,-23 484.5,-211"/>
<text text-anchor="middle" x="412.5" y="-195.8" font-family="Times,serif" font-size="14.00">Utils</text>
<text text-anchor="start" x="348.5" y="-180.8" font-family="Times,serif" font-size="14.00">CmdExec</text>
<text text-anchor="start" x="348.5" y="-165.8" font-family="Times,serif" font-size="14.00">Exit</text>
<text text-anchor="start" x="348.5" y="-150.8" font-family="Times,serif" font-size="14.00">FileManager</text>
<text text-anchor="start" x="348.5" y="-135.8" font-family="Times,serif" font-size="14.00">ForkExec</text>
<text text-anchor="start" x="348.5" y="-120.8" font-family="Times,serif" font-size="14.00">Logger</text>
<text text-anchor="start" x="348.5" y="-105.8" font-family="Times,serif" font-size="14.00">LoggerSingleton</text>
<text text-anchor="start" x="348.5" y="-90.8" font-family="Times,serif" font-size="14.00">ProgramOptions</text>
<text text-anchor="start" x="348.5" y="-75.8" font-family="Times,serif" font-size="14.00">Severity</text>
<text text-anchor="start" x="348.5" y="-60.8" font-family="Times,serif" font-size="14.00">StreamUtilities</text>
<text text-anchor="start" x="348.5" y="-45.8" font-family="Times,serif" font-size="14.00">StringUtilities</text>
<text text-anchor="start" x="348.5" y="-30.8" font-family="Times,serif" font-size="14.00">ThreadSafeQueue</text>
</g>
<!-- objects&#45;&gt;utils -->
<g id="edge3" class="edge">
<title>objects&#45;&gt;utils</title>
<path fill="none" stroke="black" d="M286.66,-155.93C300.73,-151.54 315.91,-146.81 330.67,-142.21"/>
<polygon fill="black" stroke="black" points="331.79,-145.52 340.29,-139.2 329.7,-138.84 331.79,-145.52"/>
</g>
<!-- tools -->
<g id="node2" class="node">
<title>tools</title>
<polygon fill="none" stroke="black" points="108.5,-136 1.5,-136 1.5,-98 108.5,-98 108.5,-136"/>
<text text-anchor="middle" x="55" y="-120.8" font-family="Times,serif" font-size="14.00">Tools</text>
<text text-anchor="start" x="9.5" y="-105.8" font-family="Times,serif" font-size="14.00">AbstractTool</text>
</g>
<!-- tools&#45;&gt;objects -->
<g id="edge1" class="edge">
<title>tools&#45;&gt;objects</title>
<path fill="none" stroke="black" d="M108.54,-135.19C122.55,-140.04 137.92,-145.36 152.73,-150.49"/>
<polygon fill="black" stroke="black" points="151.77,-153.87 162.36,-153.83 154.06,-147.25 151.77,-153.87"/>
</g>
<!-- tools&#45;&gt;utils -->
<g id="edge2" class="edge">
<title>tools&#45;&gt;utils</title>
<path fill="none" stroke="black" d="M108.54,-115.23C125.73,-114.72 144.93,-114.25 162.5,-114 217.61,-113.22 231.39,-113.34 286.5,-114 300.7,-114.17 315.8,-114.45 330.42,-114.77"/>
<polygon fill="black" stroke="black" points="330.37,-118.27 340.44,-115 330.53,-111.27 330.37,-118.27"/>
</g>
</g>
</svg>
