<?xml version="1.0" encoding="UTF-8" standalone="no"?>
<!DOCTYPE svg PUBLIC "-//W3C//DTD SVG 1.1//EN"
 "http://www.w3.org/Graphics/SVG/1.1/DTD/svg11.dtd">
<!-- Generated by graphviz version 2.43.0 (0)
 -->
<!-- Title: netmeld Pages: 1 -->
<svg width="491pt" height="219pt"
 viewBox="0.00 0.00 491.00 219.00" xmlns="http://www.w3.org/2000/svg" xmlns:xlink="http://www.w3.org/1999/xlink">
<g id="graph0" class="graph" transform="scale(1 1) rotate(0) translate(4 215)">
<title>netmeld</title>
<polygon fill="white" stroke="transparent" points="-4,4 -4,-215 487,-215 487,4 -4,4"/>
<text text-anchor="middle" x="241.5" y="-7.8" font-family="Times,serif" font-size="14.00">Netmeld Tool Suite 2.x &#45;&#45; Core</text>
<!-- objects -->
<g id="node1" class="node">
<title>objects</title>
<polygon fill="none" stroke="black" points="285,-209 161,-209 161,-141 285,-141 285,-209"/>
<text text-anchor="middle" x="223" y="-193.8" font-family="Times,serif" font-size="14.00">Objects</text>
<text text-anchor="start" x="169" y="-178.8" font-family="Times,serif" font-size="14.00">AbstractObject</text>
<text text-anchor="start" x="169" y="-163.8" font-family="Times,serif" font-size="14.00">Time</text>
<text text-anchor="start" x="169" y="-148.8" font-family="Times,serif" font-size="14.00">Uuid</text>
</g>
<!-- utils -->
<g id="node3" class="node">
<title>utils</title>
<polygon fill="none" stroke="black" points="483,-211 339,-211 339,-23 483,-23 483,-211"/>
<text text-anchor="middle" x="411" y="-195.8" font-family="Times,serif" font-size="14.00">Utils</text>
<text text-anchor="start" x="347" y="-180.8" font-family="Times,serif" font-size="14.00">CmdExec</text>
<text text-anchor="start" x="347" y="-165.8" font-family="Times,serif" font-size="14.00">Exit</text>
<text text-anchor="start" x="347" y="-150.8" font-family="Times,serif" font-size="14.00">FileManager</text>
<text text-anchor="start" x="347" y="-135.8" font-family="Times,serif" font-size="14.00">ForkExec</text>
<text text-anchor="start" x="347" y="-120.8" font-family="Times,serif" font-size="14.00">Logger</text>
<text text-anchor="start" x="347" y="-105.8" font-family="Times,serif" font-size="14.00">LoggerSingleton</text>
<text text-anchor="start" x="347" y="-90.8" font-family="Times,serif" font-size="14.00">ProgramOptions</text>
<text text-anchor="start" x="347" y="-75.8" font-family="Times,serif" font-size="14.00">Severity</text>
<text text-anchor="start" x="347" y="-60.8" font-family="Times,serif" font-size="14.00">StreamUtilities</text>
<text text-anchor="start" x="347" y="-45.8" font-family="Times,serif" font-size="14.00">StringUtilities</text>
<text text-anchor="start" x="347" y="-30.8" font-family="Times,serif" font-size="14.00">ThreadSafeQueue</text>
</g>
<!-- objects&#45;&gt;utils -->
<g id="edge3" class="edge">
<title>objects&#45;&gt;utils</title>
<path fill="none" stroke="black" d="M285.16,-155.93C299.23,-151.54 314.41,-146.81 329.17,-142.21"/>
<polygon fill="black" stroke="black" points="330.29,-145.52 338.79,-139.2 328.2,-138.84 330.29,-145.52"/>
</g>
<!-- tools -->
<g id="node2" class="node">
<title>tools</title>
<polygon fill="none" stroke="black" points="107,-136 0,-136 0,-98 107,-98 107,-136"/>
<text text-anchor="middle" x="53.5" y="-120.8" font-family="Times,serif" font-size="14.00">Tools</text>
<text text-anchor="start" x="8" y="-105.8" font-family="Times,serif" font-size="14.00">AbstractTool</text>
</g>
<!-- tools&#45;&gt;objects -->
<g id="edge1" class="edge">
<title>tools&#45;&gt;objects</title>
<path fill="none" stroke="black" d="M107.04,-135.19C121.05,-140.04 136.42,-145.36 151.23,-150.49"/>
<polygon fill="black" stroke="black" points="150.27,-153.87 160.86,-153.83 152.56,-147.25 150.27,-153.87"/>
</g>
<!-- tools&#45;&gt;utils -->
<g id="edge2" class="edge">
<title>tools&#45;&gt;utils</title>
<path fill="none" stroke="black" d="M107.04,-115.23C124.23,-114.72 143.43,-114.25 161,-114 216.11,-113.22 229.89,-113.34 285,-114 299.2,-114.17 314.3,-114.45 328.92,-114.77"/>
<polygon fill="black" stroke="black" points="328.87,-118.27 338.94,-115 329.03,-111.27 328.87,-118.27"/>
</g>
</g>
</svg>
