<?xml version="1.0" encoding="UTF-8" standalone="no"?>
<!DOCTYPE svg PUBLIC "-//W3C//DTD SVG 1.1//EN"
 "http://www.w3.org/Graphics/SVG/1.1/DTD/svg11.dtd">
<!-- Generated by graphviz version 2.43.0 (0)
 -->
<!-- Title: netmeld Pages: 1 -->
<svg width="711pt" height="314pt"
 viewBox="0.00 0.00 711.00 314.00" xmlns="http://www.w3.org/2000/svg" xmlns:xlink="http://www.w3.org/1999/xlink">
<g id="graph0" class="graph" transform="scale(1 1) rotate(0) translate(4 310)">
<title>netmeld</title>
<polygon fill="white" stroke="transparent" points="-4,4 -4,-310 707,-310 707,4 -4,4"/>
<text text-anchor="middle" x="351.5" y="-7.8" font-family="Times,serif" font-size="14.00">Netmeld Tool Suite 2.x &#45;&#45; Core Components and General Dataflow</text>
<!-- objects -->
<g id="node1" class="node">
<title>objects</title>
<polygon fill="none" stroke="black" points="439,-268 230,-268 230,-185 439,-185 439,-268"/>
<polygon fill="none" stroke="black" points="238.5,-188.5 238.5,-263.5 313.5,-263.5 313.5,-188.5 238.5,-188.5"/>
<text text-anchor="start" x="243.5" y="-222.3" font-family="Times,serif" font-size="14.00">Object(s)</text>
<polygon fill="none" stroke="black" points="313.5,-238.5 313.5,-263.5 431.5,-263.5 431.5,-238.5 313.5,-238.5"/>
<text text-anchor="start" x="318.5" y="-247.3" font-family="Times,serif" font-size="14.00">AbstractObject</text>
<polygon fill="none" stroke="black" points="313.5,-213.5 313.5,-238.5 431.5,-238.5 431.5,-213.5 313.5,-213.5"/>
<text text-anchor="start" x="318.5" y="-222.3" font-family="Times,serif" font-size="14.00">Time</text>
<polygon fill="none" stroke="black" points="313.5,-188.5 313.5,-213.5 431.5,-213.5 431.5,-188.5 313.5,-188.5"/>
<text text-anchor="start" x="318.5" y="-197.3" font-family="Times,serif" font-size="14.00">Uuid</text>
</g>
<!-- utils -->
<g id="node3" class="node">
<title>utils</title>
<polygon fill="none" stroke="black" points="703,-306 493,-306 493,-23 703,-23 703,-306"/>
<polygon fill="none" stroke="black" points="501,-26.5 501,-301.5 557,-301.5 557,-26.5 501,-26.5"/>
<text text-anchor="start" x="506" y="-160.3" font-family="Times,serif" font-size="14.00">Util(s)</text>
<polygon fill="none" stroke="black" points="557,-276.5 557,-301.5 695,-301.5 695,-276.5 557,-276.5"/>
<text text-anchor="start" x="562" y="-285.3" font-family="Times,serif" font-size="14.00">CmdExec</text>
<polygon fill="none" stroke="black" points="557,-251.5 557,-276.5 695,-276.5 695,-251.5 557,-251.5"/>
<text text-anchor="start" x="562" y="-260.3" font-family="Times,serif" font-size="14.00">Exit</text>
<polygon fill="none" stroke="black" points="557,-226.5 557,-251.5 695,-251.5 695,-226.5 557,-226.5"/>
<text text-anchor="start" x="562" y="-235.3" font-family="Times,serif" font-size="14.00">FileManager</text>
<polygon fill="none" stroke="black" points="557,-201.5 557,-226.5 695,-226.5 695,-201.5 557,-201.5"/>
<text text-anchor="start" x="562" y="-210.3" font-family="Times,serif" font-size="14.00">ForkExec</text>
<polygon fill="none" stroke="black" points="557,-176.5 557,-201.5 695,-201.5 695,-176.5 557,-176.5"/>
<text text-anchor="start" x="562" y="-185.3" font-family="Times,serif" font-size="14.00">Logger</text>
<polygon fill="none" stroke="black" points="557,-151.5 557,-176.5 695,-176.5 695,-151.5 557,-151.5"/>
<text text-anchor="start" x="562" y="-160.3" font-family="Times,serif" font-size="14.00">LoggerSingleton</text>
<polygon fill="none" stroke="black" points="557,-126.5 557,-151.5 695,-151.5 695,-126.5 557,-126.5"/>
<text text-anchor="start" x="562" y="-135.3" font-family="Times,serif" font-size="14.00">ProgramOptions</text>
<polygon fill="none" stroke="black" points="557,-101.5 557,-126.5 695,-126.5 695,-101.5 557,-101.5"/>
<text text-anchor="start" x="562" y="-110.3" font-family="Times,serif" font-size="14.00">Severity</text>
<polygon fill="none" stroke="black" points="557,-76.5 557,-101.5 695,-101.5 695,-76.5 557,-76.5"/>
<text text-anchor="start" x="562" y="-85.3" font-family="Times,serif" font-size="14.00">StreamUtilities</text>
<polygon fill="none" stroke="black" points="557,-51.5 557,-76.5 695,-76.5 695,-51.5 557,-51.5"/>
<text text-anchor="start" x="562" y="-60.3" font-family="Times,serif" font-size="14.00">StringUtilities</text>
<polygon fill="none" stroke="black" points="557,-26.5 557,-51.5 695,-51.5 695,-26.5 557,-26.5"/>
<text text-anchor="start" x="562" y="-35.3" font-family="Times,serif" font-size="14.00">ThreadSafeQueue</text>
</g>
<!-- objects&#45;&gt;utils -->
<g id="edge3" class="edge">
<title>objects&#45;&gt;utils</title>
<path fill="none" stroke="black" d="M439.23,-201.91C453.59,-198.5 468.42,-194.99 482.96,-191.54"/>
<polygon fill="black" stroke="black" points="484.05,-194.88 492.97,-189.16 482.43,-188.07 484.05,-194.88"/>
</g>
<!-- tools -->
<g id="node2" class="node">
<title>tools</title>
<polygon fill="none" stroke="black" points="176,-182.5 0,-182.5 0,-146.5 176,-146.5 176,-182.5"/>
<polygon fill="none" stroke="black" points="8,-151.5 8,-176.5 67,-176.5 67,-151.5 8,-151.5"/>
<text text-anchor="start" x="13" y="-160.3" font-family="Times,serif" font-size="14.00">Tool(s)</text>
<polygon fill="none" stroke="black" points="67,-151.5 67,-176.5 168,-176.5 168,-151.5 67,-151.5"/>
<text text-anchor="start" x="72" y="-160.3" font-family="Times,serif" font-size="14.00">AbstractTool</text>
</g>
<!-- tools&#45;&gt;objects -->
<g id="edge1" class="edge">
<title>tools&#45;&gt;objects</title>
<path fill="none" stroke="black" d="M160.05,-182.52C178.91,-187.3 199.77,-192.59 220.28,-197.79"/>
<polygon fill="black" stroke="black" points="219.43,-201.19 229.99,-200.25 221.16,-194.4 219.43,-201.19"/>
</g>
<!-- tools&#45;&gt;utils -->
<g id="edge2" class="edge">
<title>tools&#45;&gt;utils</title>
<path fill="none" stroke="black" d="M176.23,-160.21C194.02,-159.5 212.61,-158.87 230,-158.5 322.87,-156.52 346.13,-156.74 439,-158.5 453.16,-158.77 468.03,-159.17 482.75,-159.65"/>
<polygon fill="black" stroke="black" points="482.79,-163.15 492.9,-159.99 483.03,-156.15 482.79,-163.15"/>
</g>
</g>
</svg>
