<?xml version="1.0" encoding="UTF-8"?>
<!-- Generator: Adobe Illustrator 18.1.1, SVG Export Plug-In . SVG Version: 6.00 Build 0)  -->
<!DOCTYPE svg PUBLIC "-//W3C//DTD SVG 1.1//EN" "http://www.w3.org/Graphics/SVG/1.1/DTD/svg11.dtd">
<svg version="1.1" id="_x31_0" xmlns="http://www.w3.org/2000/svg" xmlns:xlink="http://www.w3.org/1999/xlink" x="0px" y="0px" viewBox="0 0 512 512" style="enable-background:new 0 0 512 512;" xml:space="preserve">
<style type="text/css">
	.st0{fill:#374149;}
</style>
<g>
	<path class="st0" d="M486.293,102.193H208.66c-14.195,0-25.707,11.508-25.707,25.707v195.371c0,14.195,11.512,25.706,25.707,25.706   h277.633c14.199,0,25.707-11.511,25.707-25.706V127.9C512,113.701,500.492,102.193,486.293,102.193z M486.293,127.9v176.992v0.379   H208.66V127.9h276.946H486.293z"/>
	<path class="st0" d="M442.926,397.724l-22.312-7.246c-8.406-3.034-14.012-11.031-14.012-19.976v-11.234h-118.25v11.234   c0,8.945-5.605,16.942-14.011,19.976l-22.313,7.246c-0.949,0.309-1.594,1.211-1.594,2.187v7.61c0,1.258,1.027,2.286,2.289,2.286   H442.23c1.262,0,2.289-1.028,2.289-2.286v-7.61C444.519,398.936,443.879,398.033,442.926,397.724z"/>
	<path class="st0" d="M120.218,127.998H19.031C8.547,127.998,0,136.568,0,147.029v160.34h139.254v-160.34   C139.254,136.568,130.68,127.998,120.218,127.998z M26.402,209.701h86.426c1.746,0,3.188,1.418,3.188,3.164v9.562   c0,1.774-1.442,3.191-3.188,3.191H26.402c-1.75,0-3.164-1.418-3.164-3.191v-9.562C23.238,211.119,24.652,209.701,26.402,209.701z    M112.828,183.181H26.402c-1.75,0-3.164-1.414-3.164-3.164v-9.562c0-1.75,1.414-3.187,3.164-3.187h86.426   c1.746,0,3.188,1.438,3.188,3.187v9.562C116.016,181.768,114.574,183.181,112.828,183.181z"/>
	<path class="st0" d="M0,390.776c0,10.461,8.547,19.031,19.031,19.031h101.187c10.462,0,19.035-8.57,19.035-19.031v-73.962H0   V390.776z M69.614,379.108c-9.114,0-16.528-7.414-16.528-16.528c0-9.14,7.414-16.531,16.528-16.531   c9.14,0,16.531,7.391,16.531,16.531C86.145,371.693,78.754,379.108,69.614,379.108z"/>
</g>
</svg>