<?xml version="1.0" encoding="UTF-8" standalone="no"?>
<!--?xml version="1.0" encoding="utf-8"?-->

<!-- Generator: Adobe Illustrator 18.0.0, SVG Export Plug-In . SVG Version: 6.00 Build 0)  -->

<svg
   xmlns:dc="http://purl.org/dc/elements/1.1/"
   xmlns:cc="http://creativecommons.org/ns#"
   xmlns:rdf="http://www.w3.org/1999/02/22-rdf-syntax-ns#"
   xmlns:svg="http://www.w3.org/2000/svg"
   xmlns="http://www.w3.org/2000/svg"
   xmlns:sodipodi="http://sodipodi.sourceforge.net/DTD/sodipodi-0.dtd"
   xmlns:inkscape="http://www.inkscape.org/namespaces/inkscape"
   version="1.1"
   id="_x31_0"
   x="0px"
   y="0px"
   viewBox="0 0 512 512"
   style="width: 512px; height: 512px; opacity: 1;"
   xml:space="preserve"
   inkscape:version="0.48.5 r10040"
   width="100%"
   height="100%"
   sodipodi:docname="Question mark free icon 1.svg"><metadata
     id="metadata15"><rdf:RDF><cc:Work
         rdf:about=""><dc:format>image/svg+xml</dc:format><dc:type
           rdf:resource="http://purl.org/dc/dcmitype/StillImage" /><dc:title></dc:title></cc:Work></rdf:RDF></metadata><defs
     id="defs13" /><sodipodi:namedview
     pagecolor="#ffffff"
     bordercolor="#666666"
     borderopacity="1"
     objecttolerance="10"
     gridtolerance="10"
     guidetolerance="10"
     inkscape:pageopacity="0"
     inkscape:pageshadow="2"
     inkscape:window-width="640"
     inkscape:window-height="480"
     id="namedview11"
     showgrid="false"
     inkscape:zoom="0.4609375"
     inkscape:cx="256"
     inkscape:cy="256"
     inkscape:window-x="0"
     inkscape:window-y="27"
     inkscape:window-maximized="0"
     inkscape:current-layer="_x31_0" /><style
     type="text/css"
     id="style3">
	.st0{fill:#374149;}
</style><g
     id="g5"><path
       style="fill: rgb(75, 75, 75);"
       class="st0"
       d="M410.121,104.829c-0.836-2.351-1.793-4.656-2.863-6.91C368.578,16.642,280.997-19.62,196.173,10.532   c-2.351,0.836-4.66,1.793-6.91,2.863c-62.09,29.555-97.914,87.652-97.914,151.254c0,4.734,21.906,8.57,48.93,8.57   c27.019,0,48.926-3.836,48.926-8.57h-0.281c0-17.918,6.976-34.762,19.644-47.43c12.668-12.672,29.516-19.648,47.434-19.648   s34.766,6.976,47.434,19.644c12.668,12.672,19.648,29.516,19.648,47.434c0,30.738-20.534,58.321-55.121,67.082   c-33.55,0-60.746,27.195-60.746,60.746v85.606h97.57v-47.625c0-4.954,3.102-9.375,7.754-11.074   c22.25-8.114,42.644-21.062,59.886-38.309C417.41,236.09,433.165,169.653,410.121,104.829z"
       id="path7" /><polygon
       style="fill: rgb(75, 75, 75);"
       class="st0"
       points="213.067,512 298.934,512 304.785,419.29 207.216,419.29  "
       id="polygon9" /></g></svg>