<?xml version="1.0" encoding="UTF-8"?>
<!-- Generator: Adobe Illustrator 15.0.2, SVG Export Plug-In  -->
<!DOCTYPE svg PUBLIC "-//W3C//DTD SVG 1.1//EN" "http://www.w3.org/Graphics/SVG/1.1/DTD/svg11.dtd" [
	<!ENTITY ns_flows "http://ns.adobe.com/Flows/1.0/">
]>
<svg version="1.1" xmlns="http://www.w3.org/2000/svg" xmlns:xlink="http://www.w3.org/1999/xlink" xmlns:a="http://ns.adobe.com/AdobeSVGViewerExtensions/3.0/" x="0px" y="0px" width="250px" height="146px" viewBox="0 0 250 146" enable-background="new 0 0 250 146" xml:space="preserve">
<defs>
</defs>
<rect x="74.041" y="82.099" fill="#0096D6" width="9.367" height="37.118"/>
<path fill="#0096D6" d="M158.933,92.735c-0.383-0.197-3.402-1.981-7.881-1.981c-6.055,0-10.256,4.216-10.256,9.9  c0,5.517,4.021,9.909,10.256,9.909c4.404,0,7.469-1.747,7.881-1.97v9.963c-1.177,0.331-4.375,1.321-8.536,1.321  c-10.535,0-19.783-7.264-19.783-19.224c0-11.085,8.368-19.212,19.783-19.212c4.392,0,7.649,1.069,8.536,1.33V92.735z"/>
<path fill="#0096D6" d="M61.165,92.735c-0.377-0.197-3.39-1.981-7.869-1.981c-6.067,0-10.266,4.216-10.266,9.9  c0,5.517,4.024,9.909,10.266,9.909c4.404,0,7.466-1.747,7.869-1.97v9.963c-1.165,0.331-4.358,1.321-8.542,1.321  c-10.529,0-19.766-7.264-19.766-19.224c0-11.085,8.368-19.212,19.766-19.212c4.407,0,7.661,1.069,8.542,1.33V92.735z"/>
<path fill="#0096D6" d="M208.012,100.653c0,10.619-8.198,19.224-19.613,19.224c-11.416,0-19.604-8.605-19.604-19.224  c0-10.601,8.188-19.212,19.604-19.212C199.814,81.441,208.012,90.053,208.012,100.653z M188.399,90.893  c-5.558,0-9.684,4.372-9.684,9.761c0,5.401,4.126,9.771,9.684,9.771c5.551,0,9.688-4.37,9.688-9.771  C198.086,95.265,193.95,90.893,188.399,90.893z"/>
<path fill="#0096D6" d="M118.929,90.537c-0.139-0.044-4.083-1.133-7.322-1.133c-3.754,0-5.794,1.257-5.794,3.042  c0,2.259,2.752,3.047,4.293,3.534l2.585,0.823c6.079,1.932,8.849,6.096,8.849,10.619c0,9.324-8.2,12.456-15.368,12.456  c-4.983,0-9.648-0.916-10.109-1.014v-8.542c0.826,0.209,4.751,1.379,8.846,1.379c4.659,0,6.802-1.361,6.802-3.465  c0-1.88-1.854-2.966-4.177-3.697c-0.568-0.188-1.42-0.454-2-0.646c-5.218-1.648-9.567-4.713-9.567-10.859  c0-6.942,5.198-11.604,13.832-11.604c4.561,0,8.852,1.106,9.13,1.182V90.537z"/>
<path fill="#0096D6" d="M22.925,42.208c0-2.558-2.089-4.633-4.65-4.633c-2.559,0-4.65,2.075-4.65,4.633v9.744  c0,2.573,2.092,4.647,4.65,4.647c2.561,0,4.65-2.074,4.65-4.647V42.208z"/>
<path fill="#0096D6" d="M48.468,29.42c0-2.558-2.089-4.636-4.65-4.636c-2.561,0-4.65,2.078-4.65,4.636v22.532  c0,2.573,2.089,4.647,4.65,4.647c2.562,0,4.65-2.074,4.65-4.647V29.42z"/>
<path fill="#0096D6" d="M74.011,11.923c0-2.558-2.089-4.633-4.65-4.633c-2.562,0-4.65,2.075-4.65,4.633v49.289  c0,2.573,2.089,4.647,4.65,4.647c2.561,0,4.65-2.074,4.65-4.647V11.923z"/>
<path fill="#0096D6" d="M99.554,29.42c0-2.558-2.089-4.636-4.65-4.636c-2.561,0-4.65,2.078-4.65,4.636v22.532  c0,2.573,2.089,4.647,4.65,4.647c2.562,0,4.65-2.074,4.65-4.647V29.42z"/>
<path fill="#0096D6" d="M125.068,42.208c0-2.558-2.074-4.633-4.621-4.633c-2.562,0-4.65,2.075-4.65,4.633v9.744  c0,2.573,2.088,4.647,4.65,4.647c2.546,0,4.621-2.074,4.621-4.647V42.208z"/>
<path fill="#0096D6" d="M150.623,29.42c0-2.558-2.075-4.636-4.636-4.636c-2.555,0-4.635,2.078-4.635,4.636v22.532  c0,2.573,2.08,4.647,4.635,4.647c2.561,0,4.636-2.074,4.636-4.647V29.42z"/>
<path fill="#0096D6" d="M176.182,11.923c0-2.558-2.074-4.633-4.635-4.633c-2.561,0-4.636,2.075-4.636,4.633v49.289  c0,2.573,2.075,4.647,4.636,4.647c2.561,0,4.635-2.074,4.635-4.647V11.923z"/>
<path fill="#0096D6" d="M201.737,29.42c0-2.558-2.074-4.636-4.693-4.636c-2.561,0-4.636,2.078-4.636,4.636v22.532  c0,2.573,2.075,4.647,4.636,4.647c2.619,0,4.693-2.074,4.693-4.647V29.42z"/>
<path fill="#0096D6" d="M227.24,42.208c0-2.558-2.08-4.633-4.636-4.633c-2.562,0-4.642,2.075-4.642,4.633v9.744  c0,2.573,2.08,4.647,4.642,4.647c2.556,0,4.636-2.074,4.636-4.647V42.208z"/>
<path fill="#0096D6" d="M221.879,114.329v0.582h-1.654v4.306h-0.681v-4.306h-1.663v-0.582H221.879z"/>
<path fill="#0096D6" d="M222.227,114.329h1.066l1.461,4.007h0.025l1.414-4.007h1.046v4.888h-0.698v-4.007h-0.023l-1.483,4.007  h-0.646l-1.446-4.007h-0.032v4.007h-0.684V114.329z"/>
<rect id="_x3C_Slice_x3E__3_" x="44" y="4" fill="none" width="206" height="142"/>
<rect id="_x3C_Slice_x3E__2_" fill="none" width="250" height="146"/>
</svg>
