<?xml version="1.0" encoding="UTF-8" standalone="no"?>
<!--?xml version="1.0" encoding="utf-8"?-->

<!-- Generator: Adobe Illustrator 19.1.1, SVG Export Plug-In . SVG Version: 6.00 Build 0)  -->

<svg
   xmlns:dc="http://purl.org/dc/elements/1.1/"
   xmlns:cc="http://creativecommons.org/ns#"
   xmlns:rdf="http://www.w3.org/1999/02/22-rdf-syntax-ns#"
   xmlns:svg="http://www.w3.org/2000/svg"
   xmlns="http://www.w3.org/2000/svg"
   xmlns:sodipodi="http://sodipodi.sourceforge.net/DTD/sodipodi-0.dtd"
   xmlns:inkscape="http://www.inkscape.org/namespaces/inkscape"
   version="1.1"
   id="_x31_0"
   x="0px"
   y="0px"
   viewBox="0 0 512 512"
   style="width: 256px; height: 256px; opacity: 1;"
   xml:space="preserve"
   inkscape:version="0.48.5 r10040"
   width="100%"
   height="100%"
   sodipodi:docname="why.svg"><metadata
     id="metadata17"><rdf:RDF><cc:Work
         rdf:about=""><dc:format>image/svg+xml</dc:format><dc:type
           rdf:resource="http://purl.org/dc/dcmitype/StillImage" /><dc:title></dc:title></cc:Work></rdf:RDF></metadata><defs
     id="defs15" /><sodipodi:namedview
     pagecolor="#ffffff"
     bordercolor="#666666"
     borderopacity="1"
     objecttolerance="10"
     gridtolerance="10"
     guidetolerance="10"
     inkscape:pageopacity="0"
     inkscape:pageshadow="2"
     inkscape:window-width="640"
     inkscape:window-height="480"
     id="namedview13"
     showgrid="false"
     inkscape:zoom="0.4609375"
     inkscape:cx="256"
     inkscape:cy="256"
     inkscape:window-x="0"
     inkscape:window-y="27"
     inkscape:window-maximized="0"
     inkscape:current-layer="_x31_0" /><style
     type="text/css"
     id="style3">
	.st0{fill:#374149;}
</style><g
     id="g5"><polygon
       style="fill: rgb(75, 75, 75);"
       class="st0"
       points="450.59,498.027 450.59,464.574 311.168,464.574 310.742,464.574 310.742,464.574 310.582,464.574    310.582,497.766 310.582,497.867 310.582,497.867 310.582,498.027  "
       id="polygon7" /><polygon
       style="fill: rgb(75, 75, 75);"
       class="st0"
       points="201.422,498.027 201.422,464.574 62,464.574 61.574,464.574 61.574,464.574 61.414,464.574    61.414,497.766 61.414,497.867 61.414,497.867 61.414,498.027  "
       id="polygon9" /><path
       style="fill: rgb(75, 75, 75);"
       class="st0"
       d="M239.813,428.875v18.718h-24.942V512h82.258v-64.406h-24.934v-18.718   c111.043-8.29,198.574-100.942,198.574-214.102C470.77,96.16,374.614,0,256,0S41.23,96.16,41.23,214.774   C41.23,327.938,128.766,420.59,239.813,428.875z M109.39,148.207c16.157-35.442,44.766-64.031,80.234-80.145   c-9.211,16.203-16.82,35.817-22.394,57.938c-17.855,4.5-33.973,10.383-48.086,17.305C115.82,144.898,112.512,146.5,109.39,148.207z    M176.926,214.774c0-25.438,2.602-49.797,7.203-71.871c22.078-4.602,46.438-7.203,71.875-7.203c25.434,0,49.793,2.602,71.867,7.199   c4.602,22.078,7.203,46.438,7.203,71.875s-2.602,49.793-7.203,71.871c-22.074,4.598-46.434,7.199-71.867,7.199   c-25.438,0-49.797-2.602-71.875-7.203C179.527,264.566,176.926,240.211,176.926,214.774z M109.293,281.149   c16.203,9.21,35.817,16.82,57.938,22.394c4.5,17.855,10.379,33.969,17.305,48.082c1.59,3.328,3.195,6.637,4.898,9.758   C153.992,345.226,125.406,316.617,109.293,281.149z M256.004,313.981c20.574,0,40.222-1.622,58.714-4.473   c2.586-0.375,5.203-0.703,7.762-1.125c-7.84,27-18.883,49.195-31.836,63.675c-11.168,2.458-22.75,3.793-34.645,3.793   c-11.894,0-23.481-1.335-34.645-3.793c-12.969-14.492-24.015-36.714-31.859-63.746C210.18,311.977,232.543,313.981,256.004,313.981   z M322.481,361.278c9.164-16.161,16.738-35.699,22.289-57.734c22.121-5.57,41.734-13.18,57.938-22.394   c-13.266,29.199-35.07,53.625-62.106,70.406C334.778,355.125,328.785,358.457,322.481,361.278z M344.77,126   c-5.574-22.121-13.184-41.738-22.394-57.938c29.195,13.262,53.617,35.066,70.402,62.102c3.57,5.824,6.906,11.817,9.726,18.125   C386.34,139.125,366.801,131.55,344.77,126z M322.426,121.218c-20.66-3.656-42.992-5.656-66.422-5.656   c-20.57,0-40.219,1.621-58.707,4.469c-2.59,0.379-5.211,0.707-7.778,1.133c7.84-27.004,18.883-49.199,31.836-63.68   c11.168-2.457,22.75-3.789,34.645-3.789c11.894,0,23.477,1.332,34.641,3.789c11.438,12.782,21.374,31.582,28.941,54.383   C320.57,114.914,321.523,118.023,322.426,121.218z M156.793,214.774c0,20.586,1.621,40.254,4.481,58.754   c0.374,2.574,0.699,5.176,1.121,7.726c-27-7.843-49.199-18.882-63.68-31.839c-2.457-11.164-3.793-22.75-3.793-34.641   c0-11.894,1.336-23.481,3.793-34.645c14.493-12.969,36.715-24.019,63.75-31.859C158.793,168.95,156.793,191.313,156.793,214.774z    M349.55,281.199c3.661-20.66,5.661-42.996,5.661-66.426c0-23.461-2.004-45.824-5.676-66.508   c27.035,7.844,49.258,18.89,63.75,31.859c2.458,11.168,3.794,22.75,3.794,34.649c0,11.894-1.336,23.477-3.794,34.644   c-12.777,11.434-31.578,21.371-54.382,28.942C355.859,279.348,352.746,280.297,349.55,281.199z"
       id="path11" /></g></svg>