<?xml version="1.0" encoding="UTF-8"?>
<!-- Generator: Adobe Illustrator 21.0.0, SVG Export Plug-In . SVG Version: 6.00 Build 0)  -->
<svg version="1.1" id="Layer_1" xmlns="http://www.w3.org/2000/svg" xmlns:xlink="http://www.w3.org/1999/xlink" x="0px" y="0px" viewBox="0 0 318.2 86.9" style="enable-background:new 0 0 318.2 86.9;" xml:space="preserve">
<style type="text/css">
	.st0{fill:#6F8FA6;}
	.st1{fill:#1D1D1B;}
</style>
<polygon class="st0" points="156,69.8 158,69.8 168.1,83.7 168.1,69.8 169.8,69.8 169.8,86.7 168.2,86.7 157.8,72.4 157.8,86.7   156,86.7 "/>
<polygon class="st0" points="174.1,69.8 185.2,69.8 185.2,71.5 175.9,71.5 175.9,77.1 185,77.1 185,78.8 175.9,78.8 175.9,85   185.3,85 185.3,86.7 174.1,86.7 "/>
<polygon class="st0" points="194.2,71.5 187.9,71.5 187.9,69.8 202.4,69.8 202.4,71.5 196,71.5 196,86.7 194.2,86.7 "/>
<polygon class="st0" points="204.5,69.8 206.4,69.8 210.8,83.8 215.3,69.8 216.9,69.8 221.4,83.8 225.8,69.8 227.6,69.8 222.2,86.8   220.6,86.8 216.1,72.8 211.5,86.8 210,86.8 "/>
<path class="st0" d="M229.2,78.2c0-6,3.1-8.7,8.5-8.7c5.4,0,8.5,2.7,8.5,8.7c0,6-3.1,8.7-8.5,8.7C232.2,86.9,229.2,84.3,229.2,78.2   M244.3,78.3c0-4.5-2.1-7-6.7-7c-4.6,0-6.7,2.5-6.7,7c0,4.6,2.1,7,6.7,7C242.2,85.3,244.3,82.8,244.3,78.3"/>
<path class="st0" d="M256.6,79.8h-5v6.9h-1.8V69.8h7.3c3.9,0,5.7,1.6,5.7,4.9c0,2.9-1.4,4.6-4.3,5l4.1,6.9h-1.9L256.6,79.8z   M257.1,78.2c2.4,0,3.9-0.7,3.9-3.4c0-2.6-1.4-3.3-3.9-3.3h-5.5v6.7H257.1z"/>
<polygon class="st0" points="271.7,77.7 268.3,81.4 268.3,86.7 266.6,86.7 266.6,69.8 268.3,69.8 268.3,79.1 276.8,69.8 278.9,69.8   272.9,76.4 279.7,86.7 277.7,86.7 "/>
<path class="st0" d="M281.2,85l0.9-1.4c2,1.3,4,1.7,6,1.7c3.5,0,5-1,5-3.3c0-2.4-2-2.7-5-3.3c-3.6-0.6-6.1-1.3-6.1-4.7  c0-3.3,2.1-4.5,6.1-4.5c2.6,0,4.5,0.6,5.9,1.5l-1,1.5c-1.2-0.8-3-1.3-4.9-1.3c-3,0-4.3,0.8-4.3,2.8c0,2.1,1.7,2.5,4.7,3.1  c3.7,0.7,6.3,1.2,6.3,4.8c0,3.3-2.1,5-6.7,5C285.7,86.9,283.4,86.4,281.2,85"/>
<path class="st1" d="M312.5,0.2c-23.7,0-24.7,10.6-24.7,25.6v36.7h5.6V25.8c0-11.3-0.4-20.3,19.1-20.3c2.1,0,4,0.1,5.6,0.3V0.5  C316.4,0.3,314.6,0.2,312.5,0.2"/>
<path class="st1" d="M36.4,38.6V1.5h5.7v37.3c0,10.7-0.1,19.8,19.5,19.8c19.5,0,19.1-9,19.1-20.3V1.5h5.6v36.7  c0,15-1,25.6-24.7,25.6C37.9,63.8,36.4,53.2,36.4,38.6"/>
<path class="st1" d="M145.7,25.3v37.2H140V25.2c0-10.7,0.1-19.8-19.5-19.8c-19.5,0-19.1,9-19.1,20.3v36.7h-5.6V25.8  c0-15,1-25.6,24.7-25.6C144.2,0.2,145.7,10.8,145.7,25.3"/>
<rect x="156" y="1.6" class="st1" width="5.5" height="61"/>
<path class="st1" d="M171.7,1.6h28.5c14.2,0,20.6,7,20.6,19.5c0,12.6-6.3,20.2-20.6,20.2h-23v21.2h-5.5V1.6z M200.4,35.9  c9.9,0,14.8-4.8,14.8-14.5c0-9.7-5.3-14.3-15-14.3h-22.9v28.8H200.4z"/>
<path class="st1" d="M227.2,31.8c0-18,5.1-31.8,28.1-31.8c23.8,0,24.6,16,24.5,32.8h-47.1c0.1,14.9,3.8,25.9,23.1,25.9  c10.3,0,15-2.8,20-6.5l3.1,4.1c-5.6,4.1-12.2,7.4-23.1,7.4C231.7,63.8,227.2,49.8,227.2,31.8 M232.8,27.7h41.5  c-0.6-12.2-1.3-22.6-19.1-22.6C238.2,5.1,233.5,14.4,232.8,27.7"/>
<path class="st1" d="M2.1,75.8c23.7,0,24.7-10.6,24.7-25.6V1.5h-5.6v48.7c0,11.3,0.4,20.3-19.1,20.3c-0.7,0-1.4,0-2.1,0v5.3  C0.7,75.8,1.4,75.8,2.1,75.8"/>
<path class="st1" d="M305.7,62.8c-2.1,0-3.9-1.7-3.9-3.9c0-2.1,1.7-3.9,3.9-3.9c2.1,0,3.8,1.7,3.8,3.9  C309.5,61.1,307.8,62.8,305.7,62.8 M305.7,55.6c-1.9,0-3.4,1.5-3.4,3.4c0,1.8,1.5,3.4,3.4,3.4c1.8,0,3.4-1.5,3.4-3.4  C309,57.1,307.5,55.6,305.7,55.6"/>
<path class="st1" d="M305.9,59.5h-1.2v1.7h-0.6v-4.4h2c1.1,0,1.6,0.5,1.6,1.3c0,0.7-0.3,1.2-1.1,1.3l1,1.7h-0.6L305.9,59.5z   M306,58.9c0.6,0,1-0.2,1-0.8c0-0.6-0.3-0.8-1-0.8h-1.4v1.6H306z"/>
</svg>