<?xml version="1.0" encoding="UTF-8"?>
<!-- Generator: Adobe Illustrator 19.1.1, SVG Export Plug-In . SVG Version: 6.00 Build 0)  -->
<svg version="1.1" id="_x31_0" xmlns="http://www.w3.org/2000/svg" xmlns:xlink="http://www.w3.org/1999/xlink" x="0px" y="0px" viewBox="0 0 512 512" style="enable-background:new 0 0 512 512;" xml:space="preserve">
<style type="text/css">
	.st0{fill:#374149;}
</style>
<g>
	<path class="st0" d="M22.641,410.029h466.801c12.48,0,22.558-10.16,22.558-22.641v-122.48c0-12.477-10.078-22.559-22.558-22.559   h-50.45l-19.207-0.062l35.867-86.137c0.734-1.77,0.734-3.718,0.004-5.488c-0.73-1.774-2.106-3.153-3.871-3.886l-0.191-0.082   l29.672-71.266c1.508-3.629-0.218-7.817-3.848-9.328l-7.835-3.266c-3.633-1.508-7.813,0.218-9.329,3.847l-12.734,30.586   l-17.133,40.594l0,0c-3.652-1.516-7.855,0.218-9.374,3.867l-40.5,97.266c-0.458,1.098-0.676,2.226-0.778,3.355H132.266   c-0.102-1.129-0.32-2.258-0.778-3.359l-40.492-97.258c0,0,0,0-0.004-0.004c-0.734-1.766-2.113-3.141-3.886-3.875   c-1.77-0.726-3.715-0.726-5.492,0.012l-0.192,0.082L51.75,66.677c-1.516-3.625-5.684-5.351-9.333-3.839l-7.835,3.262   c-3.626,1.515-5.352,5.699-3.84,9.332l13.086,31.434l16.398,39.906l0,0c-1.774,0.734-3.152,2.117-3.882,3.894   c-0.73,1.766-0.727,3.714,0.011,5.488l25.95,62.321l9.871,23.874H22.641C10.16,242.349,0,252.431,0,264.908v122.48   C0,399.869,10.16,410.029,22.641,410.029z M283.672,327.263l-6.527,29.195l-1.465,6.371h0.038l-0.038,0.16h14l8-35.762h26.437   l5.637,0.035l-6.531,29.195l-1.461,6.371h0.035l-0.035,0.16h14l8-35.762h26.434l5.641,0.035l-6.531,29.195l-1.461,6.371h0.035   l-0.035,0.16h14l8-35.762h87.359v47.922H34.883v-47.922h204.113L283.672,327.263z M34.883,314.189V277.15h442.32v37.039H34.883z"/>
	<path class="st0" d="M39.129,421.404v22.867c0,3.004,2.442,5.441,5.446,5.441h45.734c3.008,0,5.445-2.437,5.445-5.441v-22.637   v-0.07l0,0v-0.16H39.129z"/>
	<path class="st0" d="M416.289,420.002v22.004c0,3.246,2.633,5.874,5.875,5.874h44.875c3.242,0,5.875-2.629,5.875-5.874v-22.004   c0-0.238-0.196-0.434-0.43-0.434h-55.762C416.484,419.568,416.289,419.763,416.289,420.002z"/>
</g>
</svg>