<?xml version="1.0" encoding="UTF-8" standalone="no"?>
<!--?xml version="1.0" encoding="utf-8"?-->

<!-- Generator: Adobe Illustrator 19.1.1, SVG Export Plug-In . SVG Version: 6.00 Build 0)  -->

<svg
   xmlns:dc="http://purl.org/dc/elements/1.1/"
   xmlns:cc="http://creativecommons.org/ns#"
   xmlns:rdf="http://www.w3.org/1999/02/22-rdf-syntax-ns#"
   xmlns:svg="http://www.w3.org/2000/svg"
   xmlns="http://www.w3.org/2000/svg"
   xmlns:sodipodi="http://sodipodi.sourceforge.net/DTD/sodipodi-0.dtd"
   xmlns:inkscape="http://www.inkscape.org/namespaces/inkscape"
   version="1.1"
   id="_x31_0"
   x="0px"
   y="0px"
   viewBox="0 0 512 512"
   style="width: 512px; height: 512px; opacity: 1;"
   xml:space="preserve"
   inkscape:version="0.48.5 r10040"
   width="100%"
   height="100%"
   sodipodi:docname="Network Server free icon 3.svg"><metadata
     id="metadata303"><rdf:RDF><cc:Work
         rdf:about=""><dc:format>image/svg+xml</dc:format><dc:type
           rdf:resource="http://purl.org/dc/dcmitype/StillImage" /><dc:title></dc:title></cc:Work></rdf:RDF></metadata><defs
     id="defs301" /><sodipodi:namedview
     pagecolor="#ffffff"
     bordercolor="#666666"
     borderopacity="1"
     objecttolerance="10"
     gridtolerance="10"
     guidetolerance="10"
     inkscape:pageopacity="0"
     inkscape:pageshadow="2"
     inkscape:window-width="640"
     inkscape:window-height="480"
     id="namedview299"
     showgrid="false"
     inkscape:zoom="0.4609375"
     inkscape:cx="256"
     inkscape:cy="256"
     inkscape:window-x="0"
     inkscape:window-y="27"
     inkscape:window-maximized="0"
     inkscape:current-layer="_x31_0" /><style
     type="text/css"
     id="style3">
	.st0{fill:#374149;}
</style><g
     id="g5"><path
       style="fill: rgb(75, 75, 75);"
       class="st0"
       d="M499.585,140.375V35.962C499.585,16.146,483.44,0,463.622,0H48.377C28.56,0,12.415,16.146,12.415,35.962   v104.414c0,8.606,3.04,16.502,8.053,22.698c0.561,0.678,1.157,1.326,1.762,1.962c-0.607,0.643-1.202,1.299-1.762,1.985   c-5.053,6.198-8.053,14.094-8.053,22.66v104.414c0,8.645,3.04,16.5,8.053,22.698c0.559,0.682,1.154,1.33,1.758,1.968   c-0.606,0.642-1.2,1.294-1.758,1.979c-5.053,6.198-8.053,14.094-8.053,22.659v104.414c0,19.856,16.146,35.962,35.962,35.962h12.219   V512h390.81v-28.225h12.216c19.818,0,35.963-16.106,35.963-35.962V343.399c0-8.566-3.001-16.461-8.054-22.659   c-0.558-0.685-1.152-1.338-1.758-1.979c0.605-0.638,1.199-1.286,1.758-1.968c5.014-6.198,8.054-14.054,8.054-22.698V189.681   c0-8.566-3.001-16.462-8.054-22.66c-0.559-0.686-1.155-1.342-1.762-1.985c0.606-0.636,1.202-1.284,1.762-1.962   C496.545,156.877,499.585,148.982,499.585,140.375z M475.9,294.094c0,4.183-2.093,7.895-5.29,10.105   c-1.974,1.342-4.382,2.171-6.988,2.171H48.377c-2.606,0-5.014-0.829-6.987-2.171c-3.198-2.21-5.29-5.922-5.29-10.105V189.681   c0-4.184,2.092-7.856,5.29-10.106c1.974-1.342,4.382-2.171,6.987-2.171h415.245c2.606,0,5.014,0.829,6.988,2.171   c3.197,2.25,5.29,5.922,5.29,10.106V294.094z M36.1,35.962c0-6.79,5.487-12.276,12.277-12.276h415.245   c6.79,0,12.278,5.486,12.278,12.276v104.414c0,4.185-2.093,7.895-5.29,10.106c-1.974,1.342-4.382,2.171-6.988,2.171H48.377   c-2.606,0-5.014-0.829-6.987-2.171c-3.198-2.21-5.29-5.921-5.29-10.106V35.962z M475.9,447.813c0,6.79-5.487,12.277-12.278,12.277   H48.377c-6.79,0-12.277-5.487-12.277-12.277V343.399c0-4.185,2.092-7.855,5.29-10.106c1.974-1.342,4.382-2.172,6.987-2.172h415.245   c2.606,0,5.014,0.83,6.988,2.172c3.197,2.25,5.29,5.921,5.29,10.106V447.813z"
       id="path7" /><path
       style="fill: rgb(75, 75, 75);"
       class="st0"
       d="M60.596,511.839l0.161-28.064l-12.38-0.161c-19.742,0-35.802-16.06-35.802-35.802V343.399   c0-8.206,2.846-16.217,8.016-22.557c0.557-0.682,1.148-1.332,1.75-1.973c-0.602-0.854-1.194-1.5-1.75-2.178   c-5.244-6.484-8.016-14.297-8.016-22.597V189.681c0-8.206,2.846-16.218,8.016-22.558c0.558-0.683,1.15-1.336,1.755-1.976   c-0.605-0.854-1.198-1.498-1.756-2.174c-5.169-6.39-8.015-14.415-8.015-22.598V35.962c0-19.742,16.06-35.802,35.802-35.802h415.245   c19.742,0,35.803,16.06,35.803,35.802v104.413c0,8.182-2.848,16.207-8.018,22.598c-0.558,0.675-1.15,1.32-1.754,1.953   c0.605,0.861,1.197,1.514,1.754,2.197c5.17,6.341,8.018,14.353,8.018,22.558v104.414c0,8.298-2.773,16.113-8.018,22.598   c-0.556,0.678-1.149,1.323-1.75,1.958c0.602,0.86,1.194,1.51,1.75,2.192c5.17,6.341,8.018,14.351,8.018,22.558v104.413   c0,19.742-16.061,35.802-35.803,35.802h-12.216l-0.159,28.225H60.596z M48.377,330.962c-2.513,0-4.96,0.761-7.078,2.199   c-3.356,2.362-5.359,6.19-5.359,10.238v104.413c0,6.858,5.579,12.438,12.437,12.438h415.245c6.858,0,12.438-5.579,12.438-12.438   V343.399c0-4.049-2.003-7.875-5.358-10.237c-2.118-1.44-4.566-2.201-7.079-2.201H48.377z M48.377,177.244   c-2.514,0-4.961,0.761-7.078,2.199c-3.356,2.361-5.359,6.188-5.359,10.238v104.414c0,4.092,2.003,7.918,5.358,10.236   c2.118,1.44,4.565,2.2,7.078,2.2h415.245c2.515,0,4.962-0.76,7.078-2.2c3.356-2.318,5.36-6.146,5.36-10.236V189.681   c0-4.049-2.003-7.875-5.358-10.237c-2.117-1.439-4.564-2.2-7.079-2.2H48.377z M48.377,23.525c-6.858,0-12.437,5.579-12.437,12.437   v104.413c0,4.091,2.003,7.918,5.358,10.238c2.116,1.438,4.563,2.199,7.078,2.199h415.245c2.516,0,4.963-0.761,7.078-2.199   c3.356-2.32,5.36-6.149,5.36-10.238V35.962c0-6.858-5.579-12.437-12.438-12.437H48.377z"
       id="path9" /><rect
       style="fill: rgb(75, 75, 75);"
       x="294.035"
       y="78.951"
       class="st0"
       width="26.29"
       height="26.33"
       id="rect11" /><polygon
       style="fill: rgb(75, 75, 75);"
       class="st0"
       points="294.034,105.122 294.195,78.952 320.325,79.112 320.166,105.122  "
       id="polygon13" /><rect
       style="fill: rgb(75, 75, 75);"
       x="346.656"
       y="78.951"
       class="st0"
       width="26.33"
       height="26.33"
       id="rect15" /><polygon
       style="fill: rgb(75, 75, 75);"
       class="st0"
       points="346.656,105.122 346.816,78.952 372.987,79.112 372.828,105.122  "
       id="polygon17" /><rect
       style="fill: rgb(75, 75, 75);"
       x="399.277"
       y="78.951"
       class="st0"
       width="26.33"
       height="26.33"
       id="rect19" /><polygon
       style="fill: rgb(75, 75, 75);"
       class="st0"
       points="399.276,105.122 399.436,78.952 425.608,79.112 425.448,105.122  "
       id="polygon21" /><rect
       style="fill: rgb(75, 75, 75);"
       x="77.589"
       y="62.372"
       class="st0"
       width="11.842"
       height="11.881"
       id="rect23" /><polygon
       style="fill: rgb(75, 75, 75);"
       class="st0"
       points="77.589,74.094 77.749,62.372 89.432,62.532 89.273,74.094  "
       id="polygon25" /><rect
       style="fill: rgb(75, 75, 75);"
       x="101.314"
       y="62.372"
       class="st0"
       width="11.882"
       height="11.881"
       id="rect27" /><polygon
       style="fill: rgb(75, 75, 75);"
       class="st0"
       points="101.315,74.094 101.475,62.372 113.196,62.532 113.038,74.094  "
       id="polygon29" /><rect
       style="fill: rgb(75, 75, 75);"
       x="125.079"
       y="62.372"
       class="st0"
       width="11.882"
       height="11.881"
       id="rect31" /><polygon
       style="fill: rgb(75, 75, 75);"
       class="st0"
       points="125.078,74.094 125.238,62.372 136.961,62.532 136.803,74.094  "
       id="polygon33" /><rect
       style="fill: rgb(75, 75, 75);"
       x="148.843"
       y="62.372"
       class="st0"
       width="11.843"
       height="11.881"
       id="rect35" /><polygon
       style="fill: rgb(75, 75, 75);"
       class="st0"
       points="148.843,74.094 149.003,62.372 160.686,62.532 160.528,74.094  "
       id="polygon37" /><rect
       style="fill: rgb(75, 75, 75);"
       x="172.568"
       y="62.372"
       class="st0"
       width="11.882"
       height="11.881"
       id="rect39" /><polygon
       style="fill: rgb(75, 75, 75);"
       class="st0"
       points="172.568,74.094 172.728,62.372 184.45,62.532 184.292,74.094  "
       id="polygon41" /><rect
       style="fill: rgb(75, 75, 75);"
       x="196.332"
       y="62.372"
       class="st0"
       width="11.882"
       height="11.881"
       id="rect43" /><polygon
       style="fill: rgb(75, 75, 75);"
       class="st0"
       points="196.332,74.094 196.492,62.372 208.215,62.532 208.056,74.094  "
       id="polygon45" /><rect
       style="fill: rgb(75, 75, 75);"
       x="220.057"
       y="62.372"
       class="st0"
       width="11.882"
       height="11.881"
       id="rect47" /><polygon
       style="fill: rgb(75, 75, 75);"
       class="st0"
       points="220.058,74.094 220.218,62.372 231.94,62.532 231.781,74.094  "
       id="polygon49" /><rect
       style="fill: rgb(75, 75, 75);"
       x="77.589"
       y="86.175"
       class="st0"
       width="11.842"
       height="11.883"
       id="rect51" /><polygon
       style="fill: rgb(75, 75, 75);"
       class="st0"
       points="77.589,97.898 77.749,86.175 89.432,86.335 89.273,97.898  "
       id="polygon53" /><rect
       style="fill: rgb(75, 75, 75);"
       x="101.314"
       y="86.175"
       class="st0"
       width="11.882"
       height="11.883"
       id="rect55" /><polygon
       style="fill: rgb(75, 75, 75);"
       class="st0"
       points="101.315,97.898 101.475,86.175 113.196,86.335 113.038,97.898  "
       id="polygon57" /><rect
       style="fill: rgb(75, 75, 75);"
       x="125.079"
       y="86.175"
       class="st0"
       width="11.882"
       height="11.883"
       id="rect59" /><polygon
       style="fill: rgb(75, 75, 75);"
       class="st0"
       points="125.078,97.898 125.238,86.175 136.961,86.335 136.803,97.898  "
       id="polygon61" /><rect
       style="fill: rgb(75, 75, 75);"
       x="148.843"
       y="86.175"
       class="st0"
       width="11.843"
       height="11.883"
       id="rect63" /><polygon
       style="fill: rgb(75, 75, 75);"
       class="st0"
       points="148.843,97.898 149.003,86.175 160.686,86.335 160.528,97.898  "
       id="polygon65" /><rect
       style="fill: rgb(75, 75, 75);"
       x="172.568"
       y="86.175"
       class="st0"
       width="11.882"
       height="11.883"
       id="rect67" /><polygon
       style="fill: rgb(75, 75, 75);"
       class="st0"
       points="172.568,97.898 172.728,86.175 184.45,86.335 184.292,97.898  "
       id="polygon69" /><rect
       style="fill: rgb(75, 75, 75);"
       x="196.332"
       y="86.175"
       class="st0"
       width="11.882"
       height="11.883"
       id="rect71" /><polygon
       style="fill: rgb(75, 75, 75);"
       class="st0"
       points="196.332,97.898 196.492,86.175 208.215,86.335 208.056,97.898  "
       id="polygon73" /><rect
       style="fill: rgb(75, 75, 75);"
       x="220.057"
       y="86.175"
       class="st0"
       width="11.882"
       height="11.883"
       id="rect75" /><polygon
       style="fill: rgb(75, 75, 75);"
       class="st0"
       points="220.058,97.898 220.218,86.175 231.94,86.335 231.781,97.898  "
       id="polygon77" /><rect
       style="fill: rgb(75, 75, 75);"
       x="77.589"
       y="109.979"
       class="st0"
       width="11.842"
       height="11.922"
       id="rect79" /><polygon
       style="fill: rgb(75, 75, 75);"
       class="st0"
       points="77.589,121.741 77.749,109.979 89.432,110.139 89.273,121.741  "
       id="polygon81" /><rect
       style="fill: rgb(75, 75, 75);"
       x="101.314"
       y="109.979"
       class="st0"
       width="11.882"
       height="11.922"
       id="rect83" /><polygon
       style="fill: rgb(75, 75, 75);"
       class="st0"
       points="101.315,121.741 101.475,109.979 113.196,110.139 113.038,121.741  "
       id="polygon85" /><rect
       style="fill: rgb(75, 75, 75);"
       x="125.079"
       y="109.979"
       class="st0"
       width="11.882"
       height="11.922"
       id="rect87" /><polygon
       style="fill: rgb(75, 75, 75);"
       class="st0"
       points="125.078,121.741 125.238,109.979 136.961,110.139 136.803,121.741  "
       id="polygon89" /><rect
       style="fill: rgb(75, 75, 75);"
       x="148.843"
       y="109.979"
       class="st0"
       width="11.843"
       height="11.922"
       id="rect91" /><polygon
       style="fill: rgb(75, 75, 75);"
       class="st0"
       points="148.843,121.741 149.003,109.979 160.686,110.139 160.528,121.741  "
       id="polygon93" /><rect
       style="fill: rgb(75, 75, 75);"
       x="172.568"
       y="109.979"
       class="st0"
       width="11.882"
       height="11.922"
       id="rect95" /><polygon
       style="fill: rgb(75, 75, 75);"
       class="st0"
       points="172.568,121.741 172.728,109.979 184.45,110.139 184.292,121.741  "
       id="polygon97" /><rect
       style="fill: rgb(75, 75, 75);"
       x="196.332"
       y="109.979"
       class="st0"
       width="11.882"
       height="11.922"
       id="rect99" /><polygon
       style="fill: rgb(75, 75, 75);"
       class="st0"
       points="196.332,121.741 196.492,109.979 208.215,110.139 208.056,121.741  "
       id="polygon101" /><rect
       style="fill: rgb(75, 75, 75);"
       x="220.057"
       y="109.979"
       class="st0"
       width="11.882"
       height="11.922"
       id="rect103" /><polygon
       style="fill: rgb(75, 75, 75);"
       class="st0"
       points="220.058,121.741 220.218,109.979 231.94,110.139 231.781,121.741  "
       id="polygon105" /><rect
       style="fill: rgb(75, 75, 75);"
       x="294.035"
       y="228.722"
       class="st0"
       width="26.29"
       height="26.33"
       id="rect107" /><polygon
       style="fill: rgb(75, 75, 75);"
       class="st0"
       points="294.034,254.892 294.195,228.722 320.325,228.882 320.166,254.892  "
       id="polygon109" /><rect
       style="fill: rgb(75, 75, 75);"
       x="346.656"
       y="228.722"
       class="st0"
       width="26.33"
       height="26.33"
       id="rect111" /><polygon
       style="fill: rgb(75, 75, 75);"
       class="st0"
       points="346.656,254.892 346.816,228.722 372.987,228.882 372.828,254.892  "
       id="polygon113" /><rect
       style="fill: rgb(75, 75, 75);"
       x="399.277"
       y="228.722"
       class="st0"
       width="26.33"
       height="26.33"
       id="rect115" /><polygon
       style="fill: rgb(75, 75, 75);"
       class="st0"
       points="399.276,254.892 399.436,228.722 425.608,228.882 425.448,254.892  "
       id="polygon117" /><rect
       style="fill: rgb(75, 75, 75);"
       x="77.589"
       y="212.142"
       class="st0"
       width="11.842"
       height="11.882"
       id="rect119" /><polygon
       style="fill: rgb(75, 75, 75);"
       class="st0"
       points="77.589,223.865 77.749,212.142 89.432,212.302 89.273,223.865  "
       id="polygon121" /><rect
       style="fill: rgb(75, 75, 75);"
       x="101.314"
       y="212.142"
       class="st0"
       width="11.882"
       height="11.882"
       id="rect123" /><polygon
       style="fill: rgb(75, 75, 75);"
       class="st0"
       points="101.315,223.865 101.475,212.142 113.196,212.302 113.038,223.865  "
       id="polygon125" /><rect
       style="fill: rgb(75, 75, 75);"
       x="125.079"
       y="212.142"
       class="st0"
       width="11.882"
       height="11.882"
       id="rect127" /><polygon
       style="fill: rgb(75, 75, 75);"
       class="st0"
       points="125.078,223.865 125.238,212.142 136.961,212.302 136.803,223.865  "
       id="polygon129" /><rect
       style="fill: rgb(75, 75, 75);"
       x="148.843"
       y="212.142"
       class="st0"
       width="11.843"
       height="11.882"
       id="rect131" /><polygon
       style="fill: rgb(75, 75, 75);"
       class="st0"
       points="148.843,223.865 149.003,212.142 160.686,212.302 160.528,223.865  "
       id="polygon133" /><rect
       style="fill: rgb(75, 75, 75);"
       x="172.568"
       y="212.142"
       class="st0"
       width="11.882"
       height="11.882"
       id="rect135" /><polygon
       style="fill: rgb(75, 75, 75);"
       class="st0"
       points="172.568,223.865 172.728,212.142 184.45,212.302 184.292,223.865  "
       id="polygon137" /><rect
       style="fill: rgb(75, 75, 75);"
       x="196.332"
       y="212.142"
       class="st0"
       width="11.882"
       height="11.882"
       id="rect139" /><polygon
       style="fill: rgb(75, 75, 75);"
       class="st0"
       points="196.332,223.865 196.492,212.142 208.215,212.302 208.056,223.865  "
       id="polygon141" /><rect
       style="fill: rgb(75, 75, 75);"
       x="220.057"
       y="212.142"
       class="st0"
       width="11.882"
       height="11.882"
       id="rect143" /><polygon
       style="fill: rgb(75, 75, 75);"
       class="st0"
       points="220.058,223.865 220.218,212.142 231.94,212.302 231.781,223.865  "
       id="polygon145" /><rect
       style="fill: rgb(75, 75, 75);"
       x="77.589"
       y="235.946"
       class="st0"
       width="11.842"
       height="11.922"
       id="rect147" /><polygon
       style="fill: rgb(75, 75, 75);"
       class="st0"
       points="77.589,247.709 77.749,235.947 89.432,236.107 89.273,247.709  "
       id="polygon149" /><rect
       style="fill: rgb(75, 75, 75);"
       x="101.314"
       y="235.946"
       class="st0"
       width="11.882"
       height="11.922"
       id="rect151" /><polygon
       style="fill: rgb(75, 75, 75);"
       class="st0"
       points="101.315,247.709 101.475,235.947 113.196,236.107 113.038,247.709  "
       id="polygon153" /><rect
       style="fill: rgb(75, 75, 75);"
       x="125.079"
       y="235.946"
       class="st0"
       width="11.882"
       height="11.922"
       id="rect155" /><polygon
       style="fill: rgb(75, 75, 75);"
       class="st0"
       points="125.078,247.709 125.238,235.947 136.961,236.107 136.803,247.709  "
       id="polygon157" /><rect
       style="fill: rgb(75, 75, 75);"
       x="148.843"
       y="235.946"
       class="st0"
       width="11.843"
       height="11.922"
       id="rect159" /><polygon
       style="fill: rgb(75, 75, 75);"
       class="st0"
       points="148.843,247.709 149.003,235.947 160.686,236.107 160.528,247.709  "
       id="polygon161" /><rect
       style="fill: rgb(75, 75, 75);"
       x="172.568"
       y="235.946"
       class="st0"
       width="11.882"
       height="11.922"
       id="rect163" /><polygon
       style="fill: rgb(75, 75, 75);"
       class="st0"
       points="172.568,247.709 172.728,235.947 184.45,236.107 184.292,247.709  "
       id="polygon165" /><rect
       style="fill: rgb(75, 75, 75);"
       x="196.332"
       y="235.946"
       class="st0"
       width="11.882"
       height="11.922"
       id="rect167" /><polygon
       style="fill: rgb(75, 75, 75);"
       class="st0"
       points="196.332,247.709 196.492,235.947 208.215,236.107 208.056,247.709  "
       id="polygon169" /><rect
       style="fill: rgb(75, 75, 75);"
       x="220.057"
       y="235.946"
       class="st0"
       width="11.882"
       height="11.922"
       id="rect171" /><polygon
       style="fill: rgb(75, 75, 75);"
       class="st0"
       points="220.058,247.709 220.218,235.947 231.94,236.107 231.781,247.709  "
       id="polygon173" /><rect
       style="fill: rgb(75, 75, 75);"
       x="77.589"
       y="259.75"
       class="st0"
       width="11.842"
       height="11.922"
       id="rect175" /><polygon
       style="fill: rgb(75, 75, 75);"
       class="st0"
       points="77.589,271.512 77.749,259.75 89.432,259.91 89.273,271.512  "
       id="polygon177" /><rect
       style="fill: rgb(75, 75, 75);"
       x="101.314"
       y="259.75"
       class="st0"
       width="11.882"
       height="11.922"
       id="rect179" /><polygon
       style="fill: rgb(75, 75, 75);"
       class="st0"
       points="101.315,271.512 101.475,259.75 113.196,259.91 113.038,271.512  "
       id="polygon181" /><rect
       style="fill: rgb(75, 75, 75);"
       x="125.079"
       y="259.75"
       class="st0"
       width="11.882"
       height="11.922"
       id="rect183" /><polygon
       style="fill: rgb(75, 75, 75);"
       class="st0"
       points="125.078,271.512 125.238,259.75 136.961,259.91 136.803,271.512  "
       id="polygon185" /><rect
       style="fill: rgb(75, 75, 75);"
       x="148.843"
       y="259.75"
       class="st0"
       width="11.843"
       height="11.922"
       id="rect187" /><polygon
       style="fill: rgb(75, 75, 75);"
       class="st0"
       points="148.843,271.512 149.003,259.75 160.686,259.91 160.528,271.512  "
       id="polygon189" /><rect
       style="fill: rgb(75, 75, 75);"
       x="172.568"
       y="259.75"
       class="st0"
       width="11.882"
       height="11.922"
       id="rect191" /><polygon
       style="fill: rgb(75, 75, 75);"
       class="st0"
       points="172.568,271.512 172.728,259.75 184.45,259.91 184.292,271.512  "
       id="polygon193" /><rect
       style="fill: rgb(75, 75, 75);"
       x="196.332"
       y="259.75"
       class="st0"
       width="11.882"
       height="11.922"
       id="rect195" /><polygon
       style="fill: rgb(75, 75, 75);"
       class="st0"
       points="196.332,271.512 196.492,259.75 208.215,259.91 208.056,271.512  "
       id="polygon197" /><rect
       style="fill: rgb(75, 75, 75);"
       x="220.057"
       y="259.75"
       class="st0"
       width="11.882"
       height="11.922"
       id="rect199" /><polygon
       style="fill: rgb(75, 75, 75);"
       class="st0"
       points="220.058,271.512 220.218,259.75 231.94,259.91 231.781,271.512  "
       id="polygon201" /><rect
       style="fill: rgb(75, 75, 75);"
       x="294.035"
       y="378.493"
       class="st0"
       width="26.29"
       height="26.331"
       id="rect203" /><polygon
       style="fill: rgb(75, 75, 75);"
       class="st0"
       points="294.034,404.664 294.195,378.493 320.325,378.653 320.166,404.664  "
       id="polygon205" /><rect
       style="fill: rgb(75, 75, 75);"
       x="346.656"
       y="378.493"
       class="st0"
       width="26.33"
       height="26.331"
       id="rect207" /><polygon
       style="fill: rgb(75, 75, 75);"
       class="st0"
       points="346.656,404.664 346.816,378.493 372.987,378.653 372.828,404.664  "
       id="polygon209" /><rect
       style="fill: rgb(75, 75, 75);"
       x="399.277"
       y="378.493"
       class="st0"
       width="26.33"
       height="26.331"
       id="rect211" /><polygon
       style="fill: rgb(75, 75, 75);"
       class="st0"
       points="399.276,404.664 399.436,378.493 425.608,378.653 425.448,404.664  "
       id="polygon213" /><rect
       style="fill: rgb(75, 75, 75);"
       x="77.589"
       y="361.914"
       class="st0"
       width="11.842"
       height="11.882"
       id="rect215" /><polygon
       style="fill: rgb(75, 75, 75);"
       class="st0"
       points="77.589,373.635 77.749,361.914 89.432,362.074 89.273,373.635  "
       id="polygon217" /><rect
       style="fill: rgb(75, 75, 75);"
       x="101.314"
       y="361.914"
       class="st0"
       width="11.882"
       height="11.882"
       id="rect219" /><polygon
       style="fill: rgb(75, 75, 75);"
       class="st0"
       points="101.315,373.635 101.475,361.914 113.196,362.074 113.038,373.635  "
       id="polygon221" /><rect
       style="fill: rgb(75, 75, 75);"
       x="125.079"
       y="361.914"
       class="st0"
       width="11.882"
       height="11.882"
       id="rect223" /><polygon
       style="fill: rgb(75, 75, 75);"
       class="st0"
       points="125.078,373.635 125.238,361.914 136.961,362.074 136.803,373.635  "
       id="polygon225" /><rect
       style="fill: rgb(75, 75, 75);"
       x="148.843"
       y="361.914"
       class="st0"
       width="11.843"
       height="11.882"
       id="rect227" /><polygon
       style="fill: rgb(75, 75, 75);"
       class="st0"
       points="148.843,373.635 149.003,361.914 160.686,362.074 160.528,373.635  "
       id="polygon229" /><rect
       style="fill: rgb(75, 75, 75);"
       x="172.568"
       y="361.914"
       class="st0"
       width="11.882"
       height="11.882"
       id="rect231" /><polygon
       style="fill: rgb(75, 75, 75);"
       class="st0"
       points="172.568,373.635 172.728,361.914 184.45,362.074 184.292,373.635  "
       id="polygon233" /><rect
       style="fill: rgb(75, 75, 75);"
       x="196.332"
       y="361.914"
       class="st0"
       width="11.882"
       height="11.882"
       id="rect235" /><polygon
       style="fill: rgb(75, 75, 75);"
       class="st0"
       points="196.332,373.635 196.492,361.914 208.215,362.074 208.056,373.635  "
       id="polygon237" /><rect
       style="fill: rgb(75, 75, 75);"
       x="220.057"
       y="361.914"
       class="st0"
       width="11.882"
       height="11.882"
       id="rect239" /><polygon
       style="fill: rgb(75, 75, 75);"
       class="st0"
       points="220.058,373.635 220.218,361.914 231.94,362.074 231.781,373.635  "
       id="polygon241" /><rect
       style="fill: rgb(75, 75, 75);"
       x="77.589"
       y="385.717"
       class="st0"
       width="11.842"
       height="11.922"
       id="rect243" /><polygon
       style="fill: rgb(75, 75, 75);"
       class="st0"
       points="77.589,397.479 77.749,385.718 89.432,385.878 89.273,397.479  "
       id="polygon245" /><rect
       style="fill: rgb(75, 75, 75);"
       x="101.314"
       y="385.717"
       class="st0"
       width="11.882"
       height="11.922"
       id="rect247" /><polygon
       style="fill: rgb(75, 75, 75);"
       class="st0"
       points="101.315,397.479 101.475,385.718 113.196,385.878 113.038,397.479  "
       id="polygon249" /><rect
       style="fill: rgb(75, 75, 75);"
       x="125.079"
       y="385.717"
       class="st0"
       width="11.882"
       height="11.922"
       id="rect251" /><polygon
       style="fill: rgb(75, 75, 75);"
       class="st0"
       points="125.078,397.479 125.238,385.718 136.961,385.878 136.803,397.479  "
       id="polygon253" /><rect
       style="fill: rgb(75, 75, 75);"
       x="148.843"
       y="385.717"
       class="st0"
       width="11.843"
       height="11.922"
       id="rect255" /><polygon
       style="fill: rgb(75, 75, 75);"
       class="st0"
       points="148.843,397.479 149.003,385.718 160.686,385.878 160.528,397.479  "
       id="polygon257" /><rect
       style="fill: rgb(75, 75, 75);"
       x="172.568"
       y="385.717"
       class="st0"
       width="11.882"
       height="11.922"
       id="rect259" /><polygon
       style="fill: rgb(75, 75, 75);"
       class="st0"
       points="172.568,397.479 172.728,385.718 184.45,385.878 184.292,397.479  "
       id="polygon261" /><rect
       style="fill: rgb(75, 75, 75);"
       x="196.332"
       y="385.717"
       class="st0"
       width="11.882"
       height="11.922"
       id="rect263" /><polygon
       style="fill: rgb(75, 75, 75);"
       class="st0"
       points="196.332,397.479 196.492,385.718 208.215,385.878 208.056,397.479  "
       id="polygon265" /><rect
       style="fill: rgb(75, 75, 75);"
       x="220.057"
       y="385.717"
       class="st0"
       width="11.882"
       height="11.922"
       id="rect267" /><polygon
       style="fill: rgb(75, 75, 75);"
       class="st0"
       points="220.058,397.479 220.218,385.718 231.94,385.878 231.781,397.479  "
       id="polygon269" /><rect
       style="fill: rgb(75, 75, 75);"
       x="77.589"
       y="409.521"
       class="st0"
       width="11.842"
       height="11.922"
       id="rect271" /><polygon
       style="fill: rgb(75, 75, 75);"
       class="st0"
       points="77.589,421.282 77.749,409.521 89.432,409.681 89.273,421.282  "
       id="polygon273" /><rect
       style="fill: rgb(75, 75, 75);"
       x="101.314"
       y="409.521"
       class="st0"
       width="11.882"
       height="11.922"
       id="rect275" /><polygon
       style="fill: rgb(75, 75, 75);"
       class="st0"
       points="101.315,421.282 101.475,409.521 113.196,409.681 113.038,421.282  "
       id="polygon277" /><rect
       style="fill: rgb(75, 75, 75);"
       x="125.079"
       y="409.521"
       class="st0"
       width="11.882"
       height="11.922"
       id="rect279" /><polygon
       style="fill: rgb(75, 75, 75);"
       class="st0"
       points="125.078,421.282 125.238,409.521 136.961,409.681 136.803,421.282  "
       id="polygon281" /><rect
       style="fill: rgb(75, 75, 75);"
       x="148.843"
       y="409.521"
       class="st0"
       width="11.843"
       height="11.922"
       id="rect283" /><polygon
       style="fill: rgb(75, 75, 75);"
       class="st0"
       points="148.843,421.282 149.003,409.521 160.686,409.681 160.528,421.282  "
       id="polygon285" /><rect
       style="fill: rgb(75, 75, 75);"
       x="172.568"
       y="409.521"
       class="st0"
       width="11.882"
       height="11.922"
       id="rect287" /><polygon
       style="fill: rgb(75, 75, 75);"
       class="st0"
       points="172.568,421.282 172.728,409.521 184.45,409.681 184.292,421.282  "
       id="polygon289" /><rect
       style="fill: rgb(75, 75, 75);"
       x="196.332"
       y="409.521"
       class="st0"
       width="11.882"
       height="11.922"
       id="rect291" /><polygon
       style="fill: rgb(75, 75, 75);"
       class="st0"
       points="196.332,421.282 196.492,409.521 208.215,409.681 208.056,421.282  "
       id="polygon293" /><rect
       style="fill: rgb(75, 75, 75);"
       x="220.057"
       y="409.521"
       class="st0"
       width="11.882"
       height="11.922"
       id="rect295" /><polygon
       style="fill: rgb(75, 75, 75);"
       class="st0"
       points="220.058,421.282 220.218,409.521 231.94,409.681 231.781,421.282  "
       id="polygon297" /></g></svg>