<?xml version="1.0" encoding="UTF-8" standalone="no"?>
<!DOCTYPE svg PUBLIC "-//W3C//DTD SVG 1.1//EN"
 "http://www.w3.org/Graphics/SVG/1.1/DTD/svg11.dtd">
<!-- Generated by graphviz version 2.43.0 (0)
 -->
<!-- Title: G Pages: 1 -->
<svg width="746pt" height="213pt"
 viewBox="0.00 0.00 746.47 213.00" xmlns="http://www.w3.org/2000/svg" xmlns:xlink="http://www.w3.org/1999/xlink">
<g id="graph0" class="graph" transform="scale(1 1) rotate(0) translate(4 209)">
<title>G</title>
<polygon fill="white" stroke="transparent" points="-4,4 -4,-209 742.47,-209 742.47,4 -4,4"/>
<text text-anchor="middle" x="369.23" y="-7.8" font-family="Times,serif" font-size="14.00">Netmeld Tool Suite 2.x &#45;&#45; Datalake Dataflow</text>
<g id="clust1" class="cluster">
<title>cluster_lib</title>
<polygon fill="none" stroke="black" stroke-dasharray="5,2" points="279.47,-118 279.47,-197 721.97,-197 721.97,-118 279.47,-118"/>
<text text-anchor="middle" x="500.72" y="-181.8" font-family="Times,serif" font-size="14.00">Library Resources</text>
</g>
<g id="clust2" class="cluster">
<title>cluster_datalake</title>
<polygon fill="none" stroke="black" stroke-dasharray="5,2" points="627.47,-31 627.47,-110 730.47,-110 730.47,-31 627.47,-31"/>
<text text-anchor="middle" x="678.97" y="-94.8" font-family="Times,serif" font-size="14.00">Data Lake(s)</text>
</g>
<!-- users -->
<g id="node1" class="node">
<title>users</title>
<ellipse fill="none" stroke="black" cx="33.23" cy="-101" rx="33.47" ry="33.47"/>
<text text-anchor="middle" x="33.23" y="-104.8" font-family="Times,serif" font-size="14.00">End</text>
<text text-anchor="middle" x="33.23" y="-89.8" font-family="Times,serif" font-size="14.00">Users</text>
</g>
<!-- bins -->
<g id="node2" class="node">
<title>bins</title>
<polygon fill="none" stroke="black" points="251.47,-201 102.47,-201 102.47,-87 251.47,-87 251.47,-201"/>
<polygon fill="none" stroke="black" points="109.97,-94 109.97,-194 153.97,-194 153.97,-94 109.97,-94"/>
<text text-anchor="start" x="114.97" y="-140.3" font-family="Times,serif" font-size="14.00">Bin(s)</text>
<polygon fill="none" stroke="black" points="153.97,-169 153.97,-194 244.97,-194 244.97,-169 153.97,-169"/>
<text text-anchor="start" x="158.97" y="-177.8" font-family="Times,serif" font-size="14.00">nmdl&#45;initialize</text>
<polygon fill="none" stroke="black" points="153.97,-144 153.97,-169 244.97,-169 244.97,-144 153.97,-144"/>
<text text-anchor="start" x="158.97" y="-152.8" font-family="Times,serif" font-size="14.00">nmdl&#45;insert</text>
<polygon fill="none" stroke="black" points="153.97,-119 153.97,-144 244.97,-144 244.97,-119 153.97,-119"/>
<text text-anchor="start" x="158.97" y="-127.8" font-family="Times,serif" font-size="14.00">nmdl&#45;remove</text>
<polygon fill="none" stroke="black" points="153.97,-94 153.97,-119 244.97,-119 244.97,-94 153.97,-94"/>
<text text-anchor="start" x="158.97" y="-102.8" font-family="Times,serif" font-size="14.00">nmdl&#45;list</text>
</g>
<!-- users&#45;&gt;bins -->
<g id="edge1" class="edge">
<title>users&#45;&gt;bins</title>
<path fill="none" stroke="black" d="M65.34,-110.44C73.59,-112.94 82.9,-115.77 92.54,-118.69"/>
<polygon fill="black" stroke="black" points="91.66,-122.08 102.25,-121.63 93.7,-115.38 91.66,-122.08"/>
</g>
<!-- git -->
<g id="node6" class="node">
<title>git</title>
<path fill="none" stroke="black" d="M722.47,-75.26C722.47,-77.26 702.97,-78.88 678.97,-78.88 654.97,-78.88 635.47,-77.26 635.47,-75.26 635.47,-75.26 635.47,-42.74 635.47,-42.74 635.47,-40.74 654.97,-39.12 678.97,-39.12 702.97,-39.12 722.47,-40.74 722.47,-42.74 722.47,-42.74 722.47,-75.26 722.47,-75.26"/>
<path fill="none" stroke="black" d="M722.47,-75.26C722.47,-73.27 702.97,-71.65 678.97,-71.65 654.97,-71.65 635.47,-73.27 635.47,-75.26"/>
<text text-anchor="middle" x="678.97" y="-55.3" font-family="Times,serif" font-size="14.00">git repository</text>
</g>
<!-- users&#45;&gt;git -->
<g id="edge2" class="edge">
<title>users&#45;&gt;git</title>
<path fill="none" stroke="black" d="M64.3,-88.75C76.01,-84.55 89.67,-80.32 102.47,-78 292.44,-43.62 523.29,-50.3 625.24,-55.65"/>
<polygon fill="black" stroke="black" points="616.92,-57.22 627.47,-56.2 618.59,-50.42 616.92,-57.22"/>
</g>
<!-- tools -->
<g id="node4" class="node">
<title>tools</title>
<polygon fill="none" stroke="black" points="421.47,-165 287.47,-165 287.47,-129 421.47,-129 421.47,-165"/>
<text text-anchor="middle" x="354.47" y="-143.3" font-family="Times,serif" font-size="14.00">AbstractDatalakeTool</text>
</g>
<!-- bins&#45;&gt;tools -->
<g id="edge3" class="edge">
<title>bins&#45;&gt;tools</title>
<path fill="none" stroke="black" d="M251.63,-145.26C260.04,-145.4 268.62,-145.55 277.05,-145.69"/>
<polygon fill="black" stroke="black" points="277.19,-149.2 287.25,-145.87 277.31,-142.2 277.19,-149.2"/>
</g>
<!-- handlers -->
<g id="node5" class="node">
<title>handlers</title>
<polygon fill="none" stroke="black" points="599.47,-165.5 457.47,-165.5 457.47,-126.5 599.47,-126.5 599.47,-165.5"/>
<polygon fill="none" stroke="black" points="464.47,-133 464.47,-158 564.47,-158 564.47,-133 464.47,-133"/>
<text text-anchor="start" x="469.47" y="-141.8" font-family="Times,serif" font-size="14.00">AbstractHandler</text>
<polygon fill="none" stroke="black" points="564.47,-133 564.47,-158 592.47,-158 592.47,-133 564.47,-133"/>
<text text-anchor="start" x="569.47" y="-141.8" font-family="Times,serif" font-size="14.00">Git</text>
</g>
<!-- bins&#45;&gt;handlers -->
<g id="edge4" class="edge">
<title>bins&#45;&gt;handlers</title>
<path fill="none" stroke="black" d="M251.62,-124.48C260.94,-122.63 270.39,-121.06 279.47,-120 342.15,-112.69 358.81,-112.43 421.47,-120 430.15,-121.05 439.14,-122.56 448.05,-124.34"/>
<polygon fill="black" stroke="black" points="447.55,-127.82 458.06,-126.45 449,-120.97 447.55,-127.82"/>
</g>
<!-- objects -->
<g id="node3" class="node">
<title>objects</title>
<polygon fill="none" stroke="black" points="713.97,-164 643.97,-164 643.97,-128 713.97,-128 713.97,-164"/>
<text text-anchor="middle" x="678.97" y="-142.3" font-family="Times,serif" font-size="14.00">DataEntry</text>
</g>
<!-- tools&#45;&gt;handlers -->
<g id="edge5" class="edge">
<title>tools&#45;&gt;handlers</title>
<path fill="none" stroke="black" d="M421.48,-146.62C429.92,-146.57 438.63,-146.52 447.27,-146.47"/>
<polygon fill="black" stroke="black" points="447.37,-149.97 457.35,-146.41 447.33,-142.97 447.37,-149.97"/>
</g>
<!-- handlers&#45;&gt;objects -->
<g id="edge6" class="edge">
<title>handlers&#45;&gt;objects</title>
<path fill="none" stroke="black" d="M599.8,-146C611.27,-146 622.87,-146 633.49,-146"/>
<polygon fill="black" stroke="black" points="633.74,-149.5 643.74,-146 633.74,-142.5 633.74,-149.5"/>
</g>
<!-- handlers&#45;&gt;git -->
<g id="edge7" class="edge">
<title>handlers:git&#45;&gt;git</title>
<path fill="none" stroke="black" d="M593.47,-145C597.64,-145 629.42,-111.62 652.78,-86.45"/>
<polygon fill="black" stroke="black" points="655.5,-88.66 659.72,-78.95 650.36,-83.91 655.5,-88.66"/>
</g>
</g>
</svg>
