<?xml version="1.0" encoding="UTF-8" standalone="no"?>
<!DOCTYPE svg PUBLIC "-//W3C//DTD SVG 1.1//EN"
 "http://www.w3.org/Graphics/SVG/1.1/DTD/svg11.dtd">
<!-- Generated by graphviz version 2.43.0 (0)
 -->
<!-- Title: G Pages: 1 -->
<svg width="940pt" height="254pt"
 viewBox="0.00 0.00 940.44 254.00" xmlns="http://www.w3.org/2000/svg" xmlns:xlink="http://www.w3.org/1999/xlink">
<g id="graph0" class="graph" transform="scale(1 1) rotate(0) translate(4 250)">
<title>G</title>
<polygon fill="white" stroke="transparent" points="-4,4 -4,-250 936.44,-250 936.44,4 -4,4"/>
<text text-anchor="middle" x="466.22" y="-7.8" font-family="Times,serif" font-size="14.00">Netmeld Tool Suite 2.x &#45;&#45; Datalake Components and General Dataflow</text>
<g id="clust1" class="cluster">
<title>cluster_lib</title>
<polygon fill="none" stroke="black" stroke-dasharray="5,2" points="327.44,-135 327.44,-238 912.94,-238 912.94,-135 327.44,-135"/>
<text text-anchor="middle" x="620.19" y="-222.8" font-family="Times,serif" font-size="14.00">Library Resources</text>
</g>
<g id="clust2" class="cluster">
<title>cluster_datalake</title>
<polygon fill="none" stroke="black" stroke-dasharray="5,2" points="796.44,-31 796.44,-110 924.44,-110 924.44,-31 796.44,-31"/>
<text text-anchor="middle" x="860.44" y="-94.8" font-family="Times,serif" font-size="14.00">Data Lake(s)</text>
</g>
<!-- users -->
<g id="node1" class="node">
<title>users</title>
<ellipse fill="none" stroke="black" cx="41.72" cy="-98" rx="41.94" ry="41.94"/>
<text text-anchor="middle" x="41.72" y="-101.8" font-family="Times,serif" font-size="14.00">End</text>
<text text-anchor="middle" x="41.72" y="-86.8" font-family="Times,serif" font-size="14.00">Users</text>
</g>
<!-- bins -->
<g id="node2" class="node">
<title>bins</title>
<polygon fill="none" stroke="black" points="299.44,-211 119.44,-211 119.44,-97 299.44,-97 299.44,-211"/>
<polygon fill="none" stroke="black" points="126.44,-104 126.44,-204 179.44,-204 179.44,-104 126.44,-104"/>
<text text-anchor="start" x="131.44" y="-150.3" font-family="Times,serif" font-size="14.00">Bin(s)</text>
<polygon fill="none" stroke="black" points="179.44,-179 179.44,-204 292.44,-204 292.44,-179 179.44,-179"/>
<text text-anchor="start" x="184.44" y="-187.8" font-family="Times,serif" font-size="14.00">nmdl&#45;initialize</text>
<polygon fill="none" stroke="black" points="179.44,-154 179.44,-179 292.44,-179 292.44,-154 179.44,-154"/>
<text text-anchor="start" x="184.44" y="-162.8" font-family="Times,serif" font-size="14.00">nmdl&#45;insert</text>
<polygon fill="none" stroke="black" points="179.44,-129 179.44,-154 292.44,-154 292.44,-129 179.44,-129"/>
<text text-anchor="start" x="184.44" y="-137.8" font-family="Times,serif" font-size="14.00">nmdl&#45;remove</text>
<polygon fill="none" stroke="black" points="179.44,-104 179.44,-129 292.44,-129 292.44,-104 179.44,-104"/>
<text text-anchor="start" x="184.44" y="-112.8" font-family="Times,serif" font-size="14.00">nmdl&#45;list</text>
</g>
<!-- users&#45;&gt;bins -->
<g id="edge1" class="edge">
<title>users&#45;&gt;bins</title>
<path fill="none" stroke="black" d="M81.57,-111.13C90.27,-114.07 99.88,-117.32 109.81,-120.67"/>
<polygon fill="black" stroke="black" points="108.81,-124.03 119.4,-123.91 111.05,-117.4 108.81,-124.03"/>
</g>
<!-- git -->
<g id="node6" class="node">
<title>git</title>
<path fill="none" stroke="black" d="M916.44,-75.26C916.44,-77.26 891.34,-78.88 860.44,-78.88 829.54,-78.88 804.44,-77.26 804.44,-75.26 804.44,-75.26 804.44,-42.74 804.44,-42.74 804.44,-40.74 829.54,-39.12 860.44,-39.12 891.34,-39.12 916.44,-40.74 916.44,-42.74 916.44,-42.74 916.44,-75.26 916.44,-75.26"/>
<path fill="none" stroke="black" d="M916.44,-75.26C916.44,-73.27 891.34,-71.65 860.44,-71.65 829.54,-71.65 804.44,-73.27 804.44,-75.26"/>
<text text-anchor="middle" x="860.44" y="-55.3" font-family="Times,serif" font-size="14.00">git repository</text>
</g>
<!-- users&#45;&gt;git -->
<g id="edge2" class="edge">
<title>users&#45;&gt;git</title>
<path fill="none" stroke="black" d="M82.22,-86.49C94.09,-83.5 107.2,-80.66 119.44,-79 366.81,-45.43 664.81,-51.29 794.2,-56.07"/>
<polygon fill="black" stroke="black" points="785.99,-58.2 796.44,-56.45 787.18,-51.31 785.99,-58.2"/>
</g>
<!-- tools -->
<g id="node4" class="node">
<title>tools</title>
<polygon fill="none" stroke="black" points="503.44,-207 335.44,-207 335.44,-171 503.44,-171 503.44,-207"/>
<text text-anchor="middle" x="419.44" y="-185.3" font-family="Times,serif" font-size="14.00">AbstractDatalakeTool</text>
</g>
<!-- bins&#45;&gt;tools -->
<g id="edge3" class="edge">
<title>bins&#45;&gt;tools</title>
<path fill="none" stroke="black" d="M299.55,-169C308.11,-170.44 316.81,-171.9 325.41,-173.35"/>
<polygon fill="black" stroke="black" points="324.99,-176.83 335.44,-175.03 326.15,-169.92 324.99,-176.83"/>
</g>
<!-- handlers -->
<g id="node5" class="node">
<title>handlers</title>
<polygon fill="none" stroke="black" points="768.44,-207 539.44,-207 539.44,-143 768.44,-143 768.44,-207"/>
<polygon fill="none" stroke="black" points="546.94,-150 546.94,-200 632.94,-200 632.94,-150 546.94,-150"/>
<text text-anchor="start" x="551.94" y="-171.3" font-family="Times,serif" font-size="14.00">Handler(s)</text>
<polygon fill="none" stroke="black" points="632.94,-175 632.94,-200 761.94,-200 761.94,-175 632.94,-175"/>
<text text-anchor="start" x="637.94" y="-183.8" font-family="Times,serif" font-size="14.00">AbstractHandler</text>
<polygon fill="none" stroke="black" points="632.94,-150 632.94,-175 761.94,-175 761.94,-150 632.94,-150"/>
<text text-anchor="start" x="637.94" y="-158.8" font-family="Times,serif" font-size="14.00">Git</text>
</g>
<!-- bins&#45;&gt;handlers -->
<g id="edge4" class="edge">
<title>bins&#45;&gt;handlers</title>
<path fill="none" stroke="black" d="M299.55,-153.16C308.97,-153.09 318.4,-153.04 327.44,-153 405.66,-152.67 425.43,-147.29 503.44,-153 511.81,-153.61 520.42,-154.42 529.08,-155.35"/>
<polygon fill="black" stroke="black" points="528.93,-158.86 539.26,-156.51 529.72,-151.9 528.93,-158.86"/>
</g>
<!-- objects -->
<g id="node3" class="node">
<title>objects</title>
<polygon fill="none" stroke="black" points="904.94,-193 815.94,-193 815.94,-157 904.94,-157 904.94,-193"/>
<text text-anchor="middle" x="860.44" y="-171.3" font-family="Times,serif" font-size="14.00">DataEntry</text>
</g>
<!-- tools&#45;&gt;handlers -->
<g id="edge5" class="edge">
<title>tools&#45;&gt;handlers</title>
<path fill="none" stroke="black" d="M503.72,-183.99C512.05,-183.48 520.64,-182.97 529.27,-182.45"/>
<polygon fill="black" stroke="black" points="529.65,-185.93 539.42,-181.84 529.23,-178.94 529.65,-185.93"/>
</g>
<!-- handlers&#45;&gt;objects -->
<g id="edge6" class="edge">
<title>handlers&#45;&gt;objects</title>
<path fill="none" stroke="black" d="M768.55,-175C781.36,-175 793.93,-175 805.44,-175"/>
<polygon fill="black" stroke="black" points="805.69,-178.5 815.69,-175 805.69,-171.5 805.69,-178.5"/>
</g>
<!-- handlers&#45;&gt;git -->
<g id="edge7" class="edge">
<title>handlers:git&#45;&gt;git</title>
<path fill="none" stroke="black" d="M762.94,-162C784.79,-162 781.51,-141.96 796.44,-126 808.61,-112.99 822.13,-98.6 833.52,-86.49"/>
<polygon fill="black" stroke="black" points="836.36,-88.59 840.67,-78.91 831.26,-83.79 836.36,-88.59"/>
</g>
</g>
</svg>
