<?xml version="1.0" encoding="UTF-8" standalone="no"?>
<!DOCTYPE svg PUBLIC "-//W3C//DTD SVG 1.1//EN"
 "http://www.w3.org/Graphics/SVG/1.1/DTD/svg11.dtd">
<!-- Generated by graphviz version 2.43.0 (0)
 -->
<!-- Title: G Pages: 1 -->
<svg width="749pt" height="213pt"
 viewBox="0.00 0.00 749.47 213.00" xmlns="http://www.w3.org/2000/svg" xmlns:xlink="http://www.w3.org/1999/xlink">
<g id="graph0" class="graph" transform="scale(1 1) rotate(0) translate(4 209)">
<title>G</title>
<polygon fill="white" stroke="transparent" points="-4,4 -4,-209 745.47,-209 745.47,4 -4,4"/>
<text text-anchor="middle" x="370.73" y="-7.8" font-family="Times,serif" font-size="14.00">Netmeld Tool Suite 2.x &#45;&#45; Datalake Dataflow</text>
<g id="clust1" class="cluster">
<title>cluster_lib</title>
<polygon fill="none" stroke="black" stroke-dasharray="5,2" points="282.47,-118 282.47,-197 724.97,-197 724.97,-118 282.47,-118"/>
<text text-anchor="middle" x="503.72" y="-181.8" font-family="Times,serif" font-size="14.00">Library Resources</text>
</g>
<g id="clust2" class="cluster">
<title>cluster_datalake</title>
<polygon fill="none" stroke="black" stroke-dasharray="5,2" points="630.47,-31 630.47,-110 733.47,-110 733.47,-31 630.47,-31"/>
<text text-anchor="middle" x="681.97" y="-94.8" font-family="Times,serif" font-size="14.00">Data Lake(s)</text>
</g>
<!-- users -->
<g id="node1" class="node">
<title>users</title>
<ellipse fill="none" stroke="black" cx="33.23" cy="-101" rx="33.47" ry="33.47"/>
<text text-anchor="middle" x="33.23" y="-104.8" font-family="Times,serif" font-size="14.00">End</text>
<text text-anchor="middle" x="33.23" y="-89.8" font-family="Times,serif" font-size="14.00">Users</text>
</g>
<!-- bins -->
<g id="node2" class="node">
<title>bins</title>
<polygon fill="none" stroke="black" points="254.47,-201 102.47,-201 102.47,-87 254.47,-87 254.47,-201"/>
<polygon fill="none" stroke="black" points="109.47,-94 109.47,-194 153.47,-194 153.47,-94 109.47,-94"/>
<text text-anchor="start" x="114.47" y="-140.3" font-family="Times,serif" font-size="14.00">Bin(s)</text>
<polygon fill="none" stroke="black" points="153.47,-169 153.47,-194 247.47,-194 247.47,-169 153.47,-169"/>
<text text-anchor="start" x="158.47" y="-177.8" font-family="Times,serif" font-size="14.00">nmdb&#45;initialize</text>
<polygon fill="none" stroke="black" points="153.47,-144 153.47,-169 247.47,-169 247.47,-144 153.47,-144"/>
<text text-anchor="start" x="158.47" y="-152.8" font-family="Times,serif" font-size="14.00">nmdl&#45;insert</text>
<polygon fill="none" stroke="black" points="153.47,-119 153.47,-144 247.47,-144 247.47,-119 153.47,-119"/>
<text text-anchor="start" x="158.47" y="-127.8" font-family="Times,serif" font-size="14.00">nmdl&#45;remove</text>
<polygon fill="none" stroke="black" points="153.47,-94 153.47,-119 247.47,-119 247.47,-94 153.47,-94"/>
<text text-anchor="start" x="158.47" y="-102.8" font-family="Times,serif" font-size="14.00">nmdl&#45;list</text>
</g>
<!-- users&#45;&gt;bins -->
<g id="edge1" class="edge">
<title>users&#45;&gt;bins</title>
<path fill="none" stroke="black" d="M65.31,-110.33C73.58,-112.81 82.93,-115.62 92.6,-118.52"/>
<polygon fill="black" stroke="black" points="91.78,-121.93 102.37,-121.45 93.8,-115.23 91.78,-121.93"/>
</g>
<!-- git -->
<g id="node6" class="node">
<title>git</title>
<path fill="none" stroke="black" d="M725.47,-75.26C725.47,-77.26 705.97,-78.88 681.97,-78.88 657.97,-78.88 638.47,-77.26 638.47,-75.26 638.47,-75.26 638.47,-42.74 638.47,-42.74 638.47,-40.74 657.97,-39.12 681.97,-39.12 705.97,-39.12 725.47,-40.74 725.47,-42.74 725.47,-42.74 725.47,-75.26 725.47,-75.26"/>
<path fill="none" stroke="black" d="M725.47,-75.26C725.47,-73.27 705.97,-71.65 681.97,-71.65 657.97,-71.65 638.47,-73.27 638.47,-75.26"/>
<text text-anchor="middle" x="681.97" y="-55.3" font-family="Times,serif" font-size="14.00">git repository</text>
</g>
<!-- users&#45;&gt;git -->
<g id="edge2" class="edge">
<title>users&#45;&gt;git</title>
<path fill="none" stroke="black" d="M64.3,-88.75C76.01,-84.54 89.67,-80.31 102.47,-78 293.67,-43.41 526.07,-50.23 628.35,-55.64"/>
<polygon fill="black" stroke="black" points="619.91,-57.06 630.47,-56.19 621.67,-50.29 619.91,-57.06"/>
</g>
<!-- tools -->
<g id="node4" class="node">
<title>tools</title>
<polygon fill="none" stroke="black" points="424.47,-165 290.47,-165 290.47,-129 424.47,-129 424.47,-165"/>
<text text-anchor="middle" x="357.47" y="-143.3" font-family="Times,serif" font-size="14.00">AbstractDatalakeTool</text>
</g>
<!-- bins&#45;&gt;tools -->
<g id="edge3" class="edge">
<title>bins&#45;&gt;tools</title>
<path fill="none" stroke="black" d="M254.53,-145.27C262.97,-145.42 271.58,-145.56 280.04,-145.7"/>
<polygon fill="black" stroke="black" points="280.2,-149.21 290.26,-145.88 280.32,-142.21 280.2,-149.21"/>
</g>
<!-- handlers -->
<g id="node5" class="node">
<title>handlers</title>
<polygon fill="none" stroke="black" points="602.47,-165.5 460.47,-165.5 460.47,-126.5 602.47,-126.5 602.47,-165.5"/>
<polygon fill="none" stroke="black" points="467.47,-133 467.47,-158 567.47,-158 567.47,-133 467.47,-133"/>
<text text-anchor="start" x="472.47" y="-141.8" font-family="Times,serif" font-size="14.00">AbstractHandler</text>
<polygon fill="none" stroke="black" points="567.47,-133 567.47,-158 595.47,-158 595.47,-133 567.47,-133"/>
<text text-anchor="start" x="572.47" y="-141.8" font-family="Times,serif" font-size="14.00">Git</text>
</g>
<!-- bins&#45;&gt;handlers -->
<g id="edge4" class="edge">
<title>bins&#45;&gt;handlers</title>
<path fill="none" stroke="black" d="M254.5,-124.43C263.86,-122.6 273.35,-121.05 282.47,-120 345.17,-112.79 361.81,-112.43 424.47,-120 433.15,-121.05 442.14,-122.56 451.05,-124.34"/>
<polygon fill="black" stroke="black" points="450.55,-127.82 461.06,-126.45 452,-120.97 450.55,-127.82"/>
</g>
<!-- objects -->
<g id="node3" class="node">
<title>objects</title>
<polygon fill="none" stroke="black" points="716.97,-164 646.97,-164 646.97,-128 716.97,-128 716.97,-164"/>
<text text-anchor="middle" x="681.97" y="-142.3" font-family="Times,serif" font-size="14.00">DataEntry</text>
</g>
<!-- tools&#45;&gt;handlers -->
<g id="edge5" class="edge">
<title>tools&#45;&gt;handlers</title>
<path fill="none" stroke="black" d="M424.48,-146.62C432.92,-146.57 441.63,-146.52 450.27,-146.47"/>
<polygon fill="black" stroke="black" points="450.37,-149.97 460.35,-146.41 450.33,-142.97 450.37,-149.97"/>
</g>
<!-- handlers&#45;&gt;objects -->
<g id="edge6" class="edge">
<title>handlers&#45;&gt;objects</title>
<path fill="none" stroke="black" d="M602.8,-146C614.27,-146 625.87,-146 636.49,-146"/>
<polygon fill="black" stroke="black" points="636.74,-149.5 646.74,-146 636.74,-142.5 636.74,-149.5"/>
</g>
<!-- handlers&#45;&gt;git -->
<g id="edge7" class="edge">
<title>handlers:git&#45;&gt;git</title>
<path fill="none" stroke="black" d="M596.47,-145C600.64,-145 632.42,-111.62 655.78,-86.45"/>
<polygon fill="black" stroke="black" points="658.5,-88.66 662.72,-78.95 653.36,-83.91 658.5,-88.66"/>
</g>
</g>
</svg>
